<svg id="Layer_1" data-name="Layer 1" xmlns="http://www.w3.org/2000/svg" viewBox="0 0 561.24 570.46"><defs><style>.cls-1{fill:#fff;}</style></defs><title>ElMaestro-Logo</title><path class="cls-1" d="M176.15,559.3L175.09,575H122.41v-2.76a25.1,25.1,0,0,0,5.71-.85,3.82,3.82,0,0,0,2-1.42l0.49-2.19V554.19a37.4,37.4,0,0,0-4.86-4.78q0.57-.16,4.86-4.78V532.14a15.75,15.75,0,0,0-.41-2.11q-0.81-1.54-5-2.35-1.87-.32-2.76-0.41v-2.84h49.76v13h-3a16.7,16.7,0,0,0-3.16-5.11,5.4,5.4,0,0,0-3.24-1.54q-1.54-.16-3.24-0.41a58.64,58.64,0,0,0-6.73-.24h-8.1v17.1h5.75q4.7,0,7.21-2.27,2.19-2,3-6.48h3v21h-3a18.32,18.32,0,0,0-1.18-3.73,10,10,0,0,0-1.82-3.16q-2.27-2.19-7.21-2.19H144.7v11.4q0,4.4,1.78,5.62,1.54,1.14,7.38,1.14a43,43,0,0,0,9.81-.81,20.8,20.8,0,0,0,3.81-1,6.14,6.14,0,0,1,1.62-1.05,6.12,6.12,0,0,0,1.9-2,26.29,26.29,0,0,0,2.23-4.42h2.92Z" transform="translate(-115.66 -20.77)"/><path class="cls-1" d="M226.72,562.05l-0.81,13H184.49v-2.19q1.7-.16,4.54-0.65a2.84,2.84,0,0,0,2-2.92V558.32a29.19,29.19,0,0,0-3.89-3.81q0.49-.08,3.89-3.81v-10a2.93,2.93,0,0,0-2-2.92,19.72,19.72,0,0,0-4.54-1v-2.27h24.64v2.27a30.21,30.21,0,0,0-3.49.32q-2.35.49-2.84,1.38a3.85,3.85,0,0,0-.49,1.86V550.7a29,29,0,0,0,3.89,3.81,27.4,27.4,0,0,0-3.89,3.81v5.43q0,3.65,1.38,4.54t6.4,0.89a47.28,47.28,0,0,0,4.86-.24q3.16-.4,4.13-1.22a23.42,23.42,0,0,0,4-3.4,24,24,0,0,0,1.38-2.27h2.27Z" transform="translate(-115.66 -20.77)"/><path class="cls-1" d="M343.75,527.28q-6.4.32-7.38,2.27a5.39,5.39,0,0,0-.57,2.27v59.41h-3l-1.13-3.08a12.89,12.89,0,0,0-2.11-3.24q-3.24-3.73-5.19-4V530.6l-16.78,43.6h-7.38a46.53,46.53,0,0,0-1.78-4.7l-2.27-5.59L282.8,530v29.91q0,8,2.76,10.05a10.34,10.34,0,0,0,3.57,1.46q1.05,0.32,2.76.81V575H265.3v-2.76a22.49,22.49,0,0,1,2.43-.49q4.86-.81,5.75-4.7a30.45,30.45,0,0,0,.57-6.73v-25q0-4.46-2.51-6.16a8,8,0,0,0-3.24-1.46q-0.73-.16-2.59-0.41v-2.84h25.87l13.89,33.43,12.77-33.43h25.51v2.84Z" transform="translate(-115.66 -20.77)"/><path class="cls-1" d="M401.29,575H377.47v-2.19q6.4-.49,6.4-1.7a5.37,5.37,0,0,0-.32-1.3l-2.59-7.7H366.12a12.8,12.8,0,0,0-1.22,2.11,47.78,47.78,0,0,0-1.78,5.11,4.4,4.4,0,0,0-.16,1q0,0.89,1.54,1.54,0.08,0.41,2.51,1V575h-18.4v-2.19a11.13,11.13,0,0,0,4.46-1,8.61,8.61,0,0,0,3.65-4.05l2.92-6.32a29.22,29.22,0,0,0-3.89-3.81,35.53,35.53,0,0,0,3.89-1.78,13.36,13.36,0,0,0,3.49-2.11l1-2L372.28,534h6.32l9.73,21.72q3.56,8.19,6,13.21,1.62,3.57,7,3.89V575Zm-21.64-18-5.19-14.67L368.06,557h11.59Z" transform="translate(-115.66 -20.77)"/><path class="cls-1" d="M449.92,562.46L449,575H406.88v-2.19a18.79,18.79,0,0,0,4.62-.69A3.06,3.06,0,0,0,413,571l0.4-1.78V558.32a37.62,37.62,0,0,0-3.89-3.81q0.49-.08,3.89-3.81v-10a6.13,6.13,0,0,0-.32-1.7q-0.57-1.22-4-1.86-1.46-.24-2.27-0.32v-2.27h39.88v10.29h-2.43a12.81,12.81,0,0,0-2.51-4,4.48,4.48,0,0,0-2.59-1.22l-2.59-.36a45,45,0,0,0-5.35-.2h-6.56v13.62h4.62q3.81,0,5.67-1.7a9.13,9.13,0,0,0,2.51-5.27H440v16.7h-2.43a9.33,9.33,0,0,0-2.39-5.35q-1.82-1.78-5.8-1.78h-4.62v9.08q0,3.57,1.38,4.5t6,0.93a35,35,0,0,0,7.86-.65,23.3,23.3,0,0,0,3-.81,8.59,8.59,0,0,0,2.75-2.27,25,25,0,0,0,1.86-3.65h2.35Z" transform="translate(-115.66 -20.77)"/><path class="cls-1" d="M496.69,563.19a10.81,10.81,0,0,1-5,9.16q-5.27,3.73-13.62,3.73a29.88,29.88,0,0,1-13.7-3.08l-2.19,2h-2.67l-0.41-14.59h2.76q3.73,8.51,9.89,11.59a12.34,12.34,0,0,0,5.59,1.22,11.65,11.65,0,0,0,6.08-1.46,5.76,5.76,0,0,0,2.84-5.19q0-4.46-7.94-6.81-3.08-.81-9.08-2.76-9-3.16-9-11.35,0-5,4.58-8.59t12.36-3.57a27.14,27.14,0,0,1,12.16,2.76l1.86-1.7h2.75l0.32,13.78H491.5a27.73,27.73,0,0,0-4.94-8.35,11,11,0,0,0-8.35-3.65,9.13,9.13,0,0,0-5.19,1.46,5.24,5.24,0,0,0-2.51,4.54q0,4.38,7.7,6.73l4.78,1.38q4.21,1.3,6.16,2.11a13.68,13.68,0,0,1,5.19,3.73A10.25,10.25,0,0,1,496.69,563.19Z" transform="translate(-115.66 -20.77)"/><path class="cls-1" d="M547.58,546.17h-2.43a25.25,25.25,0,0,0-1.86-3.65,7.48,7.48,0,0,0-5.27-3.16,38.84,38.84,0,0,0-5.11-.32h-1.46V550.7q3.16,3.49,4.54,3.81-1.46.49-4.54,3.81V575H520.19v-16.7q-3.08-3.32-4.54-3.81,1.38-.4,4.54-3.81V539h-1.46a37.66,37.66,0,0,0-5.11.32,7.48,7.48,0,0,0-5.27,3.16,13.48,13.48,0,0,0-1.86,3.65h-2.43V534.58h43.52v11.59Z" transform="translate(-115.66 -20.77)"/><path class="cls-1" d="M612.58,585.88h-2.68a22.21,22.21,0,0,0-15-5.91L590.7,575q-8.1-10-15.71-18.24h-1.71V569.1a2.92,2.92,0,0,0,2,2.92,20.37,20.37,0,0,0,4.13.81V575h-24v-2.19q1.7-.16,4.54-0.65a2.84,2.84,0,0,0,2-2.92V558.32a37.7,37.7,0,0,0-3.89-3.81q0.48-.08,3.89-3.81v-10a2.84,2.84,0,0,0-2-2.92,21.16,21.16,0,0,0-4.54-1v-2.27h25.21q17.18,0,17.18,9.56,0,8-10.94,10.86Zm-27.15-40.93q0-4.05-2.51-5.92-1.38-1.05-7.13-1.05h-2.51V553.3h2.43q5.59,0,7.21-1.38Q585.43,549.73,585.43,544.95Z" transform="translate(-115.66 -20.77)"/><path class="cls-1" d="M676.29,549q-0.73.24-4.94,4.38a24.76,24.76,0,0,1-7.62,14.75,28.89,28.89,0,0,1-9.6,5.79A35,35,0,0,1,641.84,576a39.71,39.71,0,0,1-12.4-1.78q-11.35-3.73-16.21-13.45a59.13,59.13,0,0,1-2.19-7,37,37,0,0,0-4.86-4.3q0.65-.16,4.86-4.3a22.13,22.13,0,0,1,2.19-6.48q4.7-10.21,16.13-14.1a39.34,39.34,0,0,1,12.48-1.86,36.41,36.41,0,0,1,11.27,1.78,29.59,29.59,0,0,1,12.08,7.62,23,23,0,0,1,6.24,12.56A36.67,36.67,0,0,0,676.29,549Zm-20.42.57a50.89,50.89,0,0,0-.73-8.83q-1.46-8.83-6.81-12.56a11.19,11.19,0,0,0-6.48-1.95q-7.7,0-11.43,6.08t-3.73,17.26q0,10.29,3.32,16.29a12.21,12.21,0,0,0,11.83,6.65,11.36,11.36,0,0,0,6.16-1.78q5.35-3.32,7.05-12.16A46.83,46.83,0,0,0,655.86,549.57Zm-5,0-9,8.59-9.08-8.59,9.08-9.48Z" transform="translate(-115.66 -20.77)"/><path class="cls-1" d="M289.7,232.84a146.42,146.42,0,0,1,35.65-11.31c3.47-.93,6.95-1.86,10.41-2.82,19.51-5.42,39.3-7.62,59.57-7.95a363.87,363.87,0,0,1,60.15,4.15c6.25,0.94,12.6,2.05,18.93,3.41,13.24,1.52,26.52,3.54,39.58,6.33l-37.81-65.49a397.06,397.06,0,0,0-53.12,6.46c-21.43,5.37-42.46,12.52-63.15,20.07C354,187.86,348,190,342,192.11c-21.59,9.74-42.54,20.92-63.32,32.3l-8.84,15.31c6.31-2.34,12.71-4.44,19.08-6.35A2.78,2.78,0,0,1,289.7,232.84Z" transform="translate(-115.66 -20.77)"/><path class="cls-1" d="M338.86,304.53c-0.23-.47-0.44-0.93-0.65-1.4a54.74,54.74,0,0,1-5.92-9.37q-1.54-3.41-4.6-14.65a77.79,77.79,0,0,0-10.22-9q1.37-.34,10.22-9,0.68-5.45,4.6-13.63a54.45,54.45,0,0,1,9.17-14q-21.8,3.54-43.18,9.25c-12.64,3.38-24.91,7.83-37.19,12.23L256,263.79l-9.46,16.39c13.61,5.13,27.13,10.22,41.16,14.12A356.74,356.74,0,0,0,338.86,304.53Z" transform="translate(-115.66 -20.77)"/><path class="cls-1" d="M420.5,145.83A353.28,353.28,0,0,1,464,138L396.27,20.77,293.4,199c7.71-5.32,16.13-9.63,24.41-14A453.27,453.27,0,0,1,420.5,145.83Z" transform="translate(-115.66 -20.77)"/><path class="cls-1" d="M551.93,290.39q-15.43,8.39-31.61,15.29A351.18,351.18,0,0,1,432,329.78c0.48,2,.94,4,1.41,5.94a240.81,240.81,0,0,0,11.74,24.36c5.74,10,12.92,23.35,24.58,26.88a2.06,2.06,0,0,1,1.13.83,1.35,1.35,0,0,1,1.36,1.67c-4.79,13-13.35,24.26-21.69,35.62-3.2,7.06-7.17,13.82-10.73,20.86s-5.12,13.84-7.59,21a14.09,14.09,0,0,1-2.08,4.1,1.83,1.83,0,0,1-.78.86,5.49,5.49,0,0,1-4.43,1.51,1.32,1.32,0,0,1-1.12-2c0.08-.16.14-0.32,0.22-0.49a15.28,15.28,0,0,1-.79-5.41c-0.69-3.77-1.17-7.58-1.5-11.41a2.65,2.65,0,0,1-.36-1.29c0-1.45-.05-2.9,0-4.35-0.28-4.9-.43-9.82-0.61-14.7-0.45-11.81-.54-23.64-0.61-35.46q0-2.1,0-4.2c-5.37,14.36-13,27.56-21.79,40.08-8.65,12.3-17.79,24.7-28.84,35-21.13,19.64-50.08,28.17-78.13,32.14-27,3.81-57.68-1.92-71.23-28.42-11.76-23-4.5-51.28,9.51-71.64,6.76-9.83,15.4-18.87,26.38-23.91,5.39-2.48,11.19-4.28,17.19-4.12,4.81,0.13,10.37,2,15,3.29,11.47,3.09,20,10.48,25.79,20.79,5.85,10.47,10.3,23.13,8.68,35.25-2.68,20-20.59,36.53-41.29,31.21-9-2.31-17.07-8.35-20.66-17-4.13-10-1.31-21.85,4.06-30.85,5.24-8.79,15.06-12.12,24.15-6.58,9.85,6,11,18.52,8.54,28.73-1.05,4.44-7.83,2.55-6.82-1.88,1.35-5.93,1.63-13.25-2.62-18.19-3.85-4.47-10.59-6-15.06-1.64-7.59,7.35-10.12,22.48-4.19,31.29,5,7.5,14.92,11.48,23.78,10C302.32,456.06,310,448,313.35,439c3.53-9.54,1.85-19.23-1.78-28.48-3.73-9.52-9.36-19.16-18.86-23.81-9-4.41-16.89-1.33-25.83,1.52a42.16,42.16,0,0,0-20.45,15c-10,13.55-15.52,34.43-11.47,51,4.19,17.14,21.58,23.65,37.81,23.54,10.92-.07,21.53-2.83,32-5.78,9.48-2.68,19.34-5.24,28.21-9.61,17-8.38,29-23.39,39.89-38.51C384.29,408,394.9,390.75,399,371.33c2.8-13.21,1.6-25.72-.94-38.35a374.52,374.52,0,0,1-45.56-.55,366,366,0,0,1-81.46-15.24c-12.75-4-25.63-8.41-37.64-14.34l-117.76,204H676.89Z" transform="translate(-115.66 -20.77)"/><path class="cls-1" d="M441.47,233.61A48.29,48.29,0,0,1,454.59,260a77.1,77.1,0,0,0,10.22,9q-1.53.51-10.39,9.2A54.89,54.89,0,0,1,448.09,297a55.55,55.55,0,0,1-3,5.76c25.48-4,50.55-10.53,75.16-18.16,8-2.47,15.92-5.06,23.79-7.85l-7.48-13-11.27-19.53A431.5,431.5,0,0,0,436.53,229,60.8,60.8,0,0,1,441.47,233.61Z" transform="translate(-115.66 -20.77)"/><polygon class="cls-1" points="259.42 248.73 277.49 265.82 295.39 248.72 277.48 229.85 259.42 248.73"/></svg>