<svg id="Layer_1" data-name="Layer 1" xmlns="http://www.w3.org/2000/svg" viewBox="0 0 755.8 99.52"><defs><style>.cls-1{fill:#fff;}</style></defs><title>smaller-ElMaestro_logo</title><path class="cls-1" d="M76.43,314.45l-1.16,17.28H17.36v-3a27.66,27.66,0,0,0,6.28-.94,4.21,4.21,0,0,0,2.18-1.56l0.53-2.41v-15A41.07,41.07,0,0,0,21,303.58q0.62-.18,5.35-5.26V284.61a17.32,17.32,0,0,0-.45-2.32q-0.89-1.69-5.52-2.58-2.05-.36-3-0.45v-3.12h54.7V290.4h-3.3a18.36,18.36,0,0,0-3.47-5.61,5.94,5.94,0,0,0-3.56-1.69q-1.69-.18-3.56-0.44a64.26,64.26,0,0,0-7.39-.27H41.86v18.8h6.32q5.17,0,7.93-2.49,2.41-2.23,3.3-7.13h3.3v23.07h-3.3a20.13,20.13,0,0,0-1.29-4.1,11.05,11.05,0,0,0-2-3.47q-2.49-2.41-7.93-2.41H41.86v12.53q0,4.83,2,6.18,1.69,1.25,8.11,1.25a47.28,47.28,0,0,0,10.78-.89,22.77,22.77,0,0,0,4.19-1.07,6.76,6.76,0,0,1,1.78-1.16,6.72,6.72,0,0,0,2.09-2.18,28.9,28.9,0,0,0,2.45-4.85h3.21Z" transform="translate(-17.36 -250.03)"/><path class="cls-1" d="M152.24,313.91L151,331.73H94.15v-3q2.32-.18,6.24-0.89a3.88,3.88,0,0,0,2.76-4V308.75a37.53,37.53,0,0,0-5.35-5.17q0.62-.18,5.35-5.26V284.61a4.07,4.07,0,0,0-2.76-4,32.25,32.25,0,0,0-6.24-1.34v-3.12H128v3.12q-3.83.27-4.81,0.45-3.3.62-4,2a5.51,5.51,0,0,0-.53,2.5v14.08a40.87,40.87,0,0,0,5.34,5.26q-0.71.27-5.34,5.26v7.48q0,5,1.87,6.19t8.73,1.2a62.86,62.86,0,0,0,6.77-.36q4.36-.53,5.66-1.56t2.63-2a10.11,10.11,0,0,0,2.76-2.76,18.4,18.4,0,0,0,2-3.12h3.21Z" transform="translate(-17.36 -250.03)"/><path class="cls-1" d="M294.86,279.26q-7,.36-8.11,2.49a5.93,5.93,0,0,0-.62,2.5v65.3h-3.3l-1.25-3.38a14.16,14.16,0,0,0-2.32-3.56q-3.56-4.1-5.7-4.37V282.91l-18.44,47.93H247a51.15,51.15,0,0,0-2-5.17l-2.49-6.15-14.7-37.24v32.87q0,8.82,3,11a11.37,11.37,0,0,0,3.92,1.6q1.16,0.36,3,.89v3H208.63v-3a24.57,24.57,0,0,1,2.67-.53q5.34-.89,6.32-5.17a33.47,33.47,0,0,0,.62-7.39V288.08q0-4.9-2.76-6.77a8.74,8.74,0,0,0-3.56-1.6q-0.8-.18-2.85-0.45v-3.12h28.44l15.27,36.74,14-36.74h28v3.12Z" transform="translate(-17.36 -250.03)"/><path class="cls-1" d="M456,314.45l-1.16,17.28H397v-3a27.69,27.69,0,0,0,6.28-.94,4.21,4.21,0,0,0,2.18-1.56L406,323.8v-15a41,41,0,0,0-5.34-5.26q0.62-.18,5.34-5.26V284.61a17.28,17.28,0,0,0-.44-2.32q-0.89-1.69-5.52-2.58-2.05-.36-3-0.45v-3.12h54.7V290.4h-3.3a18.34,18.34,0,0,0-3.48-5.61,5.94,5.94,0,0,0-3.56-1.69q-1.69-.18-3.56-0.44a64.26,64.26,0,0,0-7.39-.27h-8.91v18.8h6.33q5.17,0,7.93-2.49,2.41-2.23,3.3-7.13h3.3v23.07H439a20.05,20.05,0,0,0-1.29-4.1,11,11,0,0,0-2-3.47q-2.49-2.41-7.93-2.41h-6.33v12.53q0,4.83,2,6.18,1.69,1.25,8.11,1.25a47.27,47.27,0,0,0,10.78-.89,22.79,22.79,0,0,0,4.19-1.07,6.76,6.76,0,0,1,1.78-1.16,6.73,6.73,0,0,0,2.09-2.18,28.9,28.9,0,0,0,2.45-4.85H456Z" transform="translate(-17.36 -250.03)"/><path class="cls-1" d="M499.67,333.07a40.39,40.39,0,0,1-18.8-4.28l-3,2.76h-3.65l-0.62-20h3.74a37.34,37.34,0,0,0,7.75,11.67,40.69,40.69,0,0,0,6,3.39,16.55,16.55,0,0,0,7.66,1.69q5.88,0,9-2.63t3.16-5.66q0-6.15-11-9.27-4.19-1.25-12.47-3.83-12.29-4.36-12.29-15.68,0-6.77,6.28-11.72t17-4.94a36.39,36.39,0,0,1,16.66,3.83l2.67-2.32h3.74l0.36,18.89h-3.74q-3.39-7.84-6.77-11.49a15,15,0,0,0-11.4-5,12.57,12.57,0,0,0-7.22,2,7.16,7.16,0,0,0-3.48,6.24q0,6,10.69,9.18l6.5,2q3.47,1,6,1.87,12.92,4.46,12.92,15.59,0,7.75-6.95,12.56Q511.16,333.07,499.67,333.07Z" transform="translate(-17.36 -250.03)"/><path class="cls-1" d="M601.49,292.09h-3.39q-0.45-1.16-.89-2.41a18.68,18.68,0,0,0-1.6-2.58,10.38,10.38,0,0,0-7.31-4.37,65.23,65.23,0,0,0-6.95-.36h-2v15.95a29.13,29.13,0,0,0,3.52,2.94,16.44,16.44,0,0,0,3.61,2.32,16.44,16.44,0,0,0-3.61,2.32,29.36,29.36,0,0,0-3.52,2.94v22.89h-15.5V308.84a28.37,28.37,0,0,0-3.39-2.85,17.65,17.65,0,0,0-3.74-2.4,17.68,17.68,0,0,0,3.74-2.41,28.16,28.16,0,0,0,3.39-2.85V282.38h-2a65.2,65.2,0,0,0-6.95.36,10.08,10.08,0,0,0-7.22,4.37,19.36,19.36,0,0,0-2.58,5h-3.39V276.14h59.87v15.95Z" transform="translate(-17.36 -250.03)"/><path class="cls-1" d="M696.1,346.7h-3.65a30.07,30.07,0,0,0-20.57-8.21L666,331.73q-11.15-13.71-21.59-25l-2.3,0v16.84a4,4,0,0,0,2.76,4,20.76,20.76,0,0,0,5.61,1.16v3H617.62v-3q2.31-.18,6.24-0.89a4,4,0,0,0,2.76-4v-15a41,41,0,0,0-5.34-5.26q0.62-.18,5.34-5.26V284.61a4,4,0,0,0-2.76-4,37.14,37.14,0,0,0-6.24-1.34v-3.12h34.56q23.7,0,23.7,13.19,0,11-15.06,15Zm-37.24-56.3q0-5.52-3.48-8.11-2.32-1.69-9.89-1.69h-3.39v21.47h3.3q7.39,0,9.89-2Q658.86,297,658.86,290.4Z" transform="translate(-17.36 -250.03)"/><path class="cls-1" d="M773.16,303.14q-0.8.27-5.43,4.81a27.21,27.21,0,0,1-8.37,16.21,31.76,31.76,0,0,1-10.56,6.37,38.4,38.4,0,0,1-13.5,2.27,43.65,43.65,0,0,1-13.63-2q-12.47-4.1-17.82-14.79a65,65,0,0,1-2.41-7.66,40.73,40.73,0,0,0-5.35-4.72q0.71-.18,5.35-4.72a24.32,24.32,0,0,1,2.41-7.13q5.17-11.23,17.73-15.5a43.24,43.24,0,0,1,13.72-2,40,40,0,0,1,12.38,2A32.53,32.53,0,0,1,761,284.61a25.25,25.25,0,0,1,6.86,13.81A40.22,40.22,0,0,0,773.16,303.14Zm-22.45.62a55.93,55.93,0,0,0-.8-9.71q-1.6-9.71-7.48-13.81a12.3,12.3,0,0,0-7.13-2.14q-8.47,0-12.56,6.68t-4.1,19q0,11.32,3.65,17.91a13.42,13.42,0,0,0,13,7.31,12.48,12.48,0,0,0,6.77-2q5.88-3.65,7.75-13.36A51.49,51.49,0,0,0,750.71,303.76Zm-5.52,0-9.89,9.44-10-9.44,10-10.42Z" transform="translate(-17.36 -250.03)"/><path class="cls-1" d="M322.71,285a24.14,24.14,0,0,1,5.88-1.86l1.72-.47a38.7,38.7,0,0,1,9.82-1.31A60,60,0,0,1,350,282c1,0.16,2.08.34,3.12,0.56,2.18,0.25,4.37.58,6.53,1l-6.23-10.8a65.47,65.47,0,0,0-8.76,1.06,104.48,104.48,0,0,0-10.41,3.31l-2.95,1.06c-3.56,1.61-7,3.45-10.44,5.33l-1.46,2.52c1-.39,2.1-0.73,3.15-1A0.46,0.46,0,0,1,322.71,285Z" transform="translate(-17.36 -250.03)"/><path class="cls-1" d="M330.81,296.81l-0.11-.23a9,9,0,0,1-1-1.54,20.48,20.48,0,0,1-.76-2.42,12.83,12.83,0,0,0-1.69-1.49,9.87,9.87,0,0,0,1.68-1.49,7.67,7.67,0,0,1,.76-2.25,9,9,0,0,1,1.51-2.3q-3.59.58-7.12,1.53c-2.08.56-4.11,1.29-6.13,2l-0.84,1.46-1.56,2.7c2.24,0.85,4.47,1.68,6.79,2.33A58.81,58.81,0,0,0,330.81,296.81Z" transform="translate(-17.36 -250.03)"/><path class="cls-1" d="M344.27,270.64a58.25,58.25,0,0,1,7.17-1.28L340.28,250l-17,29.38a38.19,38.19,0,0,1,4-2.3A74.73,74.73,0,0,1,344.27,270.64Z" transform="translate(-17.36 -250.03)"/><path class="cls-1" d="M365.94,294.48q-2.54,1.38-5.21,2.52a57.9,57.9,0,0,1-14.56,4l0.23,1a39.7,39.7,0,0,0,1.94,4c0.95,1.64,2.13,3.85,4.05,4.43a0.34,0.34,0,0,1,.19.14,0.22,0.22,0,0,1,.22.28,24.68,24.68,0,0,1-3.58,5.87c-0.53,1.16-1.18,2.28-1.77,3.44a25.89,25.89,0,0,0-1.25,3.47,2.32,2.32,0,0,1-.34.68,0.3,0.3,0,0,1-.13.14,0.91,0.91,0,0,1-.73.25,0.22,0.22,0,0,1-.19-0.32l0-.08a2.52,2.52,0,0,1-.13-0.89c-0.11-.62-0.19-1.25-0.25-1.88a0.44,0.44,0,0,1-.06-0.21c0-.24,0-0.48,0-0.72,0-.81-0.07-1.62-0.1-2.42-0.07-1.95-.09-3.9-0.1-5.85q0-.35,0-0.69a29.42,29.42,0,0,1-3.59,6.61,36,36,0,0,1-4.76,5.77c-3.48,3.24-8.26,4.64-12.88,5.3-4.44.63-9.51-.32-11.74-4.69-1.94-3.79-.74-8.45,1.57-11.81a11.12,11.12,0,0,1,4.35-3.94,6.44,6.44,0,0,1,2.83-.68,11.47,11.47,0,0,1,2.48.54,6.84,6.84,0,0,1,4.25,3.43,9.7,9.7,0,0,1,1.43,5.81c-0.44,3.3-3.39,6-6.81,5.15a5,5,0,0,1-3.41-2.81,5.87,5.87,0,0,1,.67-5.09,2.78,2.78,0,0,1,4-1.09c1.62,1,1.81,3.05,1.41,4.74a0.58,0.58,0,0,1-1.12-.31,3.44,3.44,0,0,0-.43-3,1.7,1.7,0,0,0-2.48-.27,4.45,4.45,0,0,0-.69,5.16,4.06,4.06,0,0,0,3.92,1.65A4.68,4.68,0,0,0,326.6,319a6.48,6.48,0,0,0-.29-4.7,7,7,0,0,0-3.11-3.93c-1.48-.73-2.78-0.22-4.26.25a7,7,0,0,0-3.37,2.47,10.87,10.87,0,0,0-1.89,8.41c0.69,2.83,3.56,3.9,6.23,3.88a20,20,0,0,0,5.27-1,27.17,27.17,0,0,0,4.65-1.58c2.8-1.38,4.79-3.86,6.58-6.35a23.6,23.6,0,0,0,4.31-8.67,15.3,15.3,0,0,0-.15-6.32,61.75,61.75,0,0,1-7.51-.09,60.35,60.35,0,0,1-13.43-2.51,42.32,42.32,0,0,1-6.21-2.36L294,330.16h92.53Z" transform="translate(-17.36 -250.03)"/><path class="cls-1" d="M347.73,285.12a8,8,0,0,1,2.16,4.35,12.71,12.71,0,0,0,1.69,1.49,10.63,10.63,0,0,0-1.71,1.52,9,9,0,0,1-1,3.09,9.15,9.15,0,0,1-.49,1,88.12,88.12,0,0,0,12.39-3c1.31-.41,2.62-0.83,3.92-1.3l-1.23-2.14-1.86-3.22a71.14,71.14,0,0,0-14.64-2.52A10,10,0,0,1,347.73,285.12Z" transform="translate(-17.36 -250.03)"/><polygon class="cls-1" points="319.42 41.01 322.4 43.83 325.35 41.01 322.4 37.9 319.42 41.01"/></svg>