<?xml version="1.0" encoding="utf-8"?>
<!-- Generator: Adobe Illustrator 19.2.1, SVG Export Plug-In . SVG Version: 6.00 Build 0)  -->
<svg version="1.1" id="Layer_1" xmlns="http://www.w3.org/2000/svg" xmlns:xlink="http://www.w3.org/1999/xlink" x="0px" y="0px"
	 viewBox="0 0 792 116" style="enable-background:new 0 0 792 116;" xml:space="preserve">
<style type="text/css">
	.st0{fill:none;}
</style>
<g>
	<path class="st0" d="M742,35.9c-2.1-1.4-4.4-2.1-7.1-2.1c-5.6,0-9.7,2.2-12.4,6.6s-4.1,10.7-4.1,18.8c0,7.5,1.2,13.4,3.6,17.7
		c1.3,2.3,2.9,4.1,4.9,5.3c2,1.3,4.6,1.9,7.9,1.9c2.4,0,4.6-0.6,6.7-1.9c3.9-2.4,6.4-6.8,7.7-13.2c0.6-3,0.9-6.3,0.9-9.8
		c0-3.4-0.3-6.6-0.8-9.6C748.3,43.2,745.8,38.6,742,35.9z M734.9,68.6l-9.9-9.4l9.9-10.3l9.8,10.3L734.9,68.6z"/>
	<path class="st0" d="M655.7,37.9c-1.5-1.1-4.8-1.7-9.8-1.7h-3.4v21.3h3.3c4.9,0,8.1-0.7,9.8-2c2.4-2,3.5-5.2,3.5-9.5
		C659.2,42.3,658,39.6,655.7,37.9z"/>
	<path d="M76.5,74.6c-0.7,1.1-1.4,1.8-2.1,2.2c-1,0.5-1.6,0.9-1.8,1.1c-1.5,0.5-2.9,0.9-4.1,1.1c-2.3,0.6-5.9,0.9-10.7,0.9
		c-4.2,0-6.9-0.4-8-1.2c-1.3-0.9-1.9-2.9-1.9-6.1V60.2h6.3c3.6,0,6.2,0.8,7.9,2.4c0.6,0.6,1.3,1.8,2,3.4c0.7,1.6,1.1,3,1.3,4.1h3.3
		V47.2h-3.3c-0.6,3.2-1.7,5.6-3.3,7.1c-1.8,1.6-4.4,2.5-7.9,2.5h-6.3V38h8.8c3.6,0,6.1,0.1,7.3,0.3c1.2,0.2,2.4,0.3,3.5,0.4
		c1.5,0.2,2.7,0.8,3.5,1.7c1.4,1.5,2.6,3.4,3.4,5.6h3.3V31.9H23.6V35c0.6,0.1,1.6,0.2,3,0.4c3.1,0.6,4.9,1.4,5.5,2.6
		c0.2,0.9,0.4,1.7,0.4,2.3v13.6c-3.1,3.4-4.9,5.1-5.3,5.2c2.2,1.9,4,3.6,5.3,5.2v14.8L32,81.5c-0.4,0.6-1.1,1.2-2.2,1.5
		c-1,0.4-3.1,0.7-6.2,0.9v3H81l1.1-17.1h-3.2C78,71.9,77.2,73.5,76.5,74.6z"/>
	<path d="M152.1,72.4c-0.6,0.9-1.5,1.9-2.7,2.7c-0.9,0.6-1.8,1.3-2.6,2c-0.9,0.7-2.7,1.2-5.6,1.5c-2.2,0.2-4.4,0.4-6.7,0.4
		c-4.5,0-7.4-0.4-8.7-1.2c-1.2-0.8-1.9-2.8-1.9-6.1v-7.4c3.1-3.3,4.8-5,5.3-5.2c-2.2-1.9-4-3.6-5.3-5.2V40c0-0.9,0.2-1.8,0.5-2.5
		c0.5-0.9,1.8-1.6,4-2c0.6-0.1,2.2-0.3,4.8-0.4V32H99.7v3.1c2.9,0.4,4.9,0.9,6.2,1.3c1.8,0.8,2.7,2.1,2.7,4V54
		c-3.1,3.4-4.9,5.1-5.3,5.2c2.2,1.8,4,3.5,5.3,5.1v14.9c0,2-0.9,3.3-2.7,4c-2.6,0.5-4.6,0.8-6.2,0.9v3H156l1.2-17.7H154
		C153.1,71,152.5,72,152.1,72.4z"/>
	<path d="M256.8,68.3l-15.1-36.4h-28.2V35c1.4,0.2,2.3,0.3,2.8,0.4c1.2,0.2,2.4,0.8,3.5,1.6c1.8,1.2,2.7,3.5,2.7,6.7V71
		c0,3.2-0.2,5.6-0.6,7.3c-0.6,2.8-2.7,4.5-6.3,5.1c-1.4,0.2-2.3,0.4-2.6,0.5v3h29v-3c-1.2-0.4-2.2-0.6-3-0.9c-1.8-0.5-3.1-1-3.9-1.6
		c-2-1.5-3-5.1-3-10.9V37.9l14.6,36.9l2.5,6.1c1.1,2.5,1.7,4.2,1.9,5.1h8l18.3-47.5v54.8c1.4,0.2,3.3,1.6,5.6,4.3
		c0.9,1.1,1.7,2.2,2.3,3.5c0.4,1.1,0.8,2.2,1.2,3.4h3.3V39.8c0-0.8,0.2-1.6,0.6-2.5c0.7-1.4,3.4-2.2,8-2.5v-3.1h-27.8L256.8,68.3z"
		/>
	<path d="M452.6,74.6c-0.7,1.1-1.4,1.8-2.1,2.2c-1,0.5-1.6,0.9-1.8,1.1c-1.5,0.5-2.9,0.9-4.1,1.1c-2.3,0.6-5.9,0.9-10.7,0.9
		c-4.2,0-6.9-0.4-8-1.2c-1.3-0.9-1.9-2.9-1.9-6.1V60.2h6.3c3.6,0,6.2,0.8,7.9,2.4c0.6,0.6,1.3,1.8,2,3.4s1.1,3,1.3,4.1h3.3V47.2
		h-3.3c-0.6,3.2-1.7,5.6-3.3,7.1c-1.8,1.6-4.4,2.5-7.9,2.5H424V38h8.8c3.6,0,6.1,0.1,7.3,0.3c1.2,0.2,2.4,0.3,3.5,0.4
		c1.5,0.2,2.7,0.8,3.5,1.7c1.4,1.5,2.6,3.4,3.4,5.6h3.3V31.9h-54.2V35c0.6,0.1,1.6,0.2,3,0.4c3.1,0.6,4.9,1.4,5.5,2.6
		c0.2,0.9,0.4,1.7,0.4,2.3v13.6c-3.1,3.4-4.9,5.1-5.3,5.2c2.2,1.9,4,3.6,5.3,5.2v14.8l-0.5,2.4c-0.4,0.6-1.1,1.2-2.2,1.5
		c-1,0.4-3.1,0.7-6.2,0.9v3H457l1.1-17.1H455C454.1,71.9,453.3,73.5,452.6,74.6z"/>
	<path d="M514.1,55.2c-1.6-0.6-3.6-1.2-5.9-1.9l-6.4-1.9c-7.1-2.1-10.6-5.1-10.6-9.1c0-2.6,1.1-4.6,3.4-6.2c2-1.4,4.4-2,7.1-2
		c4.5,0,8.2,1.6,11.3,4.9c2.2,2.4,4.5,6.2,6.7,11.4h3.7L523,31.7h-3.7l-2.6,2.3c-5-2.5-10.5-3.8-16.5-3.8c-7.1,0-12.7,1.6-16.8,4.9
		c-4.1,3.3-6.2,7.1-6.2,11.6c0,7.5,4.1,12.7,12.2,15.5c5.5,1.7,9.6,3,12.4,3.8c7.2,2.1,10.9,5.1,10.9,9.2c0,2-1,3.9-3.1,5.6
		s-5.1,2.6-9,2.6c-2.9,0-5.4-0.6-7.6-1.7c-3.4-1.7-5.3-2.8-5.9-3.4c-3-2.9-5.6-6.8-7.7-11.6h-3.7l0.6,19.9h3.6l3-2.7
		c5.5,2.8,11.7,4.2,18.6,4.2c7.6,0,13.8-1.7,18.5-5.1c4.6-3.2,6.9-7.3,6.9-12.4C526.9,63.3,522.6,58.2,514.1,55.2z"/>
	<path d="M543,47.6h3.4c0.8-2.1,1.6-3.7,2.6-4.9c1.8-2.5,4.2-4,7.1-4.3c2.2-0.2,4.5-0.4,6.9-0.4h2v15.8c-0.5,0.6-1.6,1.5-3.4,2.8
		c-1.9,1.4-3.1,2.2-3.7,2.4c0.6,0.2,1.8,1,3.7,2.4c1.7,1.3,2.8,2.2,3.4,2.8v22.7h15.4V64.2c0.5-0.6,1.7-1.6,3.5-2.9
		c1.8-1.4,3-2.1,3.6-2.3c-0.6-0.2-1.8-0.9-3.6-2.3s-3-2.3-3.5-2.9V38h2c2.4,0,4.7,0.1,6.9,0.4c2.9,0.4,5.4,1.8,7.2,4.3
		c0.8,1.2,1.4,2,1.6,2.6c0.3,0.8,0.6,1.6,0.9,2.4h3.4V31.9H543V47.6z"/>
	<path d="M676,44.9c0-8.7-7.8-13.1-23.5-13.1h-34.2v3.1c2.8,0.4,4.8,0.9,6.2,1.3c1.8,0.7,2.7,2,2.7,4v13.6c-3.1,3.4-4.9,5.1-5.3,5.2
		c2.2,1.9,4,3.6,5.3,5.2V79c0,1.9-0.9,3.3-2.7,4c-2.6,0.5-4.6,0.8-6.2,0.9v3h32.6v-3c-2.4-0.2-4.3-0.6-5.6-1.1c-1.8-0.7-2.7-2-2.7-4
		V62.1h2.3c6.9,7.5,14,15.7,21.4,24.8l5.8,6.7c7.8,0.1,14.6,2.8,20.4,8.1h3.6l-35-42C671.1,57.1,676,52.1,676,44.9z M655.6,55.5
		c-1.6,1.4-4.9,2-9.8,2h-3.3V36.2h3.4c5,0,8.3,0.6,9.8,1.7c2.3,1.7,3.4,4.4,3.4,8C659.2,50.3,658,53.5,655.6,55.5z"/>
	<polygon points="725,59.2 734.9,68.6 744.7,59.2 734.9,48.9 	"/>
	<path d="M767.1,53.9c-0.8-5.1-3-9.7-6.8-13.7c-3.6-3.8-8-6.5-13.2-8.3c-4-1.3-8.1-1.9-12.3-1.9c-5,0-9.5,0.7-13.6,2
		c-8.3,2.8-14.2,7.9-17.6,15.4c-1.4,2.8-2.1,5.2-2.4,7.1c-3.1,3-4.8,4.6-5.3,4.7c2.2,1.6,3.9,3.2,5.3,4.7c1.1,3.9,1.9,6.4,2.4,7.6
		c3.5,7.1,9.4,11.9,17.7,14.7c3.9,1.3,8.4,1.9,13.5,1.9c4.9,0,9.3-0.7,13.4-2.3c4-1.5,7.5-3.6,10.5-6.3c4.5-4.2,7.3-9.6,8.3-16.1
		c3.1-3,4.9-4.6,5.4-4.8C770.2,56.9,768.5,55.4,767.1,53.9z M749.3,69c-1.2,6.4-3.8,10.8-7.7,13.2c-2.1,1.3-4.3,1.9-6.7,1.9
		c-3.3,0-5.9-0.6-7.9-1.9s-3.6-3-4.9-5.3c-2.4-4.4-3.6-10.3-3.6-17.7c0-8.1,1.4-14.4,4.1-18.8c2.7-4.4,6.9-6.6,12.4-6.6
		c2.6,0,5,0.7,7.1,2.1c3.9,2.7,6.4,7.3,7.4,13.7c0.5,3,0.8,6.2,0.8,9.6C750.2,62.7,749.9,66,749.3,69z"/>
	<path d="M327.2,42c1.8-0.9,3.7-1.4,5.7-1.8c0.6-0.1,1.1-0.3,1.7-0.4c3.1-0.9,6.3-1.2,9.5-1.3c3.2-0.1,6.4,0.2,9.6,0.7
		c1,0.2,2,0.3,3,0.5c2.1,0.2,4.2,0.6,6.3,1l-6-10.4c-2.8,0.2-5.7,0.5-8.5,1c-3.4,0.9-6.8,2-10.1,3.2c-0.9,0.3-1.9,0.7-2.8,1
		c-3.4,1.6-6.8,3.3-10.1,5.1l-1.4,2.4C325.1,42.6,326.1,42.3,327.2,42C327.1,42,327.1,42,327.2,42z"/>
	<path d="M335,53.4c0-0.1-0.1-0.1-0.1-0.2c-0.4-0.5-0.7-1-0.9-1.5c-0.2-0.4-0.4-1.1-0.7-2.3c-0.4-0.5-1-0.9-1.6-1.4
		c0.1,0,0.7-0.5,1.6-1.4c0.1-0.6,0.3-1.3,0.7-2.2c0.4-0.8,0.9-1.6,1.5-2.2c-2.3,0.4-4.6,0.9-6.9,1.5c-2,0.5-4,1.2-5.9,1.9l-0.8,1.4
		l-1.5,2.6c2.2,0.8,4.3,1.6,6.6,2.2C329.5,52.5,332.2,53,335,53.4z"/>
	<path d="M348,28.1c2.3-0.6,4.6-1,6.9-1.2L344.1,8.2l-16.4,28.4c1.2-0.8,2.6-1.5,3.9-2.2C336.8,31.6,342.3,29.5,348,28.1z"/>
	<path d="M363.9,53.6c-4.4,1.9-9.2,3.2-14.1,3.8c0.1,0.3,0.1,0.6,0.2,0.9c0.6,1.3,1.1,2.6,1.9,3.9c0.9,1.6,2.1,3.7,3.9,4.3
		c0.1,0,0.1,0.1,0.2,0.1s0.3,0.1,0.2,0.3c-0.8,2.1-2.1,3.9-3.5,5.7c-0.5,1.1-1.1,2.2-1.7,3.3c-0.6,1.1-0.8,2.2-1.2,3.4
		c-0.1,0.2-0.2,0.5-0.3,0.7c0,0.1-0.1,0.1-0.1,0.1c-0.2,0.2-0.4,0.3-0.7,0.2c-0.2,0-0.2-0.2-0.2-0.3v-0.1c-0.1-0.3-0.1-0.6-0.1-0.9
		c-0.1-0.6-0.2-1.2-0.2-1.8c0-0.1-0.1-0.1-0.1-0.2c0-0.2,0-0.5,0-0.7c0-0.8-0.1-1.6-0.1-2.3c-0.1-1.9-0.1-3.8-0.1-5.6
		c0-0.2,0-0.4,0-0.7c-0.9,2.3-2.1,4.4-3.5,6.4s-2.8,3.9-4.6,5.6c-3.4,3.1-8,4.5-12.4,5.1c-4.3,0.6-9.2-0.3-11.3-4.5
		c-1.9-3.7-0.7-8.2,1.5-11.4c1.1-1.6,2.5-3,4.2-3.8c0.9-0.4,1.8-0.7,2.7-0.7c0.8,0,1.7,0.3,2.4,0.5c1.8,0.5,3.2,1.7,4.1,3.3
		c0.9,1.7,1.6,3.7,1.4,5.6c-0.4,3.2-3.3,5.8-6.6,5c-1.4-0.4-2.7-1.3-3.3-2.7c-0.7-1.6-0.2-3.5,0.6-4.9c0.8-1.4,2.4-1.9,3.8-1
		c1.6,1,1.7,3,1.4,4.6c-0.2,0.7-1.2,0.4-1.1-0.3c0.2-0.9,0.3-2.1-0.4-2.9c-0.6-0.7-1.7-1-2.4-0.3c-1.2,1.2-1.6,3.6-0.7,5
		c0.8,1.2,2.4,1.8,3.8,1.6c1.6-0.3,2.8-1.5,3.3-3c0.6-1.5,0.3-3.1-0.3-4.5c-0.6-1.5-1.5-3.1-3-3.8c-1.4-0.7-2.7-0.2-4.1,0.2
		c-1.3,0.4-2.5,1.3-3.3,2.4c-1.6,2.2-2.5,5.5-1.8,8.1c0.7,2.7,3.4,3.8,6,3.8c1.7,0,3.4-0.5,5.1-0.9c1.5-0.4,3.1-0.8,4.5-1.5
		c2.7-1.3,4.6-3.7,6.4-6.1c1.8-2.5,3.5-5.3,4.2-8.4c0.4-2.1,0.3-4.1-0.1-6.1c-2.4,0.1-4.9,0.1-7.3-0.1c-4.4-0.3-8.8-1.1-13-2.4
		c-2-0.6-4.1-1.3-6-2.3l-18.8,32.5H344h44.7l-19.9-34.5C367.3,52,365.6,52.8,363.9,53.6z"/>
	<path d="M351.3,42.1c1.2,1.2,1.9,2.6,2.1,4.2c0.4,0.5,1,0.9,1.6,1.4c-0.2,0.1-0.7,0.5-1.7,1.5c-0.2,1.1-0.5,2.1-1,3
		c-0.1,0.3-0.3,0.6-0.5,0.9c4.1-0.6,8.1-1.7,12-2.9c1.3-0.4,2.5-0.8,3.8-1.3l-1.2-2.1l-1.8-3.1c-4.6-1.3-9.4-2.1-14.1-2.4
		C350.8,41.6,351.1,41.8,351.3,42.1z"/>
	<polygon points="340.8,47.8 343.6,50.5 346.5,47.8 343.6,44.8 	"/>
</g>
</svg>
