<svg id="Layer_1" data-name="Layer 1" xmlns="http://www.w3.org/2000/svg" viewBox="0 0 330.49 43.07"><defs><style>.cls-1{fill:#6b858e;}</style></defs><title>TheStar-title</title><path class="cls-1" d="M233.2,324.46l0-.29c0.22-1.65-1-3.6-2.95-2.95l-0.75.25a2.51,2.51,0,0,0-1.77,1.77l-0.12.79a2.61,2.61,0,0,0,1.78,3.14,3.09,3.09,0,0,0,3.49-.93,2,2,0,0,0-.86-3.27c4.8,0.91,10.21-.67,15.12-0.49s10.38,1.53,15.31.8l-2.12-1.62c-0.14,1.37-.33,2.75-0.51,4.12l3.93-.53a12.37,12.37,0,0,0-1.24-2.84,1.14,1.14,0,0,0-2.06.27,12.62,12.62,0,0,0-.63,3.11c-0.3,2.51,4.11,2.64,4,0-0.06-1.37-.13-2.74-0.14-4.12a1.72,1.72,0,0,0-1.23-1.62c-4.45-1.41-9.75-.69-14.38-0.72s-9.83-1.21-14.25-.24c-1.85.4-4.67,1.19-5.45,3.18-0.85,2.19.69,3.9,2.6,4.49l0.52-3.84-0.75,0,2,1.13v-0.1l-1.25,2.18c0.54-.41,1.6-0.84,1.71-1.64h0Z" transform="translate(-227.61 -313.85)"/><path class="cls-1" d="M242.77,322.58c-0.64-.9-0.6-0.8-1.78-0.93a0.75,0.75,0,0,0-.65,1.13c3,4.29,1.85,10.42,1.77,15.36s-0.17,10-.17,15a1.61,1.61,0,0,0,1.58,1.58c1.37,0,2.72.08,4.08,0.18a1.63,1.63,0,0,0,1.62-1.62c-0.22-10,.18-20,0.3-30a1.73,1.73,0,0,0-1.69-1.69q-2-.12-3.9-0.38a1.88,1.88,0,0,0-2.09,2.72c2.29,4.42,2.22,9.67,3.25,14.48,0.32,1.47,2.62.85,2.26-.62a43.2,43.2,0,0,1-.76-11.6,0.84,0.84,0,0,0-1.68,0,131.19,131.19,0,0,0-.22,21c0.31,3.55.38,5.1,4.11,5.48,1.42,0.14,1.47-2.21,0-2.25-2.62-.07-1.45-10.08-1.51-11.8-0.15-4.14-.32-8.25-0.71-12.38H244.9a43.89,43.89,0,0,1,.18,11.6l2.3,0.31c0.19-5.41.27-11.16-2.35-16l-2.09,2.72a17.8,17.8,0,0,0,4.89.18l-1.69-1.69a187.91,187.91,0,0,1-.16,30l1.62-1.62c-1.37,0-2.72,0-4.08-.1l1.58,1.58c0.21-6.86.29-13.72,0.39-20.58,0.06-4.23.29-8.81-4.12-10.78l-0.18,1.37,1,0a0.42,0.42,0,0,0,.58-0.58h0Z" transform="translate(-227.61 -313.85)"/><path class="cls-1" d="M249.88,351.26q-0.34-12.39-1-24.76a0.23,0.23,0,0,0-.47,0q-0.53,12.38-.81,24.76a1.13,1.13,0,0,0,2.25,0h0Z" transform="translate(-227.61 -313.85)"/><path class="cls-1" d="M249.94,322.57c-1.35,4.42-1.51,9.24-1.73,13.84-0.12,2.63-.17,5.27-0.23,7.91q0,2-.07,4,0.89,3.45-2.14,1.19h-1.63l0.41,2.41c0,0.84,1.4,1.15,1.57.21a3.76,3.76,0,0,0-.43-3.27,0.85,0.85,0,0,0-1.54.2c-0.84,3.2,2,4.1,4.66,4.15a1,1,0,0,0,.94-0.94c0.18-9.65,1.87-20.11.29-29.66,0-.05-0.08,0-0.1,0h0Z" transform="translate(-227.61 -313.85)"/><path class="cls-1" d="M238.39,355.36l-0.75-.83-1,.6c1.06,1.78,2.77,2,4.72,1.66a43.33,43.33,0,0,1,11.52-.91,1.46,1.46,0,0,0,1.45-1.45l-0.06-1.87c0-1.45-2.37-1.92-2.65-.36a2.93,2.93,0,0,0,.36,2.61,0.85,0.85,0,0,0,1.46,0,6.64,6.64,0,0,0,.79-1.89l-2.65-.36-0.14,1.87,1.45-1.45a34.22,34.22,0,0,0-7.38.37c-2.71.45-5.48,1.84-8.2,0.9a0.59,0.59,0,0,0-.57,1A3.48,3.48,0,0,0,238,356a0.38,0.38,0,0,0,.36-0.63h0Z" transform="translate(-227.61 -313.85)"/><path class="cls-1" d="M237.26,354.35c2,1.38,4.6,1.39,7,1.35,2.11,0,4.56.4,5.84-1.52a1.08,1.08,0,0,0-.17-1.31c-1.69-1.52-4-.54-6.12-0.41s-4.49.08-6.51,1.08a0.47,0.47,0,0,0,0,.81h0Z" transform="translate(-227.61 -313.85)"/><path class="cls-1" d="M248.31,326.4c0.82,0.18,1.21-.51,1.61-1.11l1.5-2.22c0.92-1.37-1.53-2.73-2.17-1.27l-1.2,2.75c-0.22.51-.61,1.66,0.26,1.85h0Z" transform="translate(-227.61 -313.85)"/><path class="cls-1" d="M249.7,322.36a7.45,7.45,0,0,0-.64,2.28,3.79,3.79,0,0,0-.18,2.26,0.71,0.71,0,0,0,1.18.31,3.28,3.28,0,0,0,.77-2.16,6.06,6.06,0,0,0,.08-2.53,0.67,0.67,0,0,0-1.21-.16h0Z" transform="translate(-227.61 -313.85)"/><path class="cls-1" d="M229,323.63c0.09-.55.23-1.08,0.35-1.62a3.79,3.79,0,0,1,.26-1.38l-0.45.34a7.11,7.11,0,0,1,2.57,0,3.6,3.6,0,0,0,2.21-.37,0.71,0.71,0,0,0,0-1.21,4.18,4.18,0,0,0-2.58-.24,6.88,6.88,0,0,0-2.66.39c-1.35.79-.32,3.06,0.11,4.1,0,0.07.16,0.1,0.18,0h0Z" transform="translate(-227.61 -313.85)"/><path class="cls-1" d="M267,320.77c2.73,1.07,5.82,1.07,8.74,1.05l-1.07-1.07c-0.75,11.63-1,23.21,1.26,34.7l1.25-1.64a43.06,43.06,0,0,0-10.46.27c-1.24.18-1,2.34,0.3,2.21a43.36,43.36,0,0,1,10.16.11,1.31,1.31,0,0,0,1.25-1.64c-1.89-11.28-3.07-22.61-1.61-34a1.08,1.08,0,0,0-1.07-1.07c-2.91-.16-6-0.31-8.74.64a0.24,0.24,0,0,0,0,.45h0Z" transform="translate(-227.61 -313.85)"/><path class="cls-1" d="M270.6,354.31c2-5.22,1.69-11.48,1.65-17a123,123,0,0,0-1.41-17.08c-0.15-1-1.71-.72-1.75.24-0.25,5.94-.39,11.89-0.36,17.84,0,5.25-.52,10.9.88,16a0.52,0.52,0,0,0,1,0h0Z" transform="translate(-227.61 -313.85)"/><path class="cls-1" d="M270.91,322c-1,4.61-.88,9.5-1.21,14.2-0.38,5.26-.9,10.67-0.28,15.93a3.26,3.26,0,0,0,2.3,3,2.85,2.85,0,0,0,1.66,0,3,3,0,0,0,2.19-2.19,53.92,53.92,0,0,0-.27-14.74c-0.76-5.37-1.19-11.17-3.2-16.22a0.62,0.62,0,0,0-1.18,0h0Z" transform="translate(-227.61 -313.85)"/><path class="cls-1" d="M273.3,324.23a24.4,24.4,0,0,1,.73-2.59l-1-.57c-1.18,1.33-1,3-1.1,4.65l-0.35,6.77h4c-0.19-3.38-.51-6.74-0.49-10.13a2.09,2.09,0,0,0-1.48-1.95,1.54,1.54,0,0,0-1.08,0,2.08,2.08,0,0,0-1.48,1.95,50.77,50.77,0,0,0,.62,10.66c0.4,2.19,4.08,1.71,3.91-.53l-0.5-6.77c-0.13-1.69,0-3.35-1.19-4.65a0.59,0.59,0,0,0-1,.57,23.6,23.6,0,0,1,.31,2.57c0,0.05.09,0.07,0.1,0h0Z" transform="translate(-227.61 -313.85)"/><path class="cls-1" d="M268.87,321.28c-0.3-.92-1.22-0.92-2-0.49a0.93,0.93,0,0,0,0,1.6c1.1,0.57,2.84,1.29,4,.45a1.07,1.07,0,0,0,0-1.82,2.54,2.54,0,0,0-1-.3c-0.23,0-.47.07-0.69,0.09a5.17,5.17,0,0,1-1.56-.11l0.41,1.54c0.15-.16.36-0.24,0.51-0.41a3,3,0,0,1,.28-0.36,0.18,0.18,0,0,0,0-.18h0Z" transform="translate(-227.61 -313.85)"/><path class="cls-1" d="M274,338.71c6.58,2.37,14.19,1.34,21.09,1.79,2.13,0.14,2.07-3.07,0-3.28a108.25,108.25,0,0,0-13.58-.91c-2.55.07-5.7,0.16-7.61,2a0.21,0.21,0,0,0,.09.35h0Z" transform="translate(-227.61 -313.85)"/><path class="cls-1" d="M275.28,339.63c2.19,1.32,5.28.5,7.73,0.27,2.9-.27,5.93-0.2,8.78-0.75a0.8,0.8,0,0,0,0-1.54c-3-.84-6.4-0.13-9.42.2-2.34.25-5.31,0.12-7.1,1.75a0,0,0,0,0,0,.07h0Z" transform="translate(-227.61 -313.85)"/><path class="cls-1" d="M290.49,321a4.05,4.05,0,0,0,1.32,1.83,0.84,0.84,0,0,0,1.31-1L292,319.78,291.13,321c3.52,0,7,.18,10.55.33l-1.11-1.11c-0.06,7.48-.31,14.95-0.42,22.42-0.06,4.11-1.34,9.93,2.05,13.06l0.69-1.66c-2.45.24-4.89,0.3-7.35,0.46-0.74,0-1,1.26-.19,1.38a32.64,32.64,0,0,0,7.53.1,1,1,0,0,0,.69-1.66c-3.35-3.17-1.25-13.45-1.18-17.53,0.1-5.53.2-11.05,0.39-16.57a1.13,1.13,0,0,0-1.11-1.11,105.36,105.36,0,0,0-10.55,0,1,1,0,0,0-.81,1.42,6.34,6.34,0,0,0,1.5,2.37l1-1.31a4,4,0,0,0-2-1,0.31,0.31,0,0,0-.34.45h0Z" transform="translate(-227.61 -313.85)"/><path class="cls-1" d="M295.07,354.61c-0.47.32-.9-8.08-0.91-8.73,0-2.64,0-5.27,0-7.91l0-15.82a0.7,0.7,0,0,0-1.41,0c0.22,8.9.5,17.8,0.63,26.7,0,1.16-1,8.57,2.33,6.74a0.56,0.56,0,0,0-.57-1h0Z" transform="translate(-227.61 -313.85)"/><path class="cls-1" d="M294.23,324l0.15-1.2c0.07-.59-0.92-0.62-0.95,0-0.36,10.23-.81,20.9,0,31.1a1.35,1.35,0,0,0,1.32,1.32,9.94,9.94,0,0,1,3.71.64c1.26,0.54,3.16,0,3-1.74-0.7-8.89,1.18-17.8-1.21-26.57-1.32-4.86-8.46-2.79-7.48,2.06,1.7,8.43,1.58,16.94,4.73,25l1.41-2.48a10.3,10.3,0,0,1-4.19.41l1.32,1.32c0.52-5.53.09-11-.24-16.53-0.15-2.6-.38-5.18-0.63-7.77a17.17,17.17,0,0,0-.41-3.88c-0.18-.49-0.84-1.38-0.94-1.66a0.19,0.19,0,0,0,.37,0h0Z" transform="translate(-227.61 -313.85)"/><path class="cls-1" d="M294.84,322.27l0.26-.22H294c1,0.94,2,.77,2.94,1.47,0.8,0.59.57,0.5,0.55,1.74s-0.1,2.18-.12,3.28c-0.07,3.48-.18,7,1.24,10.27a0.88,0.88,0,0,0,1.59-.21c0.75-2.65.58-5.37,0.62-8.09,0-2.55.81-5.62,0.37-8.09-0.51-2.87-5-2.68-7-1.63a0.81,0.81,0,0,0,.19,1.47,0.65,0.65,0,0,0,.52,0h0Z" transform="translate(-227.61 -313.85)"/><path class="cls-1" d="M294.12,321.22l-0.52-.58a0.59,0.59,0,0,0-.83.83c1.78,1.82,1,4.86,1.37,7.16a1.09,1.09,0,0,0,2.13-.29,10.37,10.37,0,0,1,1.05-6.23l-2.24-.61c0.38,10.45-.71,21-0.11,31.43,0.09,1.64,2.7,2.22,3,.41,1.93-10.39.72-21.44-.53-31.84-0.12-1-1.68-1.82-2.24-.61a12.9,12.9,0,0,0-1.11,7.73l2.09-.58c-0.16-.63-0.2-7.69-2.12-6.79a0,0,0,0,0,0,0h0Z" transform="translate(-227.61 -313.85)"/><path class="cls-1" d="M306.74,319.86c-0.21,1.06.05,0.9,0.45,1.75,0.57,1.2,2.23,2.13,2.74,3.44,0.69,1.76.46,4.48,0.48,6.36,0.06,6,2,16.14-2.13,21.18a1.16,1.16,0,0,0,.81,1.95c9.86-.05,22,2.83,27.68-7.42a1.15,1.15,0,0,0-2-1.16l-4.68,6.22L332,352l-1-1.31a1.15,1.15,0,0,0-1-.59,88.42,88.42,0,0,1-15.11.46,1.34,1.34,0,0,0-.94,2.27c3.34,3.05,4.21-1.92,4.29-4.31,0.3-8.74.61-17.49,0.73-26.23h-3.21a200.67,200.67,0,0,1-1.55,29.67l3-.4c-1.54-7.76-1.28-16-1.62-23.86a1.52,1.52,0,0,0-3,0q-0.35,5.56-.7,11.11c-0.22,3.53.24,8.3-1.17,11.6a1.51,1.51,0,0,0,.89,2.18l2.27,0.53a1.48,1.48,0,0,0,1.85-1.41q-0.52-11.77-1.07-23.55c-0.21-4.64-.46-7.75-5.54-8.73l-0.33,2.42c5.29,0,10.58,0,15.86,0,2.42,0,6.56,1,8.42-1.05a1.3,1.3,0,0,0,.2-1.52l-0.19-.33a1.27,1.27,0,0,0-2.31,1l1,0.68-2.69-.73c-0.07,2.51.28,4.6,2.53,5.94a1.43,1.43,0,0,0,2.13-1.22c-0.31-3.91.08-6.93-4.55-6.46-7.11.72-14.22-.85-21.28,0.27-1.4.22-1.08,2.62,0.34,2.49,4.22-.41,8.28,0,12.48.33,3.65,0.24,9.83-1.6,10.18,3.38L333,323.3a4,4,0,0,1-1.07-3.5c0-1.35-2.11-2.07-2.69-.73-2.94,6.77,6.23,8.09,3.88.1l-2.31,1c-1.34-2.25-8.62-.91-10.92-0.9l-11.2.08c-1.34,0-1.74,2.17-.33,2.42,5.35,0.95,3.82,10.78,3.93,14.82q0.2,7.53.41,15.07l1.85-1.41-2.26-.56,0.89,2.18c1.44-3.25,1.24-6.81,1.47-10.32q0.45-6.95.89-13.89h-3c0.35,8.18.14,16.62,1.73,24.67,0.36,1.84,2.79,1.15,3-.4a210.46,210.46,0,0,0,1.71-29.67,1.61,1.61,0,0,0-3.21,0c-0.11,5-.1,10-0.12,15,0,2.5,0,5,0,7.5,0,1.23-.75,5.3.22,6.18l-0.94,2.27a77,77,0,0,0,10.4-.18c2.12-.19,3.43-0.78,5,0.64a1.21,1.21,0,0,0,1.86-.24l4.63-6.25-2-1.16c-2.84,5.21-7.13,6.12-12.6,6.18-4.36,0-8.73.17-13.1,0.12l0.81,1.95c4.45-5.06,3.24-12.65,3.24-18.88,0-3.45.64-7.66-.54-11a7.27,7.27,0,0,0-1.56-2.67s-2.51-1.9-2.51-1.55a0.92,0.92,0,0,0-1.8-.24h0Z" transform="translate(-227.61 -313.85)"/><path class="cls-1" d="M313.29,322.55a1.61,1.61,0,0,1,.8-1.37l-0.67-.39c-0.43,2.59,0,5.43.17,8l1.92-.26a11.64,11.64,0,0,1,.39-5.89l-2.33-.32a63.48,63.48,0,0,1,.05,7c-0.15,1.59,2.34,1.86,2.74.37,0.55-2,1-5.07-.06-7a1.28,1.28,0,0,0-2.37.64,1.12,1.12,0,0,0,.45,1.05,0.75,0.75,0,0,0,.88.11l-0.4.06L314,323.1a10.49,10.49,0,0,0-.12,3c0,1.1-.16,2.18-0.23,3.28l2.74-.37a60.45,60.45,0,0,1-.42-6.67,1.19,1.19,0,0,0-2.33-.32,13,13,0,0,0,0,7,1,1,0,0,0,1.89-.52c-0.35-2.53-.43-5.38-1.32-7.78a0.4,0.4,0,0,0-.73-0.1,2.22,2.22,0,0,0-.22,1.85,0,0,0,0,0,0,0h0Z" transform="translate(-227.61 -313.85)"/><path class="cls-1" d="M317.1,337.58a5.08,5.08,0,0,0,2.76.59c1.17,0.05,2.34.11,3.51,0.09a1.33,1.33,0,0,0,1.16-.66l0.06-.12a1.22,1.22,0,0,0-.18-1.42c-0.81-.87-2.54-0.49-3.6-0.45a9.66,9.66,0,0,0-3.7.56,0.82,0.82,0,0,0,0,1.41h0Z" transform="translate(-227.61 -313.85)"/><path class="cls-1" d="M322.65,333.44c-0.82,1.81-1.38,4.54-.35,6.38,1.14,2,4.41,2.22,4.73-.48a24.84,24.84,0,0,0-.18-4.21c-0.07-1.17-.05-2.47-1-3.28-1.94-1.62-4.24.31-3.88,2.49a1.31,1.31,0,0,0,1.26,1,1.2,1.2,0,0,0,.88-0.34c0.29-.29.52-1.56-0.07-0.92a8,8,0,0,0,.08,2.18,6.43,6.43,0,0,1-.2,2.64l1-.74c0.26-.09.17,0.16,0-0.43-0.12-.37-0.18-0.77-0.26-1.15a14.23,14.23,0,0,0-.84-3.1,0.63,0.63,0,0,0-1.08,0h0Z" transform="translate(-227.61 -313.85)"/><path class="cls-1" d="M403.66,320.14a15.33,15.33,0,0,0-1.32,3.85l2.41-.64c-4-5-11-6-16.93-4.49-4.93,1.24-10.1,4.52-7.47,10.18,2.78,6,9.85,6.51,15.54,5.84,10.95-1.28,8.68,14.35-.46,14.41a32.39,32.39,0,0,1-6.71-.79c-3.78-.92-5.08-3.64-5.64-7.14a1.37,1.37,0,0,0-2.48-.32,76.25,76.25,0,0,1-5.74,9.81,1.34,1.34,0,0,0,1.49,1.94c4.63-1.1,9.29-.4,13.94-1.12,1.34-.21,1.11-2.14,0-2.49-4.9-1.54-9.8-.06-14.65,1.06l1.49,1.94a76.26,76.26,0,0,0,5.8-9.78l-2.48-.32c0.4,2.78,1.81,7,4.3,8.62,1.3,0.86,3.67.85,5.21,1.21a22.82,22.82,0,0,0,5.46.94c6.45-.11,10.92-6.43,10.82-12.49,0-2.54-.86-5.39-2.91-7-3-2.46-6.85-1.18-10.4-1.07s-7.7-.44-9.55-3.78c-2.33-4.18,1.73-6.12,5.18-6.89,5.24-1.18,10.14,1.3,14.43,4,1.18,0.75,2.28-.49,2.12-1.63a14.45,14.45,0,0,0-1-3.78,0.29,0.29,0,0,0-.51-0.07h0Z" transform="translate(-227.61 -313.85)"/><path class="cls-1" d="M382.81,348.12a14.09,14.09,0,0,0,0-2.18,0.82,0.82,0,0,0-1.52-.41,9.51,9.51,0,0,1-2.71,3.41l1.33,1.73a8.29,8.29,0,0,0,3.1-3.73,8.7,8.7,0,0,0,.49-2.21c0.1-.9-0.08-2.29.55-3l-1.57-.92a7.4,7.4,0,0,0,.37,6.05c0.87,1.73,2.56,3.63,4.66,3.21a1.08,1.08,0,0,0,.64-1.58c-0.78-1.14-2.11-1.62-2.92-2.76a5.71,5.71,0,0,1-.94-4.43c0.17-.83-0.93-1.71-1.57-0.92a7.41,7.41,0,0,0-1.7,4,5.88,5.88,0,0,1-.79,2.59c-0.51.79-1.25,1.43-1.82,2.18-0.78,1,.85,2.16,1.73,1.33a9.09,9.09,0,0,0,2.64-4.34h-1.57c0.16,0.79.39,2.73,1.53,2.63a0.33,0.33,0,0,0,.32-0.32v-0.12a0.24,0.24,0,0,0-.3-0.23h0Z" transform="translate(-227.61 -313.85)"/><path class="cls-1" d="M382.61,344.84a5.73,5.73,0,0,0-1.25,3l0.37-.64c-0.18.2-.13,0.2-0.35,0.14-1.34-.37-2.69,1.54-1.46,2.51a7.11,7.11,0,0,0,1.4,1,1.45,1.45,0,0,0,1.75-2.27,7.06,7.06,0,0,0-1.33-1.08l-1.16,2.74a3,3,0,0,0,3.51-1.44,3.4,3.4,0,0,0-.28-2.26,3.47,3.47,0,0,0-.81-1.68,0.29,0.29,0,0,0-.4,0h0Z" transform="translate(-227.61 -313.85)"/><path class="cls-1" d="M387.72,348.55l-1.54-1.08a0.51,0.51,0,0,0-.72.72c4.74,4.74,14.14,2.94,17.85-2.31,2.83-4,1.69-14.34-5-13.15a0.63,0.63,0,0,0-.44.78c1.42,3.61,5.64,6.74,1.89,10.73s-8.81,4-13.77,3.1l-0.14,1,1.88,0.25a0,0,0,0,0,0,0h0Z" transform="translate(-227.61 -313.85)"/><path class="cls-1" d="M399.84,333c5.07,2.83,8.33,8,4.42,13.39-3.46,4.77-8.79,3.75-13.88,3.54a0.88,0.88,0,0,0-.61,1.48c5.57,6,15.9,1.85,18.7-4.89,2.42-5.8-1.22-15.09-8.57-14a0.26,0.26,0,0,0-.06.47h0Z" transform="translate(-227.61 -313.85)"/><path class="cls-1" d="M389.33,330.93l0.57,0.91,0.91-.38a6.33,6.33,0,0,0-1-1.15,5.39,5.39,0,0,1-.89-2.67c-0.16-1.43-.15-3.06,1.06-4,2.54-2,6.33.17,9-1.61a0.9,0.9,0,0,0,.18-1.4c-1.87-1.64-4.75-1.39-7.08-1.13-2.12.24-4.1,1-5.17,3-1.51,2.77-1.2,9.57,2.7,10.15a1,1,0,0,0,1.07-.44l0.13-.18a0.5,0.5,0,0,0-.43-0.75l-1-.32a0,0,0,0,0,0,0h0Z" transform="translate(-227.61 -313.85)"/><path class="cls-1" d="M387.9,321.67c-4.7,1.54-5.11,5.94-3.73,10.05l2.54-2c-2.35-1.66-.76-5,0.25-6.87A1.37,1.37,0,0,0,385.1,321c-3.61,1.58-3.42,6-.87,8.5,3,2.92,9,4.42,13,4.66,1.34,0.08,1.43-1.8.3-2.21-2.21-.8-4.53-1.26-6.75-2.05a17.92,17.92,0,0,1-3.25-1.36,6.44,6.44,0,0,1-1.67-1.27q-1.84-1.84.26-3.78l-1.53-2c-2.44,3.67-3.66,8.21.35,11.24,1.56,1.18,3-1,2.37-2.37-0.69-1.57-1.4-3.21-.9-5,0.35-1.24,1.3-2.14,1.84-3.27a0.33,0.33,0,0,0-.37-0.48h0Z" transform="translate(-227.61 -313.85)"/><path class="cls-1" d="M416.16,321.56c-1.76-2.57,7.4-1.92,7.49-1.92,2.25,0.07,4.49.1,6.74,0.15s4.49,0,6.74,0l3.85-.13a7.56,7.56,0,0,1,4.62.73c1.42-.68.39-3.19-1.08-2.57-4.8,2,1,6.92,2.77,3,3.23-7-16.65-3.89-18.82-3.8-3.18.13-9.53-1.36-12.31,0.82-1.37,1.07-1.82,3.38-.1,4.4,2.74,1.62,4.94-3.54.24-3.7a1.12,1.12,0,0,0-1.09,1.09,3,3,0,0,0,.38,2.12,1,1,0,0,0,.85.49h0.34a0.82,0.82,0,0,0,.41-1.51l-0.07,0a0.69,0.69,0,0,0-.93.24l0,0.05a0.58,0.58,0,0,0,0,.59h0Z" transform="translate(-227.61 -313.85)"/><path class="cls-1" d="M421.63,319.42c3.67,2.61,5,5.25,5.06,9.83,0.06,3.13-.18,6.3-0.27,9.44-0.08,2.76.23,5.79-.24,8.49-0.42,2.43-1.37,1.77-3.3,3.13a0.88,0.88,0,0,0,.21,1.59c5,0.94,9.61,1.37,14.69.39,1.71-.33,1-2.82-0.71-2.58a48.79,48.79,0,0,1-13.52.5l0.21,1.59,3.38-.82a1,1,0,0,0,1-1c0.23-4.08.3-8.18,0.42-12.27,0.11-3.77.74-8,.18-11.75s-2.93-7-7-6.79a0.12,0.12,0,0,0-.06.22h0Z" transform="translate(-227.61 -313.85)"/><path class="cls-1" d="M436.19,349.84l-3,.34c-0.67.08-1,1.15-.18,1.3,4.1,0.75,3.38-3.88,3.25-6.68-0.38-8.24-.16-16.44,0-24.68a1.38,1.38,0,0,0-1.72-1.31,30.38,30.38,0,0,1-9.73-.2c-1.41-.24-2.51,1.71-1,2.48,7.31,3.82,4.32,13.11,5.86,19.81,0.32,1.41,2.73,1.14,2.58-.35a58.72,58.72,0,0,1,.74-18.55h-2c1.23,3.88.34,8.38,0.09,12.37s-0.54,7.82-.85,11.73h2.8c-1-8.72-2.23-17.42-3-26.16a1.18,1.18,0,0,0-2.35,0c-0.1,4-.26,8.08-0.27,12.12,0,1.65,2.59,2.09,2.94.4l2.1-10-2.9-.39c-0.11,7.41-.87,14.76-1.18,22.15l3-.41a60.69,60.69,0,0,1-.47-14.92c0.2-1.93-2.86-1.94-3,0a167.18,167.18,0,0,0-.42,20.45,1.57,1.57,0,0,0,1.54,1.54c1.6,0.07,3.18.1,4.77,0.1a1.49,1.49,0,0,0,1.47-1.47,62.82,62.82,0,0,0-.93-10.28l-2.74.75a25.32,25.32,0,0,1,.76,5.83l-2.66.72,0.52,0.9a1.43,1.43,0,0,0,2.47-1.44L432,345a1.44,1.44,0,0,0-2.66.72c-0.09,1.75,0,3.26,1.34,4.54a1.42,1.42,0,0,0,1.38.37c4.08-1.34,2.82-8.37,2.12-11.5-0.41-1.81-3-1-2.74.75a58.2,58.2,0,0,1,.74,9.53l1.47-1.47c-1.61,0-3.17-.09-4.77-0.24l1.54,1.54c0.05-6.82.24-13.63,0.38-20.45h-3c0.16,5.12.18,10.21,0.5,15.33,0.1,1.6,2.75,2.21,3,.41A168.15,168.15,0,0,0,432.39,322c0-1.63-2.55-2.06-2.9-.39l-2.13,10,2.94,0.4c0-4-.24-8.08-0.38-12.12l-2.31.31c1.24,8.56,1.84,17.23,2.53,25.84a1.4,1.4,0,0,0,2.8,0c0.32-4.51.55-9,.76-13.53,0.17-3.79.6-7.51-.81-11.11-0.33-.85-1.77-1.1-2,0a69.31,69.31,0,0,0-1.38,19.1l2.58-.35c-1.76-7.69,1.5-17.06-7-21.45l-1,2.48a38.08,38.08,0,0,0,10.82.26l-1.36-1.36c-0.25,5.26-.4,10.54-0.26,15.81,0,1.23,1.74,14.27-.07,14.25l0.18,1.3,3-.85c0.41-.12.36-0.83-0.11-0.78h0Z" transform="translate(-227.61 -313.85)"/><path class="cls-1" d="M458.93,319.54a73.44,73.44,0,0,1,8.1-.76,48,48,0,0,0,7.79-.29c1.29-.22,1.21-2.25,0-2.53-4.93-1.15-11.54-1.47-16.33.36-1.57.6-1.55,3.46,0.44,3.22h0Z" transform="translate(-227.61 -313.85)"/><path class="cls-1" d="M468.3,318.76c0.38,5,3,10,4.27,14.85a92,92,0,0,1,1.95,9.65c0.37,2.56,1.35,3.52-.37,4.95a1.32,1.32,0,0,0,.93,2.24c3.46-.06,7,0,10.4-0.3a1.24,1.24,0,0,0,0-2.48c-3.46-.15-6.94.07-10.4,0.16l0.93,2.24,0.76-.29a1.3,1.3,0,0,0,1-1.26,88.34,88.34,0,0,0-3.31-17.3c-1.26-4.08-2.66-9.49-5.84-12.57a0.17,0.17,0,0,0-.28.12h0Z" transform="translate(-227.61 -313.85)"/><path class="cls-1" d="M474.83,317.86c0.46,1.76.25,4.12,0.5,5.94,0.42,3,1.12,6,1.8,8.95a96.68,96.68,0,0,0,4.75,16.05c0.58,1.37,2.84.39,2.4-1-2-6.4-4.49-12.58-6.05-19.13-0.7-2.95-1.24-5.94-2-8.87-0.31-1.14-.2-2.08-1.19-2.7a0.36,0.36,0,0,0-.49.13l-0.18.32a0.23,0.23,0,0,0,.08.3l0.22,0.15a0.12,0.12,0,0,0,.17-0.13h0Z" transform="translate(-227.61 -313.85)"/><path class="cls-1" d="M468.11,316.82a27.49,27.49,0,0,0,2.69,8.24,1,1,0,0,0,1.87-.79c-0.54-2-1.15-4.07-1.74-6.1l-1.86.78c0.77,1.41,1.52,2.83,2.28,4.26a1.07,1.07,0,0,0,1.94-.82,6.88,6.88,0,0,1-.25-3.93l-2.1.57a14.62,14.62,0,0,1,1.89,4.14,1.22,1.22,0,0,0,2.38-.32q-0.09-1.91-.16-3.82l-2.21.6,1,3,2.26-.62-0.7-3.29c-0.27-1.25-2.44-1-2.27.31,0.45,3.57.85,7.14,1.27,10.71l2.34-.32-3.29-9.5a1.24,1.24,0,0,0-2.39.66,152.24,152.24,0,0,0,4.21,16.5,1.66,1.66,0,0,0,3.21-.88q-1.65-7.26-3.59-14.44c-0.56-2.07-3.48-1.16-3.15.87a98.6,98.6,0,0,0,4.42,17.2c0.68,1.91,3.61,1.16,3.08-.85l-3-11.31c-0.51-1.93-3.37-1.11-3,.82,1.22,5.87,2.56,11.7,4.15,17.47,0.53,1.91,3.27,1.09,2.92-.81a40,40,0,0,0-1.13-4.67,1.39,1.39,0,0,0-2.69.74c0.64,2.45,1,9.6,5.14,7.79,1.26-.55.6-2.59-0.69-2.53l-3-.18,0.81,2,0.66-.37a1.37,1.37,0,0,0,.81-2l-0.89-1.44a0.55,0.55,0,0,0-1,.13c-0.29.77-1.46,1.57-1.95,2.31a1.37,1.37,0,0,0,.81,2,11,11,0,0,0,3.74.28l-0.69-2.53c0.55-.24-1-5.71-1.08-6.18l-2.69.74a26,26,0,0,1,.84,4.33l3-.4c-1.54-5.79-2.95-11.6-4.11-17.49l-3,.82,2.88,11.34,3.08-.85a98.61,98.61,0,0,1-4.35-17.22l-3.15.87q1.9,7.2,3.53,14.46l3.21-.88q-2.76-8.05-5-16.28l-2.39.66,3.38,9.47c0.42,1.17,2.52,1.1,2.34-.32-0.45-3.57-.92-7.14-1.34-10.71l-2.27.31,0.67,3.3c0.3,1.48,2.55.85,2.26-.62a10.55,10.55,0,0,0-1.16-3.62c-0.48-1.1-2.24-.52-2.21.6q0.06,1.91.11,3.82l2.38-.32a12.71,12.71,0,0,0-2.46-4.86c-0.67-.84-1.84-0.06-1.92.8a10.9,10.9,0,0,0,.45,4.49l1.94-.82c-0.79-1.4-1.58-2.8-2.35-4.21a1,1,0,0,0-1.86.78c0.57,2,1.12,4.08,1.73,6.1l1.87-.79a46.8,46.8,0,0,1-3.55-7.45,0.47,0.47,0,0,0-.9.25h0Z" transform="translate(-227.61 -313.85)"/><path class="cls-1" d="M473.34,322.24c0.24,2.23.84,4.37,1.15,6.59l1.86-.51c-0.57-2.47-1.18-4.93-1.85-7.38a1.16,1.16,0,0,0-2.24.62l1,6.07,2.2-.93a17.42,17.42,0,0,1-1.66-4.62l-2.27,1a20.51,20.51,0,0,1,2.29,4.09c0.5,1.18,2.55.59,2.43-.66-0.14-1.42-.27-2.41-0.49-3.82l-2.53.7c1.29,3.95,1.25,8.18,2.76,12.05,0.94,2.41,5.57,9.18,4.06,11.68a1.2,1.2,0,0,0,1.88,1.45c2.29-2.49-.24-6.62-1.34-9.27s-2.41-4.9-3-7.62c-0.67-3-.86-6-1.82-9a1.31,1.31,0,0,0-2.53.7l0.41,3.12,2.43-.66a20.59,20.59,0,0,0-2.4-4,1.25,1.25,0,0,0-2.27,1,28.45,28.45,0,0,0,2,5.18c0.64,1.3,2.44.33,2.2-.93l-1.12-6-2.24.62q1,3.66,2.23,7.27a1,1,0,0,0,1.86-.51,17.25,17.25,0,0,0-2.85-6.15,0.09,0.09,0,0,0-.16.07h0Z" transform="translate(-227.61 -313.85)"/><path class="cls-1" d="M464.1,319.19l0.21,0a0.2,0.2,0,0,0,.14-0.14l0.07-.21a0.41,0.41,0,0,0-.29-0.51c-3.25-.8-11.76,27.75-12.9,31.11-0.62,1.83,2.39,3.16,3.17,1.34,2.3-5.4,4.26-11,6.11-16.53,0.9-2.71,1.85-5.42,2.53-8.19A64.41,64.41,0,0,0,464,319a0.14,0.14,0,0,0,.14.24h0Z" transform="translate(-227.61 -313.85)"/><path class="cls-1" d="M448.48,351.54c1.42,0.47,3-.35,4.49-0.49,1.68-.15,3.39,0,5.06-0.22,0.67-.08,1-1.12.17-1.29a19.56,19.56,0,0,0-5.6,0c-1.57.14-3.18-.17-4.44,0.86a0.71,0.71,0,0,0,.31,1.18h0Z" transform="translate(-227.61 -313.85)"/><path class="cls-1" d="M457.81,349.42a35.49,35.49,0,0,1-10.38.81l0.23,1.74a16.37,16.37,0,0,1,5.4-1c1.67,0,3.28.43,4.94,0.42a0.78,0.78,0,0,0,.21-1.52c-3.19-1.35-7.77-.45-11,0.43a0.89,0.89,0,0,0,.23,1.74,34.47,34.47,0,0,0,10.79-1.08,0.77,0.77,0,0,0-.41-1.49h0Z" transform="translate(-227.61 -313.85)"/><path class="cls-1" d="M460.28,333.3a1.31,1.31,0,0,0-.83.84,0.55,0.55,0,0,0,.19.74c3.83,1.71,9.45-.06,13.46-0.59l-0.52-1.91c-2.14.93-4.38,0.95-6.67,1.07-0.77,0-5.17.85-5.45,0.27l-0.15,1.14c1.45-1.24,4.27-.54,6-0.58,2.07,0,4.18-1,6.23-.66a0.89,0.89,0,0,0,.47-1.72c-2.5-.74-5.08.59-7.63,0.65-1.92,0-4.58-.36-6.23.85a1,1,0,0,0-.43,1.06c0.37,2.47,4.25,1.33,5.85,1.18,3.13-.29,6.08-0.17,9-1.47,1.16-.51.24-2-0.79-1.87l-6.14.84c-0.48.07-6.43,1-6.24,0.31a0.12,0.12,0,0,0-.17-0.13h0Z" transform="translate(-227.61 -313.85)"/><path class="cls-1" d="M466,318.31c-1.82,1.18-2.85,4.4-3.83,6.34-1.26,2.5-2.4,5.05-3.48,7.64A162.26,162.26,0,0,0,452.29,350a1.15,1.15,0,0,0,2.21.61c2.32-6.72,4.64-13.38,7.45-19.92,1.18-2.76,2.4-5.51,3.6-8.26,0.6-1.37,1.69-3,1.2-4.47a0.4,0.4,0,0,0-.66-0.17l-0.14.12a0.17,0.17,0,0,0,0,.17l0.07,0.19a0,0,0,0,0,0,0h0Z" transform="translate(-227.61 -313.85)"/><path class="cls-1" d="M461.7,319a1.54,1.54,0,0,0,1.23-.67l-1.2-.7a21.84,21.84,0,0,0-.87,5.31h2l-0.11-4.48-1.44.82a4.62,4.62,0,0,0,3.92.43l-1.06-1.38a17.85,17.85,0,0,0-2,6.3,0.54,0.54,0,0,0,1,.27c1.05-1.8,1.71-3.76,2.64-5.62a1,1,0,0,0-1.06-1.38,2.79,2.79,0,0,1-2.46-.27,1,1,0,0,0-1.44.82l0.06,4.48a1,1,0,0,0,2,0,21.3,21.3,0,0,0,.3-5.31,0.72,0.72,0,0,0-1.42.19,2,2,0,0,1-.12,1,0.12,0.12,0,0,0,.11.15h0Z" transform="translate(-227.61 -313.85)"/><path class="cls-1" d="M461.43,318.16c-0.7.16-1.39,0.35-2.08,0.51-0.42.09-.77,0.28-1-0.14a1.73,1.73,0,0,1-.09-0.76c0-.39,0-0.6.33-0.75a3.42,3.42,0,0,1,1.15.08,9.2,9.2,0,0,0,2.38-.06c0.51-.09.42-0.81,0-0.95a8.67,8.67,0,0,0-2.21-.39,4.46,4.46,0,0,0-2,0,2.09,2.09,0,0,0-.92,2.43,1.85,1.85,0,0,0,1.41,1.81,4.08,4.08,0,0,0,3.29-1.48,0.21,0.21,0,0,0-.21-0.35h0Z" transform="translate(-227.61 -313.85)"/><path class="cls-1" d="M464.34,319.53q1.4,0.5.18,1.7t0.11,1.57c0-.21,1-2.05-0.16-1.09-2,1.67-3,7-4,9.31-2.7,5.91-5.64,11.7-8.41,17.58-0.48,1,1,1.92,1.54.9,4.94-9.26,9.74-19,12.26-29.2a0.36,0.36,0,0,0-.65-0.28c-0.63,1.18-1.29,2.34-2,3.5a0.48,0.48,0,0,0,.84.49,10,10,0,0,0,1.87-5.19,0.24,0.24,0,0,0-.3-0.23,1.83,1.83,0,0,0-1.41.79,0.09,0.09,0,0,0,.11.15h0Z" transform="translate(-227.61 -313.85)"/><path class="cls-1" d="M461.89,318.87c-1,.72-1.69,3.56-2.11,4.67-1.13,3-2.24,6.06-3.4,9.08-2.21,5.72-4.52,11.41-6.69,17.14-0.64,1.68,2,2.35,2.67.74,2.57-6.25,4.79-12.67,6.88-19.09,1-3.07,4.62-9.79,3.23-12.9a0.31,0.31,0,0,0-.35-0.14l-0.22.07a0.19,0.19,0,0,0-.13.18l0,0.19a0.09,0.09,0,0,0,.14.08h0Z" transform="translate(-227.61 -313.85)"/><path class="cls-1" d="M447.64,350.1c2.51,0.62,5.67.1,8.25-.08,1.22-.09,1.86-0.28.29-0.12l-2.59.24c-0.44,0-5.44.74-5.16-.48a0.8,0.8,0,0,0-1.33-.78c-1.75,1.77.41,3.72,2.33,3.76s4-.29,5.89-0.41c1.09-.07,2.7.07,3.6-0.71,1.68-1.47,0-3.35-1.64-3.74a18.31,18.31,0,0,0-9.81,1,0.7,0.7,0,0,0,.17,1.28h0Z" transform="translate(-227.61 -313.85)"/><path class="cls-1" d="M459.92,332.78l0.06-.71-0.63.48c2.43,0.59,5.08.32,7.57,0.3s4.94,0.3,7.06-.79a0.71,0.71,0,0,0-.17-1.29c-2.25-.91-5.07-0.29-7.45-0.08s-4.79.15-7,.91a0.5,0.5,0,0,0-.12.91l0.55,0.36a0.09,0.09,0,0,0,.14-0.08h0Z" transform="translate(-227.61 -313.85)"/><path class="cls-1" d="M474.74,334.37c-5.3-1.31-12-.38-17.09,1.45a0.64,0.64,0,0,0,0,1.22c2.54,0.81,4.91-.65,7.39-1.19,3.19-.7,6.57-0.2,9.7-1.07a0.21,0.21,0,0,0,0-.41h0Z" transform="translate(-227.61 -313.85)"/><path class="cls-1" d="M493.18,317.26l-0.35,0a0.26,0.26,0,0,0-.19.19c0.79-2.26,11.2-1.13,13.3-1.11,4.65,0,14.56-1.3,15.4,4.78,1.54,11-17.76,8.13-24.34,9.32a0.52,0.52,0,0,0,0,1,82.92,82.92,0,0,0,12.08.55c3.58,0,7.38-.26,10.5-2.21,4.1-2.56,6.65-8,3.54-12.27-1.67-2.31-4-3-6.69-3.32A108.12,108.12,0,0,0,502.3,314c-2,0-12.28-.41-9.73,4.17a0.38,0.38,0,0,0,.7-0.29l0.06-.33a0.14,0.14,0,0,0-.14-0.24h0Z" transform="translate(-227.61 -313.85)"/><path class="cls-1" d="M500.08,330.53q-1.27-.35-2.53-0.74l-0.14,1.06c5.11,0.48,13.91,2.16,17.64-2.66,2.16-2.79,2.9-8.81-.32-11.2-1.88-1.39-4.94-.78-7-0.77-2.59,0-5.17,0-7.76.09-0.81,0-5.47-.36-4.66,1.4,0.32,0.68,11.31-.5,12.73-0.55,3.32-.12,7.87-1,8.6,4a7.57,7.57,0,0,1-3.57,7.23l1.25,2.15c2.67-1.94,7-3.78,7.05-7.56,0.06-3.36-2.28-6.12-5-7.8l-1.25,2.15a23.13,23.13,0,0,1,2.5,1.15q3.34,7.07-1.65,9.16l1.66,1.28a15.16,15.16,0,0,0-.81-12.43,1,1,0,0,0-1.72,1l0.53,0.94a0.59,0.59,0,0,0,1.07-.14l0.22-1H515a14.7,14.7,0,0,1,.45,11.06,1.14,1.14,0,0,0,1.66,1.28c3.05-1.7,6.38-4.36,5.71-8.33-0.55-3.26-3.71-4.88-6.44-6.07a1.24,1.24,0,0,0-1.25,2.15c2.1,1.31,4.84,4.47,3.14,7.22-0.89,1.45-3.89,2.86-5.24,3.84s-0.15,3,1.25,2.15c4.21-2.5,6.84-9.65,3.31-13.77-2.1-2.46-5.76-2.26-8.68-2.1-2.73.15-5.45,0.34-8.18,0.51-1.93.12-5.75-.39-7.43,0.36-0.87.39-1.79,0.68-1.53,2,0.49,2.42,4.82,1.26,6.22,1.18,4.67-.25,14.9-2.44,16.38,3.34,2.14,8.38-12.33,7.11-16.95,7.72-0.66.09-.71,1.11,0,1.08q1.32-.06,2.64-0.09a0.12,0.12,0,0,0,0-.23h0Z" transform="translate(-227.61 -313.85)"/><path class="cls-1" d="M500.89,318.59c-1.87,3.83-1.43,10.55-1.77,14.79a78.69,78.69,0,0,0-.05,16.41c0.18,1.42,2.39,1.51,2.3,0a135.62,135.62,0,0,1,.36-19.32c0.26-3.22,1.82-9.85-.34-12.56a0.4,0.4,0,0,0-.57,0l-0.19.2a0.24,0.24,0,0,0,0,.28l0.1,0.2a0.12,0.12,0,0,0,.2,0h0Z" transform="translate(-227.61 -313.85)"/><path class="cls-1" d="M499.6,318.15c-1.32,4.71-.74,10.69-0.57,15.67s-0.4,10.73.93,15.42a0.9,0.9,0,0,0,1.63.21c2.75-4.7.85-12.34,0.46-17.57-0.2-2.71-.44-5.38-0.84-8.07-0.25-1.69-.13-4.81-1.36-6.12a0.28,0.28,0,0,0-.39,0l-0.12.14a0.19,0.19,0,0,0,0,.23l0.09,0.12a0.12,0.12,0,0,0,.21,0h0Z" transform="translate(-227.61 -313.85)"/><path class="cls-1" d="M498.17,318.47l0.64,3.18a0.84,0.84,0,0,0,1.63.22q0.44-1.7.84-3.4h-1.9l0.29,1.57a1.05,1.05,0,0,0,2,0l0.15-.93c0.22-1.36-1.86-1.94-2.08-.57-0.48,3-.77,6.08-1,9.14l2.13-.29L499,318.49a1,1,0,0,0-2,.28c0,4.23,0,8.46-.07,12.69h2.07l-1.64-13.14c-0.16-1.29-2.16-1.36-2.08,0,0.26,4.27.34,8.52,0.23,12.8h2.09l-0.27-12.51h-2.09c0.74,9.12.88,18.21,0.73,27.35l2-.27a98.53,98.53,0,0,1-1.35-17.43c0.12-4.38.46-8.64-.39-13-0.18-.91-1.61-0.53-1.4.39,1.18,5.08-.06,10.24,0,15.39,0,5,.68,9.94,1.14,14.9a1,1,0,0,0,2.06,0,221.71,221.71,0,0,0-.7-27.35,1,1,0,0,0-2.09,0l0.28,12.51a1,1,0,0,0,2.09,0c0.1-4.28,0-8.53-.24-12.8h-2.08l1.65,13.14a1,1,0,0,0,2.07,0c0-4.23,0-8.46.08-12.69l-2,.28L498.8,328c0.26,1.27,2,.86,2.13-0.29,0.26-3,.63-5.9,1-8.85h-2.16l-0.08.94,2-.28L501.28,318a1,1,0,0,0-1.9,0q-0.29,1.74-.55,3.49l1.63,0.22a4.9,4.9,0,0,0-1.64-3.69,0.42,0.42,0,0,0-.66.51h0Z" transform="translate(-227.61 -313.85)"/><path class="cls-1" d="M498.39,329.42q0-1.34.2-2.67a0.5,0.5,0,0,0-1-.13,49.71,49.71,0,0,0-.51,10c0,3.78.88,8.15-.29,11.78h2.7a51.48,51.48,0,0,1-1.37-7.16,1.18,1.18,0,0,0-2.36,0l-0.2,6.74a1.1,1.1,0,0,0,2.2,0l0.35-6.74h-2.36c0.27,2.52.65,5,1,7.53,0.16,1.21,1.93,2.11,2.61.71,1.58-3.23.89-6.91,0.67-10.4-0.25-4.08-.32-8.47-1.46-12.41l-1,.26q0.39,1.26.69,2.55a0,0,0,0,0,.09,0h0Z" transform="translate(-227.61 -313.85)"/><path class="cls-1" d="M493.89,350.93l-0.65-.45-0.26.61c1.61,0.57,3.38.18,5.06,0.09,1.94-.1,3.88-0.11,5.83,0v-2.06c-3.6.19-7.2,0.37-10.81,0.38v1.92c3.71-.44,7.42-0.78,11.14-1.11a1.26,1.26,0,1,0-.34-2.49c-3.68.61-7.36,1.21-11.06,1.71-1.1.15-.79,1.87,0.26,1.89,3.6,0.07,7.21,0,10.81-.24a1,1,0,0,0,0-2.06c-2.08,0-4.16.06-6.24,0.24-1.63.14-3.35,0.19-4.72,1.16a0.34,0.34,0,0,0,.17.62l0.75,0.09c0.15,0,.17-0.19.07-0.26h0Z" transform="translate(-227.61 -313.85)"/><path class="cls-1" d="M500.92,348.87l0-.09a0.6,0.6,0,0,0-.42-0.42,20.72,20.72,0,0,0-6.31-.13c-1.72.2-1.77,2.92,0,2.74a21.83,21.83,0,0,0,6.45-1.52,0.6,0.6,0,0,0,.3-0.52,0.15,0.15,0,0,0,0-.07h0Z" transform="translate(-227.61 -313.85)"/><path class="cls-1" d="M499.33,350l0-2.35a10.41,10.41,0,0,1,.11-2.52,0.93,0.93,0,1,0-1.84-.25l-0.3,3.74,2-.27a28.79,28.79,0,0,1-.39-3.86,1,1,0,0,0-2.08,0,8.82,8.82,0,0,0,0,3.59,0.52,0.52,0,0,0,.94.12,8.88,8.88,0,0,0,1.08-3.44l-2-.28a19.35,19.35,0,0,0,.5,4.4,1,1,0,0,0,2-.27l0.13-3.74-1.75.47a10.52,10.52,0,0,1,.51,2.45l0.42,2.29a0.33,0.33,0,0,0,.64-0.09h0Z" transform="translate(-227.61 -313.85)"/><path class="cls-1" d="M510,330.48c1.63,5.49,5.38,10.53,8.72,15.13a15.35,15.35,0,0,0,10.46,6.47,1.28,1.28,0,0,0,1.24-2.12c-3-3.1-6.77-5.2-9.73-8.27-3.59-3.73-4.33-8.05-6.07-12.69a1.58,1.58,0,0,0-3.08.42c-0.11,4.5,2.49,8.69,5.24,12.07,3.36,4.15,8.28,6.37,11.85,10.27l1.24-2.12c-10-1.75-13.3-12.59-19.51-19.35a0.21,0.21,0,0,0-.35.21h0Z" transform="translate(-227.61 -313.85)"/><path class="cls-1" d="M513.57,327.71c-1.84,10.26,10.1,18,16.52,24l0.51-1.91c-4.73,1.64-11.19-5.46-13.57-8.86-2.6-3.71-4-7.88-6-11.92-0.65-1.36-2.67-.38-2.36,1a33.55,33.55,0,0,0,9.09,16c3,2.89,9,7.6,13.43,6a1.16,1.16,0,0,0,.51-1.91c-6.93-6.36-16.06-12.5-17.6-22.39a0.28,0.28,0,0,0-.54,0h0Z" transform="translate(-227.61 -313.85)"/><path class="cls-1" d="M516.89,336.39c-1.19-2.55-1.36-5-1.91-7.65-0.06-.28-0.44-0.18-0.46.06-0.24,2.6,1,5.46,2.17,7.71,0.07,0.13.27,0,.2-0.12h0Z" transform="translate(-227.61 -313.85)"/><path class="cls-1" d="M550.56,347.3c0.53-.74,2.38-1.72,3.21-0.91s-0.22,2-1,1.23a1.08,1.08,0,0,1,.64-1.71c0.91-.27,2.37.35,1.24,1.29a2,2,0,0,1-2.47.12,1,1,0,0,1,0-1.35c0.52-.29,1,0.43,1.4.44q0.22,0.24.16,0a0.41,0.41,0,0,1,0-.2s0,0.1-.1.1-0.31.18-.42,0.2-0.47-.13-0.52-0.1a0.21,0.21,0,0,1-.1.26q-0.16.44-.63,0-1.67-.27,1-1.49l0.58,1-0.09-.3v1.19q0.12-1.21-1.76-1.37l0.59-1,0.29-.13h1.22l-0.28-.07,1,0.59,0.13,0.13,0.33,1.21q-1,1.42-.35.85l-1.13.66,0.2-.05h-1.37l-0.11,0-0.93-.93,0-.09v-1.38l0-.05,0.94-.94,0.09,0h1.4l-0.23-.08,1.17,0.68,0.14,0.14,0.36,1.34v-0.23l-0.36,1.35,0.11-.21-1,1,0.28-.14-1.35.37q-0.2-.11.29,0.08c2.56,0.79,4-2.4,2.44-4.19a3.31,3.31,0,0,0-4.22-.81,3.16,3.16,0,0,0-1.06,4.39c1.93,3.11,6.81.85,5.94-2.62s-6.11-3.4-6.24.34a3.11,3.11,0,0,0,5.27,2.38c2.24-2.21.22-5.72-2.69-5.56-2.77.15-4.84,3.91-2.62,6a3.45,3.45,0,0,0,5.72-2.61,3.62,3.62,0,0,0-5.47-2.91,4.06,4.06,0,0,0,0,6.76,5,5,0,0,0,6.57-.94c3.77-4.6-5-9.14-7.48-4.47a4.36,4.36,0,0,0,.83,5.09,4.94,4.94,0,0,0,5.81.33c1.91-1.21,2.88-3.84,1.15-5.63a4.66,4.66,0,0,0-5.61-.7,4,4,0,0,0-1.18,5.69,3.59,3.59,0,0,0,5.72.06,3.5,3.5,0,0,0-2-5.5c-2.44-.6-3.91,1.12-4.2,3.33-0.05.38,0.48,0.42,0.66,0.18h0Z" transform="translate(-227.61 -313.85)"/></svg>