<svg id="Layer_1" data-name="Layer 1" xmlns="http://www.w3.org/2000/svg" viewBox="0 0 311.53 311.53"><defs><style>.cls-1,.cls-2,.cls-3{fill:none;stroke:#6b858e;stroke-miterlimit:10;}.cls-1{stroke-width:6.35px;}.cls-2{stroke-width:4.3px;}.cls-3{stroke-width:3.18px;}.cls-4{fill:#6b858e;}</style></defs><title>WheelOf-wheel-of-fortune</title><circle class="cls-1" cx="155.76" cy="155.76" r="152.59"/><circle class="cls-2" cx="153.15" cy="156.19" r="103.26"/><circle class="cls-3" cx="153.15" cy="155.76" r="32.85"/><line class="cls-3" x1="91.32" y1="87.87" x2="215.19" y2="226.56"/><line class="cls-3" x1="219.42" y1="93.17" x2="92.38" y2="219.15"/><line class="cls-3" x1="60.61" y1="153.51" x2="248.01" y2="156.19"/><line class="cls-3" x1="153.15" y1="63.52" x2="154.31" y2="246.68"/><path class="cls-4" d="M399.8,241.34c0.49-1.92,3.73-1.8,4.13.11l0.3-.75a4.81,4.81,0,0,1-3.59.94c-0.94-.13-2.81-0.72-3-1.82-0.32-1.52,1.57-3.11,2.89-3.29a2.84,2.84,0,0,1,3,2.66c0.3,3-4.68,3.21-4.64.5,0-1.15,1.66-2.6,2.85-2,0.89,0.43.35,1.54-.12,2.06a2.14,2.14,0,0,1-2.32.63l0.49,0.64-0.25-2.59-1,.57a5,5,0,0,1,2.34,2c0.6,1.13-.49,1.59-1.56,1.57s-2.05-.7-1.59-1.8a1.84,1.84,0,0,1,.91-0.91,1.25,1.25,0,0,1,.58-0.18,1.28,1.28,0,0,1,.88.35,0.66,0.66,0,0,0,0-1.32,1.41,1.41,0,0,0-1.25,2,1.29,1.29,0,0,0,2.26-.29,1.62,1.62,0,0,0-1.43-2.08,3.09,3.09,0,0,0-2.91,1.4c-1.66,2.45,1.18,4.59,3.56,4,1-.24,2.34-1,2.32-2.13,0-1.58-2.2-3.18-3.43-3.75a0.67,0.67,0,0,0-1,.57l0.25,2.59a0.69,0.69,0,0,0,.49.64c3.42,1.15,6.75-4.61,2.83-5.32-3.23-.58-5.83,3.74-2.93,5.86,2.73,2,6.7-.14,5.93-3.6-0.93-4.18-6.26-4.32-8-.66a3.6,3.6,0,0,0-.35,2.65,4.81,4.81,0,0,0,2.33,1.9,6.19,6.19,0,0,0,6.18-.61,0.7,0.7,0,0,0,.3-0.75c-0.67-3.2-5.88-3.26-6.68-.11a0.66,0.66,0,0,0,1.28.35h0Z" transform="translate(-247.32 -176.57)"/><path class="cls-4" d="M400.06,241q-0.49.27-.15,0.35a1,1,0,0,1-.42.26,3.56,3.56,0,0,1-.89.22l0.64,0.17a1.91,1.91,0,0,1-.69-2l-0.81.46a2.31,2.31,0,0,0,2.72-2.8l-0.64.84c1.52,0,1.54,3.05,0,3.07a0.66,0.66,0,0,0,0,1.32c2.82,0.16,3.77-4.63,1-5.46s-4.59,3.92-2,5.21a0.66,0.66,0,0,0,.67-1.14c-1.33-.85-0.13-3.49,1.39-3.08a0.66,0.66,0,0,0,.35-1.28c-3-.81-5,3.84-2.4,5.5l0.67-1.14c-1.26-.62-0.43-3.28.94-2.79s0.65,2.93-.68,2.86v1.32c3.23,0,3.2-5.72,0-5.72a0.67,0.67,0,0,0-.64.84,1,1,0,0,1-1.09,1.17,0.67,0.67,0,0,0-.81.46,3.14,3.14,0,0,0,1,3.25c0.74,0.48,2.1-.1,2.6-0.76,1.31-1.76-2-3.19-2.18-1.17-0.09.84,1.23,0.84,1.32,0h0Z" transform="translate(-247.32 -176.57)"/><path class="cls-4" d="M465.12,266.13c0.78,0.79,1,2.13,1.76,3a24.42,24.42,0,0,0,3,2.43l1.9-3.26a8.58,8.58,0,0,1-4.4-4.54L464.43,266a21.15,21.15,0,0,1,5.56,7.29l3.34-2c-1.34-2.21-3.54-5.52-6.27-6a1.31,1.31,0,0,0-1.46,1.9,12.42,12.42,0,0,0,2.25,2.89,20.58,20.58,0,0,1,2.13,3.2c1.21,2.2,4.44.26,3.34-2a25.69,25.69,0,0,0-6.25-8,1.89,1.89,0,0,0-2.95,2.27,11.51,11.51,0,0,0,5.74,5.9,1.89,1.89,0,0,0,1.9-3.26,18.65,18.65,0,0,0-3-2.05c-1-.47-2.26-0.33-3.15-0.83a0.46,0.46,0,0,0-.56.72h0Z" transform="translate(-247.32 -176.57)"/><path class="cls-4" d="M494.3,329a15.62,15.62,0,0,1,.71-2.67,0.73,0.73,0,0,0-1.41-.39,20.42,20.42,0,0,0,.29,10.58c0.34,1.22,2.43,1.4,2.66,0a26.56,26.56,0,0,0-.44-10.06c-0.42-2-3.05-1.27-3.25.44-0.26,2.2-.31,4.42-0.37,6.63s2.93,2.33,3.67.5c1.27-3.17,2.15-7.16-.33-9.9a0.94,0.94,0,0,0-1.56.41c-1,2.77-.61,5.69-1.72,8.5l3.67,0.5c0-2.21.1-4.42-.05-6.63l-3.25.44a17.18,17.18,0,0,1,.92,8.81l2.71-.37a30.29,30.29,0,0,1-1.51-9.65l-1.44.19a15.51,15.51,0,0,1,.62,2.66s0.07,0.06.07,0h0Z" transform="translate(-247.32 -176.57)"/><path class="cls-4" d="M459.34,405.81c2.12-1.36,3.83-3.23,5.91-4.65L464,399.93c-0.91,1.21-3.39,3.68-5.16,3.11l0.33,2.51c2.38-1.57,4.57-2.92,7.48-3.24l-0.83-3.06c-2,1.53-4,3-6.09,4.48l2.24,2.9c1.41-1.69,3.4-3.45,4.13-5.55a1.67,1.67,0,0,0-2.42-1.86c-1.77,1-3,3.22-4.32,4.79a1.85,1.85,0,0,0,2.61,2.61c1.93-1.62,3.86-3.23,5.84-4.81,1.46-1.16-.21-2.93-1.6-2.74-3.16.43-6.62,1.81-8.71,4.31-1,1.14.24,3,1.66,2.16,1.24-.74,2.67-0.86,3.88-1.76a8.3,8.3,0,0,0,2.49-3,0.9,0.9,0,0,0-1.4-1.08c-1.91,1.77-3.91,3.46-5,5.87a0.14,0.14,0,0,0,.19.19h0Z" transform="translate(-247.32 -176.57)"/><path class="cls-4" d="M396.7,424.91a10.68,10.68,0,0,1,3.92,1.72l1.22-2.93c-1.74-.09-3.49-0.06-5.23-0.08l0.91,3.34a11.67,11.67,0,0,1,6-.81v-3.69l-5-.07c-2.06,0-2.65,3.38-.5,3.7s4.79,0.39,6.86-.76,0.57-3.84-1.46-3.46a15.2,15.2,0,0,1-4.9.52v3.77h5c2.41,0,2.33-3.48,0-3.69a15.23,15.23,0,0,0-7.78,1.4c-1.68.76-.77,3.36,0.91,3.34s3.49,0,5.23-.08a1.73,1.73,0,0,0,.46-3.38,6.89,6.89,0,0,0-5.74,0,0.63,0.63,0,0,0,.15,1.13h0Z" transform="translate(-247.32 -176.57)"/><path class="cls-4" d="M335.54,395.74a9.41,9.41,0,0,1,.71-2.38h-1.69a36.32,36.32,0,0,0,4.23,5.75c1.06,1.28,2.87-.13,2.58-1.5a7.29,7.29,0,0,0-3.81-4.89c-2-1-3.75,1.89-1.78,3,0.89,0.52,1.82,1,2.73,1.49a1.86,1.86,0,0,0,2.76-1.58c0.24-3.06-4.26-3.06-5.18-.62a3.28,3.28,0,0,0,1.5,3.72,13.89,13.89,0,0,0,1.73.87c0.72,0.37.76,0.88,1.36,1.4a1.58,1.58,0,0,0,2.18,0l0.18-.17a1.82,1.82,0,0,0,.46-1.76,4,4,0,0,0-2.14-2.57,6.4,6.4,0,0,0-1.41-.66c-0.54-.12-0.25-0.71-0.6.36q0.08,0.59-.34.65-0.94.34-1.4-1.22l2.76-1.58c-0.93-.46-1.86-0.94-2.8-1.37l-1.36,3.22a3.29,3.29,0,0,1,2.19,2.49l2.58-1.5A35.83,35.83,0,0,0,335.9,392c-0.87-.64-1.72.55-1.34,1.34a9.12,9.12,0,0,1,.82,2.38,0.09,0.09,0,0,0,.17,0h0Z" transform="translate(-247.32 -176.57)"/><path class="cls-4" d="M310.08,326.83c-1.32,2.93-2.14,6.07-3.49,9l2.81,1.19a33.88,33.88,0,0,0,1.18-10.28,1.59,1.59,0,0,0-3.17,0c0,2.23-.13,4.45-0.2,6.68h3.55c0.05-1.56,1-7.46-1.78-7.46s-1.83,5.88-1.78,7.46c0.07,2.28,3.62,2.29,3.55,0s-0.17-4.45-.18-6.68h-3.17a33.85,33.85,0,0,1-1,9.46,1.54,1.54,0,0,0,3,.82c1.35-3.3,2.07-6.74.95-10.17a0.15,0.15,0,0,0-.27,0h0Z" transform="translate(-247.32 -176.57)"/><path class="cls-4" d="M339.62,262.85c-1.36.08-2,.77-3.07,1.54a18.24,18.24,0,0,1-3.31,1.86l1.93,2.5q3.48-3.28,7-6.56L339.34,260c-1.08,1.59-2.13,3.2-3.19,4.81s1.47,3.77,2.89,2.23,4-3.43,3.92-5.79a1.15,1.15,0,0,0-1.14-1.14c-2.39.16-3.91,2.67-5.39,4.33l2.89,2.23c1-1.62,2.07-3.24,3.07-4.87a1.78,1.78,0,0,0-2.79-2.15q-3.34,3.42-6.71,6.82a1.6,1.6,0,0,0,1.93,2.5c2.09-1,5.48-3,5.24-5.68a0.48,0.48,0,0,0-.47-0.47h0Z" transform="translate(-247.32 -176.57)"/><path class="cls-4" d="M323.74,322.65c3.86-4,12.33-3.59,16.05.44,4.22,4.56,2.43,13.08-3.54,15.28s-13.12-3-12-9.52a9.09,9.09,0,0,1,5.81-7.1c3.65-1.24,7.06.24,10.16,2.12,2,1.21,3.59-1.4,2.32-3-6.48-8.14-19.74-3.53-22.07,5.83-2.28,9.15,6.18,17.6,15.37,15.68,8.61-1.8,12.86-13,7.64-20.07a13.14,13.14,0,0,0-9.9-4.91c-4.24-.15-7.29,2-9.82,5.21,0,0,0,.06,0,0h0Z" transform="translate(-247.32 -176.57)"/><path class="cls-4" d="M390.51,252.79c0-1.62.42-3.78,2.14-4.51l-1-.41c0.88,3.47-.38,7.13.82,10.5a6.6,6.6,0,0,0,6.65,4.35,9.38,9.38,0,0,0,7.5-4.5c1.41-2.19,4-7.22,1.66-9.36a1.07,1.07,0,0,0-1-.27c-2.11.75-1.92,2.55-2.54,4.48-0.86,2.68-3.61,7.4-7.22,5.57-4-2-.19-9.44-4.83-11.55a0.69,0.69,0,0,0-1,.41c-0.56,2-1.39,3.1-1.16,5.28a0,0,0,0,0,0,0h0Z" transform="translate(-247.32 -176.57)"/><path class="cls-4" d="M389.28,270.82c3.24-1.45,5.76-3.56,9.54-3.13,3.53,0.4,7.27,2.68,6.68,6.69-0.45,3-3.45,5.88-6.64,5a6,6,0,0,1-3.32-2.71c-0.62-1-2.11-5.89.61-5.91a1.08,1.08,0,0,0,1-1.35l-0.14-.52a1.54,1.54,0,0,0-1.43-1.09c-6-.66-4.47,8.79-2.28,11.63a8.37,8.37,0,0,0,13.45.1A8.88,8.88,0,0,0,404.3,266c-4.94-2.79-12.69-.53-15.13,4.72a0.08,0.08,0,0,0,.1.1h0Z" transform="translate(-247.32 -176.57)"/><path class="cls-4" d="M393.09,268.34a6.38,6.38,0,0,0,.1,6.66l0.67-.67a4.69,4.69,0,0,1-.21-7.16l-0.92-.54a14.37,14.37,0,0,0-1.1,6.62c0.2,1.46,1.13,3.93,3,3.7a0.4,0.4,0,0,0,.34-0.6,14.87,14.87,0,0,0-1.33-1.59,5.16,5.16,0,0,1-.71-2.64,14.16,14.16,0,0,1,.89-5.2,0.56,0.56,0,0,0-.92-0.54,5.74,5.74,0,0,0,.5,8.79,0.49,0.49,0,0,0,.67-0.67,7.11,7.11,0,0,1-.51-6,0.24,0.24,0,0,0-.43-0.18h0Z" transform="translate(-247.32 -176.57)"/><path class="cls-4" d="M391.44,267.59l-0.18,0a0.07,0.07,0,0,0,0,.13c0.19,0-.51,3.09-0.55,3.52-0.14,1.58-.17,3.18-0.25,4.77l2.28-.31a11.85,11.85,0,0,1,.54-7.4c0.5-1.25-1.57-2.12-2.18-.92a8.23,8.23,0,0,0-.25,7c0.71,1.7,2.67,4.57,4.88,3.83a0.6,0.6,0,0,0,.35-0.86c-0.59-1.35-2.16-2.12-2.85-3.49a5.84,5.84,0,0,1-.06-5.28L391,267.7a13.3,13.3,0,0,0-.48,8.65,1.16,1.16,0,0,0,2.28-.31c0-2.55.33-5.09-.56-7.5-0.26-.71-0.36-1.12-0.78-0.88a0,0,0,0,0,0-.07h0Z" transform="translate(-247.32 -176.57)"/><path class="cls-4" d="M390.66,288.74c-0.8-4.11,3.23-.84,4.08-0.48a15.08,15.08,0,0,0,5.21,1.12,16.78,16.78,0,0,0,10.2-2.76,1.37,1.37,0,0,0-1.38-2.36c-5.75,3.25-11,2.92-17.1.72a0.54,0.54,0,0,0-.65.37,4.36,4.36,0,0,0-.43,3.4,0,0,0,0,0,.07,0h0Z" transform="translate(-247.32 -176.57)"/><path class="cls-4" d="M442.87,322.64a9.33,9.33,0,0,0-.94,1.88,15.8,15.8,0,0,0,.3,4.06c0.38,2.88.71,5.8,1.34,8.63,0.69,3.14,5.6,2.41,5.56-.75a49.6,49.6,0,0,0-1.79-12.67,2.79,2.79,0,0,0-2.65-2,4.06,4.06,0,0,0-2,.41,0.12,0.12,0,0,0-.05.13l0.06,0.35c0,0.09.14,0.06,0.15,0h0Z" transform="translate(-247.32 -176.57)"/><path class="cls-4" d="M460.37,317.85c-4.9,7.61-3.72,18.75-2.93,27.44a2.35,2.35,0,0,0,3.48,2c8.68-4.1,17.38-8.18,26-12.31,1.53-.73,1.63-3.47,0-4.17-8.77-3.73-17.09-8.69-25.64-12.91-2.37-1.17-4.45,2.29-2.09,3.58,8.36,4.55,17.2,8.48,25.29,13.5v-4.17c-8.66,4.14-17.3,8.32-25.94,12.49l3.48,2a129.47,129.47,0,0,1-.61-14.61c0.07-4.52.45-8.43-.77-12.78a0.18,0.18,0,0,0-.32,0h0Z" transform="translate(-247.32 -176.57)"/><path class="cls-4" d="M383.3,393.39c1.77,1.15,4,2.26,6.19,1.84a8.08,8.08,0,0,0,2.4-1.14q0.42-.46.8-1,2.74-1.89,4.86-.15c3.79,0.63,8.51.45,9.19-4.51,0.13-1-1.22-1.82-1.77-.75a5.85,5.85,0,0,1-3.5,3.35c-2.07.68-3.17-.62-5-1.15-1-.31-1.86-0.78-3-0.38a5.39,5.39,0,0,0-1.91,1.64c-0.93.89-2,2.37-3.46,2.6s-3.31-.58-4.62-0.93a0.3,0.3,0,0,0-.23.54h0Z" transform="translate(-247.32 -176.57)"/><path class="cls-4" d="M405.7,388.58a7.67,7.67,0,0,0,7,6.59c2.7,0.13,7.38-1.83,6.76-5.14a0.79,0.79,0,0,0-1-.55c-1.82.77-2.69,2.57-4.82,2.94-2.88.49-5.15-1.8-5.64-4.46-0.28-1.54-2.55-.86-2.32.64h0Z" transform="translate(-247.32 -176.57)"/><path class="cls-4" d="M387.76,401.79a6,6,0,0,0,4.93,3c2.81,0.2,3.55-1.41,5.67-2.53,4.6-2.44,5.64,1.6,9.55,1.71,1.86,0.05,3.22-.73,3.58-2.58l-1.82.74c3.74,1.67,9.55.35,9.78-4.45a1,1,0,0,0-1.65-.68c-1.94,2.19-4,4.14-7.17,2.86a1.24,1.24,0,0,0-1.52.87c-0.38,2.39-6.95-2.72-8.93-2.38-1.23.21-1.6,0.77-2.4,1.62-1.34,1.42-1.05,1.92-2.71,2.76a6,6,0,0,1-7.18-1,0.07,0.07,0,0,0-.12.09h0Z" transform="translate(-247.32 -176.57)"/><path class="cls-4" d="M387.28,197.2c0-.35-0.19.7,0,0.37,0,0,.07-0.26.07-0.26l-0.21.51a1.25,1.25,0,1,0-.29.37c-0.07.06-.73,0.45-0.31,0.27l-0.71.3,0.08,0a3,3,0,0,0,1.78-4.38,3,3,0,0,0-4.68-.6,3.64,3.64,0,0,0-1.17,2.67,3.89,3.89,0,0,0,1,2.61,2.59,2.59,0,0,0,2.86.54,2.63,2.63,0,0,0,1.61-2.39h0Z" transform="translate(-247.32 -176.57)"/><path class="cls-4" d="M385.21,198.67l16.87-.69c5.06-.21,10.72.29,15.59-1.21,2.37-.73,2.66-4.51,0-5.1-5-1.1-10.51-.2-15.59,0l-16.87.69c-4,.16-4.06,6.47,0,6.3h0Z" transform="translate(-247.32 -176.57)"/><path class="cls-4" d="M418,194.58a0,0,0,0,0,0,0,0,0,0,0,0,0,0h0Z" transform="translate(-247.32 -176.57)"/><path class="cls-4" d="M417.47,194.9a14.73,14.73,0,0,0,1.34,2.11,0.55,0.55,0,0,0,.91-0.53,15,15,0,0,0-.92-2.36c-0.38-.89-1.84-0.1-1.33.78h0Z" transform="translate(-247.32 -176.57)"/><path class="cls-4" d="M401.15,197.74l0.67-2.72-2.07-1.59c-1,3.45.27,6.85,1,10.25,0.8,3.74.66,7.79,2.22,11.28,1,2.16,4.26,1.39,4.83-.63,1.07-3.81-.24-8.51-1.09-12.29-0.81-3.62-1.77-7.2-4.89-9.45-1.46-1.05-2.93,1.41-1.42,2.43l0.65,2.72a0,0,0,0,0,.1,0h0Z" transform="translate(-247.32 -176.57)"/><path class="cls-4" d="M405.33,213.63a0,0,0,0,0,0,0,0,0,0,0,0,0,0h0Z" transform="translate(-247.32 -176.57)"/><path class="cls-4" d="M408.25,211.9a15.79,15.79,0,0,1-2.42-9.36c0.17-2.71,2.17-5.49.51-8a2.34,2.34,0,0,0-2.51-1l-0.7.1a3.15,3.15,0,0,0-2.2,2.2,22,22,0,0,0,1.88,19.23c2.1,3.46,7.56.3,5.44-3.18h0Z" transform="translate(-247.32 -176.57)"/><path class="cls-4" d="M401.17,195.62c0,3.68-.06,7.34-0.35,11-0.25,3.14-1.4,6.32.3,9.14a2.25,2.25,0,0,0,3.49.45c2.46-2.24,2.18-5.71,2.46-8.86,0.34-3.91.45-7.82,0.41-11.74s-6.35-4.06-6.3,0h0Z" transform="translate(-247.32 -176.57)"/><path class="cls-4" d="M403.22,214.69a0,0,0,0,0,0,0,0,0,0,0,0,0,0h0Z" transform="translate(-247.32 -176.57)"/><path class="cls-4" d="M492.09,229.37l-0.53.23c-0.36.15-.14,0.66,0.18,0.68,5.59,0.34,1.66,6.29.72,8.77a6.84,6.84,0,0,0,0,5.93c1.92,3.54,6.39,4.35,10,4.79,1.61,0.19,2.59-2.26,1.36-3.27-5.26-4.34,1.85-13.09-2.42-18.54-2.62-3.34-7.74-3.83-10.2-.18-1.21,1.79,1.15,4,2.9,2.9q3.48,1,2.32,3.83-0.3,1.18-.7,2.33a24.2,24.2,0,0,0-.92,3.44,7.81,7.81,0,0,0,1.25,6,2,2,0,0,0,3.41-2c-1.68-3.21-1.06-6.17-.66-9.57a1.48,1.48,0,0,0-2.5-1c-3.1,3.67-2.42,8.58-.25,12.6l3.41-2c-3.11-4.24,2.45-9.63.32-14.42-1.36-3.08-4.86-4.7-7.83-2.89l2.9,2.9c1.14-1.69,3,.49,3.41,1.23,0.88,1.5.51,3.36,0.29,5a42.07,42.07,0,0,0-.69,5.33c0,3,.82,5.82,3.24,7.72l1.36-3.27c-3.54-.37-8.09-1.39-7-6,0.67-2.78,2.64-4.88,2.1-7.92a4.29,4.29,0,0,0-3-3.52,3,3,0,0,0-1.92-.11c-1.71.71-.06,0.69-0.38,1.26a0.18,0.18,0,0,0-.24-0.24h0Z" transform="translate(-247.32 -176.57)"/><path class="cls-4" d="M306.88,241.08c1.87,3,3,6.46,4.54,9.63l4.37-3.37a5.85,5.85,0,0,1-2-3.47l-5.79.78,1.08,3.52a3,3,0,0,0,2.09,2.09,2.66,2.66,0,0,0,2.91-.77,3,3,0,0,0,.77-2.91l-1.16-3.5c-1.22-3.69-6.23-2.12-5.69,1.57a10.82,10.82,0,0,0,4.43,7.06c2.29,1.75,5.15-1.58,3.8-3.8a17.79,17.79,0,0,0-4.24-4.63,17.39,17.39,0,0,0-5-2.36,0.11,0.11,0,0,0-.13.16h0Z" transform="translate(-247.32 -176.57)"/><path class="cls-4" d="M299.55,237l-2.14,1.75a0.67,0.67,0,0,0-.13,1c3.51,3.2,9.53.91,13-1.1a26.41,26.41,0,0,0,11.1-12.28c1.53-3.33-3.28-6.28-5-2.92a24.41,24.41,0,0,1-9.23,9.87c-3.09,1.8-7.59,2.68-9.92,5.49l1.11,0.65,1.2-2.47a0,0,0,0,0,0,0h0Z" transform="translate(-247.32 -176.57)"/><path class="cls-4" d="M319.58,225.28a0,0,0,0,0,0,0,0,0,0,0,0,0,0h0Z" transform="translate(-247.32 -176.57)"/><path class="cls-4" d="M319.58,225.28a0,0,0,0,0,0,0,0,0,0,0,0,0,0h0Z" transform="translate(-247.32 -176.57)"/><path class="cls-4" d="M317.12,226.71l6.79,11.93a3.25,3.25,0,0,0,3.56,1.45,2.39,2.39,0,0,0,1.39-.81,3.25,3.25,0,0,0,.49-3.82l-6.79-11.93c-2-3.53-7.45-.35-5.44,3.18h0Z" transform="translate(-247.32 -176.57)"/><path class="cls-4" d="M324.69,236.64a3.88,3.88,0,0,0-.06,3.73,4.43,4.43,0,0,0,1.65,1.67,3.78,3.78,0,0,0,3.73.14,3.36,3.36,0,0,0,1.72-2.84,2.92,2.92,0,0,0-2-2.66,3,3,0,0,0-.93-0.11l0.77,0.1a7.06,7.06,0,0,0,1.1.65,3.35,3.35,0,0,0-1.41-.8,3.25,3.25,0,0,1-.38-0.12l0.75,0.32a1.88,1.88,0,0,1-.31-0.18l0.63,0.49a1.49,1.49,0,0,1-.24-0.24l0.49,0.64a0.85,0.85,0,0,1-.08-0.14L330.4,238a0.94,0.94,0,0,1-.06-0.23l0.11,0.84a0.6,0.6,0,0,1,0-.16l-0.11.84a0.65,0.65,0,0,1,.05-0.16l-0.32.75,0-.08a3.15,3.15,0,0,0-5.44-3.18h0Z" transform="translate(-247.32 -176.57)"/><path class="cls-4" d="M518.79,323.54c1.38,4,6.53,4.6,10.18,5.34,4.25,0.86,10.1,2.87,14.09.67a2.24,2.24,0,0,0,.45-3.49c-3.56-3-9.24-2.44-13.69-3.32-3.54-.7-7.73-2.38-10.85.12a0.69,0.69,0,0,0-.18.69h0Z" transform="translate(-247.32 -176.57)"/><path class="cls-4" d="M543.5,330.68a8.39,8.39,0,0,0,1.14-.87,2.66,2.66,0,0,0,0-3.69,8.35,8.35,0,0,0-1.14-.87,3.11,3.11,0,0,0-3.18,0,3.15,3.15,0,0,0,0,5.44,3.11,3.11,0,0,0,3.18,0h0Z" transform="translate(-247.32 -176.57)"/><path class="cls-4" d="M543,329.54a1.58,1.58,0,0,0,0-3.15,1.58,1.58,0,0,0,0,3.15h0Z" transform="translate(-247.32 -176.57)"/><path class="cls-4" d="M540.49,329.26l-0.94,8.3c-0.08.74-.28,7.42-0.64,7.63l2.32-.3c2.1,0.5-.49-0.15-0.41-0.15a4.41,4.41,0,0,0-1.48.06,2.87,2.87,0,0,0-1.69,4.16l0.18,0.36a3.06,3.06,0,0,0,3.41,1.39c3.62-.94,3.64-4.46,4-7.61l1.57-13.83c0.46-4-5.85-4-6.3,0h0Z" transform="translate(-247.32 -176.57)"/><path class="cls-4" d="M532.08,332.19c-1.8.93-2.07,3.65-2.46,5.42a74.49,74.49,0,0,0-1.36,8.7,3,3,0,0,0,3,3c3.24-.37,8.21-0.28,10.88-2.22a2.67,2.67,0,0,0-.63-4.81c-3.17-1.08-7.83.45-11.06,1.07l3.84,2.93a68.34,68.34,0,0,0-.43-9.18c-0.19-1.7-.18-3.89-1.72-4.94a0.09,0.09,0,0,0-.09,0h0Z" transform="translate(-247.32 -176.57)"/><path class="cls-4" d="M540.08,342.19L525.88,345c-4.29.83-8.86,1.21-12.8,3.15-2.54,1.25-1.06,4.75,1.33,4.92,4.35,0.32,8.88-1.17,13.14-2l14.19-2.76c4-.77,2.29-6.85-1.68-6.08h0Z" transform="translate(-247.32 -176.57)"/><path class="cls-4" d="M515.24,353.36L528.7,351c3.81-.66,7.56-0.7,10.63-3.15,1.44-1.15.44-3.3-1-3.79-3.64-1.25-7.61.22-11.31,0.87l-13.46,2.34c-4,.69-2.3,6.77,1.68,6.08h0Z" transform="translate(-247.32 -176.57)"/><path class="cls-4" d="M531.4,329c-1.23,1.63-1.48,1.39-2,3.22a28.9,28.9,0,0,0-.63,3.56c-0.41,2.88-.68,5.91.39,8.67a2.75,2.75,0,0,0,2.55,1.94,2.16,2.16,0,0,0,.7-0.09,2.77,2.77,0,0,0,1.94-2.55c0.3-2.67-.44-5.37-0.88-8-0.2-1.17-.32-2.37-0.55-3.53-0.34-1.66-.66-1.63-1.47-3.22a0,0,0,0,0-.06,0h0Z" transform="translate(-247.32 -176.57)"/><path class="cls-4" d="M261.16,324.75c1.5-1.92,4.22-2.35,6.52-3a11.26,11.26,0,0,1,8.41.4c5,2.58,6.08,10.09,2.32,14.19-3.47,3.77-10.66,3.28-13.55-1-3.63-5.39.69-10.07,4.47-13.51,1.58-1.44.44-4.79-1.87-4.51-9.32,1.11-12.56,14-8,21.2,4.7,7.46,16.24,8.89,22.72,3,6.8-6.19,6.23-18.23-1.22-23.64a16,16,0,0,0-12.91-2.5,11.13,11.13,0,0,0-5.67,3c-1.75,2.05-1.35,3.87-1.26,6.36a0.05,0.05,0,0,0,.08,0h0Z" transform="translate(-247.32 -176.57)"/><path class="cls-4" d="M267.7,320.56a0,0,0,0,0,0,0,0,0,0,0,0,0,0h0Z" transform="translate(-247.32 -176.57)"/><path class="cls-4" d="M318.59,416.06l0.52,0.31V412c-3.95,2.73-7,6.6-9.88,10.35-2.41,3.1-7,7.41-6.54,11.58a2.24,2.24,0,0,0,2.8,2.13c3.85-1.3,5.62-6,8-9.08,2.93-3.9,6.52-7.38,9.13-11.5,3-4.69-7.35-4.76-4.39,0-0.37-.6.25,0.52,0.39,0.6h0Z" transform="translate(-247.32 -176.57)"/><path class="cls-4" d="M306.65,435.82c0.9-1,2.44-.11,3.09.81,1.4,2,.94,4.73,1.36,7,0.54,2.87,5.4,2.95,5.87,0,0.68-4.23-.35-9.68-3.86-12.47-3.16-2.51-8-2.93-10.92.23-2.73,3,1.72,7.46,4.46,4.46h0Z" transform="translate(-247.32 -176.57)"/><path class="cls-4" d="M314.28,442.31a0,0,0,0,0,0,0,0,0,0,0,0,0,0h0Z" transform="translate(-247.32 -176.57)"/><path class="cls-4" d="M388.44,445.44l-1-2.6c-0.85-2.75-5.24-1.53-4.31,1.19,1.47,4.31,4.38,8,7.1,11.58,2.28,3,4.65,7.73,8.53,8.63a2.23,2.23,0,0,0,2.8-2.13c-0.16-4-4.06-7.16-6.37-10.18-2.61-3.41-5-7.28-8.31-10.07l0.35,2.71,1,1.05c0.11,0.14.31,0,.23-0.18h0Z" transform="translate(-247.32 -176.57)"/><path class="cls-4" d="M399,462.43a0,0,0,0,0,0,0,0,0,0,0,0,0,0h0Z" transform="translate(-247.32 -176.57)"/><path class="cls-4" d="M399,465.57h7c2,0,4.79-.64,4.79-3.15,0-2.33-2.54-3.11-4.42-3.15-2.44-.06-4.89,0-7.33,0-4.06,0-4.06,6.3,0,6.3h0Z" transform="translate(-247.32 -176.57)"/><path class="cls-4" d="M408.56,445.52c0.58-.9,1.55-2.88,0-2.87-0.5,0-1.88,2.54-1.73,2.24-1.14,2.33-1.14,5.53-1.28,8-0.34,6.06-.53,13.67,2.29,19.18,1.28,2.49,4.77,1.1,4.92-1.33,0.36-5.57-1.27-11.23-1.08-16.9,0.12-3.6,1.83-8.91-1.4-11.55a0.44,0.44,0,0,0-.72.19,29,29,0,0,1-1.11,3s0,0,0,0h0Z" transform="translate(-247.32 -176.57)"/><path class="cls-4" d="M406.85,472.48a8.39,8.39,0,0,0,.87,1.14,2.66,2.66,0,0,0,3.69,0,8.35,8.35,0,0,0,.87-1.14,3.11,3.11,0,0,0,0-3.18,3.15,3.15,0,0,0-5.44,0,3.11,3.11,0,0,0,0,3.18h0Z" transform="translate(-247.32 -176.57)"/><path class="cls-4" d="M408.56,471.49a48,48,0,0,1-12-1.35c-1.4-.35-4.55-0.89-3.19-2.58,0.88-1.09,3.67-.84,5-1.15a2.82,2.82,0,0,0,2-2,3.91,3.91,0,0,0,0-1.52,2.8,2.8,0,0,0-2-2c-5.89-1.68-14.62,3.33-11.54,10.29,1.41,3.18,5,4.25,8.08,5a55.07,55.07,0,0,0,13.63,1.57c4.05,0,4.06-6.32,0-6.3h0Z" transform="translate(-247.32 -176.57)"/><path class="cls-4" d="M467.77,428.53l1.5-2-2.83-.74c2,3.27,5.72,5.32,8.58,7.8s5.23,5.91,8.7,7.29c1.88,0.75,3.8-1.46,3.24-3.24-1.16-3.67-5.13-6.43-8-8.81s-6.29-5.53-10.18-6.08c-2-.28-3.49,1.81-2,3.45l1,2.3a0,0,0,0,0,0,0h0Z" transform="translate(-247.32 -176.57)"/><path class="cls-4" d="M484.74,439.64a1.58,1.58,0,0,0,0-3.15,1.58,1.58,0,0,0,0,3.15h0Z" transform="translate(-247.32 -176.57)"/><path class="cls-4" d="M485.62,441.26a27.46,27.46,0,0,0,15.14-11.42c1.72-2.67-2.44-6-4.48-3.46a26.45,26.45,0,0,1-12.33,8.8c-3.85,1.24-2.2,7.32,1.68,6.08h0Z" transform="translate(-247.32 -176.57)"/><path class="cls-4" d="M498.5,430.11a1.58,1.58,0,0,0,0-3.15,1.58,1.58,0,0,0,0,3.15h0Z" transform="translate(-247.32 -176.57)"/><path class="cls-4" d="M481.83,411.31c-0.37,1.05-.91.9-1.45,1.63a8.32,8.32,0,0,0-1.58,3.52c-0.41,2-.45,4.34.95,6,1.58,1.86,3.43,1.49,5.57,1.78,2.75,0.38,3.05,2.62,4.83,4.26a2.64,2.64,0,0,0,4.37-1.15c1.14-4-2.78-7.72-6.3-8.83a22.65,22.65,0,0,0-2.9-.47c-1.29-.23-0.81.72-1.09-1a10.77,10.77,0,0,0-.91-3.23c-0.39-.78-1.28-1.58-1.34-2.47a0.07,0.07,0,0,0-.15,0h0Z" transform="translate(-247.32 -176.57)"/></svg>