<svg id="Layer_1" data-name="Layer 1" xmlns="http://www.w3.org/2000/svg" viewBox="0 0 694.94 67.69"><defs><style>.cls-1{fill:#6b858e;}</style></defs><title>Wheel-of-fortune-title</title><path class="cls-1" d="M54.88,296.44c3.56,0.88,6.58.65,9.87,2.67,3.64,2.24,5.78,6.1,7.77,9.79,4.43,8.2,7.16,17.56,9.26,26.6,0.94,4,7,2.31,6.17-1.7-2.44-12-6.23-24.92-12-35.78-2.34-4.39-6.34-7.67-11.39-8.14-3.79-.35-8.62.64-10.66,4.14a1.66,1.66,0,0,0,1,2.41h0Z" transform="translate(-53.69 -287.43)"/><path class="cls-1" d="M97.27,306.89c0.58-1.55-.53.21-0.78,0.74-0.39.82-.64,1.76-1,2.61q-1.66,4.42-3.7,8.69a134.93,134.93,0,0,1-7.6,13.79l1.44,0.84c4.2-9.73,8.87-19.24,13.1-29,0.67-1.54-1.46-2.9-2.31-1.35-5.32,9.75-11,20.28-13.91,31-0.36,1.32,1.67,2.28,2.28,1,4.73-10.23,8.56-20.7,13.94-30.66l-2.31-1.35c-4.21,9.77-8,19.71-12.23,29.46a0.83,0.83,0,0,0,1.44.84c5.54-8.69,10.8-18.66,12.55-28.93,0-.25-0.33-0.37-0.39-0.11a14.39,14.39,0,0,1-.64,2.34c0,0.05.06,0.07,0.08,0h0Z" transform="translate(-53.69 -287.43)"/><path class="cls-1" d="M86.1,294.55c3.11,2.78,8.46,3.41,12.43,4.29L97.26,294a7.73,7.73,0,0,0-1.93,2.73c-1.17,2.52,1.34,5.79,4.08,4.08,1.84-1.15,3.64-2.36,5.44-3.56l-3.78-3.78c-3.75,6.25-1.56,12.87,1.05,19.14a161.34,161.34,0,0,0,11.26,22l3.12-1.82c-6.08-9.41-11.89-19-17.9-28.41a2.12,2.12,0,0,0-3.67,2.14,192.69,192.69,0,0,0,17.76,27.21c1.67,2.12,4.52-.58,3.51-2.71a235,235,0,0,0-17.26-30.4c-1.45-2.15-4.94-.15-3.5,2a235.08,235.08,0,0,1,16.91,30.61l3.86-2.26A217.5,217.5,0,0,1,98.6,304.39l-3.67,2.14c6.12,9.4,12.4,18.64,18.45,28.09,1.25,1.95,4.33.18,3.12-1.82a107,107,0,0,1-8.93-18c-2.08-5.56-5.53-13.05-1.73-18.55,1.64-2.38-1.51-5-3.78-3.78-1.9,1-3.8,2.08-5.66,3.19l4.38,3.37,0.55-1a2.92,2.92,0,0,0-2-4.91c-4.1-.41-9.58-1.06-13.18,1.29a0,0,0,0,0,0,.07h0Z" transform="translate(-53.69 -287.43)"/><path class="cls-1" d="M126.87,300.27q0.55-1.07,1.12-2.12l-1-.56c-5.5,10.59-8.78,22.56-12.8,33.77-0.76,2.12,2.48,2.9,3.31.91q6.73-16.11,13.51-32.2c1.07-2.54-3.36-4.44-4.49-1.89l-9.7,21.71,4.28,1.81c2.65-8,5.29-16,7.77-24.12a2.06,2.06,0,0,0-1.43-2.51l-4.34-.9V298c5-.84,9.95-1.38,15-1.79,2.7-.22,2.77-4.39,0-4.26-5.72.27-11.43,0.51-17.15,0.83-2.44.14-3.33,4.11-.61,4.53a75.91,75.91,0,0,0,16,.84c3-.17,3.06-4.72,0-4.71h-8.19c-3.06,0-3.07,4.78,0,4.76l8.19-.06v-4.71a69.92,69.92,0,0,1-14.79-.58l-0.61,4.53c5.72-.35,11.43-0.78,17.15-1.18V292c-5.37.56-10.7,1.33-16,2.18-2,.31-1.85,3.47,0,3.87l4.33,1L125,296.49c-2.89,8-5.62,16-8.35,24-0.84,2.48,3.17,4.24,4.28,1.81l9.9-21.6-4.49-1.89q-6,16.3-12.08,32.59l3.31,0.91C121.21,321,125.92,309.65,128,298c0.13-.7-0.92-1-1.08-0.3s-0.34,1.58-.53,2.37a0.24,0.24,0,0,0,.43.18h0Z" transform="translate(-53.69 -287.43)"/><path class="cls-1" d="M137.72,298a4.15,4.15,0,0,1,3.52-2l-1.94-1.94c-1.46,4.63-1.08,10-1.12,14.79L138,325.2h5.51c0.07-8.69,1.17-18.88-.64-27.39a2.2,2.2,0,0,0-4.21,0c-0.91,4.23-.53,8.71-0.57,13,0,4.79-.12,9.57-0.09,14.36,0,3.55,5.54,3.55,5.51,0l-0.11-16.29c0-4.82.37-10.15-1.08-14.79a1.6,1.6,0,0,0-2.64-.7,6,6,0,0,0-2.29,4.55c0,0.18.25,0.2,0.31,0h0Z" transform="translate(-53.69 -287.43)"/><path class="cls-1" d="M137.94,298.37a161.89,161.89,0,0,0-.15,39.45c0.46,3.74,6.28,3.93,6,0q-1.38-20.4-1.55-40.84c0-4-5.59-3.76-6,0a151.67,151.67,0,0,0-1,19.64q0.09,4.43.45,8.84c0.21,2.55,1.84,9.29-1.43,10.57-2.91,1.13-2.73,5.72.78,5.73a49.79,49.79,0,0,0,7.39-.57c3.1-.46,2.4-5.89-0.75-5.52a42.1,42.1,0,0,1-6.64.26l0.78,5.73c7-2.41,6.58-9,6-15.21a148,148,0,0,1,.38-29.46h-6q0.17,20.44,1.55,40.84h6a176.28,176.28,0,0,1-.56-39.45c0.35-3.42-4.9-3.33-5.31,0h0Z" transform="translate(-53.69 -287.43)"/><path class="cls-1" d="M143.85,314.55c-1.27-.63-0.75,1-0.19,1.5,1.77,1.64,5.64,1.65,7.9,1.81A34.86,34.86,0,0,0,162,316.67c2-.48,1.64-3.86-0.5-3.68-6,.53-12,1.19-18,1.85l0.49,3.65c5.9-1,11.09-.34,17-0.18,2.37,0.06,3-3.78.57-4.22-5.89-1.07-12.66-.12-18.54.81-2,.32-1.59,3.84.49,3.65,6-.57,12-1.12,18-1.82l-0.5-3.68a58.63,58.63,0,0,1-9.42,1.61q-2,.2-4,0.27-1,0-2,0-1.23.73-1.74-.35a0,0,0,0,0,0-.08h0Z" transform="translate(-53.69 -287.43)"/><path class="cls-1" d="M159.6,292.47c1.61,4,4.86,5.72,9.18,5.59l-0.81-6a16.52,16.52,0,0,1-6,.67l0.81,6c3.41-1.09,1.22,8.88,1,10.78a119.52,119.52,0,0,0,.79,33.49c0.44,2.5,4.11,4.05,6.19,2.52,6.57-4.87,2.52-14.1,1.49-20.78-0.81-5.22-1.4-10.48-1.8-15.75-0.33-4.28.6-9.9-2-13.46a2.54,2.54,0,0,0-4.31,0c-2.07,2.93-1.42,6.24-1.32,9.71q0.19,6.09.72,12.17c0.31,3.47.7,6.93,1.16,10.38,0.17,1.24,1.86,10.44,1.84,10.45l6.19,2.52a114.55,114.55,0,0,1-1.57-34.1c0.45-4,.83-7.89-2-11.15a7.62,7.62,0,0,0-8-2.66c-3.6.91-2.37,5.59,0.81,6a15,15,0,0,0,7.67-.89c3-1.1,2.87-6.36-.81-6a26.39,26.39,0,0,1-8.17-.5,0.83,0.83,0,0,0-1,1h0Z" transform="translate(-53.69 -287.43)"/><path class="cls-1" d="M167.44,298.82a2.68,2.68,0,0,0,1.51-.69,2,2,0,0,0,0-2.84,2.75,2.75,0,0,0-1.51-.69,2.19,2.19,0,0,0-2.13,3.65,2.31,2.31,0,0,0,2.13.56h0Z" transform="translate(-53.69 -287.43)"/><path class="cls-1" d="M207.5,302.95c2.58-2.56,2.79-5.31.93-8.42a1.83,1.83,0,0,0-2-.81A48.32,48.32,0,0,1,184,293a2.14,2.14,0,0,0-2.67,2c-0.53,9.23-.89,18.46-1,27.7-0.06,4.59-.31,9.27-0.05,13.85,0.13,2.42.38,4.92,2.41,6.54,2.39,1.91,5.71,1.31,8.52,1.11,4.49-.32,8.93-0.8,13.39-1.37,5.94-.76,9.7-2.24,8-9.06l-4.11,1.73-4.26,3.07q-1.29,0-2.58,0l-4.94-.09c-1.78,0-8.06.77-9.08-.71l-0.33,2.57c4.14-3.89,3.53-9.14,3-14.35a107.35,107.35,0,0,1,.28-24.71h-5.28c-0.64,9.68-1.36,19.36-1.77,29-0.13,3.2,4.63,3.1,4.92,0,0.89-9.67,1.47-19.36,2.13-29,0.24-3.46-4.84-3.26-5.28,0a75.81,75.81,0,0,0-.4,19c0.61,5.09,3.66,12.92-.62,17a2.14,2.14,0,0,0-.33,2.57c1.77,2.51,3.85,2.45,6.82,2.57,4.68,0.19,9.58.65,14.25,0.36,5.33-.32,9.7-4.1,7.35-9.59-1-2.43-4.65-.64-4.11,1.73,0.9,3.92-5.24,2.88-7.49,3-2.56.1-5.1,0.29-7.65,0.54-1.66.16-6.08,1.44-7.45-.18-1.07-1.28-.35-7.18-0.37-8.68-0.22-11.54-.11-23.09.27-34.62l-2.67,2a43.48,43.48,0,0,0,24.5.06l-2-.81a7.34,7.34,0,0,1,1.29,6.13,0.51,0.51,0,0,0,.85.49h0Z" transform="translate(-53.69 -287.43)"/><path class="cls-1" d="M185.87,320.46c1.75-2.42,4.89-.13,6.93.33a8.21,8.21,0,0,0,5-.6,5.57,5.57,0,0,0,2.79-7.51c-1-2-4.06-.95-4.05,1.1q0,2.82,0,5.64c0,2.88,4.47,2.89,4.48,0V315H196.5q0.47,5,1,10l4.06-1.68a21.19,21.19,0,0,0-1.68-1.53,1.35,1.35,0,0,0-2.27.94,21.34,21.34,0,0,0-.12,2.28c0.06,3.11,5.1,3,4.76,0q-0.56-5-1.14-10c-0.33-2.85-4.65-3-4.59,0l0.09,4.37h4.48l-0.14-5.64-4.05,1.1c1,2-7.13,2.23-8.2,2.56a4.37,4.37,0,0,0-3.09,2.9,0.16,0.16,0,0,0,.29.12h0Z" transform="translate(-53.69 -287.43)"/><path class="cls-1" d="M219.94,299.26c0.38-1.52.47-3.07,0.84-4.59,0.46-1.9-2.33-3.27-3.28-1.38C214.12,300,215,308.72,214.93,316c-0.08,8.11-.9,16.77.49,24.78a3.75,3.75,0,0,0,4.6,2.61c6.29-2.4,13.52-.6,20-2.31a3.08,3.08,0,0,0,2.23-2.93c-0.08-1.85-1.13-3.36-3-3.39a0.43,0.43,0,0,0-.3.73l0.26,1,1.21-1.21c-6.13.43-14.19,2.27-20.31,0.84l2.61,4.6c1.4-8,.58-16.66.51-24.78-0.06-7.27.83-16-2.54-22.71l-2.46,2.46a2.89,2.89,0,0,1,1.49,3.47,0.16,0.16,0,0,0,.31,0h0Z" transform="translate(-53.69 -287.43)"/><path class="cls-1" d="M239.51,332v0.44l-0.58-.33c0.36,0.61-.24,2.53-0.31,3.15-0.16,1.32,0,3-.42,4.22-0.9,2.51,3.66,3.45,3.76.51q0.06-1.86.13-3.73l-1.48,1.94,0.16-.06-2-.52,0.09,0.08-0.59-1.43,1.57-1.4,1.45,0.6q0.18,0.58.09-.08l-0.13-.94a5,5,0,0,0-.47-1.22,5.77,5.77,0,0,0-1.91-2,5.65,5.65,0,0,0-5.68-.26c-2.11,1-1,4.2,1.15,4.24a52.52,52.52,0,0,0,8-.06,2.36,2.36,0,0,0,1.71-2.61,2.42,2.42,0,0,0-2.34-2.06,49.06,49.06,0,0,0-7.36.18l1.15,4.24a1.26,1.26,0,0,1,1.67.61,10.12,10.12,0,0,1,.29,1.52,2.92,2.92,0,0,0,1.24,1.6c2.36,1.46,5.09-2,2.95-3.84a2,2,0,0,0-2-.52l-0.16.07a2.1,2.1,0,0,0-1.48,1.94q0,1.86.08,3.73l3.76-.51c-0.54-1.52-.33-3.56-0.53-5.17-0.11-1-.07-2.12-0.88-2.79s-2.38-.26-2.06,1.08a0.6,0.6,0,0,0,.42.42l0.2,0.06c0.62,0.18,1.07-.8.45-1.07h0Z" transform="translate(-53.69 -287.43)"/><path class="cls-1" d="M241.5,307.07c0.64-4,2.26-10-2.09-12.42-2.39-1.35-5.36-.79-8-0.63l-11.94.75,1.12,4.15c1.8-.83,3.69-1,5.57-1.46a1.26,1.26,0,0,0,.55-2.09c-2.68-2.09-5.4-1.68-8.36-.3-2,.93-1,4.28,1.12,4.15,4.72-.3,9.45-0.62,14.17-0.89,1.55-.09,1.77-0.26,3.1.89s1.22,1.41,1.13,3.08a11.47,11.47,0,0,0,.28,4.77c0.51,1.42,3,1.82,3.3,0h0Z" transform="translate(-53.69 -287.43)"/><path class="cls-1" d="M217.9,319.39c4.68,2.34,10.41,1.24,15.49,1.08a2.25,2.25,0,0,0,2.14-2.81c-0.57-2.28-1.13-4.57-1.72-6.85a2.31,2.31,0,0,0-4.52.61l0.14,10.33c0,2.68,3.68,3,4.52.61a3.62,3.62,0,0,0-.37-3.27,1.91,1.91,0,0,0-2.08-.85l-0.29.05a1.29,1.29,0,0,0-.93.93,2.56,2.56,0,0,1-.18.9l3.93,1.63-0.14-10.33-4.52.61c0.61,2.27,1.25,4.54,1.89,6.8l2.14-2.81c-5.08.3-11-.29-15.49,2.48a0.51,0.51,0,0,0,0,.88h0Z" transform="translate(-53.69 -287.43)"/><path class="cls-1" d="M259.37,296.76a9.22,9.22,0,0,1,3.43,1.69l1-1.73c-3.35-1.7-7.06-1.9-10.74-2.39-2.61-.35-2.74,3.17-1.18,4.36a9.18,9.18,0,0,0,10.92.38c1.9-1.21,1.24-4.46-1.19-4.4a35.36,35.36,0,0,1-7.9-.64c-1.38-.27-3.15.64-3,2.29A347.87,347.87,0,0,1,251.83,339a2.48,2.48,0,0,0,3.11,2.37,35.26,35.26,0,0,1,13.37-1.11c2.78,0.33,6,1.7,8.79.47,4.28-1.92,3.17-7.55,3.79-11.29a2,2,0,0,0-3.26-1.9,4.81,4.81,0,0,0-1.83,3.43c-0.13.71,0.11,3-.23,3.58-1,1.82-3.85,1.19-5.37,1a40.35,40.35,0,0,0-16.57,1.12l3.11,2.37a347.94,347.94,0,0,0-1.28-42.63l-3,2.29a40.92,40.92,0,0,0,9.17.78l-1.19-4.4a5.2,5.2,0,0,1-6.17-.35L253.07,299c3.56,0.16,7.06.57,10.5-.47,0.87-.26,1-1.76,0-1.93a14.09,14.09,0,0,0-4.17-.1,0.12,0.12,0,0,0,0,.23h0Z" transform="translate(-53.69 -287.43)"/><path class="cls-1" d="M276.48,328.69c0,1.23.81,6.21,0.08,7.1-1.2,1.47-5,.8-6.71.79-2.16,0-5.88.46-7.88-.38-4-1.68-3.43-5.3-3.77-8.72-1.06-10.61-1.68-21.3-.23-31.91l-5.12-.69c0.3,13.5.66,27,.92,40.5,0.07,3.57,5.66,3.57,5.54,0-0.47-13.5-.82-27-1.26-40.5-0.11-3.45-4.8-3.24-5.21,0a123.86,123.86,0,0,0-.12,26.84c0.35,3.84.79,7.68,1.25,11.51,0.27,2.25.3,4.67,2.16,6.22,2.24,1.86,6.11,1.52,8.77,1.64,3.84,0.18,8.06.5,11.88-.19,5.91-1.08,4.23-7.7,4.13-12.21-0.06-2.86-4.48-2.87-4.45,0h0Z" transform="translate(-53.69 -287.43)"/><path class="cls-1" d="M259.57,336.24a166.15,166.15,0,0,0,1.1-21.89c-0.09-4.71,1.14-12.44-3-15.49a1.41,1.41,0,0,0-1.7.22c-1.82,2-1.62,3-1.41,5.74,0.27,3.49.45,7,.5,10.48A165.86,165.86,0,0,1,254,336.24c-0.4,3.59,5.21,3.56,5.62,0h0Z" transform="translate(-53.69 -287.43)"/><path class="cls-1" d="M330.74,328.92c2.37-1.57,5.92-2.47,8.59-1.08,3.2,1.67,5.17,7.16.65,8.52-2.47.74-6,.48-7.89-1.43-2.29-2.28-.52-4.22,1.2-5.9a2.05,2.05,0,0,0-1.43-3.46c-5.58-.43-6.52,7.73-4.2,11.26,3,4.57,10.59,5.64,15.19,3.09,5.5-3,4.43-10.49,0-13.95-4.15-3.23-10.22-2.39-12.52,2.52a0.31,0.31,0,0,0,.43.43h0Z" transform="translate(-53.69 -287.43)"/><path class="cls-1" d="M354,303.42q-0.1-1-.19-2.05a0.46,0.46,0,0,0-.33-0.43c-9-3-10.07,10.29-7.72,15.66s7,9.15,9.81,14.22a20.28,20.28,0,0,1,2.49,10.06c-0.08,3.61-1.35,12.65-7.47,9.68a1.07,1.07,0,0,0-1.55,1.19c1.23,4,5.64,4.25,8.68,1.85,4-3.14,4.79-9.67,4.47-14.37-0.44-6.41-3.44-11.5-7.41-16.37-2.61-3.21-5.72-6.48-6.65-10.66a8.42,8.42,0,0,1,1.81-7.62c1-1.16,2.91-3.43,3.6-1.08,0.07,0.24.49,0.21,0.46-.06h0Z" transform="translate(-53.69 -287.43)"/><path class="cls-1" d="M365.45,316.79a42.27,42.27,0,0,1-2.65,6.49c-1.1,1.94-3,3.39-4,5.36-0.59,1.26.42,3.25,2,2.64,5-1.88,7.11-9.89,5.28-14.49a0.35,0.35,0,0,0-.68,0h0Z" transform="translate(-53.69 -287.43)"/><path class="cls-1" d="M360.33,331a7.84,7.84,0,0,0,7-7c0.66-4.58-2.37-8.45-5.3-11.59l-2.68,3.47c2.5,1.79,3.85,4.2,5.74,6.52,1.31,1.61,3.8-.14,3.33-1.94-0.94-3.52-4-6.33-6.83-8.4-2.11-1.53-4.31,1.7-2.68,3.47s3.46,3.71,3.92,6.09c0.35,1.82-.27,4.61-2.51,4.84-2.87.3-2.89,4.84,0,4.53h0Z" transform="translate(-53.69 -287.43)"/><path class="cls-1" d="M432.94,303.69c2.2-2.24,1.91-5.19,2.11-8.24h-4.7l1.05,9.3c0.28,2.51,4.4,3.68,4.88.66,0.51-3.18,2-8.13.26-11.13s-6.64-2.41-9.6-3a140.54,140.54,0,0,0-15.64-2.65c-4.8-.44-8.82-1-12.77,2.06a1.94,1.94,0,0,0,0,2.7c4.37,4.78,12.46,4,18.48,4.25,3.81,0.13,7.61-.52,11.42-0.63l1.9,0.12q2.11-1,1.6.8c0.73,1.47-.32,5.25-0.53,6.83l4.88-.66L435,294.83c-0.37-2.61-4.79-2-4.62.62,0.2,3-.1,6,2.1,8.24a0.36,0.36,0,0,0,.5,0h0Z" transform="translate(-53.69 -287.43)"/><path class="cls-1" d="M408,293.64c-3.87,5.33-4.71,12.26-5.53,18.64a155.94,155.94,0,0,0-.87,22.13H410c-0.26-13.25-.17-26.48.48-39.72h-8.29c0.48,11.77.82,23.55,1.43,35.3,0.17,3.37.53,6.15,3.2,8.39,3.08,2.59,6,0,9.4,1l0.64-4.76a17.62,17.62,0,0,1-7.2-1.47c-2.69-1-4.05,3-1.86,4.42a13.25,13.25,0,0,0,9.06,1.89,2.44,2.44,0,0,0,.64-4.76,62,62,0,0,0-6.89-.4l-0.73,2.76c2.12-1.88,1.82-4.47,1.78-7.11-0.06-3.92-.27-7.85-0.4-11.77l-0.8-23.54c-0.18-5.35-8-5.32-8.29,0-0.74,13.23-1,26.47-.64,39.72,0.16,5.42,8.58,5.45,8.45,0-0.17-7.08.12-14.11,0.42-21.17,0.27-6.36,1.17-13.17-.69-19.36a1,1,0,0,0-1.78-.23h0Z" transform="translate(-53.69 -287.43)"/><path class="cls-1" d="M422,309.3a3,3,0,0,0-1.51-2.54,1,1,0,0,0-1.25.16c-2.9,2.74-2.16,8.43-1.3,11.89,0.55,2.22,4.26,2.41,4.69,0s0.78-5.11,1.16-7.67a2.69,2.69,0,0,0-1.16-2.86,2,2,0,0,0-2-.26,2.68,2.68,0,0,0-1.86,2.44c-0.33,2.56-.7,5.12-1,7.69l4.78-.65a22.8,22.8,0,0,1-1.2-5.35c-0.16-1.6.09-3.26-.47-4.79l-1,1.3,1.6,0.74a0.24,0.24,0,0,0,.44-0.12h0Z" transform="translate(-53.69 -287.43)"/><path class="cls-1" d="M421,313.6c-1.94-3.58-7.24-4.91-11.06-4.5a3.21,3.21,0,0,0,0,6.41c1.78,0.15,3.54.17,5.31,0.39a14.18,14.18,0,0,0,4.81,0,1.58,1.58,0,0,0,.94-2.3h0Z" transform="translate(-53.69 -287.43)"/><path class="cls-1" d="M453.44,294.75q-1.28-.44-1.71,1.18-0.61.76-1.21,1.54a66.85,66.85,0,0,0-3.78,5.55,23.69,23.69,0,0,0-3.68,9.79c-0.73,7.07,3.52,15.07,8.23,20.14,4.87,5.24,13.42,5.08,19.94,3.88,7-1.28,14.47-4.6,18.28-10.85,6.82-11.19,1.47-28.49-9.58-35-8.44-5-34.65-6.59-32.18,9.19,0.18,1.16,1.82.75,1.92-.26,0.87-9.22,11.16-9.38,18.18-8.72,6.68,0.62,12,2.5,16.1,8,7.1,9.69,7.26,24.81-4.43,30.89a32.47,32.47,0,0,1-18.82,3.32c-6.47-.83-9.86-6.38-12.5-11.89-3.39-7.05-1-13.64,2.72-20,1.05-1.82,4.53-5.38,3.18-7.6a0.62,0.62,0,0,0-.83-0.22l-0.36.18a0.45,0.45,0,0,0-.16.6l0.12,0.27c0.12,0.27.49,0.15,0.57-.07h0Z" transform="translate(-53.69 -287.43)"/><path class="cls-1" d="M454.73,296.68l1.65-3.47-1.68-.7c-1.34,12.7-.64,25.81-0.76,38.58l3.31-.45c-2.19-11.09-3.43-22.27-2-33.54,0.26-2.1-3-2.4-3.59-.49-2.83,9.76-2.53,19.2-.29,29l3.79-1a39.89,39.89,0,0,1-1.53-20.74,2.21,2.21,0,0,0-4.26-1.17,37.07,37.07,0,0,0,.12,25.14l4.18-1.76a22.81,22.81,0,0,1-2-20.94c2.93-7.26,10.29-13,18.43-10.94a1.57,1.57,0,0,0,1.2-2.85c-8.49-5.53-18.43,1.35-22.67,9.11a27.55,27.55,0,0,0,1.12,27.93c1.34,2.06,5.12.79,4.18-1.76a33.14,33.14,0,0,1-.27-22.75l-4.26-1.17a39.25,39.25,0,0,0,2.19,23.42c0.87,2,4.27.59,3.59-1.51-2.85-8.79-2.49-18.19,0-27l-3.59-.49c-1.39,11.61,0,23.06,2.45,34.43,0.4,1.88,3.32,1.43,3.31-.45-0.08-12.77.66-25.88-.64-38.58a1,1,0,0,0-1.83-.5,4.6,4.6,0,0,0-.26,4.69c0,0.07.16,0.08,0.15,0h0Z" transform="translate(-53.69 -287.43)"/><path class="cls-1" d="M469.34,292.34c16.83,4.54,15.06,23.49,12.6,37h4.17A67.75,67.75,0,0,1,484,302.7H479.9q0.79,13.7.29,27.41a1.94,1.94,0,0,0,3.59,1c6.13-10.46,6.47-26.35-2.56-35.45l-2,2.6c6.66,3.75,8.52,14.37,8.27,21.21a0.9,0.9,0,0,0,1.8,0A32.18,32.18,0,0,0,487.47,307c-1.46-4-4.23-7.2-6-11-0.88-1.9-4-.19-2.86,1.67,6,10.12,8.24,20.81,1.83,31.5l3.59,1q0.63-13.71,0-27.41c-0.13-2.72-3.8-2.58-4.12,0a70.62,70.62,0,0,0,2,27.76c0.54,2,3.76,2.17,4.17,0,2.52-13.26,4.15-41.09-16.72-38.51a0.2,0.2,0,0,0-.05.38h0Z" transform="translate(-53.69 -287.43)"/><path class="cls-1" d="M504.22,296.64l-3-1.82L499.89,297c7.5,2.71,14.93-2.13,22.41-.25,10.67,2.69,9.35,17.17-.87,19.39l2.6,3.38a36.64,36.64,0,0,0,2.4-24.71l-4.18,1.76a32.5,32.5,0,0,1,2.43,17.21c-0.21,1.79,2.54,2.91,3.67,1.52,4-5,6.58-12.92,2.94-18.83-0.85-1.39-3.58-1-3.35.91,0.69,5.58,1.26,10.22-2.63,14.89l3.67,1.52a36.6,36.6,0,0,0-2.78-19.52c-1-2.46-4.75-.65-4.18,1.76a32,32,0,0,1-2,21.17,2.34,2.34,0,0,0,2.6,3.38c10.07-2.19,15.23-13.58,9.32-22.3-7.43-11-21.28-4-31.73-3.89-2,0-1.49,3.19.35,2.61a7.22,7.22,0,0,1,3.59-.25c0.09,0,.1-0.12,0-0.15h0Z" transform="translate(-53.69 -287.43)"/><path class="cls-1" d="M502.51,296.89c2.05,0.73.45,5.76,0.3,7.36-0.34,3.56-.37,7.12-0.45,10.69-0.15,6.8-.31,13.6-0.3,20.4,0,3,5,3.95,5.5.74a265.17,265.17,0,0,0,3.53-37.65L507,300.8c2.19,1.46.14,11.79,0,14.12l-0.79,14c-0.3,5.35.2,13.5,7.78,11.74,3-.7,2.28-5.24-0.72-5.29s-5.37-1.31-8.2-1.41a1.46,1.46,0,0,0-1.25,2.17c1.58,3.62,5.82,4.48,9.45,4.63l-0.72-5.29c-1.73.4-.65-11.19-0.6-12.14l0.71-12.12c0.3-5.14,2.07-11.81-2.91-15.15-1.8-1.21-4.09.41-4.14,2.38a254.69,254.69,0,0,1-3.43,36.17l5.5,0.74c0-9.36.06-18.83-.48-28.18-0.2-3.37.3-10.71-4.58-10.89a0.31,0.31,0,0,0-.08.61h0Z" transform="translate(-53.69 -287.43)"/><path class="cls-1" d="M507.54,318.23c2.85-1.52,6.76-2.62,9.75-.68,2.73,1.77,4,6.74,6,9.29,4,5.17,10,9.33,15.77,12.22a2.42,2.42,0,0,0,2.44-4.18c-4.58-3.16-9.59-5.62-13.42-9.79-2.92-3.18-4-7.9-7.37-10.63-4.24-3.48-12.39-2.67-13.7,3.38a0.36,0.36,0,0,0,.52.4h0Z" transform="translate(-53.69 -287.43)"/><path class="cls-1" d="M509.19,316.09c1.31,2.16,3.24,2,5.46,1.59,1.67-.3,1.91-2,4.47-0.6,0.77,0.43,1.38,2,1.81,2.72a66.35,66.35,0,0,0,3.61,6.26c4.87,6.8,12,12.85,20,15.51,2.46,0.81,4.1-3,1.77-4.21-9-4.66-15.46-10-20.8-18.76-1.44-2.36-3-5.05-5.79-5.93a5.69,5.69,0,0,0-4.14.28c-1.5.63-3.94,3.63-5.74,2.5a0.47,0.47,0,0,0-.64.64h0Z" transform="translate(-53.69 -287.43)"/><path class="cls-1" d="M549,338.15c-6.16-3.23-12.18-6-18-9.79a37.28,37.28,0,0,1-7.47-5.88c-2.17-2.39-2.76-5.29-4.54-7.85a1,1,0,0,0-1.68,0c-3.89,5.65,3.83,12,7.93,14.94,6.33,4.48,15.41,10.58,23.55,9.52a0.51,0.51,0,0,0,.26-0.95h0Z" transform="translate(-53.69 -287.43)"/><path class="cls-1" d="M546,300.06a37.58,37.58,0,0,1,.9-6l-4.48,1.18c4.2,3.86,9.3,4.12,14.75,3.66,8.1-.67,16.2-1.41,24.31-2.11l-2.24-2.24a15,15,0,0,1-.56,6.41l4.14,0.56c0-2.64,1-7.27-.6-9.63-1.45-2.14-4.88-2-7.14-2.26-10-1-20.46-.3-30.51.22-2.74.14-2.78,4.32,0,4.29,7-.08,14-0.53,21-0.66a86.39,86.39,0,0,1,9.51.24c3.76,0.35,3.57-.35,3.7,2.54,0.08,1.73-.12,3.53-0.18,5.26-0.09,2.48,3.39,2.73,4.14.56a17.52,17.52,0,0,0,1-7.54,2.28,2.28,0,0,0-2.24-2.24c-6.23.34-12.46,0.75-18.7,1-5,.23-12.46,1.71-16.57-1.9-1.4-1.23-4.06-.93-4.48,1.18a25.73,25.73,0,0,0-.44,7.44,2.35,2.35,0,0,0,4.71,0h0Z" transform="translate(-53.69 -287.43)"/><path class="cls-1" d="M556.09,295.37c-1.42,8.08-1.08,16.53-1,24.72,0.06,4.72-.44,9.88.37,14.54,0.43,2.45,1.56,4.54,4.15,5.15,7.69,1.79,6.79-10.1,6.82-14.23l0.11-14.91c0-4.69.92-10.13-.72-14.57a2.48,2.48,0,0,0-4.74,0c-1.28,3.2-2.18,36.81-1,36.89l2.43,1c-1.39-1.26-.5-8-0.58-10.06-0.15-3.5-.28-7-0.47-10.51-0.28-5.48.1-12.92-2.92-17.71a1.4,1.4,0,0,0-1.22-.7l-0.87.1a0.4,0.4,0,0,0-.38.29h0Z" transform="translate(-53.69 -287.43)"/><path class="cls-1" d="M563.84,338.87c1.09,1,1.88,1,3.28,1.56a1.45,1.45,0,1,0,1.12-2.66c-2-.76-4.22-0.84-6.32-1.26a51.72,51.72,0,0,1-6.33-1.72l-0.74,5.45c4.63-.27,9.29-0.48,13.89-1.08,3.75-.49,4-6.32,0-6.07-4.89.31-9.77,1-14.63,1.69-2.73.37-2.56,4.84,0,5.36,4.29,0.87,9.92,2,14.13.42l-1.64-2.13-2.61.24a0.12,0.12,0,0,0-.14.18h0Z" transform="translate(-53.69 -287.43)"/><path class="cls-1" d="M592.74,294.79l-0.51-1.3-2.72,2.07a67.11,67.11,0,0,0,9.39,1.65v-5.49a19.7,19.7,0,0,1-8.64,1.34l0.76,5.6a24.37,24.37,0,0,0,6.23-1.91l-3-2.27c-0.76,3.35-2.74,6-3.31,9.48a42.41,42.41,0,0,0-.52,9.09,36.57,36.57,0,0,0,4.78,16.81c5,8.22,16.21,12.16,22.78,3.49,2.31-3-2.42-6-5-3.83a8.4,8.4,0,0,1-9.43.82c-3.77-2.18-4-6.52-3.85-10.47,0.36-8.38,1.27-16.78,2-25.14,0.26-3.13-4.91-3.86-5.52-.75-1.72,8.75-3.52,18.18-.35,26.82,2.38,6.47,7.85,13.3,15.26,13.84,6.9,0.5,10.91-5.93,12.53-11.84,2.6-9.5,1.13-18.77-.66-28.25a1.29,1.29,0,0,0-2.53.34c0.63,9-.16,18.07-0.83,27.05-0.11,1.51,2.47,1.89,2.68.36,1.25-9.16,1-18.2.72-27.42l-2.53.34c1,7.09,0,14.13-1.17,21.16-0.79,4.93-2.41,13.76-9,12.22-5.68-1.31-9-7.59-10-12.86-1.38-6.7.09-13.69,1.38-20.28l-5.52-.75c-0.57,6.92-1.17,13.85-1.75,20.77-0.46,5.46-1.09,11.41,2.23,16.17,4.77,6.84,14.8,7.49,20.93,2.32l-5-3.83c-2.95,3.91-8.06,1.33-10.48-1.49s-3.69-6.37-4.64-9.84A37.12,37.12,0,0,1,596.12,308c0.08-3.29.18-9.13,1.85-12,0.69-1.19-.16-3.22-1.74-3a27.75,27.75,0,0,1-6,.06c-3.63-.32-3.67,5.47,0,5.7a23.3,23.3,0,0,0,10.16-1.54,2.86,2.86,0,0,0-.76-5.6,67.78,67.78,0,0,0-9.58-.27c-1.64.14-3.1,2.38-1.52,3.66s2.66,1.52,4.17.23a0.32,0.32,0,0,0,0-.44h0Z" transform="translate(-53.69 -287.43)"/><path class="cls-1" d="M617.36,295c3.4,2.57,7.39,2.68,11.47,2,2.35-.38,1.58-3.77-0.53-3.92l-12.82-.91v4.06a7.93,7.93,0,0,0,4.44-1.22,1,1,0,0,0,0-1.62,7.92,7.92,0,0,0-4.44-1.22c-2.62-.14-2.59,3.88,0,4.06l12.82,0.85-0.53-3.92c-3.33.55-6.72,0.34-10.07,0.59a0.67,0.67,0,0,0-.33,1.24h0Z" transform="translate(-53.69 -287.43)"/><path class="cls-1" d="M621.78,294.19c-0.71,5.58-.89,11.31-1.19,16.93-0.27,5-1.38,10.35-.65,15.3,0.16,1.1,1.75.9,2,0,1.6-5,1.11-11,1.16-16.24a94.56,94.56,0,0,0-1-16c0-.24-0.36-0.14-0.38.05h0Z" transform="translate(-53.69 -287.43)"/><path class="cls-1" d="M618.8,325.73c-1.6,3.06-.64,6.23,1.87,8.5,3,2.71,7.39,3,11.23,3.24l-0.56-4.13c-3.72.76-11,1.68-10.44-4.23,0.23-2.36-3.29-2.6-4-.54-1,3.14.76,6.46,3.42,8.2,3.66,2.4,8.12,1.56,12.11.63,2.36-.55,1.76-4.06-0.56-4.13-4.47-.13-11.5-1-11.36-7.05a0.94,0.94,0,0,0-1.75-.47h0Z" transform="translate(-53.69 -287.43)"/><path class="cls-1" d="M647.24,335.37c-0.77.93-3.13,1.71-3.64,0L642,337c3.86,0.6,7.89,0,11.82.56v-3.76a13.64,13.64,0,0,1-9.66-.73l-1,3.77c4.4,0.23,8.85.85,13.26,0.84,2.8,0,2.61-3.87,0-4.21-4.36-.57-8.87-0.46-13.26-0.67-1.94-.09-2.85,2.91-1,3.77a16.8,16.8,0,0,0,12.74,1,2,2,0,0,0-.52-3.83c-3.85-.24-8.7-0.63-12.34.84a1.27,1.27,0,0,0-.56,2.1c1.92,1.65,5.25,1.79,6.07-1.08a0.2,0.2,0,0,0-.33-0.19h0Z" transform="translate(-53.69 -287.43)"/><path class="cls-1" d="M647.14,333.87c3.87-.27,3.59-6.49,3.82-9.34,0.66-8.31.39-16.81,0.49-25.14,0-3.15-4.56-3-4.83,0A239.86,239.86,0,0,0,646,332.7a2.65,2.65,0,0,0,5.29,0c0.58-13.19.43-26.36-.26-39.53-0.08-1.61-1.65-3.17-3.37-2.57a13.46,13.46,0,0,1-6.39.74v4.53c5.28-.18,10.58-0.18,15.85-0.47l-2-1.16c6.81,12.71,13.72,25.36,21.41,37.57l4.18-2.44-22.89-31.61c-1.8-2.49-6-.14-4.18,2.44L667,319.62c3.78,5.46,7.31,11.27,12.34,15.7,1.95,1.71,5.37-.51,3.78-2.92-8.68-13.26-17.2-26.66-26.23-39.69a2.21,2.21,0,0,0-3-.78c-1.95,1.24-2.32,2.56-2.51,4.81-0.35,4.11,0,8.41-.06,12.53l-0.23,26h4.11c-0.18-11.91-.31-23.8-0.29-35.71,0-3-4.55-3-4.67,0-0.38,9.5-.42,19-0.47,28.5h4.31a194.91,194.91,0,0,1-.37-31.39c0.17-2.65-4-2.65-4.14,0a265.2,265.2,0,0,0,.19,31.39,2.16,2.16,0,0,0,4.31,0c0.38-9.5.78-19,.82-28.5h-4.67c0.4,11.9.65,23.8,0.85,35.71,0,2.64,4.09,2.65,4.11,0L655.43,315l0.07-9.64c0-1.44-.75-8.94.66-9.73l-3-.78c8.32,13.49,17.16,26.66,25.82,39.93l3.78-2.92c-5.17-4.56-8.75-10.66-12.64-16.28l-12.36-17.86-4.18,2.44,22.89,31.61c1.79,2.47,5.87.24,4.18-2.44-7.69-12.21-15.1-24.57-21.54-37.49a2.31,2.31,0,0,0-2-1.16c-5.29.13-10.57,0.49-15.85,0.63a2.27,2.27,0,0,0-.6,4.45,12.22,12.22,0,0,0,8.4-.06l-3.37-2.57c0.63,13.17.67,26.36,0.3,39.53h5.29a234,234,0,0,1,.16-33.31h-4.83c0,5.48,0,11,.06,16.44,0,1.62,1.24,15.91.22,16.21a0.94,0.94,0,0,0,.25,1.84h0Z" transform="translate(-53.69 -287.43)"/><path class="cls-1" d="M681.55,300c1.35-1.87,1.85-4.08,3.15-5.95l-2.23-.94c-1.91,5.7-1.81,12.17-2.29,18.11q-0.81,9.88-1.48,19.77c-0.22,3.09,4.55,3.06,4.8,0l1.49-18.5c0.44-5.42,1.9-11.73.68-17.05-0.45-2-3-1.57-3.61,0-2,5.06-1.51,11.64-1.93,17.05L678.7,331h4.8q0.65-9.88,1.2-19.77c0.32-5.95,1.24-12.22.12-18.11-0.31-1.63-3.06-.75-2.23.94a6.87,6.87,0,0,1-1.18,5.87,0.08,0.08,0,0,0,.13.08h0Z" transform="translate(-53.69 -287.43)"/><path class="cls-1" d="M675,292.62c4.44,0.54,8.92,1,13.31,1.88l0.66-4.86c-5.08.11-10.5-.05-15.49,0.91-2.85.55-1.9,4.53,0.64,4.75,4.84,0.42,10-.33,14.85-0.72,2.55-.21,3.61-4.45.66-4.86-5.19-.72-9.92-0.59-14.83,1.35a0.78,0.78,0,0,0,.21,1.53h0Z" transform="translate(-53.69 -287.43)"/><path class="cls-1" d="M721.85,300.65c3.12-2.67,3.56-6,2.66-9.95-0.5-2.15-3.63-1.57-3.72.5a21.87,21.87,0,0,0,1.52,8.88,2.27,2.27,0,0,0,4.44-.6,24.87,24.87,0,0,0-.62-9.67,2.65,2.65,0,0,0-2.5-1.9c-3.29-.14-6.57-0.19-9.86-0.23-3.14,0-6.77-.59-9.85,0-4.78,1-5.3,5.29-6,9.44a162.72,162.72,0,0,0-2.19,38,2.88,2.88,0,0,0,4.28,2.46c4.7-2.39,9.74-2,14.77-1,2.85,0.53,5.88,1.42,8.8.8,7.71-1.64,5.12-8.38,5.14-13.95l-3.44.47c1.32,4.78-2.56,8.83-7.33,8.92-2.55.05-4.66-1.56-7.1-1.62-1.46,0-2.09.66-3.33,1.12-0.42.15-1.34,0.65-.9,0.78a44.88,44.88,0,0,1,.23-4.81,256.17,256.17,0,0,0-1.22-37.45c-0.3-2.85-4.47-3-4.54,0L700,332.72l4.71-.64a73.81,73.81,0,0,1-1.54-32.22l-5.09-.69c0,9.82-.54,19.61-1.45,29.38h5.51c0-12,.33-24.07-0.21-36.06a2.54,2.54,0,0,0-5.07,0c-0.54,12-.2,24.06-0.22,36.06,0,3.61,5.17,3.47,5.51,0a261.74,261.74,0,0,0,1.12-29.38c0-2.8-4.62-3.67-5.09-.69a82.22,82.22,0,0,0,1.91,34.87,2.41,2.41,0,0,0,4.71-.64l0.81-41.85H701c1.07,9.56,1.72,19.17,1.84,28.79q0,3.85,0,7.69c0,2.15-.64,4.92-0.12,7,0.41,1.63,1.26,3,3.1,3.09a4.77,4.77,0,0,0,2-.58c1.94-.71,2.76-1.43,5-1.17,3.33,0.38,5.87,1.25,9.22,0,5.31-2,7.76-7.28,6.51-12.68-0.37-1.6-3.12-1.74-3.38,0-0.37,2.52.87,7.33-1.68,8.78-2.29,1.3-7.41-.67-9.7-1-5.87-.93-11.4-0.73-16.77,2l4.28,2.46a166.54,166.54,0,0,1,1-29.86c0.36-2.83.77-5.67,1.3-8.48,0.63-3.33.77-3.34,4.16-3.63,5.19-.45,10.56.05,15.77-0.11l-2.5-1.9a20.94,20.94,0,0,1,1.1,8.29l4.21-1.14a22,22,0,0,1-1.86-7.14l-3.53,1c1.81,2.59,1.64,5.49.48,8.3-0.08.2,0.2,0.3,0.33,0.19h0Z" transform="translate(-53.69 -287.43)"/><path class="cls-1" d="M702.18,315c2-2.63,7.69,1.64,10.52-.15,2.43-1.54,3.31-5.15,3.46-7.76a1,1,0,0,0-2.06,0c0,4,0,8,.08,12a1.3,1.3,0,0,0,2.54.34,29.08,29.08,0,0,0,1.58-11.65c-0.11-1.64-2.56-2.16-3-.4a28.86,28.86,0,0,0-.77,9.4l3.35-.45a34.74,34.74,0,0,1-.65-9.28h-3.83c-0.09,3.12-.19,6.23-0.18,9.35h4.21l0-7.45c0-2.49-3.33-2.71-4.14-.56a15.4,15.4,0,0,0-.7,8.26c0.44,2.67,4.51,1.54,4.06-1.12a11.24,11.24,0,0,1,.7-6l-4.14-.56,0,7.45c0,2.71,4.22,2.72,4.21,0,0-3.12-.1-6.23-0.2-9.35-0.08-2.46-3.83-2.48-3.83,0a41.61,41.61,0,0,0,1.2,10.18c0.45,1.81,3.59,1.49,3.35-.45a26,26,0,0,1,.3-8.59l-3-.4a27.11,27.11,0,0,1-1,11l2.54,0.34c-0.19-4-.33-8-0.61-12l-2,.27c2.48,6-6.93,3.46-9.23,3.66a3.42,3.42,0,0,0-3.46,3.78,0.39,0.39,0,0,0,.73.2h0Z" transform="translate(-53.69 -287.43)"/><path class="cls-1" d="M741.63,333c-0.13-1.52,2-3.49,3.18-1.78a1.34,1.34,0,0,1-.72,2.15,2.1,2.1,0,0,1-1.21-.45c-0.4-.15,0-0.33-0.14-0.22,0.68-.42-0.84.93-0.7,0.73l0.26-.07q-0.42,0-.09,0t-0.09,0l0.42,0.11c0.16,0.07-.06-0.27.17,0.08-0.11-.17-0.35-0.36-0.48-0.54a2.19,2.19,0,0,1-.07-0.33c-0.16-.26.15,0.13-0.21,0.11a0.86,0.86,0,0,0-.35,0,2.19,2.19,0,0,0-.21-0.38c0.1,0.4-.91,0,0,0-0.3,0-.1,0-0.09,0q0.36,0,0,0l-0.55-.32a0.9,0.9,0,0,1-.17-0.53c0.18,0.44-.23.25,0.06,0a2.29,2.29,0,0,1,.75-0.61q1.28,0.07.39-.08l0.13,0c-1.62-1-.25.15-0.9-0.49,0.1,0.1.17,0.25,0-.12a1.9,1.9,0,0,0-2.56-.67,3.78,3.78,0,0,0-1.56,4.38,5.19,5.19,0,0,0,5.08,3.57c4.52-.11,6.48-5.45,4.43-9s-7.47-3.48-10-.44c-3,3.52-1.06,9.11,3.18,10.57a7,7,0,0,0,8.78-4.81,5.53,5.53,0,0,0-6-6.72c-3.86.32-6.34,4.16-4.2,7.67,1.85,3,6.52,3.78,9.08,1.23,2.34-2.33,1.63-7-1.7-8.07-2.86-.89-5.87,2.23-4.57,5a0.35,0.35,0,0,0,.65-0.18h0Z" transform="translate(-53.69 -287.43)"/><path class="cls-1" d="M86,341.28a68.56,68.56,0,0,0-.61-9H83l0.91,7.14,2.68-.36c-0.32-1.63-.63-3.27-0.92-4.91-0.25-1.39-2.13-1.36-2.79-.36a5.2,5.2,0,0,0-1,3.92c0.25,2.15,3.52,2.28,3.46,0a52.78,52.78,0,0,0-.53-5.46c-0.33-2.54-4.22-2.73-4.12,0a9.06,9.06,0,0,0,4,7.46c1.51,1.15,4-.78,3.28-2.52-4.18-10.64-7.42-22-12.82-32.06-2.71-5.07-11.07-15.84-17.72-10.7a1.24,1.24,0,0,0-.2,1.51c2,2.74,5.48,3.6,7.91,6,3.12,3,5,7,6.7,10.88,3.84,8.79,8.08,17.39,12,26.12L87,335.85l-2.11-3.6-4,.55A52.94,52.94,0,0,0,82,338.16l3.33-.92,0.2-1.92L82.76,335c0.42,1.6.83,3.21,1.23,4.82s2.95,1,2.64-.73L85.33,332c-0.27-1.49-2.5-.85-2.26.62a68.53,68.53,0,0,0,1.83,8.84,0.55,0.55,0,0,0,1.07-.15h0Z" transform="translate(-53.69 -287.43)"/><path class="cls-1" d="M105.72,324.48c0.88,5,3.45,9.49,5.36,14.12a2.13,2.13,0,0,0,3.06,1.25,8.74,8.74,0,0,0,4.28-11.07c-0.73-2.09-4.33-2.62-4.78,0a49.71,49.71,0,0,0-.77,9.67l3.3-2.51c-2.61-.8-3.06-5.45-3.79-7.59a54.47,54.47,0,0,0-3.26-7.55,118.87,118.87,0,0,0-10.27-15.52,2.65,2.65,0,0,0-4.52,0q-6.27,9.91-11.65,20.33l4.52,2.64C92.06,317.58,97.73,307,101.71,296c1-2.64-3.15-4.3-4.49-1.89-5.58,10-9.77,21.08-14.53,31.53-1.37,3,2.95,5.67,4.52,2.64q5.38-10.43,11.65-20.33H94.34c4.84,6.56,9.92,13.29,12.73,21,1.69,4.66,2.2,10.44,7.72,12a2.63,2.63,0,0,0,3.3-2.51,42.64,42.64,0,0,1,.34-8.35h-4.78a5.27,5.27,0,0,1-1.6,6.16l2.85,0.75c-2.76-4.31-5.07-9.15-8.71-12.78a0.28,0.28,0,0,0-.46.27h0Z" transform="translate(-53.69 -287.43)"/><path class="cls-1" d="M118.9,317.35c-0.62,4.32-.82,8.14-3.37,11.89l2.42,1.41c1.65-3.23,3.22-6.49,4.75-9.78a1.65,1.65,0,0,0-2.58-2c-3.08,2.73-5.61,6.48-5.91,10.62l1-1.26-0.12,0,1.2,0.49a1,1,0,0,0-.92-0.53,1.08,1.08,0,0,0-1,.78l-0.05.15a1.33,1.33,0,0,0,.6,1.48L115,330.7a1.49,1.49,0,0,0,2-.53c0.89-1.46,1.18-3.18,2-4.69a16.76,16.76,0,0,1,3.46-4.27l-2.58-2c-1.55,3.43-3,6.87-4.48,10.36-0.61,1.49,1.78,2.41,2.56,1.08,2.27-3.87,3.76-9.21,1.37-13.36a0.24,0.24,0,0,0-.43.06h0Z" transform="translate(-53.69 -287.43)"/><path class="cls-1" d="M156.67,315.34a17.32,17.32,0,0,0,6,1c2.07,0.14,2.36-2.56,1-3.57-2.2-1.59-5.37-1.34-8-1.43-3.2-.11-6.4-0.1-9.6-0.15-3.58-.06-4.28,5.26-0.84,6.21a63.41,63.41,0,0,0,9.67,1.88c3.1,0.36,6.36.91,9.2-.59,1.75-.92,1.92-4,0-4.85-2.61-1.18-5.19-.79-8-1a52.58,52.58,0,0,1-9.18-1.54L146,317.55c3.2,0,6.41,0,9.6-.06,2.64-.07,5.79.2,8-1.37l-2.32-3c-1.17,1.42-2.76,1.72-4.52,1.79-0.21,0-.35.34-0.12,0.44h0Z" transform="translate(-53.69 -287.43)"/><path class="cls-1" d="M136.55,337.86a11.77,11.77,0,0,0-3.06,2,0.91,0.91,0,0,0,.4,1.5c3.52,1.35,6.9,1.47,10.63,1.41l-0.65-4.8a34.18,34.18,0,0,1-11.45.11l-0.71,5.23c3.12,0,8.85,1.11,11.49-1.11s2-8.22,2.17-11.34c0.68-10.59,2.53-24-2.18-33.84a1.07,1.07,0,0,0-1.93.25c-2.42,7.86-1,16.65-1.11,24.77-0.07,4.18-.75,8.57-0.55,12.73a2.94,2.94,0,0,0,.4,3l-1.66,0c-1.77.6-4.75,0.11-6.63,0.15-2.87.06-3.79,4.75-.71,5.23a33.26,33.26,0,0,0,14.16-.54c2.57-.69,2.16-5.12-0.65-4.8a57.06,57.06,0,0,0-10.63,1.74l1.14,0.87,1.58-2.45c0.06,0,0-.18-0.06-0.14h0Z" transform="translate(-53.69 -287.43)"/><path class="cls-1" d="M143.2,311.88c1-3.44,1.46-7.06,2.26-10.57,0.43-1.91,1.86-4.85.72-6.75s-3.3-1.5-5.15-1.13c-2.66.52-5.73,0.49-7.37,2.83a1.54,1.54,0,0,0,.55,2.08c1.55,0.9,2.4.67,4.14,0.26,1.27-.3,4.4-1.59,5.23-0.73,0.66,0.69-.35,5.34-0.45,6.32-0.25,2.52-.61,5.06-0.61,7.59a0.35,0.35,0,0,0,.69.09h0Z" transform="translate(-53.69 -287.43)"/><path class="cls-1" d="M187.92,295.81a10.1,10.1,0,0,1-2.24-.76L186,296.3c1.71-2.06,6.3-.66,8.54-0.52,3.25,0.21,6.52.24,9.78,0.34v-5.29c-4.12-.07-8.24-0.06-12.37,0-2.59,0-6.86-.77-8.83,1.47-1.73,2-.73,5.3-0.5,7.6L183.9,313c0.24,2.43,4.09,3.44,4.63.63l3.08-16.11-4.32-.58a38.3,38.3,0,0,0,1.08,9.39,1.26,1.26,0,0,0,2.41,0,38.2,38.2,0,0,0,.91-9.39c0-2.42-3.8-3.07-4.32-.58l-3.38,16,4.63,0.63-0.68-8.73-0.34-4.36L187.36,297q0.33-2.17-.3-1.22c0.12-.12,6.66.34,7.81,0.36,3.16,0.05,6.3,0,9.46,0,3.4,0,3.41-5.3,0-5.29-4.38,0-19.24-2.32-19.59,4.94a0.75,0.75,0,0,0,.94.72,9.43,9.43,0,0,1,2.24-.45c0.12,0,.1-0.2,0-0.23h0Z" transform="translate(-53.69 -287.43)"/></svg>