<svg id="Layer_1" data-name="Layer 1" xmlns="http://www.w3.org/2000/svg" xmlns:xlink="http://www.w3.org/1999/xlink" viewBox="0 0 792 612"><defs><style>.cls-1{fill:none;}.cls-2{fill:#134;stroke:#fdfdf2;stroke-miterlimit:10;stroke-width:15px;}.cls-3{clip-path:url(#clip-path);}.cls-4{fill:#fff;}</style><clipPath id="clip-path"><rect class="cls-1" x="264.6" y="113.9" width="253.7" height="384.2" rx="22.7" ry="22.7"/></clipPath><image id="image" width="1584" height="576" xlink:href="galaxy5-yellow.png"/></defs><title>yellowback</title><path class="cls-2" d="M494.6,507.55H287.3a33,33,0,0,1-33-33V137.45a33,33,0,0,1,33-33H494.6a33,33,0,0,1,33,33v337.1A33,33,0,0,1,494.6,507.55Z"/><g class="cls-3"><use transform="matrix(0, 0.25, 0.31, 0, 391.9, 106.51)" xlink:href="#image"/><use transform="matrix(0, 0.25, -0.31, 0, 396.38, 106.51)" xlink:href="#image"/></g><path class="cls-4" d="M358.9,349.85l-0.2,2.6H350V352c0.3,0,.6-0.1.9-0.1a0.34,0.34,0,0,0,.3-0.2l0.1-.4V349a3,3,0,0,0-.8-0.8,5,5,0,0,0,.8-0.8v-2.1a0.76,0.76,0,0,0-.1-0.4,1.2,1.2,0,0,0-.8-0.4,4.33,4.33,0,0,1-.5-0.1v-0.5h8.3v2.2h-0.5a1.64,1.64,0,0,0-1-1.1,0.9,0.9,0,0,1-.5-0.1h-2.4v2.8h1a1.59,1.59,0,0,0,1.2-.4,2.26,2.26,0,0,0,.5-1.1H357v3.5h-0.5a1.42,1.42,0,0,0-.2-0.6,2.19,2.19,0,0,0-.3-0.5,2.14,2.14,0,0,0-1.2-.4h-1v1.9a1,1,0,0,0,.3.9,2.87,2.87,0,0,0,1.2.2,8.6,8.6,0,0,0,1.6-.1,1.42,1.42,0,0,0,.6-0.2c0.1-.1.2-0.1,0.3-0.2l0.3-.3c0.1-.2.3-0.5,0.4-0.7l0.4,0.2h0Z"/><path class="cls-4" d="M367.3,350.25l-0.1,2.2h-6.9v-0.4c0.2,0,.4-0.1.8-0.1a0.55,0.55,0,0,0,.3-0.5v-1.8l-0.6-.6a1.49,1.49,0,0,0,.6-0.6v-1.7a0.55,0.55,0,0,0-.3-0.5c-0.2-.1-0.5-0.1-0.8-0.2v-0.4h4.1v0.4a1.27,1.27,0,0,0-.6.1,1.23,1.23,0,0,0-.5.2,0.37,0.37,0,0,0-.1.3v1.7l0.6,0.6a3.39,3.39,0,0,0-.6.6v0.9a1.29,1.29,0,0,0,.2.8,2.81,2.81,0,0,0,1.1.1h0.8a1.17,1.17,0,0,0,.7-0.2c0.2-.2.5-0.4,0.7-0.6a0.52,0.52,0,0,0,.2-0.4h0.4v0.1Z"/><path class="cls-4" d="M386.7,344.55a1.36,1.36,0,0,0-1.2.4,0.48,0.48,0,0,0-.1.4v9.9h-0.5l-0.2-.5a1,1,0,0,0-.4-0.5,2.43,2.43,0,0,0-.9-0.7v-8.4l-2.8,7.2h-1.2c-0.1-.3-0.2-0.5-0.3-0.8l-0.4-.9-2.2-5.6v5a2.28,2.28,0,0,0,.5,1.7,1.42,1.42,0,0,0,.6.2,4.33,4.33,0,0,0,.5.1v0.5h-4.4v-0.5c0.1,0,.3-0.1.4-0.1a1.08,1.08,0,0,0,1-.8,4.1,4.1,0,0,0,.1-1.1v-4.2a1,1,0,0,0-.9-1.2,0.76,0.76,0,0,1-.4-0.1v-0.5h4.3l2.3,5.6,2.1-5.6h4.2v0.5h-0.1Z"/><path class="cls-4" d="M396.3,352.45h-4v-0.4c0.7-.1,1.1-0.1,1.1-0.3a0.2,0.2,0,0,0-.1-0.2l-0.4-1.3h-2.5a1.47,1.47,0,0,0-.2.4,6.9,6.9,0,0,1-.3.8v0.2a0.43,0.43,0,0,0,.3.3,1.09,1.09,0,0,0,.4.2v0.4h-3.1v-0.4a1.45,1.45,0,0,0,.7-0.2,1.34,1.34,0,0,0,.6-0.7l0.5-1-0.6-.6,0.6-.3a2.09,2.09,0,0,0,.6-0.4l0.2-.3,1.4-2.9h1l1.6,3.6c0.4,0.9.7,1.6,1,2.2a1.21,1.21,0,0,0,1.2.6v0.3h0Zm-3.6-3-0.9-2.4-1.1,2.4h2Z"/><path class="cls-4" d="M404.4,350.35l-0.2,2.1h-7v-0.4a2.2,2.2,0,0,0,.8-0.1,0.22,0.22,0,0,0,.2-0.2l0.1-.3v-1.8l-0.6-.6a1.49,1.49,0,0,0,.6-0.6v-1.7a0.37,0.37,0,0,0-.1-0.3,1.54,1.54,0,0,0-.7-0.3,0.48,0.48,0,0,1-.4-0.1v-0.4h6.6v1.7h-0.4a2.51,2.51,0,0,0-.4-0.7,0.76,0.76,0,0,0-.4-0.2l-0.4-.1h-1.9v2.3H401a1.22,1.22,0,0,0,.9-0.3,1.27,1.27,0,0,0,.4-0.9h0.4v2.8h-0.4a1.8,1.8,0,0,0-.4-0.9,1.33,1.33,0,0,0-1-.3h-0.7v1.5a1,1,0,0,0,.2.7,2.15,2.15,0,0,0,1,.2,5.7,5.7,0,0,0,1.3-.1c0.2,0,.3-0.1.5-0.1a1.76,1.76,0,0,0,.5-0.4l0.3-.6,0.4,0.1h0Z"/><path class="cls-4" d="M412.1,350.45a1.76,1.76,0,0,1-.8,1.5,3.92,3.92,0,0,1-2.3.6,5.93,5.93,0,0,1-2.3-.5l-0.4.3h-0.4l-0.1-2.4h0.5a3.88,3.88,0,0,0,1.6,1.9,2.92,2.92,0,0,0,.9.2,3,3,0,0,0,1-.2,1.05,1.05,0,0,0,.5-0.9c0-.5-0.4-0.9-1.3-1.1a12.61,12.61,0,0,1-1.5-.5,1.9,1.9,0,0,1-1.5-1.9,1.72,1.72,0,0,1,.8-1.4,3.28,3.28,0,0,1,2.1-.6,4.55,4.55,0,0,1,2,.5l0.3-.3h0.5l0.1,2.3h-0.5a6.38,6.38,0,0,0-.8-1.4,2,2,0,0,0-1.4-.6,2.92,2.92,0,0,0-.9.2,0.81,0.81,0,0,0-.4.8c0,0.5.4,0.9,1.3,1.1l0.8,0.2a3.36,3.36,0,0,1,1,.4,2.36,2.36,0,0,1,.9.6A2.66,2.66,0,0,1,412.1,350.45Z"/><path class="cls-4" d="M420.6,347.65h-0.4l-0.3-.6a1.05,1.05,0,0,0-.9-0.5c-0.3,0-.6-0.1-0.8-0.1H418v1.9a1.26,1.26,0,0,0,.8.6,8,8,0,0,0-.8.6v2.8h-1.9v-2.8a1.26,1.26,0,0,0-.8-0.6,2.62,2.62,0,0,0,.8-0.6v-1.9h-0.2a2,2,0,0,0-.8.1,1.05,1.05,0,0,0-.9.5l-0.3.6h-0.4v-1.9h7.2v1.9h-0.1Z"/><path class="cls-4" d="M431.4,354.25H431a4,4,0,0,0-2.5-1l-0.7-.8c-0.9-1.1-1.8-2.1-2.6-3h-0.3v2a0.55,0.55,0,0,0,.3.5,1.7,1.7,0,0,0,.7.1v0.4h-4v-0.4c0.2,0,.4-0.1.8-0.1a0.55,0.55,0,0,0,.3-0.5v-1.8l-0.6-.6a1.49,1.49,0,0,0,.6-0.6v-1.7a0.55,0.55,0,0,0-.3-0.5c-0.2-.1-0.5-0.1-0.8-0.2v-0.4h4.2c1.9,0,2.9.5,2.9,1.6q0,1.35-1.8,1.8Zm-4.5-6.8a1.16,1.16,0,0,0-.4-1,2.53,2.53,0,0,0-1.2-.2h-0.4v2.5h0.4a2.87,2.87,0,0,0,1.2-.2A1.6,1.6,0,0,0,426.9,347.45Z"/><path class="cls-4" d="M442,348.15a3.23,3.23,0,0,0-.8.7,3.83,3.83,0,0,1-1.3,2.4,8.64,8.64,0,0,1-1.6,1,4.65,4.65,0,0,1-2,.3,7.61,7.61,0,0,1-2.1-.3,4.34,4.34,0,0,1-2.7-2.2c-0.1-.4-0.3-0.8-0.4-1.2a2.7,2.7,0,0,0-.8-0.7,8.43,8.43,0,0,0,.8-0.7,4.88,4.88,0,0,1,.4-1.1,4.18,4.18,0,0,1,2.7-2.3,7.61,7.61,0,0,1,2.1-.3,6.28,6.28,0,0,1,1.9.3,4.64,4.64,0,0,1,2,1.3,3.46,3.46,0,0,1,1,2.1A5.72,5.72,0,0,0,442,348.15Zm-3.4.1a7.57,7.57,0,0,0-.1-1.5,3,3,0,0,0-1.1-2.1,2,2,0,0,0-1.1-.3,2,2,0,0,0-1.9,1,5.7,5.7,0,0,0-.6,2.9,5.4,5.4,0,0,0,.6,2.7,2,2,0,0,0,2,1.1,1.69,1.69,0,0,0,1-.3,2.88,2.88,0,0,0,1.2-2,7.52,7.52,0,0,1,0-1.5h0Zm-0.9,0-1.5,1.4-1.5-1.4,1.5-1.6Z"/><path class="cls-4" d="M377.7,295.65a25.37,25.37,0,0,1,5.9-1.9c0.6-.2,1.2-0.3,1.7-0.5a36.36,36.36,0,0,1,9.9-1.3,67.25,67.25,0,0,1,10,.7c1,0.2,2.1.3,3.1,0.6,2.2,0.3,4.4.6,6.6,1.1l-6.3-10.9a64.13,64.13,0,0,0-8.8,1.1c-3.6.9-7.1,2.1-10.5,3.3-1,.4-2,0.7-3,1.1-3.6,1.6-7.1,3.5-10.5,5.4l-1.5,2.5c1-.4,2.1-0.7,3.2-1.1Z"/><path class="cls-4" d="M385.9,307.55a0.35,0.35,0,0,0-.1-0.2,8.64,8.64,0,0,1-1-1.6c-0.2-.4-0.4-1.2-0.8-2.4-0.5-.5-1.1-1-1.7-1.5a6.47,6.47,0,0,0,1.7-1.5,7,7,0,0,1,.8-2.3,11.35,11.35,0,0,1,1.5-2.3q-3.6.6-7.2,1.5c-2.1.6-4.1,1.3-6.2,2l-0.8,1.5-1.6,2.7a60.49,60.49,0,0,0,6.8,2.3A65.8,65.8,0,0,0,385.9,307.55Z"/><path class="cls-4" d="M399.5,281.15a60.49,60.49,0,0,1,7.2-1.3l-11.2-19.5L378.4,290a33,33,0,0,1,4.1-2.3A75.68,75.68,0,0,1,399.5,281.15Z"/><path class="cls-4" d="M421.3,305.15c-1.7.9-3.5,1.8-5.2,2.5a57.16,57.16,0,0,1-14.7,4,3.55,3.55,0,0,1,.2,1c0.6,1.4,1.2,2.7,1.9,4,1,1.7,2.1,3.9,4.1,4.5,0.1,0,.1.1,0.2,0.1a0.22,0.22,0,0,1,.2.2v0.1a24,24,0,0,1-3.6,5.9c-0.5,1.2-1.2,2.3-1.8,3.5a24.81,24.81,0,0,0-1.3,3.5c-0.1.2-.2,0.5-0.3,0.7a0.1,0.1,0,0,1-.1.1,1.08,1.08,0,0,1-.7.3,0.22,0.22,0,0,1-.2-0.2v-0.2a2.77,2.77,0,0,1-.1-0.9,12.25,12.25,0,0,1-.2-1.9c0-.1-0.1-0.1-0.1-0.2v-0.7c0-.8-0.1-1.6-0.1-2.4-0.1-2-.1-3.9-0.1-5.9v-0.7a33.22,33.22,0,0,1-3.6,6.7A37.92,37.92,0,0,1,391,335c-3.5,3.3-8.3,4.7-13,5.3-4.5.6-9.6-.3-11.8-4.7-2-3.8-.7-8.5,1.6-11.9a12.1,12.1,0,0,1,4.4-4,7.27,7.27,0,0,1,2.9-.7,11.08,11.08,0,0,1,2.5.5,6.79,6.79,0,0,1,4.3,3.5,9.28,9.28,0,0,1,1.4,5.9c-0.4,3.3-3.4,6.1-6.9,5.2a5.06,5.06,0,0,1-3.4-2.8,5.78,5.78,0,0,1,.7-5.1,2.78,2.78,0,0,1,4-1.1c1.6,1,1.8,3.1,1.4,4.8a0.57,0.57,0,0,1-1.1-.3,3.5,3.5,0,0,0-.4-3,1.77,1.77,0,0,0-2.5-.3,4.39,4.39,0,0,0-.7,5.2,4.25,4.25,0,0,0,3.9,1.7,4.64,4.64,0,0,0,3.4-3.1,6.37,6.37,0,0,0-.3-4.7,7.33,7.33,0,0,0-3.1-4c-1.5-.7-2.8-0.2-4.3.3a7.06,7.06,0,0,0-3.4,2.5,10.78,10.78,0,0,0-1.9,8.5c0.7,2.8,3.6,3.9,6.3,3.9a19.11,19.11,0,0,0,5.3-1A26,26,0,0,0,385,334c2.8-1.4,4.8-3.9,6.6-6.4a22.2,22.2,0,0,0,4.3-8.7,13.82,13.82,0,0,0-.2-6.4,64.52,64.52,0,0,1-7.6-.1,61.81,61.81,0,0,1-13.5-2.5,48,48,0,0,1-6.3-2.4l-19.6,33.9h93.2Z"/><path class="cls-4" d="M403,295.75a8,8,0,0,1,2.2,4.4c0.5,0.5,1.1,1,1.7,1.5a20.91,20.91,0,0,0-1.7,1.5,8.21,8.21,0,0,1-1.1,3.1,9.25,9.25,0,0,1-.5,1,90.9,90.9,0,0,0,12.5-3c1.3-.4,2.6-0.8,4-1.3l-1.2-2.2-1.9-3.2a67.51,67.51,0,0,0-14.7-2.5A4.52,4.52,0,0,0,403,295.75Z"/><polygon class="cls-4" points="391.9 301.75 394.9 304.55 397.9 301.75 394.9 298.55 391.9 301.75"/></svg>