<svg id="Layer_1" data-name="Layer 1" xmlns="http://www.w3.org/2000/svg" xmlns:xlink="http://www.w3.org/1999/xlink" viewBox="0 0 792 612"><defs><style>.cls-1{fill:url(#radial-gradient);}.cls-2{fill:#fff;}</style><radialGradient id="radial-gradient" cx="429.54" cy="303.42" r="187" gradientUnits="userSpaceOnUse"><stop offset="0" stop-color="#bdb433"/><stop offset="0.11" stop-color="#bdb433" stop-opacity="0.96"/><stop offset="0.27" stop-color="#bdb433" stop-opacity="0.83"/><stop offset="0.48" stop-color="#bdb433" stop-opacity="0.63"/><stop offset="0.73" stop-color="#bdb433" stop-opacity="0.36"/><stop offset="0.99" stop-color="#bdb433" stop-opacity="0.01"/><stop offset="1" stop-color="#bdb433" stop-opacity="0"/></radialGradient></defs><title>Horoscope-Icon</title><circle class="cls-1" cx="429.54" cy="303.42" r="187"/><path class="cls-2" d="M375.3,229.74a0.05,0.05,0,0,0,0-.1,0.05,0.05,0,0,0,0,.1h0Z"/><path class="cls-2" d="M379.21,210.17a4.24,4.24,0,0,0-2.48-.88,4.82,4.82,0,0,0-4.51,2.19,15.94,15.94,0,0,0-.64,12.89,5.08,5.08,0,0,0,1.65,2,5.16,5.16,0,0,0,2.8.79,4.37,4.37,0,0,0,2.42-.61q2.13-1.21,2.94-4.62a19.9,19.9,0,0,0,.41-3.42,23.29,23.29,0,0,0-.1-3.4A7,7,0,0,0,379.21,210.17Zm-3,11.46-3.41-3.45,3.68-3.53,3.35,3.8Z"/><path class="cls-2" d="M431.06,315.81c-1.67-7.72-5.17-14.12-8.92-20.41-4.29-7.21-7.88-14.72-13.5-20.49a82.87,82.87,0,0,0-18.07-14.53c-2.12-1.22-4.27-2.52-6.45-3.7a49.56,49.56,0,0,0-.13-9.17,18.75,18.75,0,0,0,3.15-1.95c6.74-5.14,11.28-15.65,10.58-25.72a36.31,36.31,0,0,0-1-6.44,16,16,0,0,0-.68-5c-1.87-6.12-4.65-11-9.41-13.72a19.82,19.82,0,0,0-14.87-2.51c-8.31,1.81-15.08,10.84-17.2,21.07-2.3,11.1.83,22.81,7.9,29.79a23.73,23.73,0,0,0,3.4,2.78,47.78,47.78,0,0,1,.49,8.08,9.36,9.36,0,0,0-1.89,1.81c-2.85,1.42-5.64,3.14-8.4,4.7A82.42,82.42,0,0,0,338,274.91c-5.6,5.75-9.28,13.23-13.5,20.49-3.7,6.37-7.24,12.65-8.92,20.41a0.81,0.81,0,0,0,.86,1.1c5.86-2,10.88-6.29,15.92-10.45,4.51-3.72,9.57-6.51,14.37-9.74-1.11,8.75-2.29,17.64-2.78,26.47a36.52,36.52,0,0,0,.81,10.15c-1.77,7-3.48,14-4.88,21.1a139.73,139.73,0,0,0-2.4,28.94c0,7.44-2.46,17.41.14,24.41a2,2,0,0,0,1.81,1.33,1.63,1.63,0,0,0,1.35-.57c8.56-14.06,17.55-27.74,23.14-44.25,1.6-4.73,3.08-9.54,4.51-14.38,1.31,0,2.6-.14,3.87-0.24l2.93-.22c2,6.81,4.09,13.58,6.4,20.24,3.42,9.88,8.47,17.14,13.31,25.83,1.92,3.45,5.56,14.45,9.44,15l0.38,0.06a2,2,0,0,0,1.81-1.33c2.47-6.65.27-16,.19-23-0.13-10.58-.38-19.91-2.44-30.31-1.52-7.67-3.41-15.25-5.32-22.79a54.28,54.28,0,0,0,1-13.91,149.77,149.77,0,0,0-2.82-24.42c5.31,3.93,11.09,6.94,16.32,11,5.46,4.21,10.43,9,16.69,11.14A0.81,0.81,0,0,0,431.06,315.81Zm-50.27-87.93a13.58,13.58,0,0,1-4.8.62,15,15,0,0,1-4.77-.89,10.25,10.25,0,0,1-6.08-5.43,17.08,17.08,0,0,1-.76-2.73,16.33,16.33,0,0,0-1.82-1.71,10.78,10.78,0,0,0,2-1.61,10.58,10.58,0,0,1,7.42-7.61,14.85,14.85,0,0,1,4.86-.55,13.79,13.79,0,0,1,4.33.87,11.25,11.25,0,0,1,4.56,3.11,8.59,8.59,0,0,1,2.25,4.93,14,14,0,0,0,1.82,1.75,10.9,10.9,0,0,0-2,1.57,9.49,9.49,0,0,1-3.21,5.58A11.24,11.24,0,0,1,380.78,227.88Z"/><path class="cls-2" d="M482.44,215.12a23.29,23.29,0,0,0-.1,3.4,19.9,19.9,0,0,0,.41,3.42q0.8,3.41,2.94,4.62a4.37,4.37,0,0,0,2.42.61,5.16,5.16,0,0,0,2.8-.79,5.08,5.08,0,0,0,1.65-2,15.94,15.94,0,0,0-.64-12.89,4.82,4.82,0,0,0-4.51-2.19,4.24,4.24,0,0,0-2.48.88A7,7,0,0,0,482.44,215.12Zm1.82,3.33,3.35-3.8,3.68,3.53-3.41,3.45Z"/><path class="cls-2" d="M433.93,316.91c6.26-2.19,11.23-6.93,16.69-11.14,5.23-4,11-7,16.32-11a149.77,149.77,0,0,0-2.82,24.42,54.28,54.28,0,0,0,1,13.91c-1.91,7.54-3.8,15.12-5.32,22.79-2.06,10.41-2.31,19.73-2.44,30.31-0.09,7-2.29,16.39.19,23a2,2,0,0,0,1.81,1.33l0.38-.06c3.88-.57,7.52-11.57,9.44-15,4.84-8.69,9.89-16,13.31-25.83,2.31-6.66,4.39-13.43,6.4-20.24l2.93,0.22c1.27,0.1,2.57.19,3.87,0.24,1.43,4.84,2.91,9.65,4.51,14.38,5.59,16.51,14.58,30.19,23.14,44.25a1.63,1.63,0,0,0,1.35.57,2,2,0,0,0,1.81-1.33c2.6-7,.11-17,0.14-24.41a139.73,139.73,0,0,0-2.4-28.94c-1.4-7.09-3.12-14.11-4.88-21.1a36.52,36.52,0,0,0,.81-10.15c-0.49-8.83-1.67-17.72-2.78-26.47,4.8,3.23,9.86,6,14.37,9.74,5,4.17,10.06,8.41,15.92,10.45a0.81,0.81,0,0,0,.86-1.1c-1.68-7.76-5.22-14-8.92-20.41-4.22-7.26-7.9-14.74-13.5-20.49a82.42,82.42,0,0,0-18.07-14.53c-2.76-1.57-5.56-3.28-8.4-4.7a9.36,9.36,0,0,0-1.89-1.81,47.78,47.78,0,0,1,.49-8.08,23.73,23.73,0,0,0,3.4-2.78c7.07-7,10.2-18.68,7.9-29.79-2.12-10.23-8.89-19.26-17.2-21.07a19.82,19.82,0,0,0-14.87,2.51c-4.76,2.75-7.54,7.6-9.41,13.72a16,16,0,0,0-.68,5,36.31,36.31,0,0,0-1,6.44c-0.7,10.07,3.84,20.59,10.58,25.72a18.75,18.75,0,0,0,3.15,1.95,49.56,49.56,0,0,0-.13,9.17c-2.18,1.18-4.33,2.48-6.45,3.7a82.87,82.87,0,0,0-18.07,14.53c-5.61,5.77-9.21,13.28-13.5,20.49-3.74,6.29-7.25,12.69-8.92,20.41A0.81,0.81,0,0,0,433.93,316.91Zm45.61-91.13a9.49,9.49,0,0,1-3.21-5.58,10.9,10.9,0,0,0-2-1.57,14,14,0,0,0,1.82-1.75,8.59,8.59,0,0,1,2.25-4.93,11.25,11.25,0,0,1,4.56-3.11,13.79,13.79,0,0,1,4.33-.87,14.85,14.85,0,0,1,4.86.55,10.58,10.58,0,0,1,7.42,7.61,10.78,10.78,0,0,0,2,1.61,16.33,16.33,0,0,0-1.82,1.71,17.08,17.08,0,0,1-.76,2.73,10.25,10.25,0,0,1-6.08,5.43,15,15,0,0,1-4.77.89,13.58,13.58,0,0,1-4.8-.62A11.24,11.24,0,0,1,479.55,225.78Z"/></svg>