<svg id="Layer_1" data-name="Layer 1" xmlns="http://www.w3.org/2000/svg" xmlns:xlink="http://www.w3.org/1999/xlink" viewBox="0 0 792 612"><defs><style>.cls-1{stroke:#fff;stroke-miterlimit:10;stroke-width:1.04px;fill:url(#radial-gradient);}.cls-2{fill:#fff;}</style><radialGradient id="radial-gradient" cx="433.34" cy="319.95" r="187" gradientUnits="userSpaceOnUse"><stop offset="0" stop-color="#bdb433"/><stop offset="0.11" stop-color="#bdb433" stop-opacity="0.96"/><stop offset="0.27" stop-color="#bdb433" stop-opacity="0.83"/><stop offset="0.48" stop-color="#bdb433" stop-opacity="0.63"/><stop offset="0.73" stop-color="#bdb433" stop-opacity="0.36"/><stop offset="0.99" stop-color="#bdb433" stop-opacity="0.01"/><stop offset="1" stop-color="#bdb433" stop-opacity="0"/></radialGradient></defs><title>Horoscope-Icon</title><circle class="cls-1" cx="433.34" cy="319.95" r="187"/><path class="cls-2" d="M346.17,254.63c-9.2,5.76-5.49,20.9,5.29,22.05,7.69,0.82,15.83.32,23.59,0.61,8.59,0.31,17.18.52,25.78,0.69,33.72,0.67,67.41,1.32,101.14.93q6.42-.07,12.85-0.18c3.33,0,7.43.55,10.58-.71,7-2.8,4.46-13.83,3.41-19.42-1-5.31-8.8-3-8,2.21a43.18,43.18,0,0,1,.49,7q0,1.36-.1,2.72,2.15-1.43-.93-0.86c-3.37-.7-7.43-0.15-10.86-0.22-8.42-.17-16.84-0.36-25.26-0.43-17.52-.14-35-0.06-52.55-0.16-17.18-.09-34.38.11-51.56,0.2-8.29,0-17.69,1.27-25.84-.32-4.19-.82-4.62-2.91-4.75-6.71a15.71,15.71,0,0,0-1.7-7,1.13,1.13,0,0,0-1.54-.4h0Z"/><path class="cls-2" d="M432.74,258.65a3.83,3.83,0,0,1,1.09-1.65l-2.65-1.54c-1.66,4.14-1.89,9.34-2,13.75-0.12,7.51,10.92,7.29,11.52,0a100,100,0,0,0,.07-15.82c-0.28-3.74-3.16-6.68-7.09-6.15s-5.72,4.09-5.2,7.81a90.13,90.13,0,0,1,.7,14.15h11.52c-0.25-5.38-2.3-11.75-7.24-14.69a1.59,1.59,0,0,0-1.92,2.49,3.76,3.76,0,0,1,1.05,1.65,0.05,0.05,0,0,0,.1,0h0Z"/><path class="cls-2" d="M433.62,265.25c-0.34,11.19-.42,22.37-0.52,33.56a0.64,0.64,0,0,0,1.27,0,288.61,288.61,0,0,0,2.37-38.54,1,1,0,0,0-2,0q-0.12,21.82,1,43.6c0.1,1.95,3.14,2,3,0-0.75-16-1.09-32-.83-48,0-2.81-4.06-2.71-4.3,0a305.6,305.6,0,0,0-.42,48.66h5.3a345.35,345.35,0,0,1-1.31-53.89h-7c0,18.81.15,37.61,0.31,56.42H438c-0.88-19.69-1.93-39.38-2.54-59.08-0.15-5-7.87-5-7.75,0,0.76,31.63,1.12,63.29,1.31,94.93q0.07,11.87.05,23.74c0,7.32,1.16,16-.47,23.16-1.48,6.48-9.16,10.18-14.15,13.78-6.44,4.64-12.64,9.6-19,14.37-3.89,2.93-2.81,9.23,2.56,9.44,23.58,0.91,53.06,11.68,74.37-3.47,8.07-5.73.72-19-7.89-13.51-17.42,11.12-38.28,10.88-56.3,1.41a7.94,7.94,0,0,0-9.27,1.2c-1.62,1.43-3.25,2.86-4.85,4.31-3.57,3.24-2.38,9.17,1.48,11.52,18.68,11.34,41.91,12.09,61.59,2.86,8.68-4.07,24.06-15,12.69-25-4.45-3.91-11.26-6.05-16.54-8.66-6.33-3.12-12.65-6.26-19-9.34s-14.74,3.51-10.43,10.43c5.21,8.36,10.47,16.69,15.55,25.13l8.37-10.89L419,403.45l-2,14.91q14.92-.44,29.84-0.9l-2.06-15.22A116.66,116.66,0,0,1,417.72,410c-8.75,1.39-6.68,15.84,2.09,15.43,11.48-.54,23-0.73,34.46-1,11.07-.3,10.92-17.92,0-17.12-11.48.85-23,1.82-34.46,2.45l2.09,15.43a124.53,124.53,0,0,0,28.88-8.7c7.2-3.09,3.37-14.73-3.91-14.44q-14.92.58-29.84,1.22c-8.63.36-10.2,12.2-2,14.91l28.85,9.56c6.15,2,11.68-5.53,8.37-10.89-5.17-8.38-10.14-16.88-15.18-25.34L426.6,401.84c6,3.05,12,6.05,18,9.06l8.6,4.3c1.43,0.72,2.87,1.42,4.3,2.15s3.37,2.88,1.52.24L458,413.68l-0.07.72,2-3.43c-5.84,7.53-18.26,11.09-27.36,11.76A50.28,50.28,0,0,1,403,416.16v12.67c1.76-1.26,3.49-2.54,5.23-3.82h-7.72c21.26,13.71,50.94,12.25,71.92-1.11l-7.89-13.51c-8.9,6.31-18.91,6.71-29.46,6.77-12.32.06-24.75,0.92-37,.08l2.56,9.44c6.69-4.8,13.5-9.42,20.08-14.36,5.44-4.09,12.11-8,15.66-14,3.8-6.43,2.71-14.66,2.68-21.79,0-8.57-.07-17.15-0.15-25.72-0.35-34.33-1.54-68.56-3.39-102.84H427.7c1.19,19.68,2,39.39,2.87,59.08,0.22,4.74,7.47,4.8,7.42,0-0.2-18.81-.41-37.61-0.77-56.42-0.09-4.47-6.91-4.48-7,0a432,432,0,0,0,3,53.89c0.38,3.31,5.57,3.44,5.3,0a381,381,0,0,1-.57-48.66h-4.3c0.43,16,1.05,32,2.09,48h3q-1.49-21.77-2-43.6h-2a262.66,262.66,0,0,1-1.69,38.54h1.27c-0.08-11.19-.14-22.37-0.46-33.56a0.15,0.15,0,0,0-.29,0h0Z"/><path class="cls-2" d="M439.21,243.85c-1,5.83-2.21,11.34-2.31,17.36-0.11,6.65-.48,13.31-0.35,20q0.4,20.95.66,41.89c0.18,14.08,0,28.08-.57,42.15-0.26,6.49-.62,13-0.79,19.45-0.15,5.84-2,14.26,1.21,19.39,2,3.22,6.19,2.94,8.28,0,3.36-4.73,1.9-13,1.92-18.57,0-6.77-.25-13.51-0.5-20.28-0.53-14.06-1-28.09-1.27-42.15s-0.7-27.93-1.16-41.89c-0.21-6.4-.92-12.76-1.38-19.15s-2-12-3.36-18.17a0.2,0.2,0,0,0-.38,0h0Z"/><path class="cls-2" d="M419.88,405.35c6.62,3,7.74-21.06,8.19-24.57,1.87-14.6,2.44-29.33,2.94-44s1-29.27,1.26-43.91q0.19-11.11.23-22.23c0-7.45,1-15.67-.58-23-1-4.76-8.92-4.95-9.81,0-1.11,6.19-.23,12.79-0.06,19.07q0.28,9.7.52,19.4c0.33,13.07.56,26.14,0.59,39.21,0,12.75-.54,25.47-0.88,38.21-0.17,6.44-.32,12.89-0.34,19.33,0,2.79,1.43,22.29-2,22.39a0.05,0.05,0,0,0,0,.1h0Z"/><path class="cls-2" d="M432.36,384.55c0.5-4.14.59-8.29,1-12.43,0.22-2-2.61-2-3.23-.44-2.8,7.1-3.83,14.88-4.29,22.46-0.21,3.41,5.12,4.09,5.93.8,2.54-10.29,3.22-21.23,3.83-31.79,0.24-4.08-6.32-5-7.18-1-1.72,8.14-1.54,16.6-3.59,24.67s-7.1,12.89-14.08,17.11c-8.57,5.19-28.23,17.58-11.14,25.37,14.47,6.6,30,9.58,45.75,6.8a69.38,69.38,0,0,0,22.41-8.07c5.6-3.25,10.58-11.81,2.71-15.83-3.13-1.59-7.73,1.09-6.39,4.92,1,2.81-12.88,6.89-15.2,7.54a80.19,80.19,0,0,1-17.74,2.76A72.71,72.71,0,0,1,411.5,426a47.39,47.39,0,0,1-8.78-2.76c-1.7-.73-2.73-0.56-2.3-2.1,0.31-1.12,2-2.37,2.88-3.13,7.88-7.18,18.76-9.9,24.79-19.27,6.57-10.21,5.3-23.15,7.44-34.6l-7.18-1c-0.36,10.39-1.8,20.63-2.46,31h6c-0.48-7.37.37-14.31,1.43-21.58h-3.18c0.8,4,1.25,8,2.09,12,0,0.06.09,0,.1,0h0Z"/><path class="cls-2" d="M392.42,355.89c-3.3,4.59-7.29,10.24-13.51,10.64-7.45.48-12.28-6.81-16-12.11-1.06-1.51-3.84-.66-3.18,1.34,2.24,6.69,5.91,15.48,14.19,15.89s15.51-7.12,19-13.73a2,2,0,0,0-3.48-2c-7.85,12.87-25,11-31.52-2l-4.27,2.49c5.63,7.67,9.57,15.38,20.39,15.33,10.3,0,18-7.38,23.85-15,1.64-2.14-2.09-5-3.76-2.9-4.79,6.12-10.73,12.56-18.89,13.5-10,1.15-12.78-6.34-17.33-13.38-1.76-2.72-5.55-.37-4.27,2.49,7.39,16.52,30.34,16.53,39.26,1.49l-3.48-2c-2.53,4.92-6.87,10.07-12.37,11.74-8.65,2.62-12-6.15-14-12.79l-3.18,1.34c4.28,6.58,10.22,14.21,19,13.72,7.45-.41,11.32-7.73,13.93-13.76a0.24,0.24,0,0,0-.42-0.25h0Z"/><path class="cls-2" d="M395.7,353.12c-6.08-.89-12.85,1-19,1.13s-14.5.61-19.2-4c-1.48-1.47-3.43.09-3.19,1.86,0.9,6.63,12.06,6.47,16.86,6.65,7.62,0.28,18.64,0,24.58-5.51a0.05,0.05,0,0,0,0-.09h0Z"/><path class="cls-2" d="M355.84,353.61a1.71,1.71,0,0,0,2-2,2.06,2.06,0,0,0-1.23-1.83,2,2,0,0,0-2.19.41,2,2,0,0,0,1.42,3.42h0Z"/><path class="cls-2" d="M355.53,352.94c11.77-8,28.7-7.39,39.4,2.19,1.36,1.21,3.37-.78,2-2-11.81-10.58-29.74-11.2-41.76-.65a0.29,0.29,0,0,0,.36.46h0Z"/><path class="cls-2" d="M394.72,353.74c-5,3.16-10,3.42-15.68,3.12s-11.43-.2-17.14-0.25c-2.3,0-3,3.76-.56,4.13a102.88,102.88,0,0,0,22.91,1l-1.11-4.1c-4.54,3-8.42,5.72-13.92,6.75l2.22,5.26c4.08-2.34,8.12-4.73,12.18-7.1,3.2-1.87.39-6.2-2.82-4.83a21.85,21.85,0,0,1-10.6,1.59v5.42l2.86,0.19-1.18-4.48-1.44-.51c-2.22-2.6-5.88,1.14-3.73,3.73,2.47,3,6.1,2.78,9,.57,1.61-1.24.63-4.07-1.18-4.48a12.31,12.31,0,0,0-4.29-.43c-3.53.13-3.43,5.1,0,5.42A26.23,26.23,0,0,0,383,362.8l-2.15-5.11c-4.09,2.31-8.19,4.61-12.26,7-2.94,1.69-.89,5.87,2.22,5.26,6-1.17,12-4,15.4-9.29a2.21,2.21,0,0,0-1.9-3.31,113.6,113.6,0,0,1-22.36-.69v4.21c9.34-.21,26.82,2.27,32.89-7a0.05,0.05,0,0,0-.07-0.07h0Z"/><path class="cls-2" d="M351.68,351.43c-2.47,9,8.89,17.1,16.3,18.93a25.9,25.9,0,0,0,15.25-1c4-1.49,9.93-4.48,10.68-9.05a2,2,0,0,0-2.47-2.47c-3.45,1.09-5.66,4.29-9,5.83a20.44,20.44,0,0,1-13,1.44,21.75,21.75,0,0,1-10.32-5.75c-2.53-2.51-4.38-5.73-7.1-8a0.2,0.2,0,0,0-.33.09h0Z"/><path class="cls-2" d="M352.12,350.85q-0.46,1.09-1,2.15a1.18,1.18,0,1,0,2.17.91c2-6.64,3-13.52,5-20.17s4.26-13.24,6.88-19.66a175.87,175.87,0,0,1,9.58-19.82c3.37-6,8-11.54,11-17.67,0.9-1.84-1.35-3.8-2.92-2.25-4.9,4.84-8.39,11.82-11.72,17.79a182.44,182.44,0,0,0-9.27,19.24c-5.37,13-10.5,28-10.87,42.23l2.21-.6q-0.52-1.07-1-2.15a0.05,0.05,0,0,0-.09,0h0Z"/><path class="cls-2" d="M381.52,277.32c4,12.43,8.49,24.5,11.77,37.16a108.85,108.85,0,0,1,3.32,19.71c0.42,6.08,1.42,14.1-3.61,18.56-2.46,2.18,1.14,5.73,3.6,3.6,9.53-8.3,5.33-26.44,2.89-37-3.38-14.68-9.94-29.17-17.26-42.3a0.39,0.39,0,0,0-.72.3h0Z"/><path class="cls-2" d="M374.87,357.58c1.86-12.06,3.51-24.08,4.88-36.2,0.69-6.17,1.13-12.38,1.65-18.57,0.54-6.46,1.54-13.07,1.45-19.54,0-1.76-2.81-2.27-3.17-.43-2.28,11.84-2.69,24.56-3.56,36.58-0.91,12.7-1.35,25.38-1.63,38.11,0,0.21.35,0.27,0.38,0.05h0Z"/><path class="cls-2" d="M352.36,353.13a13.72,13.72,0,0,0,.48-1.63,3.31,3.31,0,0,1,1.27-1.65l-1.17-.67a10,10,0,0,1-.49,2.14,3.24,3.24,0,0,0-.29,1.93,0.74,0.74,0,0,0,1.08.44c1.35-.85,1.31-3.09,1.26-4.51a0.79,0.79,0,0,0-1.32-.55c-1,1-2.28,3.3-1,4.53a0.15,0.15,0,0,0,.23,0h0Z"/><path class="cls-2" d="M353.53,353.59l0.46-.45a1.16,1.16,0,0,0,.3-1.15l-0.23-.59a1.22,1.22,0,0,0-1.47-.83l-0.61.18a1.26,1.26,0,0,0-.88,1.16l-0.07.64h2.43c-0.09-4.75,16.78-6.7,20.23-6.62,7,0.17,12.57,3,17.34,8a1.18,1.18,0,0,0,1.84-1.42c-8.05-15.55-29.29-9.05-41.35-3.4a1.22,1.22,0,0,0-.62,1.08l0.12,2.38a1.22,1.22,0,0,0,2.43,0l-1.58-.61a1.17,1.17,0,0,0,1.66,1.66h0Z"/><path class="cls-2" d="M358.63,349.07c-0.53.22-1.08,0.4-1.6,0.66a20.35,20.35,0,0,1-2,1.11,0.81,0.81,0,1,0,.62,1.48,45.79,45.79,0,0,0,5.64-3.57c1-.63.37-2.41-0.83-2-2,.74-4,1.42-6,2.31a1.18,1.18,0,0,0,.9,2.15c2-.7,3.95-1.64,5.9-2.5l-1.08-1.85a46.92,46.92,0,0,0-5.54,4.16l1.15,1.15c0.89-1,2.06-1.8,3-2.8,0.12-.13,0-0.41-0.19-0.33h0Z"/><path class="cls-2" d="M481.25,357.77c2.6,6,6.48,13.35,13.93,13.76,8.78,0.49,14.72-7.14,19-13.72L511,356.47c-1.9,6.45-5.36,15.75-14,12.79-5.53-1.89-9.77-6.69-12.37-11.74l-3.48,2c8.92,15,31.88,15,39.26-1.49,1.28-2.86-2.51-5.22-4.27-2.49-4.56,7.07-7.2,14.55-17.33,13.38-8.16-.94-14.09-7.37-18.89-13.5-1.66-2.12-5.42.74-3.76,2.9,5.9,7.7,13.53,14.93,23.85,15,10.8,0.11,14.79-7.71,20.39-15.33l-4.27-2.49c-6.55,12.93-23.66,14.82-31.52,2a2,2,0,0,0-3.48,2c3.51,6.61,10.87,14.14,19,13.73s11.95-9.2,14.19-15.89c0.66-2-2.11-2.86-3.18-1.34-3.72,5.3-8.56,12.59-16,12.11-6.2-.4-10.22-6.06-13.51-10.64a0.24,0.24,0,0,0-.42.25h0Z"/><path class="cls-2" d="M478.37,354.85c5.94,5.47,17,5.79,24.58,5.51,4.83-.18,16,0,16.86-6.65,0.24-1.76-1.7-3.33-3.19-1.86-4.69,4.64-13,4.22-19.2,4s-12.94-2-19-1.13a0.05,0.05,0,0,0,0,.09h0Z"/><path class="cls-2" d="M516.25,353.24a1.71,1.71,0,0,0,2,2,2.06,2.06,0,0,0,1.83-1.23,2,2,0,0,0-.41-2.19,2,2,0,0,0-3.42,1.42h0Z"/><path class="cls-2" d="M518.92,354.11c-12-10.55-30-9.93-41.76.65-1.36,1.22.65,3.22,2,2,10.7-9.58,27.64-10.21,39.4-2.19a0.29,0.29,0,0,0,.36-0.46h0Z"/><path class="cls-2" d="M479.3,355.45c6.05,9.26,23.57,6.79,32.89,7v-4.21a113.6,113.6,0,0,1-22.36.69,2.21,2.21,0,0,0-1.9,3.31c3.38,5.24,9.45,8.12,15.4,9.29,3.08,0.6,5.19-3.55,2.22-5.26-4.07-2.35-8.17-4.64-12.26-7l-2.15,5.11a26.23,26.23,0,0,0,12.76,1.9c3.43-.32,3.54-5.28,0-5.42a12.31,12.31,0,0,0-4.29.43c-1.81.41-2.79,3.24-1.18,4.48,2.86,2.21,6.49,2.41,9-.57,2.15-2.59-1.52-6.34-3.73-3.73l-1.44.51L501,366.53l2.86-.19v-5.42a21.73,21.73,0,0,1-10.6-1.59c-3.21-1.37-6,3-2.82,4.83,4.06,2.37,8.1,4.76,12.18,7.1l2.22-5.26c-5.5-1-9.38-3.72-13.92-6.75l-1.11,4.1a102.9,102.9,0,0,0,22.91-1c2.38-.37,1.76-4.15-0.56-4.13-5.71.05-11.44,0-17.14,0.25s-10.69.05-15.68-3.12a0.05,0.05,0,0,0-.07.07h0Z"/><path class="cls-2" d="M522.09,353c-2.72,2.3-4.57,5.52-7.1,8a21.75,21.75,0,0,1-10.32,5.75,20.44,20.44,0,0,1-13-1.44c-3.35-1.54-5.55-4.74-9-5.83a2,2,0,0,0-2.47,2.47c0.75,4.59,6.72,7.56,10.68,9.05a25.89,25.89,0,0,0,15.25,1c7.43-1.83,18.78-9.95,16.3-18.93a0.2,0.2,0,0,0-.33-0.09h0Z"/><path class="cls-2" d="M521.89,352.48q-0.48,1.09-1,2.15l2.21,0.6C522.72,341,517.59,326,512.22,313a184.12,184.12,0,0,0-9.27-19.24c-3.32-6-6.84-13-11.72-17.79a1.87,1.87,0,0,0-2.92,2.25c3,6.14,7.62,11.68,11,17.67a176.32,176.32,0,0,1,9.58,19.82c2.62,6.42,4.9,13,6.88,19.66s3.06,13.53,5,20.17a1.18,1.18,0,1,0,2.17-.91q-0.5-1.07-1-2.15a0.05,0.05,0,0,0-.09,0h0Z"/><path class="cls-2" d="M491.86,278.65C484.55,291.78,478,306.28,474.6,321c-2.43,10.59-6.64,28.73,2.89,37,2.45,2.14,6.05-1.41,3.6-3.6-5-4.48-4-12.48-3.61-18.56a108.14,108.14,0,0,1,3.32-19.71c3.27-12.66,7.81-24.73,11.77-37.16a0.39,0.39,0,0,0-.72-0.3h0Z"/><path class="cls-2" d="M499.61,359.17c-0.28-12.73-.71-25.4-1.63-38.11-0.87-12-1.28-24.75-3.56-36.58-0.35-1.83-3.14-1.34-3.17.43-0.09,6.48.9,13.08,1.45,19.54,0.52,6.19,1,12.39,1.65,18.57,1.36,12.13,3,24.15,4.88,36.2,0,0.22.39,0.16,0.38-.05h0Z"/><path class="cls-2" d="M522,354.8c1.25-1.23,0-3.57-1-4.53a0.79,0.79,0,0,0-1.32.55c-0.05,1.42-.09,3.67,1.26,4.51a0.74,0.74,0,0,0,1.08-.44,3.24,3.24,0,0,0-.29-1.93,10,10,0,0,1-.49-2.14l-1.17.67a3.3,3.3,0,0,1,1.27,1.65,13.72,13.72,0,0,0,.48,1.63,0.15,0.15,0,0,0,.23,0h0Z"/><path class="cls-2" d="M522.22,353.57l-1.58.61a1.22,1.22,0,0,0,2.43,0l0.12-2.38a1.22,1.22,0,0,0-.62-1.08c-12.07-5.65-33.3-12.15-41.35,3.4a1.18,1.18,0,0,0,1.84,1.42c4.78-5,10.32-7.82,17.34-8,3.6-.09,20.32,1.88,20.23,6.62h2.43l-0.07-.64a1.26,1.26,0,0,0-.88-1.16l-0.61-.18A1.23,1.23,0,0,0,520,353l-0.23.59a1.16,1.16,0,0,0,.3,1.15l0.46,0.45a1.17,1.17,0,0,0,1.66-1.66h0Z"/><path class="cls-2" d="M515.27,351c0.93,1,2.1,1.78,3,2.8l1.15-1.15a46.92,46.92,0,0,0-5.54-4.16l-1.08,1.85c2,0.86,3.89,1.79,5.9,2.5,1.24,0.43,2.12-1.59.9-2.15-1.94-.89-4-1.57-6-2.31-1.19-.44-1.8,1.33-0.83,2a45.79,45.79,0,0,0,5.64,3.57,0.81,0.81,0,1,0,.62-1.48,20.48,20.48,0,0,1-2-1.11c-0.51-.26-1.06-0.44-1.6-0.66-0.19-.08-0.31.2-0.19,0.33h0Z"/><path class="cls-2" d="M434.14,219.37a5.38,5.38,0,0,0-3.21-1,6.12,6.12,0,0,0-5.63,3q-1.83,3-1.83,8.54a16.46,16.46,0,0,0,1.65,8,5.89,5.89,0,0,0,5.81,3.36,5.54,5.54,0,0,0,3.05-.9q2.65-1.65,3.51-6.06a25.67,25.67,0,0,0,.35-4.41,30.06,30.06,0,0,0-.3-4.36Q436.79,221.22,434.14,219.37Zm-3.21,14.82-4.51-4.26,4.51-4.71,4.46,4.71Z"/><path class="cls-2" d="M455.32,227.59c0.19-7.36-4.17-16.11-9-19.78a14.46,14.46,0,0,0-3.4-1.9c-4-2.17-4-2.17-9-2.53-2-.17-8.07.85-9.93,1a2.17,2.17,0,0,0-1.44.64c-0.32.08-.64,0.15-1,0.24-5.48,1.59-9.85,5.94-12.39,10.93a32.56,32.56,0,0,0-3,9.18,23,23,0,0,0-.31,8.36,25.15,25.15,0,0,0,6.23,14.41c7.43,8.24,20.43,10.35,30.17,5.08A25.81,25.81,0,0,0,455.32,227.59Zm-9.77,4.19a12.18,12.18,0,0,1-3.81,7.31A14.29,14.29,0,0,1,437,242a17.19,17.19,0,0,1-6.08,1,19,19,0,0,1-6.11-.9,13.09,13.09,0,0,1-8-6.66,22,22,0,0,1-1.1-3.46,20.85,20.85,0,0,0-2.4-2.1,13.73,13.73,0,0,0,2.4-2.15,13.55,13.55,0,0,1,9.06-10.11,18.79,18.79,0,0,1,6.16-1,17.46,17.46,0,0,1,5.56.9,14.33,14.33,0,0,1,6,3.76,11,11,0,0,1,3.1,6.21,17.83,17.83,0,0,0,2.4,2.15A13.88,13.88,0,0,0,445.55,231.78Z"/></svg>