<svg id="Layer_1" data-name="Layer 1" xmlns="http://www.w3.org/2000/svg" xmlns:xlink="http://www.w3.org/1999/xlink" viewBox="0 0 792 612"><defs><style>.cls-1{fill:url(#radial-gradient);}.cls-2{fill:#fff;}</style><radialGradient id="radial-gradient" cx="374.28" cy="321.16" r="187" gradientUnits="userSpaceOnUse"><stop offset="0" stop-color="#bdb433"/><stop offset="0.11" stop-color="#bdb433" stop-opacity="0.96"/><stop offset="0.27" stop-color="#bdb433" stop-opacity="0.83"/><stop offset="0.48" stop-color="#bdb433" stop-opacity="0.63"/><stop offset="0.73" stop-color="#bdb433" stop-opacity="0.36"/><stop offset="0.99" stop-color="#bdb433" stop-opacity="0.01"/><stop offset="1" stop-color="#bdb433" stop-opacity="0"/></radialGradient></defs><title>Horoscope-Icon</title><circle class="cls-1" cx="374.28" cy="321.16" r="187"/><path class="cls-2" d="M442.77,360.36a84.68,84.68,0,0,0-4.91,14.71l3.37,0.46a26.67,26.67,0,0,1,4.32-11.65l-4.16-1.75c-1.43,3.8-2.78,7.62-4.1,11.46l5,1.37a77.79,77.79,0,0,1,4.49-11.11c1.5-3,3.08-5.39,3.48-8.76a1.72,1.72,0,0,0-2.58-1.48c-5.94,3.85-8.44,13.53-10.36,20-0.95,3.19,4,4.52,5,1.37,1.22-3.86,2.41-7.73,3.52-11.62,0.7-2.45-2.92-4-4.16-1.75a31.22,31.22,0,0,0-3.82,13.95c-0.07,1.9,3,2.38,3.37.46A85.09,85.09,0,0,0,443,360.44a0.15,0.15,0,0,0-.27-0.07h0Z"/><path class="cls-2" d="M336.55,316.23a12.28,12.28,0,0,0-7.31-2.29q-8.68,0-12.85,6.91t-4.17,19.48q0,11.54,3.77,18.28a13.44,13.44,0,0,0,13.25,7.66,12.64,12.64,0,0,0,7-2.06q6.06-3.77,8-13.83a58.58,58.58,0,0,0,.8-10.06,68.7,68.7,0,0,0-.69-9.94Q342.6,320.46,336.55,316.23Zm-7.31,33.82L319,340.34l10.28-10.74,10.17,10.74Z"/><path class="cls-2" d="M474.55,372.66c-0.06.24-.13,0.47-0.2,0.71-1.66,1.4-2,5.2-2.8,6.9a33.55,33.55,0,0,1-8.76,11.09,35.72,35.72,0,0,1-5.54,4,2.32,2.32,0,0,0-1.27,0c-7.13,2.06-12.23-1.35-14.63-6.84-0.13-.8-0.23-1.6-0.28-2.43-0.35-5.36.89-10.69,1.28-16,2.81-4.64,5.3-9.5,7.91-14.11A248,248,0,0,0,463.53,330c6.83-16.19,11.49-33.85,6.53-51.29a65.61,65.61,0,0,0-26.12-35.81q-2.5-1.71-5.15-3.16c-10.5-7.57-22.24-12.07-34.52-12.51-8.23-1-17.4.64-24.52,2.35a99.73,99.73,0,0,0-29.29,12.12,76.78,76.78,0,0,0-20.63,18.59c-2.12,2.76-4.87,6-7.11,9.45l-0.57.1c-1.91,0-3.8.27-5.28,0.43-6.25.7-12.85,1.7-18.52,4.57-11.06,5.59-20.13,16.67-25.7,27.53-11.88,23.15-9.83,51.33,4.15,73.19C291.1,398,318.32,413.84,345.32,407c24-6,37.07-29.08,42.14-52A78.88,78.88,0,0,0,391,338.63a65.12,65.12,0,0,0-7.48-37.93c0.27-.6.55-1.19,0.85-1.78a80.05,80.05,0,0,1,16.3-21.72,31.19,31.19,0,0,1,4.35-2.37c5-2.22,10.17-2.41,15.58-2.47a51.83,51.83,0,0,1,7.56.47c6.88,4.79,12.32,10.92,13.74,19.49,1.72,10.36-.9,21.65-4.21,31.43-3.88,11.45-11.19,20.68-17.22,31-7,11.91-9.75,24.88-5.1,38.17,3.46,9.88,9,24.87,21.31,25.66,10.91,0.7,21.68-7.8,28.09-15.89a49.36,49.36,0,0,0,10.83-29.89A0.54,0.54,0,0,0,474.55,372.66ZM362.6,344.57a27.81,27.81,0,0,1-8.68,16.68,32.6,32.6,0,0,1-10.8,6.57,39.22,39.22,0,0,1-13.88,2.34,43.29,43.29,0,0,1-13.94-2.06q-12.8-4.23-18.28-15.2A50.47,50.47,0,0,1,294.5,345a47.51,47.51,0,0,0-5.48-4.8q0.8-.23,5.48-4.91A29.69,29.69,0,0,1,297,328q5.37-11.42,18.17-15.77a42.89,42.89,0,0,1,14.05-2.17,39.84,39.84,0,0,1,12.68,2.06,32.69,32.69,0,0,1,13.6,8.57,25.2,25.2,0,0,1,7.09,14.17,40.72,40.72,0,0,0,5.48,4.91Q367.29,340,362.6,344.57Z"/></svg>