<svg id="Layer_1" data-name="Layer 1" xmlns="http://www.w3.org/2000/svg" xmlns:xlink="http://www.w3.org/1999/xlink" viewBox="0 0 374 374"><defs><style>.cls-1{fill:url(#radial-gradient);}.cls-2{fill:#fff;}</style><radialGradient id="radial-gradient" cx="187" cy="187" r="187" gradientUnits="userSpaceOnUse"><stop offset="0" stop-color="#bdb433"/><stop offset="0.11" stop-color="#bdb433" stop-opacity="0.96"/><stop offset="0.27" stop-color="#bdb433" stop-opacity="0.83"/><stop offset="0.48" stop-color="#bdb433" stop-opacity="0.63"/><stop offset="0.73" stop-color="#bdb433" stop-opacity="0.36"/><stop offset="0.99" stop-color="#bdb433" stop-opacity="0.01"/><stop offset="1" stop-color="#bdb433" stop-opacity="0"/></radialGradient></defs><title>Horoscope-Icon-sagittarius</title><circle class="cls-1" cx="187" cy="187" r="187"/><path class="cls-2" d="M353.35,173.63c7.8,3,16.31,5.21,22.73,10.83,6,5.29,12.18,11.2,17.66,17.08,12.4,13.32,18.85,30.93,22.69,48.44,4.17,19,2.57,40.58,14,57.1,5.84,8.42,12.77,16.15,19.26,24.07,6.2,7.56,13.16,14.71,18.12,23.18,5.44,9.3,7.76,19.47,7.79,30.18,0,5.22.3,10.44-.28,15.63a97.45,97.45,0,0,0-.82,17.17c0.15,2.34,3.4,3.57,4.66,1.26,4.75-8.7,7.33-19.17,9.13-28.87a84.92,84.92,0,0,0-.24-31.94c-2.15-10.34-8-19.4-14.26-27.74-6.88-9.23-14.28-18.07-21.5-27a80,80,0,0,1-7.82-10.83c-2.64-4.7-3.58-10.2-4.34-15.48-1.53-10.65-2.83-21.28-5.28-31.78-4.65-19.89-12.78-39.37-26.62-54.66-7.21-8-15.45-14-26-16.41-9.42-2.17-19.39-4.91-28.92-1.46a0.66,0.66,0,0,0,0,1.27h0Z" transform="translate(-209.06 -119.63)"/><path class="cls-2" d="M366.94,178.93c-13.39,20-17.82,43.49-26.57,65.52C331,268,318.48,290,313.87,315.28c-2,10.72-2.1,20.32,5,29.2,6.58,8.23,15.75,14.63,24.72,20a323.88,323.88,0,0,0,31.64,16.13c10.16,4.65,20.23,9.66,30.89,13.1,6.82,2.2,13.87,3.47,20.73,5.52,5.79,1.73,11.5,3.68,17.26,5.51,11,3.53,22,5.89,33.58,4,2.12-.34,1.65-4.07-0.51-3.79-20.42,2.63-40-8.37-59.58-12.47-11.33-2.38-21.86-6.58-32.42-11.26-10-4.42-20-8.68-29.73-13.66A122.22,122.22,0,0,1,328,349c-3.9-3.61-7.79-7.61-9.59-12.73-2.19-6.26-.7-13.22.71-19.48a206.54,206.54,0,0,1,11-34.92c4.26-10.11,9.09-20,12.31-30.47,7.45-24.33,13.85-49.13,25-72.12a0.31,0.31,0,0,0-.53-0.31h0Z" transform="translate(-209.06 -119.63)"/><path class="cls-2" d="M486,256.11q-3.49-.57-8.61,1.48a16.46,16.46,0,0,0-6.82,4.52,5.89,5.89,0,0,0-1,6.64,5.55,5.55,0,0,0,2,2.5q2.52,1.85,6.93,1a25.65,25.65,0,0,0,4.22-1.31,30.11,30.11,0,0,0,3.93-1.9q3.76-2.32,4.5-5.47a5.38,5.38,0,0,0-.26-3.35A6.12,6.12,0,0,0,486,256.11Zm-4.17,12.54-5.61-2.55,2.27-5.77,6,2.43Z" transform="translate(-209.06 -119.63)"/><path class="cls-2" d="M508.42,245.23a8.66,8.66,0,0,0-4.52-1.87c-6.53-.7-13.05-1.32-19.59-1.75a77.61,77.61,0,0,0-22.85-1.13c-3.27,0-6.52.64-8.34,3.85a7.26,7.26,0,0,0-.9,4.24,6.67,6.67,0,0,0,.65,4.27c0.79,1.58,1.49,3.19,2.13,4.81l1.09,2.95c-2.35,1-4.62,1.92-6.75,2.74-9.53,3.68-19,7.61-28.34,11.63-18,7.69-35.42,16.52-53.24,24.6-18.31,8.31-36.95,16-55.14,24.53-2.88,1.36-5.71,2.8-8.52,4.28a27.92,27.92,0,0,0-2.52-2.18c-3.56-2.73-7.27-3.87-11.59-2.73a0.34,0.34,0,0,0-.08.62,59.26,59.26,0,0,1,8.63,6.41c0.19,0.18.37,0.38,0.55,0.59l-4.34,2.41a18.58,18.58,0,0,0-4.36-2.12c-3-.93-10.5-2.1-12.21,1.61a0.55,0.55,0,0,0,0,.55c1.17,1.53,3.14,1.66,4.86,2.35a38.49,38.49,0,0,1,4.05,1.91l-1.81,1q-1.54.85-3.08,1.74c-4.78-3.85-13.73-4.3-17.24.47a0.69,0.69,0,0,0,.41,1c2.54,0.75,5.16,1,7.71,1.81a11.23,11.23,0,0,1,2.17,1A72.3,72.3,0,0,0,261.68,356a0.34,0.34,0,0,0,.24.58,66,66,0,0,0,12.83-1.26l-0.08.12c-2.53,3.59-7.3,6-8.72,10.21a0.34,0.34,0,0,0,.24.42c5,1.13,9.72-4.44,12.5-7.92a41.42,41.42,0,0,0,3.15-4.45c2.93-.77,5.82-1.65,8.64-2.56l0.06,0a12.84,12.84,0,0,1-1.14,2.91c-2.19,4-6.13,6.17-9,9.54a0.69,0.69,0,0,0,.3,1.14c8,2.36,16.77-7.42,17.84-16.13q3.69-1.17,7.36-2.37a19.9,19.9,0,0,1,0,2.1,17.64,17.64,0,0,1-4.81,10.64,0.41,0.41,0,0,0,.29.7c4.74,0.34,7.89-2.89,9.72-7.09a21.7,21.7,0,0,0,1.79-8.73c1.68-.6,3.36-1.21,5-1.86,19.21-7.44,38-16,57-24,17.88-7.51,36.07-14.29,54-21.67,8.82-3.63,17.69-7.15,26.63-10.46l7.11-2.61a75.34,75.34,0,0,0,3.68,9.59,5.74,5.74,0,0,0,.88,1.31c0.54,5,7,9.11,11.22,4.33,0.85-1,1.65-2,2.4-3,6.55-4.37,12.38-10.48,17.29-16.15a114.27,114.27,0,0,0,7.82-10.15,39.29,39.29,0,0,0,10.46-13.19C519.34,249.34,514.43,245.77,508.42,245.23ZM492.49,272a11,11,0,0,1-4.61,5.19,17.92,17.92,0,0,0-1.1,3,13.91,13.91,0,0,0-2.85-1.45,12.19,12.19,0,0,1-8.2-.81,14.29,14.29,0,0,1-4.43-3.32,17.19,17.19,0,0,1-3.22-5.26,19,19,0,0,1-1.44-6,13.09,13.09,0,0,1,3.2-9.92,22.16,22.16,0,0,1,2.8-2.31,20.75,20.75,0,0,0,1.06-3,13.84,13.84,0,0,0,2.89,1.43,13.55,13.55,0,0,1,12.76,4.65,18.8,18.8,0,0,1,3.18,5.36,17.46,17.46,0,0,1,1.23,5.49A14.34,14.34,0,0,1,492.49,272Z" transform="translate(-209.06 -119.63)"/></svg>