<svg id="Layer_1" data-name="Layer 1" xmlns="http://www.w3.org/2000/svg" xmlns:xlink="http://www.w3.org/1999/xlink" viewBox="0 0 528.69 528.69"><defs><style>.cls-1{fill:url(#radial-gradient);}.cls-2{fill:none;}.cls-3{fill:#fff;}</style><radialGradient id="radial-gradient" cx="264.35" cy="264.35" r="264.35" gradientUnits="userSpaceOnUse"><stop offset="0" stop-color="#bdb433"/><stop offset="0.11" stop-color="#bdb433" stop-opacity="0.96"/><stop offset="0.27" stop-color="#bdb433" stop-opacity="0.83"/><stop offset="0.48" stop-color="#bdb433" stop-opacity="0.63"/><stop offset="0.73" stop-color="#bdb433" stop-opacity="0.36"/><stop offset="0.99" stop-color="#bdb433" stop-opacity="0.01"/><stop offset="1" stop-color="#bdb433" stop-opacity="0"/></radialGradient></defs><title>Horoscope-Icon-taurus</title><circle class="cls-1" cx="264.35" cy="264.35" r="264.35"/><path class="cls-2" d="M393.61,427.3l0.27,0.2c0-.06,0-0.13,0-0.19h-0.26Z" transform="translate(-130.35 -44.65)"/><path class="cls-2" d="M387,427a57.83,57.83,0,0,1-10.27,0c0.12,6.6,3.61,15.44,11.47,11.9,4.84-2.18,6.07-6.77,5.66-11.44l-0.27-.2A59.74,59.74,0,0,1,387,427Z" transform="translate(-130.35 -44.65)"/><path class="cls-3" d="M404,297.7a14.75,14.75,0,0,0-8.79-2.75q-10.43,0-15.45,8.31t-5,23.41q0,13.87,4.53,22a17.84,17.84,0,0,0,6,6.8q3.71,2.4,9.89,2.4a15.19,15.19,0,0,0,8.38-2.47q7.28-4.53,9.61-16.61a70.39,70.39,0,0,0,1-12.08,82.55,82.55,0,0,0-.82-11.95Q411.31,302.78,404,297.7Zm-8.79,40.64-12.36-11.67,12.36-12.91,12.22,12.91Z" transform="translate(-130.35 -44.65)"/><path class="cls-3" d="M547.49,209.79c5.31-16.7,9.73-36.75,2.58-53.83-0.35-.83-1.69-1.32-2.18-0.29-6.82,14.34-12.68,28.91-24.59,40-11.21,10.47-23.92,18.23-38.16,25.17-0.31.15-3.29,1.53-4.09,1.93-2.58,1.08-5.3,2.1-7.76,3.42l-0.57.32-0.63.23c-2.18.81-4.36,1.56-6.54,2.34a189.62,189.62,0,0,1-30.31,8.38l-0.54.07a93.34,93.34,0,0,0-79.78-1.13q-3.64-.8-7.25-1.74c-4.62-1.22-9.15-2.71-13.67-4.29-2.36-.83-4.72-1.66-7.07-2.53-1.55-.57-6.48-2.82-2.29-0.87-2.88-1.34-5.79-2.57-8.7-3.84,0,0-3.49-1.65-4.21-2-4.22-2.06-8.23-4.42-12.26-6.81a162.78,162.78,0,0,1-20.65-14C264,188.46,257,172.68,249,156c-0.5-1-1.83-.55-2.18.29-6,14.25-4.15,33.19.26,47.56,5.22,17,13,32.75,24.77,46.36a110.9,110.9,0,0,0,30.83,24.72c-5.65,1.18-11.19,2.85-17,3.87-7.74,1.36-18.6,4-22.5,11.63a2.76,2.76,0,0,0,3.07,4c6.14-1,10.65-4,15.79,1.27,4.6,4.7,7.56,9.19,14.38,10.89a25.9,25.9,0,0,0,4.68.71l0,0.09c-6,12.55-3.56,27.39-1.08,40.61,4.94,26.35,17.84,51.49,34.36,72.38q2.87,3.64,6.06,7c4.65,21.4,12.11,42.16,36,47.87-0.37,5.38.42,10.73,3.7,15.28,3.57,4.95,9.58,8,15.72,6.93,10.8-1.9,14.92-11.69,14.31-21.3,1.11-.17,2.23-0.34,3.33-0.57,24.63-5.25,32.24-26.52,36.94-48.15a157.74,157.74,0,0,0,9.69-14.15,189.61,189.61,0,0,0,17.2-33.88A170.36,170.36,0,0,0,487,341.65c0.79-5.5,1.72-11.46,1.36-17a41.66,41.66,0,0,0-1.27-7.09c-0.13-3.06-.42-6.09-0.84-9.07,0.53-.1,1.06-0.2,1.58-0.34,6.25-1.67,9.54-5.77,13.74-10.21,5.41-5.7,9.59-3.09,16.43-2a2.76,2.76,0,0,0,3.07-4c-3.91-7.63-14.73-10.27-22.5-11.63-3.72-.65-7.31-1.57-10.89-2.46a120.68,120.68,0,0,0,27.39-18.2A112.06,112.06,0,0,0,547.49,209.79ZM396.37,488.93c-8.2,3.69-11.83-5.52-12-12.4a60.26,60.26,0,0,0,10.71,0,62.26,62.26,0,0,0,6.86.3h0.27c0,0.07,0,.13,0,0.2C402.7,481.88,401.42,486.66,396.37,488.93Zm39-157.18a33.41,33.41,0,0,1-10.44,20,39.18,39.18,0,0,1-13,7.9,47.13,47.13,0,0,1-16.68,2.81A52,52,0,0,1,378.49,360q-15.38-5.08-22-18.26a60.63,60.63,0,0,1-3-9.47,57.07,57.07,0,0,0-6.59-5.77q1-.27,6.59-5.9a35.67,35.67,0,0,1,3-8.79q6.45-13.73,21.83-18.95a51.53,51.53,0,0,1,16.89-2.61,47.87,47.87,0,0,1,15.24,2.47,39.28,39.28,0,0,1,16.34,10.3,30.28,30.28,0,0,1,8.51,17,48.93,48.93,0,0,0,6.59,5.9Q441,326.26,435.34,331.75Z" transform="translate(-130.35 -44.65)"/></svg>