<svg id="Layer_1" data-name="Layer 1" xmlns="http://www.w3.org/2000/svg" xmlns:xlink="http://www.w3.org/1999/xlink" viewBox="0 0 482.06 482.06"><defs><style>.cls-1{fill:url(#radial-gradient);}.cls-2{fill:#fff;}</style><radialGradient id="radial-gradient" cx="241.03" cy="241.03" r="241.03" gradientUnits="userSpaceOnUse"><stop offset="0" stop-color="#bdb433"/><stop offset="0.11" stop-color="#bdb433" stop-opacity="0.96"/><stop offset="0.27" stop-color="#bdb433" stop-opacity="0.83"/><stop offset="0.48" stop-color="#bdb433" stop-opacity="0.63"/><stop offset="0.73" stop-color="#bdb433" stop-opacity="0.36"/><stop offset="0.99" stop-color="#bdb433" stop-opacity="0.01"/><stop offset="1" stop-color="#bdb433" stop-opacity="0"/></radialGradient></defs><title>Horoscope-Icon-aries</title><circle class="cls-1" cx="241.03" cy="241.03" r="241.03"/><path class="cls-2" d="M398.87,337.4a11.14,11.14,0,0,0-6.45-1.94q-7.67,0-11.38,6.05t-3.71,17.19q0,10.25,3.31,16.22a12.15,12.15,0,0,0,11.78,6.62,11.31,11.31,0,0,0,6.13-1.78q5.33-3.31,7-12.1a46.64,46.64,0,0,0,.81-9,50.57,50.57,0,0,0-.73-8.79Q404.19,341.11,398.87,337.4Zm-6.45,29.85-9-8.55,9-9.44,9,9.44Z" transform="translate(-150.52 -77.49)"/><path class="cls-2" d="M553.45,268.74c-0.31-6.81-.81-13.8-3.51-20.05a34.82,34.82,0,0,0-2.7-9,53.11,53.11,0,0,0-4.58-8.84c-9.09-19.67-25.13-35.83-45.84-43.54-29.7-11.05-62.39-1.37-80.81,24.29-16.52,23-20.8,53.44-24.44,81.3-3.21-24.77-7.42-50-19.05-71.91-15.13-28.54-45.1-42.1-76.56-35.76-25,5-44.84,23.53-55.39,46.2a51.45,51.45,0,0,0-4.68,9,35.26,35.26,0,0,0-2.66,8.91c-2.77,6.27-3.21,13.36-3.54,20.18a103.29,103.29,0,0,0,2.22,25.13c1.07,5.32,1.65,10.49,4.12,14.77,0.43,1.2.88,2.39,1.37,3.57,10.53,25.41,40.17,50.84,69.26,39.65,26.27-10.1,37.17-42.43,33.13-68.28-3.66-23.39-28-58.31-54.34-38.2-11.39,8.68-16,28.09-6.86,40,2.4,3.13,6.06,5.43,9.88,5.48a11.21,11.21,0,0,0,7.9-1.91,11.76,11.76,0,0,0,4.44-9.05c0-2.89-.93-7.14-3.67-8.57a0.18,0.18,0,0,0-.27.17,0.29,0.29,0,0,0-.25.24c-0.11.71-.23,1.45-0.38,2.18-1.3,2.72-3.61,5.56-6.48,2.75a5.85,5.85,0,0,1-1.45-2.61c-0.06-1-.06-2,0-2.83a18.33,18.33,0,0,1,4.43-11.7c8.32-9.05,17.55,1,21.42,8.8a37.28,37.28,0,0,1,3,26.23c-0.13.31-.25,0.63-0.41,0.94-3,6.11-8.89,10.56-15.21,13-12.69,2.39-26.08,0-32.41-12.84-3.84-7.8-5.18-16.15-5.41-24.77-0.11-4.25.92-9.31,1.12-14.12,5.3-19.21,17.78-36.34,37.71-41,8.54-2,18.55-1.36,26.25,2.91,9,5,14.83,13.84,18.76,23.32,10.55,25.47,12.37,54.72,16,81.77,0.09,0.65.18,1.29,0.27,1.93-5.07-.41-10.33,1.8-14.17,5.07-4.78,4.07-9.1,11.76-10.5,19.41a12.43,12.43,0,0,0-5.81,0C325.7,352.8,321.12,360,319,367.12s-1.15,15.11,3.26,21.12a14,14,0,0,0-1.38,1.12c-6.11,5.72-7.23,15.23-5.12,22.92a32.32,32.32,0,0,0,9.07,15c2,9.94,9.53,19.15,20.18,22.11a29.89,29.89,0,0,0,26.07-4.76C377,451.83,386.8,455.3,396,454a24.93,24.93,0,0,0,5.69-1.51,14.88,14.88,0,0,0,8.7-5.67,25.12,25.12,0,0,0,2.71-3.13c11.56,9.75,29.75,10.79,42.28.51,9.93-8.14,20.79-34.8,8.44-45.24a30.44,30.44,0,0,0,5-18.44C468.16,371,462.87,363,453.65,360a18.62,18.62,0,0,0-4.93-.87c0.89-10.35-5.22-20.45-12-27.89-4.37-4.83-11.34-7.71-17.31-6.56,3.3-25.09,5.75-50.62,13.39-74.77,3.1-9.8,7.5-19.51,15-26.58,7.37-6.91,16.33-9,26.09-8.51,20,1,36,17.07,42.64,36.3,0.64,1.84,1.21,3.71,1.72,5.58,0.2,4.83,1.25,9.91,1.13,14.2-0.25,8.67-1.62,16.91-5.41,24.77-6.24,12.95-19.76,15.25-32.5,12.82-6.27-2.44-12.21-7-15.12-13-0.15-.32-0.28-0.64-0.41-1a37.32,37.32,0,0,1,2.31-24.66c3.32-7.49,12-19.25,21-11.54,3.55,3,5.34,8.36,5.48,12.9,0,0.75.06,1.68,0,2.62a6.13,6.13,0,0,1-1.5,2.82c-2.86,2.84-5.18,0-6.48-2.75-0.15-.73-0.26-1.46-0.38-2.17a0.29,0.29,0,0,0-.25-0.24,0.18,0.18,0,0,0-.27-0.17c-2.75,1.43-3.69,5.68-3.67,8.57a11.76,11.76,0,0,0,4.44,9.05,11.36,11.36,0,0,0,10.61,1.23,10.16,10.16,0,0,0,4.18-1.78c10.29-7.62,9.2-25,3.41-34.92-6.9-11.8-21.92-17.18-34.47-11.41-12.1,5.56-20.3,18.41-24.48,30.61-8.72,25.4-1.52,57,20.39,73.46,26,19.57,59.34.68,74.14-23.6a75.71,75.71,0,0,0,6.75-14.24c2.33-4.22,2.91-9.27,4-14.46A104.67,104.67,0,0,0,553.45,268.74Zm-256.13,5.38,0.17,0.49a0.35,0.35,0,0,0-.17.32l0,0C297.29,274.64,297.31,274.38,297.32,274.12Zm124.55,79.74a36.55,36.55,0,0,0,4.84,4.28q-0.73.24-4.92,4.36a24.64,24.64,0,0,1-7.58,14.68,28.78,28.78,0,0,1-9.56,5.77A34.8,34.8,0,0,1,392.41,385a39.54,39.54,0,0,1-12.34-1.78q-11.3-3.71-16.14-13.39a59,59,0,0,1-2.18-6.94,36.91,36.91,0,0,0-4.84-4.28q0.65-.16,4.84-4.28a22,22,0,0,1,2.18-6.45q4.68-10.17,16.06-14A39.14,39.14,0,0,1,392.41,332a36.24,36.24,0,0,1,11.21,1.78,29.45,29.45,0,0,1,12,7.58A22.87,22.87,0,0,1,421.86,353.86Zm63.94-79.63a0.35,0.35,0,0,0-.17-0.32l0.17-.5c0,0.26,0,.53,0,0.8Zm9.88,10.36a2.31,2.31,0,0,0,.07.38l-0.2.07-0.34.05C495.38,284.93,495.53,284.76,495.68,284.59Z" transform="translate(-150.52 -77.49)"/></svg>