<svg id="Layer_1" data-name="Layer 1" xmlns="http://www.w3.org/2000/svg" xmlns:xlink="http://www.w3.org/1999/xlink" viewBox="0 0 792 612"><defs><style>.cls-1{fill:url(#radial-gradient);}.cls-2{fill:#fff;}</style><radialGradient id="radial-gradient" cx="475.62" cy="357.19" r="187" gradientUnits="userSpaceOnUse"><stop offset="0" stop-color="#bdb433"/><stop offset="0.11" stop-color="#bdb433" stop-opacity="0.96"/><stop offset="0.27" stop-color="#bdb433" stop-opacity="0.83"/><stop offset="0.48" stop-color="#bdb433" stop-opacity="0.63"/><stop offset="0.73" stop-color="#bdb433" stop-opacity="0.36"/><stop offset="0.99" stop-color="#bdb433" stop-opacity="0.01"/><stop offset="1" stop-color="#bdb433" stop-opacity="0"/></radialGradient></defs><title>Horoscope-Icon</title><circle class="cls-1" cx="475.62" cy="357.19" r="187"/><path class="cls-2" d="M425.31,265.22c-2.26,6.41.24,13.85,0.67,20.64,0.43,7,.1,14-0.1,20.94-0.44,15.16-1.79,30.32-3.15,45.42-2.66,29.61-11.54,58.58-15,88.25-0.56,4.85,6.61,7.54,9.68,4,22.11-25.42,30-60.42,33.65-93.17a177,177,0,0,0-1.92-49.42,101,101,0,0,0-6.65-21.71,62.14,62.14,0,0,0-5.77-11c-2.24-3.34-3.79-4.77-7.58-6.14-1.67-.6-3.32.69-3.85,2.19h0Z"/><path class="cls-2" d="M525.47,265.46c-6.53,1-9.66,11.51-12.12,16.69a107.47,107.47,0,0,0-7.89,23.49,276.3,276.3,0,0,0-5.64,49.5A281,281,0,0,0,503,404.75c2.3,15.62,4.82,32.6,13.93,45.89,3.86,5.64,11.46,3.12,12.21-3.31,1.84-15.75-1.85-31.86-2.8-47.61a480.12,480.12,0,0,1-.54-48.3c0.66-16.09,2.87-32,4.33-48,0.72-7.89,1.19-15.68,1.45-23.6,0.14-4.29,1.38-15.51-6.09-14.34h0Z"/><path class="cls-2" d="M371.82,380.59c7.11-2.89,13.78-6.76,20.89-9.68a112.36,112.36,0,0,1,23.09-6.53c15.79-2.8,32.38-2.56,48.35-1.82,33.77,1.56,66.41,11.53,98.52,21.31,5,1.52,8.65-5.07,5-8.66-27.24-27.08-67.51-33-104.43-31.57a175.23,175.23,0,0,0-52.21,9.68c-14.42,5.15-31.85,12.62-39.86,26.48a0.54,0.54,0,0,0,.61.79h0Z"/></svg>