<svg id="Layer_1" data-name="Layer 1" xmlns="http://www.w3.org/2000/svg" xmlns:xlink="http://www.w3.org/1999/xlink" viewBox="0 0 792 612"><defs><style>.cls-1{fill:url(#radial-gradient);}.cls-2{fill:#fff;}</style><radialGradient id="radial-gradient" cx="401.63" cy="317.54" r="187" gradientUnits="userSpaceOnUse"><stop offset="0" stop-color="#bdb433"/><stop offset="0.11" stop-color="#bdb433" stop-opacity="0.96"/><stop offset="0.27" stop-color="#bdb433" stop-opacity="0.83"/><stop offset="0.48" stop-color="#bdb433" stop-opacity="0.63"/><stop offset="0.73" stop-color="#bdb433" stop-opacity="0.36"/><stop offset="0.99" stop-color="#bdb433" stop-opacity="0.01"/><stop offset="1" stop-color="#bdb433" stop-opacity="0"/></radialGradient></defs><title>Horoscope-Icon</title><circle class="cls-1" cx="401.63" cy="317.54" r="187"/><path class="cls-2" d="M481.45,321.06a6.72,6.72,0,0,0-4-1.25,7.65,7.65,0,0,0-7,3.79q-2.29,3.79-2.28,10.67,0,6.32,2.07,10a7.36,7.36,0,0,0,7.26,4.19,6.92,6.92,0,0,0,3.82-1.13q3.32-2.06,4.38-7.57a32.05,32.05,0,0,0,.44-5.51,37.61,37.61,0,0,0-.38-5.45Q484.76,323.37,481.45,321.06Zm-4,18.53-5.63-5.32,5.63-5.88,5.57,5.88Z"/><path class="cls-2" d="M495.86,367.63c12.14-14.68,20.69-32.93,18-52.36-2.38-17.52-16.84-33.06-35.56-31.29a28.15,28.15,0,0,0-4.42.79,112.47,112.47,0,0,0-.42-13.46c-1.73-18.37-9.23-38.12-27.84-45.18-8.62-3.27-18.56-2.26-25.66,3.85a25,25,0,0,0-4.72,5.34C406,225.22,392,219.18,378.57,225.22a36.42,36.42,0,0,0-13.92,11.24,24.81,24.81,0,0,0-5.21-7.9c-13.27-13.36-37.93-8.59-51.62,1.48a49.86,49.86,0,0,0-16.12,19.44c-2.75,6.17-6.15,15.68-4.46,22.47a0.69,0.69,0,0,0,1.14.3c2-2.56,3.11-5.75,4.74-8.58a48.07,48.07,0,0,1,6.15-8.35c4.62-5.15,9.62-9.67,16-12.61,8.38-3.89,27.61-7.68,30.57,4.58,1.65,6.81,1.34,14.37,1.55,21.33q0.38,12.67-.06,25.35c-0.3,8.8-1,17.57-1.91,26.32-0.42,4-.81,8.07-1.27,12.1-0.63,5.47-.05,9.13,1,14.49,1.54,7.69,13.14,8.9,16.71,2.18,1.4-2.62,3.09-4.64,3.9-7.62a65.94,65.94,0,0,0,1.28-9.05c0.66-5.37,1.19-10.74,1.52-16.15,0.62-10.11.92-20.26,0.9-30.39,0-10.81-.38-21.65-1.3-32.43q-0.09-1.09-.2-2.19c0.81-.87,1.64-1.72,2.47-2.54a24.54,24.54,0,0,1,15.86-7.44c10.54-.67,17.35,9.73,19.46,18.77,3.21,13.76-.37,28.83-1.41,42.67l-1.66,22.11c-0.64,8.53-2.54,17.33,1.09,25.33,3.42,7.52,14.07,5.93,17.9,0,3.16-4.89,3-10.66,3.38-16.29l1-14.07c0.68-9.71,1.49-19.42,1.87-29.14,0.59-15.17,1.31-31.87-5.84-45.71,7.89-5.14,17.64-5,24.34,3.84,4.39,5.82,5.28,13.63,5.32,20.69a160.94,160.94,0,0,1-1.88,25.42c-2.9,18.69-9.43,36.56-11.47,55.43a82.8,82.8,0,0,0,2.42,30.8q-8.69,5-17.79,9.3c-3.52,1.65-7,3.27-10.66,4.65-3.07,1.17-6.39,2.09-8.79,4.43a1.09,1.09,0,0,0,.22,1.69c5.57,4.2,16.34,3.46,23,3a88.76,88.76,0,0,0,22.05-4.16c8.06,13.86,20.2,26.75,36.67,29.18,4,0.59,8.94-3.55,6-7.76-7.31-10.33-15.87-20-21.48-31.35A105.83,105.83,0,0,0,495.86,367.63Zm-18.42-17a23.73,23.73,0,0,1-7.64-1.13,16.37,16.37,0,0,1-10-8.33,27.64,27.64,0,0,1-1.38-4.32,26.07,26.07,0,0,0-3-2.63,17.24,17.24,0,0,0,3-2.69,16.94,16.94,0,0,1,11.33-12.64,23.47,23.47,0,0,1,7.7-1.19,21.81,21.81,0,0,1,6.95,1.13,17.91,17.91,0,0,1,7.45,4.69,13.81,13.81,0,0,1,3.88,7.76,22.37,22.37,0,0,0,3,2.69,17.42,17.42,0,0,0-3,2.63,15.23,15.23,0,0,1-4.76,9.14,17.85,17.85,0,0,1-5.92,3.6A21.48,21.48,0,0,1,477.44,350.6Z"/></svg>