<svg id="Layer_1" data-name="Layer 1" xmlns="http://www.w3.org/2000/svg" xmlns:xlink="http://www.w3.org/1999/xlink" viewBox="0 0 792 612"><defs><style>.cls-1{fill:url(#radial-gradient);}.cls-2{fill:#fff;}</style><radialGradient id="radial-gradient" cx="484.9" cy="294.39" r="187" gradientUnits="userSpaceOnUse"><stop offset="0" stop-color="#bdb433"/><stop offset="0.11" stop-color="#bdb433" stop-opacity="0.96"/><stop offset="0.27" stop-color="#bdb433" stop-opacity="0.83"/><stop offset="0.48" stop-color="#bdb433" stop-opacity="0.63"/><stop offset="0.73" stop-color="#bdb433" stop-opacity="0.36"/><stop offset="0.99" stop-color="#bdb433" stop-opacity="0.01"/><stop offset="1" stop-color="#bdb433" stop-opacity="0"/></radialGradient></defs><title>Horoscope-Icon</title><circle class="cls-1" cx="484.9" cy="294.39" r="187"/><path class="cls-2" d="M553.49,247.06a8.07,8.07,0,0,0-4.81-1.5,9.18,9.18,0,0,0-8.45,4.54q-2.74,4.55-2.74,12.81,0,7.59,2.48,12a8.84,8.84,0,0,0,8.71,5,8.31,8.31,0,0,0,4.58-1.35q4-2.48,5.26-9.09a38.56,38.56,0,0,0,.53-6.61,45.15,45.15,0,0,0-.45-6.53Q557.47,249.84,553.49,247.06Zm-4.81,22.23-6.76-6.38,6.76-7.06,6.69,7.06Z"/><path class="cls-2" d="M591.61,260.76c-4.2-28-35.94-43.08-60.76-48.33-29.91-6.33-61.27-1.88-89.2,10-12.81,5.47-25.47,12.45-35.69,22-9.28,8.69-18.07,20.62-18.53,33.72a2,2,0,0,0,3.41,1.41c5.49-5,10.28-10.67,16-15.36a145.77,145.77,0,0,1,18.43-12.81c13.48-7.91,28.29-12.56,43.45-16a138.93,138.93,0,0,1,41.66-3.29c-15.73,22.14-5.53,55.89,19.5,67C557.56,311.37,596.77,295.2,591.61,260.76Zm-21,4.93a18.27,18.27,0,0,1-5.71,11,21.42,21.42,0,0,1-7.1,4.32,25.78,25.78,0,0,1-9.13,1.54,28.46,28.46,0,0,1-9.16-1.35,19.63,19.63,0,0,1-12-10,33.24,33.24,0,0,1-1.65-5.18,31.19,31.19,0,0,0-3.61-3.15,20.69,20.69,0,0,0,3.61-3.23,20.33,20.33,0,0,1,13.6-15.17,28.18,28.18,0,0,1,9.24-1.43,26.19,26.19,0,0,1,8.34,1.35A21.5,21.5,0,0,1,566,250a16.57,16.57,0,0,1,4.66,9.31,26.8,26.8,0,0,0,3.61,3.23A20.85,20.85,0,0,0,570.61,265.69Z"/><path class="cls-2" d="M590.1,313.41c-5.49,5-10.28,10.67-16,15.36a145.77,145.77,0,0,1-18.43,12.81c-13.48,7.91-28.29,12.56-43.45,16a138.93,138.93,0,0,1-41.66,3.29c15.73-22.14,5.53-55.89-19.5-67-27.67-12.25-66.88,3.92-61.72,38.36,4.2,28,35.94,43.08,60.76,48.33,29.91,6.33,61.27,1.88,89.2-10,12.81-5.47,25.47-12.45,35.69-22,9.28-8.69,18.07-20.62,18.53-33.72A2,2,0,0,0,590.1,313.41ZM455.41,333.5a18.27,18.27,0,0,1-5.71,11,21.42,21.42,0,0,1-7.1,4.32,25.78,25.78,0,0,1-9.13,1.54,28.46,28.46,0,0,1-9.16-1.35,19.63,19.63,0,0,1-12-10,33.24,33.24,0,0,1-1.65-5.18,31.19,31.19,0,0,0-3.61-3.15,20.69,20.69,0,0,0,3.61-3.23,20.33,20.33,0,0,1,13.6-15.17,28.18,28.18,0,0,1,9.24-1.43,26.19,26.19,0,0,1,8.34,1.35,21.5,21.5,0,0,1,8.94,5.63,16.57,16.57,0,0,1,4.66,9.31,26.8,26.8,0,0,0,3.61,3.23A20.85,20.85,0,0,0,455.41,333.5Z"/><path class="cls-2" d="M438.29,314.87a8.07,8.07,0,0,0-4.81-1.5,9.18,9.18,0,0,0-8.45,4.54q-2.74,4.55-2.74,12.81,0,7.59,2.48,12a8.84,8.84,0,0,0,8.71,5,8.31,8.31,0,0,0,4.58-1.35q4-2.48,5.26-9.09a38.56,38.56,0,0,0,.53-6.61,45.15,45.15,0,0,0-.45-6.53Q442.27,317.65,438.29,314.87Zm-4.81,22.23-6.76-6.38,6.76-7.06,6.69,7.06Z"/></svg>