<svg id="Layer_1" data-name="Layer 1" xmlns="http://www.w3.org/2000/svg" xmlns:xlink="http://www.w3.org/1999/xlink" viewBox="0 0 374 374"><defs><style>.cls-1{fill:url(#radial-gradient);}.cls-2{fill:#fff;}</style><radialGradient id="radial-gradient" cx="187" cy="187" r="187" gradientUnits="userSpaceOnUse"><stop offset="0" stop-color="#bdb433"/><stop offset="0.11" stop-color="#bdb433" stop-opacity="0.96"/><stop offset="0.27" stop-color="#bdb433" stop-opacity="0.83"/><stop offset="0.48" stop-color="#bdb433" stop-opacity="0.63"/><stop offset="0.73" stop-color="#bdb433" stop-opacity="0.36"/><stop offset="0.99" stop-color="#bdb433" stop-opacity="0.01"/><stop offset="1" stop-color="#bdb433" stop-opacity="0"/></radialGradient></defs><title>Horoscope-Icon-aquarius</title><circle class="cls-1" cx="187" cy="187" r="187"/><path class="cls-2" d="M251.28,307.12c5.36,6.29,15.05,5.74,21.94,2.29,7.93-4,13.6-11.24,20.56-16.54,7.8-5.94,17.8-9.19,27.49-10.1a193.85,193.85,0,0,1,36.22.52V273c-9-.66-20.33,5-18.8,15.51,1.4,9.65,11.59,13.77,20.25,11.31,10.31-2.93,16.48-12.74,25.62-17.75a45.93,45.93,0,0,1,32.13-4.35v-7.57c-8.5,1.31-20.37,7.13-16.44,17.86,2.93,8,13.2,9,20.42,7.82,10.33-1.75,19.58-7.07,29.06-11.23,5.25-2.3,10.85-4.35,16.58-5,6.78-.75,13.53.39,20.21,1.48v-8.5c-11.14,3-25.49,13.43-18.43,26.73,6.91,13,23.88,9.69,33.95,3a2.35,2.35,0,0,0-1.8-4.28c-7.15,1.38-18.17,5.93-24.08-.87-7.24-8.33,6.56-14.69,12.71-16.09,4.08-.93,4.33-7.74,0-8.5-9.15-1.6-18.35-2.93-27.57-1.1-7.61,1.51-14.68,5.18-21.55,8.64-7.1,3.58-14.78,7.91-22.85,8.72-2.88.29-8.45,0.13-9.64-3.28-2.06-5.94,7.92-7.37,11.53-7.86,4-.54,3.52-6.71,0-7.57a53.9,53.9,0,0,0-41.14,6.22c-6.52,4-11.47,10.74-18.42,14-3.36,1.57-8.68,2.7-10.92-1.25-2.71-4.76,4.26-6.52,7.83-6,6.46,0.93,9.3-8.91,2.74-9.92-11.13-1.71-21.9-4.22-33.29-3.43-9.66.67-19.66,2.72-28.22,7.42-7.76,4.26-13.41,10.75-19.26,17.21-6.3,7-15.37,15.73-25.55,11.11a1,1,0,0,0-1.26,1.63h0Z" transform="translate(-208.8 -118.97)"/><path class="cls-2" d="M536.81,350.34c-10,4.39-18.83-4-25-10.91-6-6.69-11.6-13.48-19.55-18-8.26-4.66-17.85-6.73-27.21-7.62-11.71-1.11-22.78,1.35-34.25,3-5.68.81-4.39,10.87,1.37,10.11,3.06-.41,10.91-0.13,9.63,4.79s-7.61,4.07-11,2.52c-6.94-3.13-11.77-9.91-18.1-14.07A53.84,53.84,0,0,0,371,313.09c-3.57.83-3.91,7,0,7.57,3.55,0.53,13.86,2.21,11.32,8.17-1.41,3.31-7,3.32-9.86,2.95-8-1-15.5-5.33-22.53-9-6.82-3.54-13.87-7.29-21.46-8.88-9.2-1.93-18.42-.68-27.58.81-4.38.71-4,7.53,0,8.5,6.09,1.46,19.88,8,12.45,16.25-6,6.69-16.93,2-24.09.55a2.35,2.35,0,0,0-1.8,4.28c10,6.8,27,10.31,34-2.67,7.17-13.26-7.08-23.81-18.19-26.92v8.5c6.31-1,12.71-2,19.11-1.37,5.84,0.54,11.58,2.63,16.9,5,9.7,4.32,19.08,10,29.65,11.88,7.11,1.29,17,.41,20.3-7.19,4.67-10.78-7.57-17-16.11-18.47v7.57a45.94,45.94,0,0,1,31.4,4.38c9.4,5.1,15.58,15.31,26.09,18.41,8.44,2.49,18.36-1.27,20.24-10.55,2.17-10.73-9.43-16.84-18.6-16.26v10.29a196.86,196.86,0,0,1,35.43-.18c10,1,20.25,4.32,28.19,10.57,6.69,5.27,12.18,12.25,19.74,16.39,6.91,3.79,16.92,4.68,22.52-1.74a1,1,0,0,0-1.26-1.63h0Z" transform="translate(-208.8 -118.97)"/></svg>