<svg id="Layer_1" data-name="Layer 1" xmlns="http://www.w3.org/2000/svg" xmlns:xlink="http://www.w3.org/1999/xlink" viewBox="0 0 374 374"><defs><style>.cls-1{fill:url(#radial-gradient);}.cls-2{fill:#fff;}</style><radialGradient id="radial-gradient" cx="187" cy="187" r="187" gradientUnits="userSpaceOnUse"><stop offset="0" stop-color="#bdb433"/><stop offset="0.11" stop-color="#bdb433" stop-opacity="0.96"/><stop offset="0.27" stop-color="#bdb433" stop-opacity="0.83"/><stop offset="0.48" stop-color="#bdb433" stop-opacity="0.63"/><stop offset="0.73" stop-color="#bdb433" stop-opacity="0.36"/><stop offset="0.99" stop-color="#bdb433" stop-opacity="0.01"/><stop offset="1" stop-color="#bdb433" stop-opacity="0"/></radialGradient></defs><title>Horoscope-Icon-scorpio</title><circle class="cls-1" cx="187" cy="187" r="187"/><path class="cls-2" d="M418.37,275.92a1.6,1.6,0,0,1,.5.35A0.33,0.33,0,0,0,418.37,275.92Z" transform="translate(-208.51 -119.47)"/><path class="cls-2" d="M416.64,276a2.13,2.13,0,0,0,.53.47A1.9,1.9,0,0,1,417,276a1.31,1.31,0,0,1,0-.4A1.38,1.38,0,0,1,416.64,276Z" transform="translate(-208.51 -119.47)"/><path class="cls-2" d="M508.81,298.93a18.47,18.47,0,0,0-18.92-11.69c-5.83-3.28-13.83-3.54-19.89-2.49-5.22.91-10.82,4.25-12.38,8.68a26.59,26.59,0,0,0-16,5.35q-1.42.93-2.72,2c-4.9-11.12-14.59-19.49-28.61-20.18a32.82,32.82,0,0,0-4.61-1.27,3.18,3.18,0,0,0,.52-0.6,26.91,26.91,0,0,1-4.27,0,0.44,0.44,0,0,1-.12-0.86c2.35-.81,4.79-1.3,7.19-1.93-0.37-.05-0.73-0.1-1.09-0.12a65.12,65.12,0,0,0-9,.33,0.2,0.2,0,0,1-.14-0.33,18.41,18.41,0,0,1,4.59-2.56,19.91,19.91,0,0,1,7.8-1.55,14.3,14.3,0,0,1-1.1-1.24l0,0c-2.19-.71-4.07-1.55-6.07-2.09a4.2,4.2,0,0,1-5.69-.66,1.77,1.77,0,0,1-1.41-.11,19.49,19.49,0,0,1-4.89.35h-1.34a15.93,15.93,0,0,1-5.5-.86,0.35,0.35,0,0,1,0-.66,21.12,21.12,0,0,1,4-.88l-2.47-.48a1.61,1.61,0,0,1-1.32-1.38,1.91,1.91,0,0,1,1.82-2.34,26.85,26.85,0,0,1,7.48,1.36c0.78,0.13,1.57.26,2.36,0.37,0.57,0.08,1.15.13,1.73,0.17,1.92,0.15,3.79.3,5.1,1.86l0,0a1.34,1.34,0,0,0-.37-0.89l-0.77-.83c-0.67-1-1.63-1.91-2.25-2.79a46.1,46.1,0,0,1-3-4.84,0.91,0.91,0,0,0-1.28-.4,1.45,1.45,0,0,0-.24-0.1l-1.31-.32a6.67,6.67,0,0,0-1-.57,1,1,0,0,0-1,.09l-2.7-.67c-1.62-.4-3-0.94-4.65-0.66a0.71,0.71,0,0,0-.5,1A2.94,2.94,0,0,0,383,252.7l-5.51-1.54-1-.27c-0.62-.38-1.23-0.78-1.82-1.22a2.73,2.73,0,0,0-1-.49,10.56,10.56,0,0,0-4-3.09,14.27,14.27,0,0,0-1.66-.6,32.84,32.84,0,0,0,.85-5.79,33.5,33.5,0,0,0,.51-10.74,20.64,20.64,0,0,0,5.4-3.36,18.23,18.23,0,0,0,19.62.9,14.18,14.18,0,0,0,4.29,3.42c4.56,2.33,8.25,1.36,10.78-1.2a12.32,12.32,0,0,0,1.33-.59A9.75,9.75,0,0,0,415,233a6.86,6.86,0,0,0,4.89.92V234a12,12,0,0,0,2.6,6.32l0.84,6.92c0.29,2.44.33,5.05,1.12,7.39-0.06,1.35-.11,2.71-0.18,4.06a0.84,0.84,0,0,0,1.42.59l0-.05a0.86,0.86,0,0,0,1.31-.59,3.53,3.53,0,0,0,.37-1.52c3.5-4.95,5.78-12.21,4.28-18.17a11,11,0,0,0,.59-11.39,7.21,7.21,0,0,0-3.09-2.93,9,9,0,0,0,0-3.79,9.19,9.19,0,0,0-6.17-6.58,6.89,6.89,0,0,0-2.28-.58,3.85,3.85,0,0,0-3.44-1.27,14,14,0,0,0-2.08-4.25c-2.52-6.65-9.76-9.45-16.37-6.89l-0.25.11c-3.13-5.68-9.2-9.48-17-7.6a16.37,16.37,0,0,0-4.12,1.62c-6.74-4.47-17.55-.21-22.85,4.75a19,19,0,0,0-5.36,8.76,16.54,16.54,0,0,0-1.84,7.63,12.51,12.51,0,0,0-4.88,3.64,20,20,0,0,0-6.77,8.35c-1.44,3.81-.9,7.95.47,11.86l-0.07.09c-5.19-.65-7.18,7.7-6.76,11.47a16.08,16.08,0,0,0,1.71,5.1,19.45,19.45,0,0,0-.93,2.29c-3.28,1.71-4.46,5.94-4.3,9.42s2,7.11,4.19,10.17h0a40.16,40.16,0,0,0-6.33,8c-3.87,6.86-3.93,14.95-1.87,22.41a1.06,1.06,0,0,0,2-.05,25.72,25.72,0,0,0,4.28-8.53,1.44,1.44,0,0,0,.49-1.08c0-.16,0-0.33,0-0.49,0.31-1,.62-1.92.94-2.85,0.66-1.93,1.3-3.84,1.86-5.77a2.3,2.3,0,0,0,1.55-1.35c0.47-1,.94-2,1.39-3.06a2.15,2.15,0,0,0,.35.14,2.51,2.51,0,0,0,2.9.13c0.11-.08.2-0.17,0.3-0.26a2.41,2.41,0,0,0,.92-0.65c0.11-.13.2-0.26,0.3-0.39l0.33-.34a3.19,3.19,0,0,0,1.55-.93c-0.07.33-.15,0.67-0.2,1s-0.25.4-.37,0.6c-3.41,1.91-5.68,6-7.43,9.31-2.57,4.88-4.1,9.8-3.1,15.28a35.9,35.9,0,0,0,1.52,6.15c0.42,1.63.83,3.27,1.26,4.89a10.41,10.41,0,0,0,1.68,5.61c0.06,0.16.1,0.32,0.16,0.48a1.72,1.72,0,0,0,2.21,1.06c0.16,0.37.32,0.74,0.49,1.1a0.34,0.34,0,0,0,.64-0.17c0-.57-0.1-1.15-0.15-1.74a1.53,1.53,0,0,0,.05-1.14c-0.09-.3-0.18-0.61-0.26-0.91a89.09,89.09,0,0,0-1.64-9.66q0-1.35,0-2.69a0.58,0.58,0,0,0-.83-0.56c-0.1-.36-0.21-0.7-0.32-1.06a2.51,2.51,0,0,0,2.47-1,19.81,19.81,0,0,0,5-12.42c0.28,0.33.58,0.64,0.88,0.94,0,0.24-.05.48-0.07,0.72a25.44,25.44,0,0,0-1.17,4,22.62,22.62,0,0,0,0,9.41,16.54,16.54,0,0,0-1.73,5.81,22.33,22.33,0,0,0,1.17,10.9,3.33,3.33,0,0,0,1.21,1.56l0,0c0.19,0.89.41,1.78,0.64,2.66a1.43,1.43,0,0,0-.32.75,10.75,10.75,0,0,0,3.11,8.69c0.08,0.14.15,0.29,0.24,0.43a1.49,1.49,0,0,0,1.1.72,11.82,11.82,0,0,0,2.69,1.5c1.25,0.49,2.17-1.65.92-2.19a9.47,9.47,0,0,1-1.84-1.07,1.54,1.54,0,0,0,0-.18c-0.56-2.63-1.08-5.23-1.52-7.86-0.06-1.3-.15-2.59-0.33-3.88a13.76,13.76,0,0,0,2.63-5.37c0.13-.31.24-0.62,0.35-0.93a26.57,26.57,0,0,0,5.67,2.76,42,42,0,0,0,1,4.23c0.05,0.3.09,0.6,0.15,0.9a33.88,33.88,0,0,0,1.64,5.46,40,40,0,0,0,4.3,8.44,42.66,42.66,0,0,0,4.63,5.75,29.39,29.39,0,0,0,1,4.12l-0.41-.27a0.16,0.16,0,0,0-.19.25l0.84,0.76q0.28,0.82.6,1.62c-0.7,6,1.12,12,5.8,15.91a20.35,20.35,0,0,0-.86,3.28,18.38,18.38,0,0,0-.13,5.73,15.9,15.9,0,0,0,.29,1.75l0.09,0.38a16.89,16.89,0,0,0,.6,1.9c0,0.13.07,0.26,0.12,0.38h0c0.06,0.16.11,0.32,0.18,0.48a1.6,1.6,0,0,0,.39.54l0,0a24,24,0,0,0-1,12c0,1.21.14,2.41,0.3,3.61-0.24,8.52,3.34,17.9,10,23.47a21.84,21.84,0,0,0,2.17,1.6c3.39,2.88,7.93,4.84,12,3.71,0.43,0.27.86,0.53,1.27,0.76a0.56,0.56,0,0,0,.68-0.88l-0.48-.45c0.19-.09.39-0.2,0.58-0.32a11.32,11.32,0,0,0,3.26-1.54,0.08,0.08,0,0,0-.06-0.15,23.85,23.85,0,0,1-3.4.34,23.59,23.59,0,0,1-2.42-.26l-1.46-1.34a1.09,1.09,0,0,0-.34-0.34l-0.14-.09a53.79,53.79,0,0,1-4.78-4.89,13.42,13.42,0,0,0,8.21-5,38.18,38.18,0,0,1,4.7,5.7c0.36,1.71.72,3.44,1.16,5.19a1,1,0,0,0,2,0c0.09-.34.12-0.68,0.19-1a0.45,0.45,0,0,0,.19-0.24c3.13-9.85-.2-23.72-8.16-31.59-2.1-5.27-5.58-11.11-11.08-11.86L388,381a0.36,0.36,0,0,0-.62-0.15,6.11,6.11,0,0,0-2.16-7.64c2.19-3,2-6.7.44-9.89A43,43,0,0,0,394,365l1.09,0.29a42.45,42.45,0,0,0,24.32,4.49,24.08,24.08,0,0,0,8.48.25c3.29-.62,4.63-3.34,6-5.9a23.84,23.84,0,0,0,4.6-4.69l0.26-.09a0.15,0.15,0,0,0,0-.28l0.1-.13a0.64,0.64,0,0,0-1-.77l-0.21.21a0.84,0.84,0,0,0-.79,0l0,0a19.52,19.52,0,0,1-16.5,3.62,40.46,40.46,0,0,0,17.25-17.3,43.27,43.27,0,0,0,2.84-7.09c0.11,0.21.23,0.41,0.33,0.63,2.21,4.77,2.36,10.14,1.78,15.3l-0.33.36a2,2,0,0,0-.52,2.1l-0.12.18a0.89,0.89,0,0,0,1.2,1.2c2.32-1.29,3.8-3.93,4.61-6.73,3.3-9,1-20.29-5-27.95,0-.16,0-0.33,0-0.49a35.55,35.55,0,0,0,.09-8.13,7.4,7.4,0,0,0,2.83-.58,12.18,12.18,0,0,0,5.06-4.64,25.2,25.2,0,0,0,10-6.18,18.33,18.33,0,0,0,5.81,3.87A26.37,26.37,0,0,0,482.9,311c4.74,4.14,11.15,6.66,17.1,4.63a1.29,1.29,0,0,0,.82-1c1.3-.18,2.59-0.4,3.84-0.65a1.47,1.47,0,0,0,1.14-1.47,7.28,7.28,0,0,0,3.17-1.89,1.45,1.45,0,0,0-.63-2.4c-3-1-6.33.31-9.51,0.23l-0.44,0a2.62,2.62,0,0,0-1.26-.55,35.86,35.86,0,0,1-4.1-.9,11.41,11.41,0,0,0,4.2-8.25,26.9,26.9,0,0,1,6.16,2.85c-0.06,0-.09.09,0,0.13,0.65,0.35,1.28.74,1.92,1.13l1,0.69a0.43,0.43,0,0,0,.33.08l2.48,1.59a0.33,0.33,0,0,0,.49-0.28,24.42,24.42,0,0,0-.79-4.15A2.26,2.26,0,0,0,508.81,298.93ZM419,324.13a17.85,17.85,0,0,1-2.2,6.57,21.48,21.48,0,0,1-5,5.89,23.71,23.71,0,0,1-6.56,4.06,16.36,16.36,0,0,1-13,.1,27.68,27.68,0,0,1-3.84-2.41,26,26,0,0,0-4-.07,17.27,17.27,0,0,0,.56-4,16.94,16.94,0,0,1,.5-17,23.47,23.47,0,0,1,5.12-5.87,21.82,21.82,0,0,1,6-3.62,17.91,17.91,0,0,1,8.72-1.22,13.8,13.8,0,0,1,8,3.43,22.31,22.31,0,0,0,4,.12,17.43,17.43,0,0,0-.6,3.95A15.24,15.24,0,0,1,419,324.13Z" transform="translate(-208.51 -119.47)"/><path class="cls-2" d="M407.9,318.52a37.59,37.59,0,0,0-3.8-3.92q-4.23-3.56-8.26-3.19A6.73,6.73,0,0,0,392,313a7.65,7.65,0,0,0-2.94,7.44q0.7,4.37,5.14,9.63,4.08,4.83,8,6.32a7.36,7.36,0,0,0,8.25-1.48,6.92,6.92,0,0,0,2.19-3.32q1.2-3.72-1.54-8.61A32.1,32.1,0,0,0,407.9,318.52Zm-3.17,9.64-7.74-.43,0.51-8.13,8.05,0.9Z" transform="translate(-208.51 -119.47)"/><path class="cls-2" d="M408.57,265a25.35,25.35,0,0,0-9.95-9.84,1.58,1.58,0,0,0-1.59,2.72,48.44,48.44,0,0,1,10.45,9.62l2.05-2.66c-2.32-1.65-4.68-3.24-7-4.84-2.13-1.45-4.24-3-6.78-3.68a0.79,0.79,0,0,0-.88,1.15c1.44,2.14,3.56,3.55,5.62,5,2.45,1.77,4.88,3.54,7.37,5.26,1.68,1.16,3.21-1.28,2.05-2.66a51.36,51.36,0,0,0-11.25-9.95L397,257.92a54.7,54.7,0,0,1,10.69,7.77,0.54,0.54,0,0,0,.84-0.65h0Z" transform="translate(-208.51 -119.47)"/><path class="cls-2" d="M388.75,270.34c5.57-.51,11.26-1.38,16.86-1.4,3.36,0,5.7.59,8.12,2.77a5.56,5.56,0,0,0,3.33,1.81c0.7,0.1,1.28-.86.53-1.25-4.07-2.15-5.07-5.61-10.11-5.05-6.26.69-12.53,2-18.77,2.83a0.15,0.15,0,0,0,0,.29h0Z" transform="translate(-208.51 -119.47)"/><path class="cls-2" d="M408.64,269c2,1.73,4.08,3.38,6.24,4.93,2,1.41,4.43,3.68,6.86,4a0.4,0.4,0,0,0,.38-0.65c-1.49-1.8-4.33-2.78-6.32-4-2.34-1.47-4.6-3.05-6.8-4.73a0.29,0.29,0,0,0-.36.46h0Z" transform="translate(-208.51 -119.47)"/><path class="cls-2" d="M421.63,276a107.18,107.18,0,0,0-17.38-6.77c-1.08-.31-1.88,1.4-0.79,1.88a107.7,107.7,0,0,0,17.79,5.79c0.52,0.12.9-.64,0.38-0.89h0Z" transform="translate(-208.51 -119.47)"/><path class="cls-2" d="M418.13,274.08a12.39,12.39,0,0,0-7.1-4.21,0.29,0.29,0,0,0-.16.57,16.62,16.62,0,0,1,6.85,4.06,0.29,0.29,0,0,0,.41-0.41h0Z" transform="translate(-208.51 -119.47)"/><path class="cls-2" d="M402.61,278.06c4.39,0.28,8.83.42,13.21,0.92,3.72,0.43,7.64,1.9,11.33,1.05a0.5,0.5,0,0,0,.12-0.89c-3.11-2.3-7.69-2.17-11.44-2.35a53.37,53.37,0,0,0-13.26.89c-0.23,0-.16.37,0.05,0.38h0Z" transform="translate(-208.51 -119.47)"/><path class="cls-2" d="M427.54,280.68l3.84,4.18c0.44,0.48,1.06-.13.83-0.64A17,17,0,0,0,430,280.5c-0.69-.88-1.68-2.35-2.83-2.55a0.49,0.49,0,0,0-.6.6c0.4,1.05,1.64,1.77,2.38,2.62a18.09,18.09,0,0,1,2.38,3.58l0.83-.64-4.45-3.56a0.1,0.1,0,0,0-.14.14h0Z" transform="translate(-208.51 -119.47)"/><path class="cls-2" d="M430.48,283.72c-0.14.21,0,.37,0.27,0.43A0.22,0.22,0,0,0,431,284c0.62-1.48-1.4-3.56-2.26-4.54s-3.09-3.35-4.63-2.61a0.57,0.57,0,0,0-.29.51,1.71,1.71,0,0,0,1.05,1.43c0.74,0.56,1.46,1.18,2.16,1.78,0.36,0.31,3.23,3.58,3.52,3.21a0.05,0.05,0,1,0-.08-0.06h0Z" transform="translate(-208.51 -119.47)"/><path class="cls-2" d="M427.73,282c-7.14-6.09-18.68.5-26.09-5.7l-0.8,1.92c4.56,0,9.12-.08,13.68,0,4,0.06,8.11.7,12-.29a0.94,0.94,0,0,0,0-1.79c-3.85-1-8-.3-12-0.22C410,276,405.4,276,400.84,276a1.14,1.14,0,0,0-.8,1.92c3.18,2.66,6.75,3.51,10.85,3.66,5.68,0.21,10.85.17,16.5,1,0.3,0,.62-0.32.33-0.57h0Z" transform="translate(-208.51 -119.47)"/><path class="cls-2" d="M411,279.21l-7.76-1.4L403,279.43c3.93,0.13,7.85-.11,11.77-0.19,3.39-.07,7.07.44,10.3-0.67a0.74,0.74,0,0,0,0-1.41c-3.48-1.12-7.52-.39-11.14-0.22a108.19,108.19,0,0,0-11.15.88c-0.93.14-.69,1.62,0.22,1.62l8,0c0.11,0,.14-0.17,0-0.19h0Z" transform="translate(-208.51 -119.47)"/><path class="cls-2" d="M427.12,281c1.87,1.33,3.59,2.89,5.35,4.36a0.91,0.91,0,1,0,1.11-1.44c-3.35-2.49-6.89-5.72-10.79-7.21-0.65-.25-1,0.63-0.62,1.06a23.81,23.81,0,0,0,4.87,3.87c1.87,1.29,3.72,2.6,5.61,3.86l0.92-1.58c-2.14-1-4.34-1.87-6.4-3a0.05,0.05,0,0,0-.05.09h0Z" transform="translate(-208.51 -119.47)"/><path class="cls-2" d="M396,273c0.65-2.76,3.9-7,6.88-3.92,1.44,1.47.1,4.17-2,3.49-1.72-.56-1.2-2.48-0.64-3.66a0.64,0.64,0,0,0-.87-0.87c-2.2,1-1.63,4.49.16,5.66a3.6,3.6,0,0,0,5.3-2.53c0.32-2.42-2.19-4.09-4.38-3.94-2.88.19-4.42,3.15-4.83,5.67,0,0.24.32,0.35,0.38,0.1h0Z" transform="translate(-208.51 -119.47)"/><path class="cls-2" d="M383.09,264.69a2.29,2.29,0,0,1,1.88,1.8,0.23,0.23,0,0,0,.43,0l0.74-2.55a0.29,0.29,0,0,0-.57-0.16L385,266.37h0.43a2.66,2.66,0,0,0-2.28-2,0.15,0.15,0,0,0,0,.29h0Z" transform="translate(-208.51 -119.47)"/><path class="cls-2" d="M369.58,229.45a14.8,14.8,0,0,1-1.44,21.3l0.8,0.8c6.18-7,11.29-19.19.64-25a1.14,1.14,0,0,0-1.54,1.54A14.78,14.78,0,0,1,364.84,248l1.48,1.92a16.7,16.7,0,0,0,5.45-17.55,1.3,1.3,0,0,0-2.5.69,23.27,23.27,0,0,1-.43,12.89l2.26-.6a7.47,7.47,0,0,1-1.17-8.41l-2.56-.33a13.59,13.59,0,0,1,.41,9.21h2.75a15.25,15.25,0,0,1,2-13.28l-2.66-.35c1.36,6.23,0,12.27-1.54,18.34a1.49,1.49,0,0,0,2.87.79,53.92,53.92,0,0,0,1.92-22c-0.21-1.7-2.74-1.82-2.74,0q0,0.95,0,1.89a0.89,0.89,0,0,0,1.64.44q0.46-.81.89-1.65l-2.55-.69a60.62,60.62,0,0,1-2.05,21.19l2.87,0.79c1.65-6.63,3-13.12,1.47-19.9A1.47,1.47,0,0,0,370,231a18,18,0,0,0-2.25,15.51,1.44,1.44,0,0,0,2.75,0,15.76,15.76,0,0,0-.47-10.71c-0.39-1-2-1.55-2.56-.33a10.38,10.38,0,0,0,1.67,11.74,1.37,1.37,0,0,0,2.26-.6,26.21,26.21,0,0,0,.32-14.3l-2.5.69a14.25,14.25,0,0,1-4.67,15.13c-1.22,1,.52,2.68,1.73,1.73A17.13,17.13,0,0,0,370,227l-1.54,1.54c9.08,4.82,4.78,16.16-.3,22.2a0.57,0.57,0,0,0,.8.8,15.62,15.62,0,0,0,1-22.45,0.24,0.24,0,0,0-.35.35h0Z" transform="translate(-208.51 -119.47)"/><path class="cls-2" d="M370.07,247l-0.81-1.85-0.87.49c5.87,0.91,10.81,4,13.18,9.55l2.35-1.81a39,39,0,0,0-12.5-7.66c-1.81-.7-3,2.25-1.32,3.13l12.62,6.45a1.81,1.81,0,0,0,1.82-3.12c-2.24-1.64-4.45-3.34-6.75-4.9-1.49-1-3-2.38-4.81-1.74a1.52,1.52,0,0,0-1.07,1.4,1.71,1.71,0,0,0,.65,1.59,1.3,1.3,0,0,0,1.52.2l0.25-.12c1.14-.55.46-2.1-0.59-2.19l-0.29,0,1.21,0.92,0,0.37-1.64.67c1.51,0.3,3.48,2.51,4.75,3.41l5,3.54,1.82-3.12-12.71-6.29L370.5,249a39.66,39.66,0,0,1,11.3,6.47,1.5,1.5,0,0,0,2.35-1.81c-2.85-5.8-9-10.06-15.57-9.43a0.71,0.71,0,0,0-.61,1.06,6.9,6.9,0,0,0,1.86,2,0.2,0.2,0,0,0,.24-0.31h0Z" transform="translate(-208.51 -119.47)"/></svg>