<svg id="Layer_1" data-name="Layer 1" xmlns="http://www.w3.org/2000/svg" xmlns:xlink="http://www.w3.org/1999/xlink" viewBox="0 0 792 612"><defs><style>.cls-1{fill:url(#radial-gradient);}.cls-2{fill:none;}.cls-3{fill:#fff;}</style><radialGradient id="radial-gradient" cx="407.43" cy="310.45" r="187" gradientUnits="userSpaceOnUse"><stop offset="0" stop-color="#bdb433"/><stop offset="0.11" stop-color="#bdb433" stop-opacity="0.96"/><stop offset="0.27" stop-color="#bdb433" stop-opacity="0.83"/><stop offset="0.48" stop-color="#bdb433" stop-opacity="0.63"/><stop offset="0.73" stop-color="#bdb433" stop-opacity="0.36"/><stop offset="0.99" stop-color="#bdb433" stop-opacity="0.01"/><stop offset="1" stop-color="#bdb433" stop-opacity="0"/></radialGradient></defs><title>Horoscope-Icon</title><circle class="cls-1" cx="407.43" cy="310.45" r="187"/><path class="cls-2" d="M406.66,394.14l0.19,0.14s0-.09,0-0.14h-0.18Z"/><path class="cls-2" d="M402,393.94a40.91,40.91,0,0,1-7.27,0c0.08,4.67,2.55,10.92,8.12,8.42,3.42-1.54,4.29-4.79,4-8.09l-0.19-.14A42.26,42.26,0,0,1,402,393.94Z"/><path class="cls-3" d="M414,302.45a10.44,10.44,0,0,0-6.22-1.94q-7.38,0-10.93,5.88t-3.54,16.56q0,9.81,3.21,15.54A11.43,11.43,0,0,0,407.82,345a10.75,10.75,0,0,0,5.93-1.75q5.15-3.21,6.8-11.75a49.79,49.79,0,0,0,.68-8.55,58.4,58.4,0,0,0-.58-8.45Q419.18,306,414,302.45Zm-6.22,28.75-8.74-8.26,8.74-9.13,8.64,9.13Z"/><path class="cls-3" d="M515.52,240.27c3.76-11.82,6.88-26,1.83-38.08a0.86,0.86,0,0,0-1.54-.2c-4.82,10.14-9,20.45-17.39,28.32-7.93,7.41-16.92,12.89-27,17.81-0.22.11-2.33,1.08-2.89,1.36-1.83.76-3.75,1.48-5.49,2.42l-0.4.22-0.44.16c-1.54.57-3.08,1.1-4.63,1.65a134.14,134.14,0,0,1-21.44,5.93l-0.39.05a66,66,0,0,0-56.44-.8q-2.58-.56-5.13-1.23c-3.27-.87-6.48-1.91-9.67-3-1.67-.58-3.34-1.18-5-1.79-1.1-.4-4.58-2-1.62-0.62-2-.95-4.1-1.82-6.15-2.72,0,0-2.47-1.17-3-1.42-3-1.46-5.82-3.13-8.67-4.82a115.15,115.15,0,0,1-14.61-9.89C315,225.18,310,214,304.37,202.19a0.86,0.86,0,0,0-1.54.2c-4.22,10.08-2.94,23.48.19,33.65,3.69,12,9.23,23.17,17.52,32.8a78.45,78.45,0,0,0,21.81,17.49c-4,.83-7.91,2-12,2.74-5.48,1-13.16,2.85-15.92,8.23a2,2,0,0,0,2.17,2.82c4.34-.73,7.54-2.82,11.17.9,3.25,3.32,5.35,6.5,10.17,7.7a18.32,18.32,0,0,0,3.31.5v0.07c-4.22,8.88-2.52,19.37-.76,28.73,3.5,18.64,12.62,36.42,24.3,51.2q2,2.57,4.29,5c3.29,15.14,8.57,29.83,25.45,33.87-0.26,3.81.29,7.59,2.62,10.81a11.5,11.5,0,0,0,11.12,4.9c7.64-1.34,10.56-8.27,10.12-15.07,0.79-.12,1.58-0.24,2.35-0.41,17.42-3.71,22.8-18.76,26.13-34.06a111.58,111.58,0,0,0,6.85-10,134.13,134.13,0,0,0,12.17-24,120.51,120.51,0,0,0,6.9-26.72,59.64,59.64,0,0,0,1-12,29.47,29.47,0,0,0-.9-5c-0.09-2.17-.3-4.3-0.59-6.41,0.37-.07.75-0.14,1.12-0.24,4.42-1.18,6.75-4.09,9.72-7.22,3.82-4,6.78-2.19,11.63-1.38a2,2,0,0,0,2.17-2.82c-2.77-5.4-10.42-7.26-15.92-8.23-2.63-.46-5.17-1.11-7.7-1.74a85.37,85.37,0,0,0,19.37-12.87A79.27,79.27,0,0,0,515.52,240.27ZM408.62,437.73c-5.8,2.61-8.37-3.91-8.46-8.77a42.63,42.63,0,0,0,7.57,0,44,44,0,0,0,4.85.21h0.19s0,0.09,0,.14C413.09,432.74,412.18,436.13,408.62,437.73Zm27.56-111.19a23.64,23.64,0,0,1-7.38,14.18,27.71,27.71,0,0,1-9.18,5.59,33.34,33.34,0,0,1-11.8,2A36.8,36.8,0,0,1,396,346.55q-10.88-3.59-15.54-12.92a42.89,42.89,0,0,1-2.14-6.7,40.37,40.37,0,0,0-4.66-4.08q0.68-.19,4.66-4.18a25.23,25.23,0,0,1,2.14-6.22q4.56-9.71,15.44-13.4a36.45,36.45,0,0,1,11.95-1.85A33.86,33.86,0,0,1,418.6,299a27.79,27.79,0,0,1,11.56,7.28,21.42,21.42,0,0,1,6,12,34.62,34.62,0,0,0,4.66,4.18Q440.16,322.66,436.18,326.54Z"/></svg>