<svg id="Layer_1" data-name="Layer 1" xmlns="http://www.w3.org/2000/svg" xmlns:xlink="http://www.w3.org/1999/xlink" viewBox="0 0 792 612"><defs><style>.cls-1{fill:url(#radial-gradient);}.cls-2{fill:#fff;}</style><radialGradient id="radial-gradient" cx="366.04" cy="287.55" r="187" gradientUnits="userSpaceOnUse"><stop offset="0" stop-color="#bdb433"/><stop offset="0.11" stop-color="#bdb433" stop-opacity="0.96"/><stop offset="0.27" stop-color="#bdb433" stop-opacity="0.83"/><stop offset="0.48" stop-color="#bdb433" stop-opacity="0.63"/><stop offset="0.73" stop-color="#bdb433" stop-opacity="0.36"/><stop offset="0.99" stop-color="#bdb433" stop-opacity="0.01"/><stop offset="1" stop-color="#bdb433" stop-opacity="0"/></radialGradient></defs><title>Horoscope-Icon</title><circle class="cls-1" cx="366.04" cy="287.55" r="187"/><path class="cls-2" d="M371.72,302.2a8.64,8.64,0,0,0-5-1.5,9.64,9.64,0,0,0-8.83,4.69Q355,310.09,355,318.73q0,7.95,2.57,12.58a9.43,9.43,0,0,0,9.14,5.13,8.77,8.77,0,0,0,4.76-1.38q4.13-2.57,5.45-9.39a36.19,36.19,0,0,0,.63-6.95,39.23,39.23,0,0,0-.56-6.82Q375.85,305.08,371.72,302.2Zm-5,23.16-7-6.63,7-7.32,6.95,7.32Z"/><path class="cls-2" d="M491.64,248.93c-0.24-5.29-.63-10.7-2.73-15.56a27,27,0,0,0-2.09-7,41.2,41.2,0,0,0-3.55-6.86c-7.05-15.26-19.5-27.8-35.56-33.78A53.55,53.55,0,0,0,385,204.57c-12.82,17.84-16.13,41.46-19,63.08-2.49-19.22-5.76-38.77-14.78-55.79-11.74-22.14-35-32.66-59.4-27.75-19.43,3.91-34.79,18.26-43,35.84a39.92,39.92,0,0,0-3.63,7,27.36,27.36,0,0,0-2.07,6.91c-2.15,4.86-2.49,10.37-2.75,15.66a80.13,80.13,0,0,0,1.72,19.5c0.83,4.12,1.28,8.14,3.2,11.46,0.33,0.93.68,1.85,1.06,2.77,8.17,19.71,31.16,39.44,53.74,30.76,20.38-7.84,28.84-32.91,25.7-53-2.84-18.15-21.7-45.23-42.16-29.64-8.84,6.74-12.44,21.79-5.32,31.06a10.24,10.24,0,0,0,7.67,4.25,8.7,8.7,0,0,0,6.13-1.48,9.13,9.13,0,0,0,3.45-7c0-2.24-.72-5.54-2.85-6.65a0.14,0.14,0,0,0-.21.13,0.22,0.22,0,0,0-.2.19c-0.09.55-.18,1.12-0.29,1.69-1,2.11-2.8,4.31-5,2.13a4.54,4.54,0,0,1-1.12-2c0-.77,0-1.54,0-2.19a14.22,14.22,0,0,1,3.43-9.08c6.46-7,13.61.8,16.62,6.83a28.92,28.92,0,0,1,2.32,20.35c-0.1.24-.2,0.49-0.31,0.73-2.3,4.74-6.9,8.2-11.8,10.11-9.85,1.86-20.23,0-25.14-10-3-6.05-4-12.53-4.19-19.22-0.09-3.3.71-7.22,0.87-11,4.11-14.9,13.8-28.19,29.26-31.81,6.62-1.55,14.4-1.06,20.36,2.26,7,3.89,11.51,10.74,14.55,18.09,8.19,19.76,9.59,42.45,12.43,63.44,0.07,0.5.14,1,.21,1.5a15.69,15.69,0,0,0-11,3.93c-3.71,3.16-7.06,9.12-8.14,15.06a9.64,9.64,0,0,0-4.51,0c-5.92,1.46-9.47,7.08-11.09,12.57a18.84,18.84,0,0,0,2.53,16.39,10.85,10.85,0,0,0-1.07.87c-4.74,4.44-5.61,11.81-4,17.78a25.07,25.07,0,0,0,7,11.66A22.5,22.5,0,0,0,330,389.11a23.19,23.19,0,0,0,20.23-3.69,21.45,21.45,0,0,0,19.29,7.26,19.34,19.34,0,0,0,4.41-1.17,11.54,11.54,0,0,0,6.75-4.4,19.49,19.49,0,0,0,2.1-2.43c9,7.56,23.08,8.37,32.8.4,7.7-6.31,16.13-27,6.55-35.1a23.61,23.61,0,0,0,3.85-14.31c-0.46-7.38-4.57-13.59-11.71-15.91a14.44,14.44,0,0,0-3.83-.68c0.69-8-4-15.86-9.28-21.63-3.39-3.74-8.8-6-13.43-5.09,2.56-19.47,4.46-39.27,10.39-58,2.41-7.6,5.82-15.13,11.67-20.62s12.67-7,20.24-6.6c15.53,0.74,27.9,13.24,33.08,28.16,0.5,1.43.94,2.87,1.34,4.33,0.16,3.75,1,7.69.87,11-0.19,6.72-1.25,13.12-4.19,19.22-4.84,10-15.33,11.83-25.21,9.95-4.87-1.89-9.47-5.4-11.73-10.09-0.12-.25-0.21-0.5-0.32-0.75a29,29,0,0,1,1.79-19.13c2.58-5.81,9.3-14.93,16.33-9,2.75,2.34,4.14,6.49,4.25,10,0,0.58,0,1.31,0,2A4.76,4.76,0,0,1,445,255.1c-2.22,2.2-4,0-5-2.13-0.11-.57-0.2-1.14-0.29-1.69a0.22,0.22,0,0,0-.2-0.19,0.14,0.14,0,0,0-.21-0.13c-2.13,1.11-2.86,4.4-2.85,6.65a9.12,9.12,0,0,0,3.45,7,8.82,8.82,0,0,0,8.23,1,7.88,7.88,0,0,0,3.24-1.38c8-5.91,7.14-19.4,2.64-27.09-5.35-9.16-17-13.33-26.74-8.85-9.38,4.32-15.75,14.28-19,23.75-6.76,19.7-1.18,44.19,15.82,57,20.16,15.18,46,.53,57.52-18.31a58.74,58.74,0,0,0,5.24-11c1.8-3.28,2.26-7.19,3.07-11.22A81.2,81.2,0,0,0,491.64,248.93Zm-198.71,4.18,0.13,0.38a0.27,0.27,0,0,0-.13.25h0C292.91,253.51,292.92,253.31,292.93,253.11ZM389.56,315a28.36,28.36,0,0,0,3.76,3.32,23.64,23.64,0,0,0-3.82,3.38,19.11,19.11,0,0,1-5.88,11.39,22.33,22.33,0,0,1-7.42,4.48,27,27,0,0,1-9.48,1.6,30.68,30.68,0,0,1-9.58-1.38q-8.76-2.88-12.52-10.39a45.73,45.73,0,0,1-1.69-5.38,28.63,28.63,0,0,0-3.76-3.32q0.5-.12,3.76-3.32a17.1,17.1,0,0,1,1.69-5,20.17,20.17,0,0,1,12.46-10.89,30.37,30.37,0,0,1,9.64-1.44,28.12,28.12,0,0,1,8.7,1.38,22.85,22.85,0,0,1,9.33,5.88A17.75,17.75,0,0,1,389.56,315Zm49.61-61.78a0.27,0.27,0,0,0-.14-0.25l0.13-.38c0,0.21,0,.41,0,0.62h0Zm7.66,8a1.79,1.79,0,0,0,.05.29l-0.15.05-0.26,0C446.59,261.49,446.71,261.36,446.83,261.23Z"/></svg>