<svg id="Layer_1" data-name="Layer 1" xmlns="http://www.w3.org/2000/svg" xmlns:xlink="http://www.w3.org/1999/xlink" viewBox="0 0 375.04 375.04"><defs><style>.cls-1{stroke:#fff;stroke-miterlimit:10;stroke-width:1.04px;fill:url(#radial-gradient);}.cls-2{fill:none;}.cls-3{fill:#fff;}</style><radialGradient id="radial-gradient" cx="187.52" cy="187.52" r="187" gradientUnits="userSpaceOnUse"><stop offset="0" stop-color="#bdb433"/><stop offset="0.11" stop-color="#bdb433" stop-opacity="0.96"/><stop offset="0.27" stop-color="#bdb433" stop-opacity="0.83"/><stop offset="0.48" stop-color="#bdb433" stop-opacity="0.63"/><stop offset="0.73" stop-color="#bdb433" stop-opacity="0.36"/><stop offset="0.99" stop-color="#bdb433" stop-opacity="0.01"/><stop offset="1" stop-color="#bdb433" stop-opacity="0"/></radialGradient></defs><title>Horoscope-Icon-capricorn</title><circle class="cls-1" cx="187.52" cy="187.52" r="187"/><polygon class="cls-2" points="263.47 224.73 270.05 230.95 276.56 224.73 270.05 217.85 263.47 224.73"/><path class="cls-2" d="M285.5,303.24q0.25,2,.55,4c-0.14-1.42-.24-2.84-0.32-4.26A1.37,1.37,0,0,1,285.5,303.24Z" transform="translate(-208.44 -118.84)"/><path class="cls-2" d="M285.79,289a0.71,0.71,0,0,1,.23.24c0.08-.81.18-1.61,0.28-2.42Q286,287.94,285.79,289Z" transform="translate(-208.44 -118.84)"/><path class="cls-2" d="M499.85,340.06a16.13,16.13,0,0,0-4.54-9.07,20.93,20.93,0,0,0-8.7-5.49,25.52,25.52,0,0,0-8.12-1.32,27.46,27.46,0,0,0-9,1.39,19.79,19.79,0,0,0-13.24,14.78,20.09,20.09,0,0,1-3.51,3.15,30.34,30.34,0,0,1,3.51,3.07,32.32,32.32,0,0,0,1.61,5,19.12,19.12,0,0,0,11.7,9.73,27.7,27.7,0,0,0,8.92,1.32,25.1,25.1,0,0,0,8.89-1.5,20.86,20.86,0,0,0,6.91-4.21,17.8,17.8,0,0,0,5.56-10.68,20.35,20.35,0,0,1,3.51-3.07A26.05,26.05,0,0,1,499.85,340.06ZM488.08,350q-1.24,6.44-5.12,8.85a8.1,8.1,0,0,1-4.46,1.32,8.61,8.61,0,0,1-8.48-4.9q-2.41-4.31-2.41-11.7,0-8,2.67-12.47a8.94,8.94,0,0,1,8.23-4.43,7.85,7.85,0,0,1,4.68,1.46q3.88,2.71,5,9.07a44,44,0,0,1,.44,6.36A37.44,37.44,0,0,1,488.08,350Z" transform="translate(-208.44 -118.84)"/><path class="cls-3" d="M483.18,328.14a7.85,7.85,0,0,0-4.68-1.46,8.94,8.94,0,0,0-8.23,4.43q-2.67,4.43-2.67,12.47,0,7.39,2.41,11.7a8.61,8.61,0,0,0,8.48,4.9,8.1,8.1,0,0,0,4.46-1.32q3.88-2.41,5.12-8.85a37.44,37.44,0,0,0,.51-6.44,44,44,0,0,0-.44-6.36Q487.05,330.84,483.18,328.14Zm-4.68,21.65-6.58-6.22,6.58-6.88,6.51,6.88Z" transform="translate(-208.44 -118.84)"/><path class="cls-3" d="M517.78,324.44c-9.12-18.48-31.2-32.26-52-24.82a43.35,43.35,0,0,0-15.12,9.64,13.16,13.16,0,0,0-5,5.27c0.07-4.45.45-9.11,1-13.9,1.82-10.92,4.6-21.83,5.57-32.29,1.54-16.58-1.07-35.05-11.32-48.63-11.75-15.56-31.29-20.34-50-19.16-11.15.7-25.93,4.84-33,14a33,33,0,0,0-3.35-2.09c-9.32-5-18.87-5-27.72-1.92-8.79,2.75-17,9-23.4,15.52-5.85,5.2-10.38,12.54-14.28,19.35a8.11,8.11,0,0,1-.75,2.61c-5.06,10.63-7.09,24.15-7.23,35.86-0.1,7.68,1.06,15.28,2.19,22.87,1.28,4.14,2.81,8.22,4.35,12.29a0.24,0.24,0,0,0,.47-0.13l-0.26-1.36c-1.28-18,3.48-36.84,11.43-52.9A97.38,97.38,0,0,1,308,250.27c1.54-1.79,3-3.6,4.46-5.49,4.59-4.2,11.16-9.5,17.69-12.13a56.91,56.91,0,0,1,6.3-.12l0.63,0.13c10.91,2.66,10.61,13.05,11.14,22.47-0.35,8.1-2.16,16.09-4.16,24-3.49,13.75-6.77,28.46-6.41,42.9-0.2,2.25-.36,4.49-0.48,6.74a91.6,91.6,0,0,0,2.63,26.61A23.36,23.36,0,0,0,342.39,366a21,21,0,0,0,7.48,13.26,3.06,3.06,0,0,0,1.36.63c3.55,2.87,8.11,4.1,13.91,2.57a5.88,5.88,0,0,0,4.24-5.57c0.06-7.75-4.24-14.25-5.66-21.75-1.5-7.89-.47-16.24.95-24.06,4.23-23.41,11.18-46.62,11.29-70.59a81.59,81.59,0,0,0-3-22.89c6.55-6.05,13.32-11.6,22.93-12.56,9.36-.94,17.85,2.76,26,6.9l3.84,5c0.25,0.33.5,0.68,0.75,1,5.95,13.88,3.89,30.57,1.73,45-2.44,16.28-6.26,32.73-2.61,49.15a46.16,46.16,0,0,0,4.64,12.28c0.36,1,.75,2,1.17,3,0,0.23.06,0.46,0.09,0.69a50.2,50.2,0,0,0-4.6,10.66c-3,8.95-4.88,18.09-10.18,26.06-8.85,13.32-23.17,21.2-38.46,24.68-7.46,0-14.71-1.62-22.21-1.69a0.46,0.46,0,0,0-.39.69c4.5,9.35,17.38,12.45,26.82,12.29a57.87,57.87,0,0,0,33.53-11.39A74.86,74.86,0,0,0,439,380.15c1-2.2,2.18-4.78,3.32-7.57a39.73,39.73,0,0,0,7.92,6.68c0.34,0.22.7,0.41,1.05,0.61,15.22,11.6,37.68,12.52,53.4,1C522.34,367.89,527.39,343.92,517.78,324.44ZM285.5,303.24a1.37,1.37,0,0,0,.23-0.26c0.08,1.42.18,2.84,0.32,4.26Q285.74,305.25,285.5,303.24Zm0.52-14a0.71,0.71,0,0,0-.23-0.24q0.23-1.1.51-2.18C286.2,287.66,286.1,288.47,286,289.28Zm213.83,57A17.8,17.8,0,0,1,494.29,357a20.86,20.86,0,0,1-6.91,4.21,25.1,25.1,0,0,1-8.89,1.5,27.7,27.7,0,0,1-8.92-1.32,19.12,19.12,0,0,1-11.7-9.73,32.32,32.32,0,0,1-1.61-5,30.34,30.34,0,0,0-3.51-3.07,20.09,20.09,0,0,0,3.51-3.15,19.79,19.79,0,0,1,13.24-14.78,27.46,27.46,0,0,1,9-1.39,25.52,25.52,0,0,1,8.12,1.32,20.93,20.93,0,0,1,8.7,5.49,16.13,16.13,0,0,1,4.54,9.07,26.05,26.05,0,0,0,3.51,3.15A20.35,20.35,0,0,0,499.85,346.28Z" transform="translate(-208.44 -118.84)"/><path class="cls-3" d="M409.4,224.78c4.9,3.53,10,5.45,14.18,10.18s5.49,9.93,8.31,15.24c0.77,1.45,2.67.6,2.82-.77,1.26-11.35-13.62-26.87-25.25-25.2-0.28,0-.25.41-0.07,0.54h0Z" transform="translate(-208.44 -118.84)"/></svg>