<svg id="Layer_1" data-name="Layer 1" xmlns="http://www.w3.org/2000/svg" viewBox="0 0 438.47 40.11"><defs><style>.cls-1{fill:#6b858e;}</style></defs><title>TheEmperorTitle</title><path class="cls-1" d="M122.52,207.24a14.06,14.06,0,0,0-.67-6.31,2.89,2.89,0,0,0-3.14-2,2.85,2.85,0,0,0-2.48,2.81,15.1,15.1,0,0,0,1.84,6.75,2.42,2.42,0,0,0,2.7,1.1,2.5,2.5,0,0,0,1.75-2.3h0Z" transform="translate(-84.52 -197.08)"/><path class="cls-1" d="M118.8,202.61c-2.24-4.58-11-3.09-15-3.06-3.61,0-7.22.09-10.83,0.18-3.09.08-4.79-.18-7,2a1.58,1.58,0,0,0,0,2.22c2.8,2.33,5.42,1.62,9,1.57,4.27-.06,8.53,0,12.8,0,0.38,0,12.73.5,11.08-2.88h0Z" transform="translate(-84.52 -197.08)"/><path class="cls-1" d="M87.57,209.08q-1.12.26-.3,0.13a1.82,1.82,0,0,0,.61-0.33,6.29,6.29,0,0,0,1.4-1.21c1.06-1.22,1.21-3.08,1.44-4.63a3,3,0,0,0-2.06-3.62A3,3,0,0,0,85,201.48a22.22,22.22,0,0,0-.51,3.94,5.37,5.37,0,0,0,1.33,3.22,1.28,1.28,0,0,0,1.71.45h0Z" transform="translate(-84.52 -197.08)"/><path class="cls-1" d="M97.73,206.29l1-1.18-1.17-.31c0.56,1.93-.16,4.29-0.24,6.23s0,3.83.13,5.74c0.13,2.71,2.13,11.95-.66,13.44s-0.34,5.74,2.53,4.33c4.5-2.21,8.13,2.24,12.2,0,3.17-1.7.38-6.35-2.8-4.79,0.61-.3-4.13-1.54-5.21-1.55a14,14,0,0,0-6.72,2l2.53,4.33c5.44-2.94,3.51-10.88,3.18-15.86-0.23-3.54.53-13.67-4.09-14.75a0.71,0.71,0,0,0-.89.68l0.08,1.61a0.08,0.08,0,0,0,.14.06h0Z" transform="translate(-84.52 -197.08)"/><path class="cls-1" d="M106,229.69l-0.15.4a0.43,0.43,0,0,0,.11.41l0.3,0.34a0.83,0.83,0,0,0,1,.13c2.76-1.45,2.13-6,1.88-8.48a100.78,100.78,0,0,1-.2-16.88c0.22-3.39-5.05-3.37-5.27,0-0.54,8.13-1.07,16.25-1.67,24.38l4.88-.66A59.82,59.82,0,0,1,105.53,207h-5q0,9.53-.62,19h4.82a137.65,137.65,0,0,1-.42-21.34c0.08-2.3-3.69-2.91-4.1-.55a80.77,80.77,0,0,0-.31,21.9,2.41,2.41,0,0,0,4.82,0q0.75-9.51.75-19c0-3.27-4.57-3.07-5,0a63.6,63.6,0,0,0,1.51,23.61c0.72,2.84,4.67,2,4.88-.66,0.61-8.13,1.3-16.25,2-24.38h-5.27a74.08,74.08,0,0,0-.08,13.29,36.36,36.36,0,0,0,1,5.17c0.19,0.72,1,5.21,1.55,5.55a0.11,0.11,0,0,0-.15.06h0Z" transform="translate(-84.52 -197.08)"/><path class="cls-1" d="M125.54,202.1a14.37,14.37,0,0,0,6.25,1c2.31,0,4.73.34,7-.23,2.76-.7,2.33-4.29,0-5.18-2.14-.81-4.72-0.55-7-0.47a11.17,11.17,0,0,0-6.25,1.64c-1,.7-1.42,2.67,0,3.27h0Z" transform="translate(-84.52 -197.08)"/><path class="cls-1" d="M130,202.6c-1.67-.24-3.15,26.26-3.49,29.39a2.27,2.27,0,0,0,2.27,2.27c3.53-.47,6.83,1,10.26.09,1.93-.5,1.86-2.82.5-3.86-3.15-2.39-7.1-1.27-10.77-.78l2.27,2.27c0.79-6.44,1.41-12.92,1.57-19.41,0.07-2.71,1-9.42-2-11a0.57,0.57,0,0,0-.78.78,0.43,0.43,0,0,0,.16.24h0Z" transform="translate(-84.52 -197.08)"/><path class="cls-1" d="M135.46,229.92c-0.71,2.22,2.22,1.57,3,0,1.59-3.2.14-9.4-.07-12.83q-0.47-7.66-.38-15.32c0-3.3-4.56-3.06-5,0-1.23,9.21-2.16,18.44-2.58,27.73l4.67-.63a82.3,82.3,0,0,1-.53-25.59l-4.37.57c4.14,6-6.24,25.14,4.44,27.35,1.38,0.29,2.91-1.22,2-2.58-5.57-8.21,3.23-19.07-2.29-27.18-1-1.48-4.07-1.65-4.37.57a90.05,90.05,0,0,0,.55,28.12c0.49,2.75,4.56,1.93,4.67-.63a229.58,229.58,0,0,1,2.7-27.07l-4.88-.66a143.14,143.14,0,0,0,.49,15.32c0.19,2.11.42,4.23,0.82,6.31q0.47,1.84.87,3.69a2.51,2.51,0,0,1,.41,2.74,0.09,0.09,0,0,0-.16,0h0Z" transform="translate(-84.52 -197.08)"/><path class="cls-1" d="M140.71,233.79a2.49,2.49,0,0,0,.71-0.18,1.85,1.85,0,0,0,0-3.53c-2.94-1.12-5.57-1.13-8.68-1.12-2.25,0-5.31-.63-7.43.08a2.41,2.41,0,0,0-1.66,2.93c1.14,3.08,3.86,3,6.75,2.95q2.64,0,5.27-.09c0.15,0,5.44-.53,5-1h0Z" transform="translate(-84.52 -197.08)"/><path class="cls-1" d="M126.76,204.72a17.75,17.75,0,0,0,5.73-.38,25.51,25.51,0,0,1,6.49,0c2.93,0.27,3.59-4.56.7-5.16-4.31-.88-10.5-1.32-13.85,2-1,1-.7,3.31.94,3.55h0Z" transform="translate(-84.52 -197.08)"/><path class="cls-1" d="M135.81,213.48c2.63,1.62,5.88,1.71,8.9,1.73,3.93,0,7.93.24,11.85,0.09,2.85-.11,3.82-4.72.71-5.25-6.18-1-16.63-2.06-21.55,2.71a0.46,0.46,0,0,0,.09.72h0Z" transform="translate(-84.52 -197.08)"/><path class="cls-1" d="M155.24,203c1.06,3.88.17,8.74-.11,12.69-0.34,4.79-.43,9.64-0.33,14.45a2.26,2.26,0,0,0,2.83,2.15,10.37,10.37,0,0,1,6.1-.05,2.16,2.16,0,0,0,2.62-2.62,85.74,85.74,0,0,1-1-26.46h-4a79.3,79.3,0,0,1-.41,24.27h3.81c-2.61-7.51-2.49-15.3-2.24-23.15h-3.78a137.75,137.75,0,0,1-1,24.21l3.56-.48a81,81,0,0,1-2.61-15c-0.14-2-.56-4.49-0.2-6.48q-0.68-2.73,2.13-4a11.68,11.68,0,0,1,4.67.81l1.25-4.55c-5-.88-10.15-0.51-15.22-0.4a3,3,0,0,0-.78,5.78c5.24,1.68,11.11,2.3,16.34.3,2.43-.93,2.39-5.22-0.67-4.95-5,.44-9.26.65-14.11-1l-0.78,5.78c5.07-.08,10.24.13,15.22-0.94,3-.63,1.7-5.31-1.25-4.55-2.36.61-6.92-.47-8.94,1.25-1.4,1.19-1.28,4-1.37,5.6-0.48,7.81.86,15.88,2.83,23.4,0.56,2.14,3.3,1.41,3.56-.48a146.71,146.71,0,0,0,1.19-24.21,1.89,1.89,0,0,0-3.78,0c-0.37,8.22-.5,16.32,2.21,24.2,0.58,1.67,3.44,2.07,3.81,0a82.66,82.66,0,0,0,.65-25.32,2,2,0,0,0-4,0,92.29,92.29,0,0,0,.94,27.6l2.62-2.62a18.23,18.23,0,0,0-8.41-.15l2.83,2.15a125.08,125.08,0,0,0-.36-17.73c-0.36-3.43-.9-7.49-3.47-10.06a0.21,0.21,0,0,0-.29,0l-0.27.23a0.16,0.16,0,0,0,0,.19L155,203.1a0.11,0.11,0,0,0,.19-0.08h0Z" transform="translate(-84.52 -197.08)"/><path class="cls-1" d="M165.35,231c-3.12-2.41-7.43-2.1-11.16-2.15-3.09,0-3.92,4.91-.75,5.52,4.7,0.9,9.74,1.17,14.39-.18a2.77,2.77,0,0,0,2-2.65,3.86,3.86,0,0,0-.1-0.73,2.78,2.78,0,0,0-2.65-2c-4.13.5-8,.89-12.17,0.15l-0.75,5.52a28.18,28.18,0,0,0,10.65-1.54,1.17,1.17,0,0,0,.51-1.94h0Z" transform="translate(-84.52 -197.08)"/><path class="cls-1" d="M160.18,206.1a3.22,3.22,0,0,1-.77-1.34,0.41,0.41,0,0,0-.75-0.1,4.58,4.58,0,0,0-.15,2.56c0.08,1.1.25,2.2,0.3,3.3,0.06,1.43,2.24,1.86,2.59.35a13.61,13.61,0,0,0-.76-7.17c-0.54-1.62-3.11-1.43-3.08.42,0,1.21-.07,2.4-0.16,3.6a3.09,3.09,0,0,0,.7,2.7,0.83,0.83,0,0,0,1,.12c2.11-.92,1.71-4.56,1.63-6.43l-3.08.42a33.48,33.48,0,0,1,1.23,6.34l2.55-.7c-0.38-1.05-.64-2.15-1-3.21a4.82,4.82,0,0,0-1.11-2.39l-0.4.68a3.22,3.22,0,0,1,1.16.93c0.05,0.05.16,0,.11-0.09h0Z" transform="translate(-84.52 -197.08)"/><path class="cls-1" d="M171.41,203.58c4.38,1.73,10,.69,14.65.77,2.51,0,5,.13,7.52.21,0.69,0,2.77-.29,3.31,0,0.72,0.37.53,0.56,0.91,1.73,1.1,3.4,6.29,2,5.39-1.48-0.47-1.83-.43-3.68-2.13-4.9-2.06-1.48-6.07-1.18-8.42-1.31-6.51-.35-15.77-1.74-21.72,1.28-1.71.87-1,3.12,0.48,3.71h0Z" transform="translate(-84.52 -197.08)"/><path class="cls-1" d="M190.18,211.92c-0.74,1.89-.84,4.05-1.43,6h4.93c-0.39-2.36.3-4.33,1.08-6.5,1-2.79-3.22-4.39-4.68-2-1.75,2.9-1.92,6.58-1.33,9.83,0.46,2.58,4.29,2.28,4.93,0s1.21-5.09.33-7.37a2,2,0,0,0-3.83,0h0Z" transform="translate(-84.52 -197.08)"/><path class="cls-1" d="M190.67,215.88l1.14-.21a1.11,1.11,0,0,0,.65-1.6c-0.78-1.65-2.86-1.76-4.47-1.94a40.54,40.54,0,0,0-7-.05c-3.74.23-3.81,5.93,0,5.88a43.86,43.86,0,0,0,7.32-.59c1.74-.32,3.61-0.65,4.3-2.45l-2.14-.29,0.08,1.14a0.13,0.13,0,0,0,.16.12h0Z" transform="translate(-84.52 -197.08)"/><path class="cls-1" d="M178.74,205.61q0.86-2.81.7-.81a21.54,21.54,0,0,1-.22,3.46c-0.08,1-.17,2-0.22,3.06-0.18,3.44-.09,6.87,0,10.32,0.11,3.09-1.27,10.63,2,12.61,1.57,0.95,4,.36,5.66.29,3.43-.15,7.32.18,10.68-0.53a6.11,6.11,0,0,0,3.79-2c1.41-1.69,1-4.47,2.45-6l-4.18-2.43a21,21,0,0,1-1.53,4.87c-1.25,2.79,2.68,5.25,4.19,2.45a21.51,21.51,0,0,0,2.16-6c0.49-2.37-2.33-4.27-4.18-2.43a7.3,7.3,0,0,0-1.85,2.79c-1,2.69-1.1,3.2-4.12,3.85-2.31.5-5.18-.46-7.41,0.28q-2.46-.82-2.15,1.61l-0.15-3.75c-0.33-8.08.54-18-4-25.05a0.61,0.61,0,0,0-.94-0.12c-1.05,1.3-1.26,1.92-.78,3.53,0,0,.07,0,0.07,0h0Z" transform="translate(-84.52 -197.08)"/><path class="cls-1" d="M171.59,205.25l1.13-.57-1.25-.95a231.41,231.41,0,0,0,2.52,29.1l1.83-3.23a25.57,25.57,0,0,0-2.7.81c-2.28.75-2,4.38,0.59,4.33,2.37-.05,4.73-0.14,7.09-0.25a2.29,2.29,0,0,0,1.6-3.86c-2.37-2.85-1.56-9.16-2-12.75s-1.25-7.43-2-11.13c-0.47-2.32-4.31-1.83-4.16.56,0.38,5.94.72,11.88,1.11,17.82l4.3-.58a65.6,65.6,0,0,1-1.33-9.53c-0.05-.93-0.72-7.61-0.09-8H176.1c1.14,0.81,1.87,2.81,2.28,4l3.69-1.55q-1.47-2.71-3.05-5.35a2,2,0,0,0-3.49,0,11.23,11.23,0,0,0-1.9,4.42l4,0.54L177,203.71c-0.28-2.57-4.34-2.59-4.05,0l0.59,5.34c0.23,2.08,3.47,3,4,.54a6,6,0,0,1,1.48-3.46h-3.49q1.59,2.64,3.06,5.35c1.07,2,4.47.63,3.69-1.55-0.89-2.47-2-4.84-4.09-6.46a2,2,0,0,0-2.09,0c-2.71,1.53-2.31,5.07-2.31,7.84a70.72,70.72,0,0,0,1.59,14.4c0.5,2.4,4.47,1.89,4.3-.58-0.4-5.94-.84-11.88-1.25-17.82l-4.16.56a99.76,99.76,0,0,1,2.46,16.23c0.13,3.35,0,6.49,2.12,9.27l2-3.4c-2.37.1-4.73,0.21-7.09,0.37l0.59,4.33h1.53c1.73,0.63,3.2-1,3.33-2.53a54.48,54.48,0,0,0-5.85-28.9,1,1,0,0,0-1.8.24,1.65,1.65,0,0,0,0,1.75,0.06,0.06,0,0,0,.09,0h0Z" transform="translate(-84.52 -197.08)"/><path class="cls-1" d="M258.78,208.38A7.66,7.66,0,0,0,252,199.6c-7.76-.85-16.54-1.89-24.27-0.68-3.21.5-2.47,5.89,0.77,5.69,6.07-.38,12.06.82,18.09,0.55,1.79-.08,4.67-1.37,6.34-1s3.14,3.72,5.06,4.54a0.57,0.57,0,0,0,.83-0.34h0Z" transform="translate(-84.52 -197.08)"/><path class="cls-1" d="M231.51,203.26c-3.09,3.2-1.92,9.29-1.79,13.38,0.16,4.88-.7,11.51,1.89,15.77a1.33,1.33,0,0,0,2.29,0c2-4.63.54-10.8,0.33-15.77-0.17-4.06.71-10.3-2.41-13.38a0.21,0.21,0,0,0-.3,0h0Z" transform="translate(-84.52 -197.08)"/><path class="cls-1" d="M227.09,232.57c2.78,2.41,5.19,1.62,8.76,1.54,4.27-.1,8.56.33,12.83,0.44,2.54,0.07,5.8.71,8-.82,2.5-1.71,3.43-5.89,4.34-8.52,1.13-3.26-4.1-4.71-5.18-1.43s-1.48,5.64-5.24,6.19c-3,.44-6.79-0.14-9.87-0.15-4.61,0-9.84-2-13.7,1a1.23,1.23,0,0,0,0,1.74h0Z" transform="translate(-84.52 -197.08)"/><path class="cls-1" d="M247.17,212c-0.62,2-.11,4.15-0.59,6.19-0.9,3.74,4.93,5.33,5.76,1.59,0.56-2.5,1.15-6.18-.46-8.39a2.61,2.61,0,0,0-4.7.61h0Z" transform="translate(-84.52 -197.08)"/><path class="cls-1" d="M249.54,222.59c3.85,0,3.85-6,0-6s-3.85,6,0,6h0Z" transform="translate(-84.52 -197.08)"/><path class="cls-1" d="M247.91,214.79c-0.24-1.58-2.54-2.47-3.87-2.86a41.21,41.21,0,0,0-7.23-1c-3.65-.36-3.51,5.18,0,5.64,2.57,0.34,5.48,1,8,.42,1-.23,3.29-0.73,3.06-2.23h0Z" transform="translate(-84.52 -197.08)"/><path class="cls-1" d="M239.57,205.54l0.65-.88-1.08-.45c-2.15,8.87-1.79,18.43-2.08,27.5l3.52-.48c-1.61-8-2-16.33-2.84-24.4-0.22-2-3.17-2.12-3.23,0-0.21,8.23-.65,16.45-0.89,24.67l3.71-.5c-1.59-9.25-1.35-18.52-1.06-27.86,0.07-2.26-3.42-2.25-3.5,0-0.27,7.5-.41,15-0.24,22.49H236a76.63,76.63,0,0,1,.28-21.7l-2,.8c1.33,0.87.61,6.67,0.63,8.15a1.36,1.36,0,0,0,2.65.36c0.65-2.75,1.28-5.49,2-8.23l-2.71-.37c-0.53,4.1-.91,8.19-1.1,12.31-0.1,2.12,3.24,2.13,3.3,0,0.13-4.27.43-8.5,0.92-12.74h-3.3c-0.9,8-1.51,16-1.83,24.07-0.1,2.43,3.7,2.43,3.77,0q0.37-12,1.36-24.07c0.18-2.14-3.07-2.07-3.3,0-0.49,4.24-.79,8.47-0.92,12.74h3.3c0-4.12.2-8.21,0.56-12.31,0.13-1.55-2.38-1.88-2.71-.37-0.61,2.76-1.26,5.5-1.9,8.25l2.65,0.36c0-3.19,1.15-8.43-2-10.46a1.34,1.34,0,0,0-2,.8,92.32,92.32,0,0,0-1.17,22.42c0.15,2.2,3.52,2.25,3.47,0-0.19-7.5-.15-15,0.28-22.49h-3.5c-0.51,9.67-.8,19.3.92,28.86,0.39,2.15,3.67,1.56,3.71-.5,0.17-8.22.14-16.45,0.34-24.67h-3.23c0.91,8.22,2.4,16.61,2.55,24.87a1.79,1.79,0,0,0,3.58,0c0.28-9,1.21-18.53-.37-27.5-0.12-.68-1.13-0.48-1.16.16l-0.06,1a0.27,0.27,0,0,0,.5.14h0Z" transform="translate(-84.52 -197.08)"/><path class="cls-1" d="M263,204.1a18.31,18.31,0,0,0,9.15.18,1.81,1.81,0,0,0,.79-3c-2.6-2.24-6.62-3.45-9.95-2.09-2.29.94-2.53,4.05,0,4.91h0Z" transform="translate(-84.52 -197.08)"/><path class="cls-1" d="M265.13,234.17a7,7,0,0,0,5.27,1.61c1.83-.06,4.18-0.13,5.09-2a2,2,0,0,0-.3-2.36c-1.46-1.3-3-.82-4.78-0.76a12.16,12.16,0,0,0-4.92.77,1.75,1.75,0,0,0-.35,2.72h0Z" transform="translate(-84.52 -197.08)"/><path class="cls-1" d="M293.36,233.17c2,1.1,3.77,1,6,1.06,2.66,0.11,5.28.15,7.95,0.05l-1.3-3.13c-1.16,1.06-4.37.3-5.76,0.21-2-.12-4.07-0.23-6.1-0.48-2.34-.28-2.88,3.69-0.56,4.13,4.52,0.85,10.13,1.69,14.61.32a1.93,1.93,0,0,0-.51-3.78c-4.37-.36-8.58.17-13-0.6l-0.56,4.13a49.16,49.16,0,0,0,8.88.11c2.13-.17,3.9,0,5.57-1.46a1.85,1.85,0,0,0-1.3-3.13c-2.57.08-5.09,0.26-7.64,0.54-2.31.26-4.29,0.2-6.28,1.5a0.3,0.3,0,0,0,0,.51h0Z" transform="translate(-84.52 -197.08)"/><path class="cls-1" d="M299,202.29c0.32,0.35,2.95.69,3.7,0.85a38.28,38.28,0,0,0,5.05.78l-2.14-2.14,0,0.31,1-1.8a5.62,5.62,0,0,1-2.1.08c-0.93,0-1.85-.05-2.78-0.08-1.65,0-2.94-.32-4,1.18a1.36,1.36,0,0,0,0,1.38c1.17,2,4.38,1.37,6.39,1.46s4.33,0.61,5.44-1.46a2.17,2.17,0,0,0-.77-2.93,9.34,9.34,0,0,0-8.62-.07c-0.62.34-2.42,1.71-1.26,2.49a0,0,0,0,0,0-.06h0Z" transform="translate(-84.52 -197.08)"/><path class="cls-1" d="M298.87,203c-2.49,1.9-4.49,4.51-6.58,6.82q-3.62,4-7.26,7.94l0.73,0.56A133.69,133.69,0,0,1,300,201.59l-0.81-.81c-4.19,4.63-9.21,9.16-12.55,14.45a0.35,0.35,0,0,0,.55.43c4.82-3.89,8.73-9.41,12.8-14.07a0.57,0.57,0,0,0-.81-0.81A135.29,135.29,0,0,0,285,217.87a0.47,0.47,0,0,0,.73.56c4.38-4.84,9.94-9.72,13.22-15.38,0,0,0,0,0,0h0Z" transform="translate(-84.52 -197.08)"/><path class="cls-1" d="M296.45,212.44c1.58-1.69-.85,1.1-1.54,1.81-0.89.93-1.87,1.77-2.8,2.65-1.34,1.27-2.64,2.57-3.88,3.93-0.29.32-2.75,3.26-1.66,2.91,0.4-.13,2.11-3.12,2.39-3.51,1.1-1.49,2.27-2.93,3.5-4.31a58.24,58.24,0,0,1,7.22-6.78l-0.68-.68c-4.9,5.61-10.48,10.72-15.74,16l1,0.76c4.61-6.14,9.16-12.34,13.86-18.42,0.49-.64-0.59-1.46-1.11-0.86-5,5.65-9.75,11.47-14.84,17l1.47,1.47a189.83,189.83,0,0,1,15.15-16.2c1.11-1-.51-2.57-1.64-1.64a138.34,138.34,0,0,0-13.24,12.37l1.86,1.43c4.07-6,10.24-11,15.55-15.81l-1.84-1.42a69.25,69.25,0,0,1-9.8,11.58l1.65,1.65a72.26,72.26,0,0,1,9.41-9.79l-1.65-1.65c-2,2.08-4.11,4.05-6.3,5.95l1.64,1.64c2.11-2.43,4.31-4.73,6.65-6.94l-1.82-1.4a47.56,47.56,0,0,1-8.46,8.94l1.81,1.4a48.86,48.86,0,0,1,8.69-10.14l-1.63-1.63a101,101,0,0,1-8.9,9.35l1.57,1.57,5.27-5.5a1.05,1.05,0,0,0-1.48-1.48,73.26,73.26,0,0,0-9.75,10.56l1.5,0.88,1.06-1.46-1.15-1.15c-1.23,1.33-2.39,2.69-3.51,4.12-0.58.75,0.44,1.82,1.06,1.06,1.14-1.4,2.33-2.73,3.6-4a0.82,0.82,0,0,0-1.15-1.15,3.8,3.8,0,0,0-1.41,1.74c-0.46.83,0.71,1.84,1.36,1.05a86.62,86.62,0,0,1,9.87-10.13l-1.48-1.48-5.36,5.42a1.11,1.11,0,0,0,1.57,1.57,90.52,90.52,0,0,0,9-9.29,1.15,1.15,0,0,0-1.63-1.63,51,51,0,0,0-9.06,10.6c-0.76,1.17.86,2.19,1.81,1.4a49.86,49.86,0,0,0,8.83-9.4c0.79-1.1-.9-2.28-1.82-1.4-2.34,2.21-4.55,4.51-6.65,6.94a1.16,1.16,0,0,0,1.64,1.64c2.19-1.89,4.29-3.87,6.31-5.94a1.17,1.17,0,0,0-1.65-1.65,72.25,72.25,0,0,0-9.41,9.79,1.17,1.17,0,0,0,1.65,1.65,72,72,0,0,0,10.17-12c0.77-1.15-.9-2.29-1.84-1.42-5.5,5-11.71,10.09-15.93,16.27a1.19,1.19,0,0,0,1.86,1.43,143.1,143.1,0,0,1,13.21-12.4l-1.64-1.64A134.37,134.37,0,0,0,282,223.15a1,1,0,0,0,1.64,1.26c4.63-5.95,9.59-11.64,14.37-17.47l-1.11-.86c-4.49,6.23-9.14,12.34-13.71,18.51-0.43.58,0.49,1.25,1,.76,5.22-5.29,10.87-10.4,15.54-16.2a0.48,0.48,0,0,0-.68-0.68,65.21,65.21,0,0,0-13.92,16.06c-0.25.4,0.36,0.9,0.67,0.52a90.92,90.92,0,0,1,7.42-8.18,17.84,17.84,0,0,0,4.5-5.76,0.18,0.18,0,0,0-.31-0.18l-1.08,1.4c-0.07.08,0.08,0.19,0.15,0.11h0Z" transform="translate(-84.52 -197.08)"/><path class="cls-1" d="M273,203.37c1.17,1.92,5.64,5.39,7.87,7.55a0.58,0.58,0,0,0,.81-0.81,78.27,78.27,0,0,0-10.16-9.57,0.67,0.67,0,0,0-.94.94c4.26,4.48,8.49,9,12.73,13.5,0.77,0.81,2.28-.29,1.58-1.22a51.22,51.22,0,0,0-10.38-10.3c-0.74-.55-1.59.63-1,1.25,4.67,4.75,9.11,9.72,13.47,14.75,0.92,1.06,2.41-.47,1.53-1.53-4.16-5-8.45-9.91-12.59-14.93-1.12-1.36-2.44-3.69-4.12-4.46s-4.13-.21-5.83-0.14a1.06,1.06,0,0,0,0,2.11c2.44-.09,4.4-0.37,6.35,1.31s3.37,4,4.93,5.84c3.27,3.91,6.45,7.9,9.74,11.8l1.53-1.53c-4.41-5-9.08-9.73-13.87-14.36l-1,1.25a43,43,0,0,1,9.45,9.93l1.58-1.22c-4.4-4.34-8.83-8.66-13.22-13l-0.94.94a82.16,82.16,0,0,1,10.29,9.44l0.81-.81c-3.09-2.9-6.17-5.8-9.44-8.5a0.2,0.2,0,0,0-.32.24,3.18,3.18,0,0,0,1,1.56,0,0,0,0,0,.06,0h0Z" transform="translate(-84.52 -197.08)"/><path class="cls-1" d="M265.24,205.77c0.75-1.49.5,4.09,0.5,4.34,0,2.43.19,4.88,0.33,7.31,0.29,4.92.88,9.86,0.38,14.78l2.11-.29c-1.29-9.57-.85-19.44-1.07-29.07a0.68,0.68,0,0,0-1.36,0c-0.42,9.8.49,19.57,0.32,29.36,0,1.42,2,1.34,2.15,0,0.62-5.46-.11-11.14-0.51-16.6-0.28-3.88-.37-8.08-2-11.65a0.21,0.21,0,0,0-.39.05l-0.59,1.72a0.08,0.08,0,0,0,.15.06h0Z" transform="translate(-84.52 -197.08)"/><path class="cls-1" d="M271,213.46a51.91,51.91,0,0,0-.34,17.73c0.12,0.88,1.59.67,1.56-.21q-0.39-8.93-.78-17.86a0.82,0.82,0,0,0-1.64,0l0.09,18h1.65q-1.24-11.19-1.48-22.43a0.83,0.83,0,0,0-1.66,0L268.32,230H270l-1.15-22.85a0.84,0.84,0,0,0-1.69,0c-0.58,7.77.4,15.62,1,23.37h1.7q-1.16-12.48-1.14-25l-1.67.23a75.64,75.64,0,0,1,.77,10.71h1.69a119.2,119.2,0,0,1,.49-13.25h-1.68c-0.07,5.68,2.92,9.14,6,13.78,2.37,3.62,4.47,7.35,8.08,9.86a0.83,0.83,0,0,0,1-1.29,142.52,142.52,0,0,0-13.21-11.86,1,1,0,0,0-1.44,1.44c3.59,4,9,6.59,13.34,9.76,0.75,0.55,1.57-.62,1-1.26q-7-7.35-14.15-14.54a1,1,0,0,0-1.35,1.35,116.8,116.8,0,0,0,10,10.9,1,1,0,0,0,1.47-1.47q-5.31-6.21-10.72-12.32c-0.89-1-2.3.45-1.46,1.46A91.78,91.78,0,0,0,278,221a1.2,1.2,0,0,0,1.88-1.45,119.46,119.46,0,0,0-9.25-13c-0.81-1-2.6.34-1.82,1.41a92.11,92.11,0,0,0,10.71,12.59,1.49,1.49,0,0,0,2.1-2.1c-3.64-4.31-7.31-8.58-10.79-13L269.2,207c3.88,4.08,7.73,8.18,11.65,12.22a1.24,1.24,0,0,0,1.93-1.49,108.11,108.11,0,0,0-10.95-14.38c-0.77-.86-2.33.3-1.63,1.25a170.55,170.55,0,0,0,11.18,13.84,1,1,0,0,0,1.63-1.26,75.52,75.52,0,0,0-10.66-14.3c-0.7-.75-2.1.27-1.45,1.12A96.94,96.94,0,0,0,280,214.37a1.11,1.11,0,0,0,1.73-1.33,75.52,75.52,0,0,0-7.09-8.93c-1-1.05-2.47.49-1.56,1.56A115.6,115.6,0,0,1,282.37,218a1.1,1.1,0,0,0,1.9-1.11,56.51,56.51,0,0,0-5.44-8.26c-0.78-1-2.38.29-1.73,1.33a106.93,106.93,0,0,0,6.74,9.64c0.77,1,2.39-.29,1.73-1.33l-4.38-6.93-1.9,1.11q2.48,3.73,4.94,7.48c0.79,1.21,2.74.09,1.94-1.14l-4.89-7.56-2,1.19a62.24,62.24,0,0,0,5.64,7.3,1.23,1.23,0,0,0,1.92-1.48,76.3,76.3,0,0,0-4.5-7,1.16,1.16,0,0,0-2,1.17,61,61,0,0,1,3.37,6.7l1.74-1.35q-2.39-2.69-4.74-5.42c-0.87-1-2.27.27-1.75,1.35L283,222l2-1.17-3.19-5.59a1.19,1.19,0,0,0-2.06,1.2l3.31,6.11,2.12-1.24L282,216.73a1.26,1.26,0,0,0-2.17,1.27l2.92,6.12,2-1.57a39.12,39.12,0,0,1-3.81-5.24c-0.73-1.19-2.85-.43-2.34,1a55.77,55.77,0,0,0,4,8.71,1.26,1.26,0,0,0,2.16,0,27.59,27.59,0,0,0,2.15-4,1.27,1.27,0,0,0-.19-1.5q-6.19-5.39-12.34-10.82c-1-.89-2.79.26-2,1.52a33.1,33.1,0,0,0,5,6c1,1,2.8-.29,2-1.53a112.2,112.2,0,0,0-8.11-10.92c-1-1.15-2.6.31-2,1.53l0.46,0.91,2.17-1.27-2.15-3.86-1.92,1.48,2,2.58c0.76,1,2.32-.09,2-1.17a16.39,16.39,0,0,0-1.69-3.9l-2.05,1.2a66.37,66.37,0,0,0,4,5.91,1.16,1.16,0,0,0,2-1.17L272.77,205l-1.85,1.08,0.87,1.59a1,1,0,0,0,1.76-1L272.77,205a1.07,1.07,0,0,0-2,.82L272,209l2.12-.9c-1.34-2-2.67-3.91-3.92-5.93a1.19,1.19,0,0,0-2.05,1.2,8.78,8.78,0,0,1,1.42,3.34l2.2-.93-2-2.61a1.23,1.23,0,0,0-2.11,1.24l2.1,3.89c0.77,1.43,2.87.17,2.17-1.27l-0.44-.91-2,1.53A123.56,123.56,0,0,1,277.24,218l2-1.53a30.59,30.59,0,0,1-4.65-5.51l-2,1.52,7.56,6.6c0.82,0.71,3,2.11,3.44,3,0.72,1.61,0,2.16-1,3.65h2.16a52.18,52.18,0,0,1-3.69-8.13l-2.34,1a39.55,39.55,0,0,0,4.2,5.78c1,1.16,2.65-.32,2-1.57l-3-6.08L279.79,218l3.3,4.6a1.23,1.23,0,0,0,2.12-1.24l-3.37-6.08-2.06,1.2L283,222a1.16,1.16,0,0,0,2-1.17l-4.18-8.31-1.75,1.35q2.38,2.7,4.74,5.42a1.12,1.12,0,0,0,1.86-1.08,63.52,63.52,0,0,0-3.39-7l-2,1.17a76.24,76.24,0,0,1,4.4,7.1l1.92-1.48a69.47,69.47,0,0,1-5.33-6.77c-0.85-1.25-2.89-.08-2,1.19l5,7.51,1.94-1.14q-2.5-3.72-5-7.46c-0.78-1.17-2.67-.1-1.9,1.11l4.38,6.93,1.73-1.33a101.74,101.74,0,0,1-6.4-9.19l-1.73,1.33a53.39,53.39,0,0,1,5.09,7.81l1.9-1.11a119.74,119.74,0,0,0-9.61-12.81l-1.56,1.56a71.87,71.87,0,0,1,6.75,8.49l1.73-1.33a90.91,90.91,0,0,1-9.21-9.89l-1.31,1.31a80.91,80.91,0,0,1,10.17,14l1.63-1.26A139.16,139.16,0,0,1,272,203.6l-1.63,1.25A104.72,104.72,0,0,1,280.66,219l1.93-1.49c-3.89-4.07-7.85-8.07-11.78-12.1-1.05-1.08-2.52.5-1.62,1.62,3.47,4.31,6.75,8.77,10.06,13.21l2.34-1.8c-3.79-3.88-7.57-7.67-11-11.89L269,208.19a93.94,93.94,0,0,1,8.82,12.53l1.88-1.45a91.73,91.73,0,0,1-11.41-11.74L266.79,209q5.31,6.21,10.72,12.33l1.47-1.47a96.13,96.13,0,0,1-10.14-10.78l-1.35,1.35q7.1,7.25,14.36,14.32l1-1.26c-4.22-2.86-9.45-5.86-12.7-9.82l-1.24,1.6a127.93,127.93,0,0,1,13.28,11.42l1-1.29c-3.35-2.33-5.29-5.93-7.48-9.28-2.67-4.08-5.79-7.78-5.72-12.94a0.84,0.84,0,0,0-1.68,0,119.21,119.21,0,0,0-.51,13.25,0.85,0.85,0,0,0,1.69,0,78.79,78.79,0,0,0-.82-11.16c-0.14-1-1.67-.71-1.67.23q0,12.53,1.15,25c0.1,1.08,1.78,1.1,1.7,0-0.57-7.75-1.56-15.6-1-23.37h-1.69L268.32,230a0.84,0.84,0,0,0,1.68,0l0-21.33h-1.66q0.24,11.26,1.49,22.43a0.83,0.83,0,0,0,1.65,0l-0.1-18h-1.64q0.41,8.93.84,17.86l1.56-.21a91.29,91.29,0,0,1-.65-17.24,0.27,0.27,0,0,0-.53-0.07h0Z" transform="translate(-84.52 -197.08)"/><path class="cls-1" d="M297.61,210.9c-0.19,7.24.73,14.4,0.21,21.67l2.09-.28c-2.06-8.21-1.75-16.44-2.93-24.7a0.6,0.6,0,0,0-1.15,0c-1.34,8.18.62,17.19,2,25.27,0.22,1.25,2,.85,2.09-0.28,0.47-7.14.56-14.94-2.11-21.7a0.12,0.12,0,0,0-.23,0h0Z" transform="translate(-84.52 -197.08)"/><path class="cls-1" d="M305.18,205.83c-1.86,7.09-1.88,16.81-.95,24.47,0.14,1.18,2,1.22,1.88,0-0.89-8.8-.92-17.71-1.1-26.55h-1.78a210.15,210.15,0,0,1,.83,25.94l1.86-.25c-1.59-8.56-2.88-17.13-2.79-25.86h-1.91c0.59,8.33.94,16.67,1.12,25a1,1,0,0,0,2.07,0,190.2,190.2,0,0,0-1.85-23c-0.17-1.21-2.21-.93-2.14.29l1.25,23c0.08,1.44,2.32,1.45,2.25,0-0.35-7.29-1-14.54-2-21.76-0.2-1.39-2.52-1.06-2.45.33l1.11,21.13,2.54-.34A153.51,153.51,0,0,1,300,206.44h-2.67c0.84,7.63,1.56,15.28,1.83,23l3.06-.41c-1.15-6.66-2.1-13.34-2.74-20.07h-2.91c0.81,7.5,1.44,15,1.84,22.53l2.68-.36a89.75,89.75,0,0,1-2.68-14.35l-2.09.28c0.82,4.7.76,11.6,3.1,15.76a1.07,1.07,0,0,0,.95.54c4-.48,3.4-2.79,3.83-5.78h-2.16a19.76,19.76,0,0,1,.89,2.74,1.16,1.16,0,0,0,2.28-.31q-0.07-1.82-.14-3.64a1.21,1.21,0,0,0-2.41,0L302.37,229l1.92-.78-2.2-2.38c-0.71-1.1-2.86-.8-2.7.73l0.42,4a1.59,1.59,0,1,0,3.13-.42l-0.7-4-2.65,1.12a12.33,12.33,0,0,0,3.39,3.18,1.32,1.32,0,0,0,1.92-.78,10.56,10.56,0,0,0,.2-3.36h-2.41q0.12,1.82.24,3.64l2.28-.31a19.82,19.82,0,0,0-1-2.72,1.13,1.13,0,0,0-2.2.3c-0.12.9,0.11,1.38-.72,1.79-1.16.57-1.1-2.45-1.26-3.37l-1.65-9.21a1.07,1.07,0,0,0-2.09.28,148,148,0,0,0,2.17,15.08c0.31,1.53,2.68,1.15,2.68-.36a206.5,206.5,0,0,0-1.66-22.53c-0.2-1.83-3.09-1.87-2.91,0,0.67,7,1.52,14,2.64,20.9,0.28,1.73,3.15,1.33,3.06-.41-0.41-7.69-1.36-15.32-2.28-23-0.2-1.66-2.79-1.74-2.67,0a157.24,157.24,0,0,0,3.23,22.48,1.3,1.3,0,0,0,2.54-.34l-1.2-21.13-2.45.33c1,7,1.77,14,2.18,21.1h2.25l-1.31-23-2.14.29a195.66,195.66,0,0,1,1.88,22.42h2.07c-0.26-8.35-.72-16.68-1.29-25a1,1,0,0,0-1.91,0c-0.12,8.92,1.21,17.63,2.88,26.37,0.21,1.08,1.83.78,1.86-.25a219,219,0,0,0-.95-25.94,0.89,0.89,0,0,0-1.78,0c0.18,8.87.58,17.7,1,26.55h1.88c-0.14-4.44-.42-8.86-0.44-13.3s0.48-8.65,0-12.94c-0.05-.44-0.76-0.65-0.86-0.12l-0.32,1.69a0.38,0.38,0,0,0,.72.2h0Z" transform="translate(-84.52 -197.08)"/><path class="cls-1" d="M310.77,200.37l-0.08.45a2.11,2.11,0,0,0,.54,2c2.7,2.21,6.72,1.3,10,1.11,5.05-.3,11.36-1.34,15.82,1.75,5.82,4,2.34,10.15-2.51,13-4.52,2.66-9.82,3.49-14.94,4.12-1.74.21-1.82,2.94,0,2.79,8-.65,16.23-1.44,17.77-10.8,1.16-7.08-2.49-14.39-10.24-14.66-1.91-.07-1.88,2.83,0,3,6.54,0.45,13.26,5.86,8.89,12.82l2.73,0.74c0.08-4.41,1.07-9.43-1.95-13.05-1-1.25-3.29.45-2.29,1.76,2,2.62,5,6.22,1.91,9.64l2.59,1.51c2.28-6.75,1.65-11.45-4.31-15.68l-0.63,2.33a7.61,7.61,0,0,1,7.94,6.6c0.52,4-1.75,7.42-5.06,9.55l1.88,2.44c4.9-4.35,9.36-11.25,5.89-17.87-3.82-7.3-12.82-4.89-19.41-4.31a0.88,0.88,0,0,0-.23,1.73c4.41,1.21,10-.6,14,1.76,7,4.05,1.26,12.6-2.48,16.49-1.18,1.23.37,3.45,1.88,2.44,4.44-3,7.62-8,6.21-13.53a10.53,10.53,0,0,0-10.66-7.79,1.26,1.26,0,0,0-.63,2.33c4.64,3.47,4.59,7.71,2.58,12.7-0.59,1.47,1.59,2.57,2.59,1.51,4-4.28,1.49-9.25-1.59-13.3l-2.29,1.76c2.11,2.54,1.14,8,1.08,11a1.47,1.47,0,0,0,2.73.74c5.44-8.64-3-16.46-11.41-17.25v3c7.06,0.26,8.92,8.49,6.5,13.87-2.59,5.76-8.6,5.5-14,5.85v2.79c9.71-.49,27.46-2.37,25.34-16.5-2.07-13.85-23.3-11.78-32.77-9.77l2,0.54-0.3-.35a1.87,1.87,0,0,0-3.11.82h0Z" transform="translate(-84.52 -197.08)"/><path class="cls-1" d="M312.56,204.22c1,1.12,0,6.44.08,7.93,0.1,3.18.37,6.37,0.6,9.54,0.16,2.19.91,5,.67,7.11-0.26,2.35-1.56,2.37-2.79,3.8a1.27,1.27,0,0,0,.55,2.1,36,36,0,0,0,12.16-.13c2.49-.36,1.93-4.65-0.6-4.42-3.88.35-7.45,1.59-11.23,2.08l0.89,2.14c1-1.22,2.95-.75,3.89-2.29,1.37-2.23.22-7.12,0.06-9.45-0.28-3.95-.49-8-1.05-11.88-0.32-2.22-.41-5.45-2.28-6.94a0.5,0.5,0,0,0-.69,0l-0.27.29a0.07,0.07,0,0,0,0,.1h0Z" transform="translate(-84.52 -197.08)"/><path class="cls-1" d="M322.55,230c-0.33-8.64.44-17.24-.38-25.87a1.48,1.48,0,0,0-3,0c-0.69,8.9-1,17.79-1.12,26.71l3.15-.43a144,144,0,0,1-3.51-25.29h-3c0.59,8.49,1,17,1.25,25.49a1.59,1.59,0,0,0,2.68,1.11c2.77-2.45.55-6.21,0.26-9.3-0.56-6-.41-12.09-0.43-18.09l-3.15.43a32.56,32.56,0,0,1,1.48,10.32h3.22l-0.5-11.22a1.66,1.66,0,0,0-2.81-1.16l-0.81.54a1.63,1.63,0,0,0-2.81,1.64l0.12,0.7h3.19l0-1.19a1.57,1.57,0,0,0-3.15,0v1a1.55,1.55,0,0,0,2.87.78l0.54-.38c1.46-.7.38-2.78-1-2.48a3.38,3.38,0,0,0-1.91,1l2.63,1.09,0.06-1h-3.15l0,1.19c-0.05,2.06,3.09,2,3.19,0a4.25,4.25,0,0,0-.5-2.35l-2.81,1.64c1.59,2.63,3.94,2,5.95.14l-2.81-1.16,0.56,11.22a1.61,1.61,0,0,0,3.22,0,35.45,35.45,0,0,0-1.61-11.17,1.61,1.61,0,0,0-3.15.43c0,5,.07,10,0.29,15,0.07,1.63,1.91,9.21.87,10.15l2.68,1.11c-0.32-8.51-.76-17-1.44-25.49-0.15-1.87-3.06-1.91-3,0a169.43,169.43,0,0,0,3.37,26.14c0.38,1.8,3.13,1.35,3.15-.43,0.11-8.91,0-17.83.87-26.71l-2.9-.39c-1.19,8.82-.39,17.41-0.26,26.27,0,2.28,3.63,2.28,3.54,0h0Z" transform="translate(-84.52 -197.08)"/><path class="cls-1" d="M319.1,204.15l0.66-.57L319,203c-0.58,2-.25,4.09-0.71,6.08-0.38,1.63,2.15,2.33,2.51.69,0.51-2.31,1-4.63,1.41-7l-2.83-.38a62,62,0,0,1,0,7.14c-0.1,1.94,2.89,1.93,3,0s0.23-3.59.32-5.38-2.56-2-3-.41a39.9,39.9,0,0,0-1.35,6.59l3.08-.42L320,203.64c-0.42-1.79-3.06-1.33-3.12.42s-0.13,3.6-.21,5.4l3-.81a13.1,13.1,0,0,1-1-4c-0.22-2.11-3.31-2.2-3.36,0L315.19,208l3.14-.85a3.5,3.5,0,0,1-.63-1.68c-0.23-1.65-2.93-1.56-3.24,0-0.46,2.29-.79,4.42.17,6.6,0.41,0.93,1.61.47,1.91-.25,0.71-1.75.75-3.62,1.17-5.46l-3.3-.45a6.07,6.07,0,0,0,1,2.94,1.7,1.7,0,0,0,3.14-.85l0.06-3.29h-3.36a16.34,16.34,0,0,0,1.61,5.6c0.73,1.5,3,.69,3-0.81,0-1.8.11-3.6,0.16-5.4l-3.12.42,1.51,6.28c0.45,1.85,2.89,1.23,3.08-.42a35,35,0,0,1,1.2-5.77l-3-.41c-0.09,1.79-.16,3.59-0.24,5.38h3a62.08,62.08,0,0,0-.19-7.14c-0.12-1.49-2.53-2.1-2.83-.38-0.41,2.34-.8,4.68-1.15,7h2.51c-0.49-2-.18-4.11-0.79-6.08-0.14-.45-0.92-0.54-1,0l-0.29.85c-0.14.25,0.21,0.55,0.4,0.31h0Z" transform="translate(-84.52 -197.08)"/><path class="cls-1" d="M348.18,202.76l-0.29-1.13-2.15,1.65c4.49,2.42,10.63.15,15.51,0,2.59-.1,5.15,0,7.73-0.34,4.49-.55,5.4,2.6,6.67,6.18,0.53,1.51,2.93.88,2.42-.67l-2.5-7.58a1.33,1.33,0,0,0-2.56.7l1.65,7.65,2.55-1.07-4-8c-0.78-1.55-3.26-.47-2.78,1.17l2.18,7.46,3-1.26L372.44,202c-0.94-1.63-3.89-.53-3.14,1.33,0.58,1.43,1.19,2.85,1.8,4.27l2.65-2a6.08,6.08,0,0,1-2.12-2.38L371,205.45l0.19-.14-2.24-.59,0.19,0.26,0.59-2.25c-0.2.12-4.49-1-4.77-1-1.33-.2-2.68-0.36-4-0.46a28.72,28.72,0,0,0-9.31.56,1.65,1.65,0,0,0-1.12,2c0.68,4.89-.24,10.5-0.16,15.49,0.07,4.64.1,9.32,0.59,13.93,0.27,2.61,4,2.72,4.15,0,0.2-5-.11-10-0.36-14.92s-1.43-10.13-1.07-14.92L352.1,205c4.14,0.23,8.27-.19,12.42.24,1.68,0.17,5.18,1.51,6.9.38a1.68,1.68,0,0,0,.33-2.58l-0.2-.26a1.67,1.67,0,0,0-2.32,0l-0.18.15a1.64,1.64,0,0,0-.26,2,11.18,11.18,0,0,0,2.56,3.12c1.14,1,3.49.07,2.81-1.64-0.51-1.3-1-2.6-1.56-3.88l-3.14,1.33,3.28,5.36c0.94,1.53,3.57.56,3-1.26l-2.39-7.4-2.78,1.17,4.23,7.87c0.77,1.43,2.9.43,2.55-1.07l-1.79-7.61-2.56.7,2.64,7.54,2.42-.67c-0.8-2.19-1.29-6.35-3.19-8-1.65-1.4-6-1.7-8-2a74.56,74.56,0,0,0-13-.45c-3.2.18-6.22,0.41-8.38,2.93a1.47,1.47,0,0,0,1.78,2.3l1-.51h0Z" transform="translate(-84.52 -197.08)"/><path class="cls-1" d="M351.47,236.11c8-.51,15.76-2.3,23.83-1.74a2.27,2.27,0,0,0,2.18-1.66q0.94-4,2-7.92l-3.56-1a19,19,0,0,1-3.34,6.63c-1.1,1.52,1.23,3.1,2.5,1.93a15.36,15.36,0,0,0,4.4-7.58c0.66-2.31-2.79-3.21-3.56-1q-1.34,3.87-2.8,7.7l2.78-1.58c-8.22-1.41-17-.29-25.06,1.53-2.57.58-2.05,4.82,0.63,4.65h0Z" transform="translate(-84.52 -197.08)"/><path class="cls-1" d="M358.77,232c-0.39-8.43-.56-16.89-0.22-25.32h-1.36c-0.2,7.94-.42,15.87-0.53,23.81h1.83a143.93,143.93,0,0,1-.93-24h-1.47c0,7.64.49,15.25,0.8,22.88l2.13-.29c-1.19-7.9-2.61-16-1-24l-1.61-.22a206.22,206.22,0,0,1,.18,22.41h2.08c-0.57-7.63-.86-15.16,1-22.65l-2.22-.3c-0.12,8.26-.32,16.51-0.54,24.76h2.7c-0.5-8.84-.43-17.66-0.23-26.5,0-2-2.95-1.94-3,0q-0.58,14.29-1.16,28.57l3-.41a120.23,120.23,0,0,1-1.89-27.88h-3c-0.09,8,.17,15.89.53,23.84H357a163.81,163.81,0,0,1-1.58-22.14h-3.45c0.34,6.15.57,12.26,0.42,18.43l3.5-.47a59.88,59.88,0,0,1-1.18-17.8l-3.21.43a17.34,17.34,0,0,1,.72,3.71c0.11,1.16,2,1.65,2.21.3a15.67,15.67,0,0,0,.27-4.45,1.63,1.63,0,0,0-3.27,0,61.25,61.25,0,0,0,1,18.74c0.42,2,3.45,1.48,3.5-.47a157.65,157.65,0,0,0-.53-18.43c-0.21-2.17-3.55-2.25-3.45,0a210.17,210.17,0,0,0,1.91,22.56c0.27,1.76,3.26,1.36,3.12-.42-0.61-7.93-.76-15.89-0.71-23.84,0-1.94-2.89-1.92-3,0a115.92,115.92,0,0,0,2,28.69c0.34,1.75,2.93,1.25,3-.41q0.56-14.29,1.13-28.57h-3c-0.17,8.84-.34,17.69.55,26.5,0.17,1.69,2.7,1.78,2.7,0,0-8.25,0-16.51.09-24.76a1.13,1.13,0,0,0-2.22-.3c-1.86,7.69-1.63,15.42-.89,23.25a1,1,0,0,0,2.08,0,214.91,214.91,0,0,0-.61-22.41c-0.07-.87-1.4-1.18-1.61-0.22-1.83,8.48-1.22,16.54.51,25,0.24,1.18,2.26.94,2.13-.29-0.8-7.6-1.34-15.24-1.5-22.88a0.74,0.74,0,0,0-1.47,0,118.71,118.71,0,0,0,.57,24,0.92,0.92,0,0,0,1.83,0c0.08-7.94.06-15.88,0.06-23.81a0.68,0.68,0,0,0-1.36,0,136.45,136.45,0,0,0,1,25.41c0,0.35.64,0.27,0.62-.08h0Z" transform="translate(-84.52 -197.08)"/><path class="cls-1" d="M357.87,214c1.68,1.89,4.45,1.94,6.78,2.3a2,2,0,1,0,.52-3.84c-2.43-.2-5.41-0.58-7.3,1.32a0.16,0.16,0,0,0,0,.22h0Z" transform="translate(-84.52 -197.08)"/><path class="cls-1" d="M366.16,211.28c-1.42,2.72-.58,6.58-0.47,9.56s4.89,3.08,4.78,0c-0.11-2.89.3-7.13-1.51-9.56a1.64,1.64,0,0,0-2.8,0h0Z" transform="translate(-84.52 -197.08)"/><path class="cls-1" d="M365.63,217.52a10.23,10.23,0,0,0-8.16.26l1.84,3.15a37.66,37.66,0,0,1,3.85-2.28c1.3-.77,2.48-1.68,3.71-2.55a1.34,1.34,0,0,0-.67-2.47,43.38,43.38,0,0,1-6.7,0c-1.9-.25-2,2.58-0.43,3.15a16.19,16.19,0,0,0,5.49.87c2.36,0,2.33-3.51,0-3.65a27.79,27.79,0,0,0-7.15.58c-2.23.45-1.58,3.71,0.52,3.81s4.19,0.18,6.28.27V214.8c-1.26,0-2.55-.07-3.81,0l0.5,3.68a8.9,8.9,0,0,0,2.57-1.1,1.21,1.21,0,0,0-.29-2.18,9,9,0,0,0-2.79-.4c-2.45-.08-2.36,3.52,0,3.75,1.26,0.13,2.54.08,3.81,0.09,2.5,0,2.48-3.76,0-3.88-2.09-.1-4.19-0.2-6.28-0.28l0.52,3.81a27.82,27.82,0,0,1,6.11-.68l-0.48-3.58a10.5,10.5,0,0,1-4.15-.38l-0.43,3.15a27,27,0,0,0,7.05-.6L365.27,214c-1.74,1.53-4.53,3.36-6.88,3.51a1.82,1.82,0,0,0,0,3.65,31.15,31.15,0,0,0,7.24-.37c1.9-.26,1.31-2.74,0-3.29h0Z" transform="translate(-84.52 -197.08)"/><path class="cls-1" d="M380.7,203.81c4.55,1.32,9.28.27,13.94,0.19,4.32-.08,10.63-0.31,14.37,2,5.25,3.25-.84,10.64-4.39,12.87-3.82,2.41-8.41,1-12.58,2a1.63,1.63,0,0,0,.43,3.18c7.77,0.1,16.78-1,21.93-7.56,3.24-4.1,3.73-11.85-2.93-12.44a1,1,0,0,0-.72,1.74c5.54,4.89-.79,10.3-5.11,12.48s-8.54,2.63-13.18,2.55L392.9,224c3.57-.84,7.12.35,10.65-0.37a13.31,13.31,0,0,0,5.8-3.3c3.6-3.14,8.09-8.43,6.09-13.56S408,200.64,403.31,200c-7.11-1-16.45-2.85-23,.85a1.64,1.64,0,0,0,.39,3h0Z" transform="translate(-84.52 -197.08)"/><path class="cls-1" d="M400.39,203.65c1.49,1.63,3.43,2.78,4.74,4.58,2.41,3.29,1.19,7.16-2.36,9-4.49,2.34-9.06-.33-13.52.87a1,1,0,0,0-.23,1.78c5.31,3.1,15.51,1.95,19-3.49,3.71-5.72-1-13-7.5-13.15a0.24,0.24,0,0,0-.17.4h0Z" transform="translate(-84.52 -197.08)"/><path class="cls-1" d="M406,204.17c1.09,2.22,2.56,4.15,3.35,6.53a0.89,0.89,0,0,0,1.72-.47,21.82,21.82,0,0,0-3.43-8l-1.74,1c2.33,3.42,4.28,7.6,2.46,11.7l2.6,1.1a16.74,16.74,0,0,0-4.06-14.64,1.34,1.34,0,0,0-2.27.94,9.31,9.31,0,0,0,.71,3.05c0.44,1,2.11.48,2.07-.56,0-.84-0.11-1.66-0.12-2.49l-2.27.94a14.71,14.71,0,0,1,3.19,12c-0.26,1.46,1.9,2.68,2.6,1.1,2.32-5.25.4-10.35-3.34-14.36a1,1,0,0,0-1.58,1.22,23.22,23.22,0,0,1,3.44,7.45l1.72-.47a17,17,0,0,0-4.54-6.46,0.34,0.34,0,0,0-.53.41h0Z" transform="translate(-84.52 -197.08)"/><path class="cls-1" d="M392.17,203.27c-1.36,6.44-.82,13,0.25,19.45,0.2,1.17,2,.87,2-0.28q0-9.88.77-19.71h-2l-0.64,15.1h2c-0.67-5.36-1.28-10.73-1.61-16.12a0.93,0.93,0,0,0-1.86,0,90.9,90.9,0,0,1-.86,16l2.3,0.31a117.79,117.79,0,0,0-.9-13.05c-0.19-1.54-2.48-1.65-2.49,0q0,8.82-.84,17.59h2.58q-0.29-9.59-.6-19.18c0-1.35-2.26-1.81-2.49-.34a133.22,133.22,0,0,0-1.23,15.79l2.45-.33a118,118,0,0,1-1.62-17.15,1.21,1.21,0,0,0-2.41,0,141.05,141.05,0,0,0,.21,16.17l2.29-.31a67.29,67.29,0,0,1-.5-14.47h-2c0.26,10.18.33,20.33-.15,30.51-0.07,1.47,2.19,1.45,2.27,0,0.59-10.16.17-20.34-.14-30.51a1,1,0,0,0-2,0,70.53,70.53,0,0,0,.18,14.78c0.18,1.45,2.43,1.53,2.33,0a141,141,0,0,1-.13-16.17H385a120.59,120.59,0,0,0,1.63,17.82c0.24,1.43,2.4,1,2.45-.33a127.46,127.46,0,0,1,1.17-15.12l-2.49-.34q0.28,9.59.56,19.18a1.29,1.29,0,0,0,2.58,0q0.79-8.79.76-17.59h-2.49c0.55,4.34.88,8.68,1,13.05a1.17,1.17,0,0,0,2.35,0A88.88,88.88,0,0,0,393,201.7H391.1c0.37,5.39.78,10.76,1.44,16.12a1,1,0,0,0,2,0l0.66-15.1c0.06-1.33-1.94-1.3-2,0q-0.8,9.85-.8,19.71l2-.28c-1-6.26-1-12.45-1.22-18.76a0.53,0.53,0,0,0-1-.14h0Z" transform="translate(-84.52 -197.08)"/><path class="cls-1" d="M382.74,235.6c4.49,1.13,9.08.22,13.59-.42,2.44-.35,1.77-4.18-0.57-4.2-4.19,0-8.47-.33-12.64,0-2,.17-2.76,3.27-0.51,3.75,4,0.86,7.6.33,11.53-.65a1.58,1.58,0,0,0,.94-2.3,9.68,9.68,0,0,1-1.72-8.69l-3.06-.41a40.58,40.58,0,0,0,.46,8.91c0.24,1.52,2.66,1.42,3,0a39.19,39.19,0,0,0,1-7.89h-3.07L392,232h3c-0.46-3.91-.92-7.82-1.35-11.73a1.42,1.42,0,0,0-2.84,0l-1,11.82h2.84c-0.37-4.81-.77-9.62-1-14.44-0.1-1.88-3-1.91-3,0a86.59,86.59,0,0,1-.32,10.86h3.07L390.8,217a1.56,1.56,0,0,0-3.11,0,110.58,110.58,0,0,0-.67,12.08h3.15q-0.44-6.49-.55-13c0-2.08-3-2-3.19,0a138.48,138.48,0,0,0-.56,15.94A1.66,1.66,0,0,0,388,233.6a6.3,6.3,0,0,0,2.12-1.28c1.6-1.39-.72-3.67-2.32-2.32l-0.68.41,2.09,1.59a139.23,139.23,0,0,1,.45-15.94h-3.19q0.13,6.5.6,13c0.14,2,3.15,2,3.15,0A110.54,110.54,0,0,1,390.8,217h-3.11l0.53,11.52a1.54,1.54,0,0,0,3.07,0,66.7,66.7,0,0,0,.2-10.86h-3c0.46,4.8.79,9.62,1.15,14.44a1.42,1.42,0,0,0,2.84,0l1-11.82h-2.84c0.43,3.91.82,7.82,1.23,11.73,0.19,1.85,3,1.94,3,0l-0.22-8.26a1.54,1.54,0,0,0-3.07,0,35.23,35.23,0,0,1-.87,7.07h3a36.8,36.8,0,0,1-.33-8.09c0.11-1.77-2.61-2.09-3.06-.41a12.74,12.74,0,0,0,2,11.1l0.94-2.3c-3,.74-6.31,1.67-9.22.19l-1,3.56c4.16,0.49,8.45.33,12.64,0.42V231c-4.33.55-8.79,0.73-13,1.84a1.45,1.45,0,0,0,0,2.78h0Z" transform="translate(-84.52 -197.08)"/><path class="cls-1" d="M401.8,222.91c0.23,4,1.37,8.22,5,10.37s8.26,1.75,12.24.39a1.33,1.33,0,0,0,.58-2.2c-2.08-1.79-4.8-2.2-6.95-3.85-2.51-1.93-3.85-4.8-5.37-7.49l-2.47,1.44a12.27,12.27,0,0,0,2.3,2.85,1,1,0,0,0,1.57-.91,12.21,12.21,0,0,0-1.41-3.38c-0.89-1.64-3.23-.2-2.47,1.44a24.11,24.11,0,0,0,4.8,7.31c2.38,2.27,5.68,2.43,8.11,4.46l0.58-2.2c-3.33,1.18-7,1.79-10.25-.06s-4-5.47-6.09-8.22c-0.06-.08-0.23-0.07-0.22.06h0Z" transform="translate(-84.52 -197.08)"/><path class="cls-1" d="M416.09,230.11a20.47,20.47,0,0,0,2.35.34c0.56,0.06.57-.84,0-0.89-4.5-.37-9.42-5.47-11.48-9.21a1,1,0,0,0-1.77.75c2.18,6.37,8.8,8,13.84,11.5l0.23-1.76a48.26,48.26,0,0,0-7.59,2.7c-1.06.48-.25,1.94,0.74,1.76a15.58,15.58,0,0,0,5.88-2.31l-1.38-1.38c-1.82,2.43-7.79,1.4-9.75-.3a15.92,15.92,0,0,1-4.67-8.86l-2,.53a83.25,83.25,0,0,0,5.87,8.34c0.47,0.61,1.3-.08,1.18-0.69A29.93,29.93,0,0,0,405,223a0.76,0.76,0,0,0-1.38.58,43.3,43.3,0,0,0,3.09,7.24c0.56,1,2.34.32,1.91-.81q-1.53-4.07-3.22-8.07l-2,.82q1.33,2.67,2.67,5.34a1.07,1.07,0,0,0,2-.82,37.57,37.57,0,0,0-2.39-5.24,1.05,1.05,0,0,0-1.81,1.06c2.33,4.52,5.2,9.12,10.71,9.67,1.47,0.15,1.43-1.87.32-2.34l-7.06-3c-1.33-.56-2.11,1.56-1,2.27l4.41,2.71,0.64-2.38a6.65,6.65,0,0,1-5.22-3.3l-2.27,1.33,1.21,1.63,2.08-1.61a28.26,28.26,0,0,1-2.8-3.51l-2.12,1.64a18.74,18.74,0,0,1,3.5,4.16l2.16-1.67A22.87,22.87,0,0,1,404,222.1c-0.65-1.42-3-.42-2.53,1.07l0.28,0.85a1.36,1.36,0,0,0,2.62-.72l-0.23-.86-2.67.74a23.14,23.14,0,0,0,5.05,7.53,1.38,1.38,0,0,0,2.16-1.67,21.07,21.07,0,0,0-4-4.68c-1.08-1-3,.3-2.12,1.64a32.17,32.17,0,0,0,3.25,4c1,1.06,3-.39,2.08-1.61l-1.23-1.62c-1-1.31-3.21-.13-2.27,1.33a9.45,9.45,0,0,0,7.49,4.53c1.31,0.12,1.66-1.77.64-2.38l-4.44-2.66-1,2.27,7.09,2.88,0.32-2.34c-4.7-.41-7-4.55-8.9-8.34l-1.81,1.06a34.07,34.07,0,0,1,2.14,4.75l2-.82q-1.33-2.67-2.67-5.34c-0.63-1.25-2.38-.15-1.85,1.08q1.66,3.87,3.16,7.8l1.91-.81A58.07,58.07,0,0,1,405,223l-1.31.76a27.72,27.72,0,0,1,2.54,7.22l1.18-.69a41.37,41.37,0,0,1-5-8.41,1.06,1.06,0,0,0-2,.53c0.12,4.49,2.67,10.54,7.08,12.4,3.38,1.42,8.93.89,11.19-2.22a1,1,0,0,0-1.38-1.38,14.31,14.31,0,0,1-5.37,2.2l0.74,1.76a45.33,45.33,0,0,1,7.14-2.5,1,1,0,0,0,.23-1.76c-4.48-3.12-11-4.67-12.95-10.35l-1.77.75c2.41,4.4,7.74,9.63,13.15,9.12l-0.12-.87a16,16,0,0,0-2.23.51,0,0,0,0,0,0,0h0Z" transform="translate(-84.52 -197.08)"/><path class="cls-1" d="M425.38,204.64c-9,5.79-6.57,21.33.36,28,7.69,7.39,23.05,5.24,29.6-2.58s4.62-21.24-3.4-27.27c-7.31-5.5-26.79-6.57-30.19,4.18a0.72,0.72,0,0,0,1.31.55c5.64-8,21.42-9,28.63-2.1,6.61,6.32,7.14,18.82-.23,24.63-6.35,5-18.85,6.31-24.6-.38s-5.35-17.41-1.27-24.82a0.15,0.15,0,0,0-.21-0.21h0Z" transform="translate(-84.52 -197.08)"/><path class="cls-1" d="M433.26,206.1c-6.9,3.17-6.8,13.7-4.29,19.8,3.42,8.31,11.41,8.17,17.84,3.34,5.87-4.41,6.5-13.74,3.06-20a13.15,13.15,0,0,0-19.64-4l1.09,1.09c3.19-6.15,10.19-5.32,14.95-1.73a0.81,0.81,0,0,0,1-1.27,14.14,14.14,0,0,0-4.75-2.68,0.86,0.86,0,0,0-1,1.25l0.86,1.18,1.23-1.23c-6.92-3.13-16.15-1.14-20,5.78-0.49.88,0.77,2,1.45,1.12,4.59-5.61,10.89-8.09,17.88-5.25,0.92,0.37,1.39-.9.88-1.51l-0.95-1.12L442,202.35a9,9,0,0,1,4.06,2.18l1-1.27c-5.68-4.19-13.1-3.92-17.14,2.31a0.8,0.8,0,0,0,1.09,1.09c6.09-3.78,13.91-2.67,17.28,4.19,2.67,5.44,2,13.32-3.13,17-3,2.12-7,3.94-10.45,2-2.66-1.48-4.06-4.56-4.74-7.37-1.29-5.34-.78-12.16,3.64-15.89,0.28-.24-0.08-0.61-0.37-0.48h0Z" transform="translate(-84.52 -197.08)"/><path class="cls-1" d="M428.2,204.15a27.34,27.34,0,0,0-5.5,15.69,0.87,0.87,0,0,0,1.71.23c1.27-3.94,2.38-12.25,6.85-13.88l-1-1.3A66.3,66.3,0,0,0,426,215.55l1.81,0.5a53.23,53.23,0,0,1,4-11.82,1.09,1.09,0,0,0-1.7-1.31,32.88,32.88,0,0,0-8.23,14.73l2.44,0.67c0.77-4.58,1.52-9.17,2.34-13.75a1.21,1.21,0,0,0-2.2-.93A18.44,18.44,0,0,0,420.55,216a1.43,1.43,0,0,0,2.87,0A17.21,17.21,0,0,1,429.34,205c1.31-1.17-.36-3-1.78-2.31-4.56,2.22-5.85,7-6.65,11.63a1.5,1.5,0,0,0,2.89.8,40.34,40.34,0,0,1,4.94-9.37l-2.79-1.18a103.14,103.14,0,0,0-3.53,19c-0.16,2,3.06,2.41,3.48.47a55,55,0,0,0,1.27-13,1.82,1.82,0,0,0-3.64,0,141.33,141.33,0,0,0-.13,15c0.09,2,3.27,2.63,3.61.49a102.11,102.11,0,0,0,1.27-13.71c0.06-2.38-3.49-2.33-3.67,0a81.51,81.51,0,0,0,.6,18.22c0.3,2,3.58,1.52,3.53-.48A42.85,42.85,0,0,0,427,219.3c-0.53-1.79-3-1-2.73.75a26.32,26.32,0,0,0,5.5,13c1,1.24,3.05-.38,2.18-1.69a51.78,51.78,0,0,1-5.38-9.82l-2.17.91,5.15,9.11c0.66,1.17,2.77.37,2.24-.94l-3.7-9.21c-0.59-1.47-2.93-.92-2.44.67a29.3,29.3,0,0,0,6.75,11.67,1.29,1.29,0,0,0,2-1.56l-4.68-8a1.24,1.24,0,0,0-2.26,1,10.74,10.74,0,0,0,10.82,8.65c1.13,0,1.73-1.72.61-2.25a10.1,10.1,0,0,0-5.38-1.08c-1.09.06-1.79,1.72-.61,2.26a10.56,10.56,0,0,0,9.33,0c1.31-.58.36-2.57-0.95-2.25a29.16,29.16,0,0,0-5.17,1.81c-1.36.62-.36,2.63,1,2.32a25.46,25.46,0,0,0,9.95-4.57c1.14-.86.55-3-1-2.49a18.07,18.07,0,0,0-6.88,3.89,1.38,1.38,0,0,0,1.33,2.29,19.82,19.82,0,0,0,11.62-8.5c0.86-1.3-1.21-2.94-2.19-1.69a34.52,34.52,0,0,1-9,8.18l1.71,2.21a46.88,46.88,0,0,1,7.88-5.16l-1.73-2.24a27.38,27.38,0,0,1-8.9,6,1.44,1.44,0,0,0,.77,2.78,16.88,16.88,0,0,0,13.12-11.56c0.61-1.8-2.19-2.54-2.82-.78a16.29,16.29,0,0,1-4.53,6.78c-1.43,1.32.64,3.24,2.09,2.09a31.74,31.74,0,0,0,8-9.4L453.94,221l-3.27,7.29c-0.65,1.46,1.1,3.16,2.37,1.83a18.26,18.26,0,0,0,5.17-11.65c0.12-1.45-2.25-2.16-2.84-.77a58.13,58.13,0,0,1-6.86,12c-1.17,1.58,1.46,3.07,2.62,1.53a35.22,35.22,0,0,0,5.9-11.94,1.52,1.52,0,0,0-2.77-1.17,80.73,80.73,0,0,0-4.29,9.06c-0.64,1.59,2,2.69,2.78,1.17a21.94,21.94,0,0,0,1.74-16.15,1.57,1.57,0,0,0-3,0,54.65,54.65,0,0,0-2.12,11.65c-0.15,2,2.93,2,3.12,0l1-10.51h-3.12l-0.1,8.15c0,2,3,2,3.12,0,0.52-6.59.55-13.37-4.25-18.45-1.25-1.32-3.25.36-2.45,1.89a14.4,14.4,0,0,0,3.46,4.38,1.54,1.54,0,0,0,2.17-2.17,42.81,42.81,0,0,0-6.64-5.82c-1.42-1-2.95,1.16-1.81,2.34l3.61,3.75,2.08-2.08-4.12-3.22a1.44,1.44,0,0,0-2,2,28.61,28.61,0,0,0,4.9,4.12,1.42,1.42,0,0,0,1.71-2.22,13.7,13.7,0,0,1-3.36-4.42l-1.9,1.9a15.22,15.22,0,0,1,7.3,8.39l2.26-1.32a8.74,8.74,0,0,1-2.71-4.81l-2.23,1.3a18.66,18.66,0,0,1,4.91,9.82l2.45-1a63.42,63.42,0,0,1-4.1-10.46l-2.45,1A46.21,46.21,0,0,1,456,221a1.35,1.35,0,0,0,2.64-.36,26.17,26.17,0,0,0-7.19-16.75c-1-1.1-3,.36-2.11,1.63l5.25,7.56c1,1.42,3.32.07,2.33-1.36l-5.25-7.56-2.11,1.63a23.2,23.2,0,0,1,6.4,14.85l2.64-.36a48.22,48.22,0,0,0-6-15.15,1.35,1.35,0,0,0-2.45,1,67.24,67.24,0,0,0,4.38,11.09c0.72,1.44,2.7.37,2.45-1a21,21,0,0,0-5.6-11,1.35,1.35,0,0,0-2.23,1.3,14,14,0,0,0,3.38,6,1.36,1.36,0,0,0,2.26-1.32,18.06,18.06,0,0,0-8.51-10.07,1.4,1.4,0,0,0-1.9,1.9,15.28,15.28,0,0,0,3.76,5l1.71-2.22a24.23,24.23,0,0,1-4.29-3.72l-2,2,4.09,3.25a1.47,1.47,0,0,0,2.08-2.08L446,201.55l-1.81,2.34a38.71,38.71,0,0,1,6,5.41l2.17-2.17a12.58,12.58,0,0,1-2.94-3.78L447,205.24c4.18,4.42,3.79,10.6,3.34,16.24h3.12l0.1-8.15c0-2-2.93-2-3.12,0l-1,10.51h3.12a51.86,51.86,0,0,1,2-10.83h-3a18.57,18.57,0,0,1-1.36,13.79L452.9,228a71.33,71.33,0,0,1,4-8.34l-2.77-1.17a32.86,32.86,0,0,1-5.6,11.21l2.62,1.53a58.13,58.13,0,0,0,6.87-12l-2.84-.77a15.09,15.09,0,0,1-4.26,9.52l2.37,1.83,3.25-7.3c0.76-1.72-1.62-3.23-2.58-1.51a29.47,29.47,0,0,1-7.52,8.82l2.09,2.09a19.65,19.65,0,0,0,5.26-8.09l-2.82-.78a14,14,0,0,1-11.06,9.56l1.11,2.63a30.49,30.49,0,0,0,9.81-6.62,1.43,1.43,0,0,0-1.73-2.24,50.41,50.41,0,0,0-8.44,5.63c-1.24,1,.37,3.07,1.71,2.21a37,37,0,0,0,9.54-8.65l-2.19-1.69a16.84,16.84,0,0,1-9.95,7.26l1.33,2.29a13.73,13.73,0,0,1,5.66-3.2l-1-2.49a24.85,24.85,0,0,1-9.25,4.47l1,2.32A16.88,16.88,0,0,1,442,232.9L441,230.66a7.21,7.21,0,0,1-6.87,0l-0.61,2.26,4.16,0.74,0.61-2.25a8.32,8.32,0,0,1-8.44-6.9l-2.26,1,4.59,8.09,2-1.56a27.3,27.3,0,0,1-6.13-10.53l-2.44.67,3.77,9.19,2.24-.94-5.22-9.07c-0.65-1.13-2.68-.37-2.17.91a59.82,59.82,0,0,0,5.26,10.6l2.18-1.69A20.74,20.74,0,0,1,427,219.68l-2.78.38a39.76,39.76,0,0,1,.88,10.51h3.6a93.08,93.08,0,0,1-.47-17.74h-3.67a94.72,94.72,0,0,1-1.15,12.73l3.61,0.49c-0.22-5-.18-10,0.09-15h-3.64a50.71,50.71,0,0,1-1,12l3.48,0.47a98.21,98.21,0,0,1,2.94-18.17,1.54,1.54,0,0,0-2.79-1.18,43.32,43.32,0,0,0-5.19,10.11l2.89,0.8c0.64-3.82,1.4-8,5.24-9.89l-1.78-2.31A20.1,20.1,0,0,0,420.55,216h2.87a18.19,18.19,0,0,1,3.12-11.16l-2.2-.93c-0.78,4.58-1.64,9.14-2.47,13.71-0.29,1.58,2.06,2.28,2.44.67a30.29,30.29,0,0,1,7.32-13.88l-1.7-1.31a55.73,55.73,0,0,0-4,12.41,0.94,0.94,0,0,0,1.81.5,56.82,56.82,0,0,1,4-10.27,0.9,0.9,0,0,0-1-1.3c-5.61,2.06-6.48,10.19-8.06,15.12l1.71,0.23A29.33,29.33,0,0,1,429,204.6c0.31-.49-0.44-0.9-0.77-0.45h0Z" transform="translate(-84.52 -197.08)"/><path class="cls-1" d="M437.37,201.93c-3.72-.94-8.22,2.39-10.77,4.74a1.21,1.21,0,0,0,1.17,2c4.29-.76,7.8-2.93,11.42-5.2a0.9,0.9,0,0,0,.32-1.22l-0.25-.38a1.42,1.42,0,0,0-1.53-.62c-1.82.36-3.15,1.84-4.72,2.75a23.21,23.21,0,0,1-5.88,2.36l1.17,2a24.51,24.51,0,0,1,4.84-3.71c1.4-.84,3.08-1.34,4.31-2.41a0.19,0.19,0,0,0-.08-0.31h0Z" transform="translate(-84.52 -197.08)"/><path class="cls-1" d="M515.47,228.42c1.42-.6,3.25,1.85,2.48,3.08A1,1,0,0,1,516,231c-0.21-1.79,2.93-1.4,2.52.32-0.37,1.52-2.47.65-1.85-.09,0.24-.29.36,0.06,0.49,0-0.08,0-.12-0.42.27-0.43,1.08,0,1,2.32-.62,1.72l-1.15-.67a1.25,1.25,0,0,0-.24-0.6l0.36-1.32,2.77,1.56-1,1,0.27-.2-3.82-1a13.76,13.76,0,0,1,.69,1.46c1,2.15,4.29,1.41,4.84-.63a4.33,4.33,0,0,0-1.14-4.21,2.81,2.81,0,0,0-3.95,0,4.07,4.07,0,0,0,0,5.74,3.8,3.8,0,0,0,5.61-.52,3.74,3.74,0,0,0-1.19-5.34,3.94,3.94,0,0,0-5.49,2.37c-1.36,4.28,4.07,7.59,7.28,4.44s0.75-8.22-3.44-8.45c-4-.21-6.62,4.4-4.74,7.83a5.66,5.66,0,0,0,9.3.76,5.55,5.55,0,0,0-2.6-8.78c-3.42-1.08-7.36,1.9-6.59,5.58s6.37,5,7.81.94a4.32,4.32,0,0,0-1.72-4.7,2,2,0,0,0-3.19.58s0,0,0,0h0Z" transform="translate(-84.52 -197.08)"/><path class="cls-1" d="M502.9,231.44q-4.29-.94-2.69,1.17l-1.06-1.85-0.54.53,1,2.46q1.23-.68,2.43-1.42c1.87-1.12,1.23-4.6-1.18-4.37-6.67.63-11.86-4.19-16.62-8.2-1.53-1.29-3.93.32-2.86,2.21a29.55,29.55,0,0,0,12.18,11.68c3.5,2,7.23,3.9,10.63.8,1-.87,0-2.82-1.33-2.28-8.66,3.63-15.71-6.25-20.7-12-1.62-1.86-4.23.83-2.68,2.68,6.43,7.75,13.56,16.51,24.43,11.79l-1.66-2.15c-1.33,1.24-5.32-.05-6.7-0.8-1.1-.59-2.22-1.19-3.28-1.85-3.25-2-7-4.64-7.51-8.83l-3.39.92c4.66,7,11.11,13.19,20.11,10.6l-1.81-4.28c-2,1.41-4.12,2.27-4.35,4.89a2.13,2.13,0,0,0,1.08,1.88c3.09,1.64,7.26-.63,7-4.3a2.14,2.14,0,0,0-1.06-1.85c-2.95-1.37-7.67,1.06-6.78,4.71,0.95,3.88,6.73,2.84,8.53.15,1.94-2.89-.34-7.17-4-5.82-2.8,1-4.34,6.09-1,7.43,2.7,1.08,7-1.91,5.82-5a3.14,3.14,0,0,0-5.75-.19,3,3,0,0,0,4,4c1.69-.85,2.47-4.06-0.11-3.82a0.32,0.32,0,0,0-.28.16l-0.27.61c-0.1.22,0.19,0.51,0.37,0.28h0Z" transform="translate(-84.52 -197.08)"/><path class="cls-1" d="M485.05,223c4.48-.13,8-0.51,10.76-4.49a10.67,10.67,0,0,0,0-12.2c-2.64-3.84-6.89-4.67-11.27-4.73-7.83-.12-15.68.36-23.51,0.14v3.41c6.15,0.18,12.08,0,18.23-.38,2.8-.18,6.77-0.79,9,1.34,1,1,1.47,3.06,1.79,4.44q0.15,1.13.34,2.26,0,1.66,1.13-.17l1.06,1.06v-0.2a0.86,0.86,0,0,0-.84-0.84l-0.22,0a1.08,1.08,0,0,0-1.06,1.06l0,0.31a1.37,1.37,0,0,0,1.72,1.31c2.26-.53,2.17-3.43,2.09-5.33a9.94,9.94,0,0,0-5-8.58c-3.59-1.92-8-1.41-11.88-1.23-5.7.25-11.13,0.84-16.76,1.63-1.89.27-1.46,3.48,0.45,3.35,4.88-.33,9.8-0.37,14.68-0.54,4.06-.15,8.9-0.92,12.84.2,5.83,1.66,7.95,9.1,3.42,13.28-2.19,2-5.74,1.74-7.26,4.33a0.41,0.41,0,0,0,.35.62h0Z" transform="translate(-84.52 -197.08)"/><path class="cls-1" d="M487.82,206.49q1.84-.51,2.43.9a12.14,12.14,0,0,1,.81,1.69,9.69,9.69,0,0,1,.55,2.47,10.14,10.14,0,0,1-1.16,5.48l2.42,0.32a17.81,17.81,0,0,1-1.23-5.84,0.33,0.33,0,0,0-.64-0.09,34.77,34.77,0,0,0-.73,6.28,1.33,1.33,0,0,0,2.47.67,11,11,0,0,0-1.25-11.94c-0.7-.82-2.11-2.35-3.37-1.71a1.07,1.07,0,0,0-.34,1.78,0,0,0,0,0,0,0h0Z" transform="translate(-84.52 -197.08)"/><path class="cls-1" d="M482.2,204.39c1.46,1.57,3.88,2.65,4.86,4.61,1.58,3.16-1.58,6.61-3.83,8.42-1,.8-6,2.84-3.51,4.81a1.94,1.94,0,0,0,2.23.29c3.88-2,8.34-6,8.47-10.72,0.12-4.37-4-7.57-8.08-7.75a0.2,0.2,0,0,0-.14.34h0Z" transform="translate(-84.52 -197.08)"/><path class="cls-1" d="M480.68,221.08c3.48-.08,6.93-2.66,8.48-5.71,1.82-3.56.78-7.64-1.7-10.57-1.43-1.69-3.58.47-2.83,2.18,1.39,3.19,2.22,5.48.3,8.72-1.17,2-3.08,3.3-4.37,5.18a0.13,0.13,0,0,0,.11.19h0Z" transform="translate(-84.52 -197.08)"/><path class="cls-1" d="M486.54,205c1.61,4.33,2.18,8.5-.45,12.58l2.58,1.09c0.85-2.84,1.73-5.68,2.67-8.5l-2.71.35c2,4-1.51,7.16-5,8.26-2.33.72-1.36,4.33,1,3.67a16.39,16.39,0,0,0,10.3-8.5l-3.68-1a6,6,0,0,1-4.12,5.1l1.51,3.58c3.68-2.49,9.78-8.84,6.22-13.58a1.56,1.56,0,0,0-2.88.78c-0.15,2,0,3.54-1.2,5.35a13.9,13.9,0,0,1-4.11,4.06c-1.74,1.17-.71,4.34,1.51,3.58a10.11,10.11,0,0,0,7-8.88c0.21-2-2.83-2.68-3.68-1a13.23,13.23,0,0,1-7.89,6.82l1,3.67c5.4-2.2,9.72-7.55,6.59-13.42a1.5,1.5,0,0,0-2.71.35c-0.87,2.84-1.73,5.68-2.54,8.53a1.42,1.42,0,0,0,2.58,1.09c2.8-4.48,1.83-10.35-1.37-14.37a0.38,0.38,0,0,0-.63.36h0Z" transform="translate(-84.52 -197.08)"/><path class="cls-1" d="M487.38,213.5l0.11,0a0.1,0.1,0,0,0,.12-0.07l0-.17a0.13,0.13,0,0,0-.09-0.16c-0.64-.21-0.89.29-1.41,0.66a29,29,0,0,1-6,3.64c-2.34.94-4.35,0.81-6.75,1-1.26.1-2.19,0.29-2.79,1.49a1.53,1.53,0,0,0,.23,1.76c2,2.58,8.51,1.64,11.34,1.35a1.5,1.5,0,0,0,.4-2.92,10.87,10.87,0,0,0-4.23-.58c-1.43.11-2.75,0.86-4.19,0.78-1.61-.08-1.76,2.21-0.36,2.69a3.78,3.78,0,0,0,2.66,0,8.77,8.77,0,0,1,5.33,0l0.4-2.92c-1.51.2-8.15,1.36-9.06-.14v1.47c0.08-.17,3.87-0.44,4.3-0.55a20,20,0,0,0,4.58-1.76,12.84,12.84,0,0,0,3.75-3.06c0.23-.27,2-2.71,1.64-2.68a0.08,0.08,0,0,0,0,.16h0Z" transform="translate(-84.52 -197.08)"/><path class="cls-1" d="M473.06,223.91a1,1,0,0,0,.18-1,0.27,0.27,0,0,0-.51-0.14c-1.78,2.32-.93,6.54-0.83,9.26a1.5,1.5,0,0,0,1.49,1.49,11.27,11.27,0,0,1,2.32.08l-1.23-.7,0.29,0.47,2.68-2.68c-3.67-2.18-9.45-1-13.41-.17a2.72,2.72,0,0,0-1.92,1.92,2.43,2.43,0,0,0,.71,2.67c1.24,1.14,2.61.7,4.12,0.48,3.41-.51,7.35,0,10.5-1.51,2.25-1.08.25-4.64-2-3.38a8.22,8.22,0,0,1-2.08-.14l1.49,1.49c-0.16-2.77.32-7.14-1.71-9.31l-0.38.38,0.14,0.78a0.08,0.08,0,0,0,.15.06h0Z" transform="translate(-84.52 -197.08)"/><path class="cls-1" d="M462.85,204.5c1.65,3.82.9,9.21,1,13.33,0.12,4.36.36,8.72,0.57,13.08a1.23,1.23,0,0,0,2.46,0q0-11.69,0-23.37l-2.24.61c1.57,2.9,1.08,8.12,1.22,11.42s0.21,6.49.24,9.74h2.34c-0.25-7.54-.43-15.09-0.61-22.63H465.6l2.48,22.08a1.16,1.16,0,0,0,2.32,0c0.56-6.91-1.05-13.82.33-20.67l-2.35-.32q0.45,10.74.94,21.47a1.24,1.24,0,0,0,2.48,0,152.09,152.09,0,0,0,1-21.89,1.24,1.24,0,0,0-2.47,0l0.31,19.41a1.23,1.23,0,0,0,2.46,0,154.82,154.82,0,0,0,.33-22,1.19,1.19,0,0,0-1.18-1.18,21,21,0,0,1-7.71-.54,1.37,1.37,0,0,0-.73,2.64,45.28,45.28,0,0,0,5.91,1.87l0.36-2.68c-2.06,0-3,.3-4.16,1.9l1.81-.47-0.05-.17-2.39,1c2.72,4,7.11,1.7,7.93-2.42l-2.32-.31a238.29,238.29,0,0,1,.62,25.64,1.13,1.13,0,0,0,2.25,0c0.24-8.57,0-17.09-.51-25.64a1.19,1.19,0,0,0-2.32-.31l-3.39,1.72a1.31,1.31,0,0,0-2.39,1,2.13,2.13,0,0,0,1.24,1.76,1.36,1.36,0,0,0,1.81-.47l1.87-.51a1.37,1.37,0,0,0,.36-2.68c-2-.54-4-1.15-5.91-1.88l-0.73,2.64a19.75,19.75,0,0,0,8.75.22l-1.49-1.14c0.6,7.36.11,14.69-.43,22h2.46l-0.3-19.41h-2.47a152.09,152.09,0,0,1-1,21.89h2.48q-0.49-10.74-1-21.47c-0.06-1.28-2.07-1.71-2.35-.32-1.4,7.09.21,14.17-.35,21.31h2.32l-2.55-22.08c-0.16-1.4-2.29-1.49-2.25,0,0.2,7.54.4,15.09,0.53,22.63a1.17,1.17,0,0,0,2.34,0c0-4.55-.14-9.09-0.4-13.63-0.17-2.89.07-6.14-1.33-8.74a1.21,1.21,0,0,0-2.24.61q0,11.69-.07,23.37h2.46c-0.28-5.3-.58-10.59-1-15.88-0.29-3.72.14-7.94-2-11.12a0.59,0.59,0,0,0-1,.59h0Z" transform="translate(-84.52 -197.08)"/></svg>