<svg id="Layer_1" data-name="Layer 1" xmlns="http://www.w3.org/2000/svg" xmlns:xlink="http://www.w3.org/1999/xlink" viewBox="0 0 2949.84 1707.63"><defs><style>.cls-1{fill:url(#radial-gradient);}.cls-2{fill:#fff;}.cls-3{fill:url(#radial-gradient-2);}.cls-4{fill:none;}.cls-5{fill:url(#radial-gradient-3);}.cls-6{fill:url(#radial-gradient-4);}.cls-7{fill:url(#radial-gradient-5);}.cls-8{fill:url(#radial-gradient-6);}.cls-12,.cls-9{stroke:#fff;stroke-miterlimit:10;stroke-width:1.04px;}.cls-9{fill:url(#radial-gradient-7);}.cls-10{fill:url(#radial-gradient-8);}.cls-11{fill:url(#radial-gradient-9);}.cls-12{fill:url(#radial-gradient-10);}.cls-13{fill:url(#radial-gradient-11);}.cls-14{fill:url(#radial-gradient-12);}</style><radialGradient id="radial-gradient" cx="207.98" cy="187" r="187" gradientUnits="userSpaceOnUse"><stop offset="0" stop-color="#bdb433"/><stop offset="0.11" stop-color="#bdb433" stop-opacity="0.96"/><stop offset="0.27" stop-color="#bdb433" stop-opacity="0.83"/><stop offset="0.48" stop-color="#bdb433" stop-opacity="0.63"/><stop offset="0.73" stop-color="#bdb433" stop-opacity="0.36"/><stop offset="0.99" stop-color="#bdb433" stop-opacity="0.01"/><stop offset="1" stop-color="#bdb433" stop-opacity="0"/></radialGradient><radialGradient id="radial-gradient-2" cx="1061.36" cy="209.89" r="187" xlink:href="#radial-gradient"/><radialGradient id="radial-gradient-3" cx="1895.48" cy="202.87" r="187" xlink:href="#radial-gradient"/><radialGradient id="radial-gradient-4" cx="2762.84" cy="193.83" r="187" xlink:href="#radial-gradient"/><radialGradient id="radial-gradient-5" cx="216.21" cy="852.6" r="187" xlink:href="#radial-gradient"/><radialGradient id="radial-gradient-6" cx="1055.56" cy="848.98" r="187" xlink:href="#radial-gradient"/><radialGradient id="radial-gradient-7" cx="1899.28" cy="851.39" r="187" xlink:href="#radial-gradient"/><radialGradient id="radial-gradient-8" cx="2726.44" cy="835.91" r="187" xlink:href="#radial-gradient"/><radialGradient id="radial-gradient-9" cx="187" cy="1509.07" r="187" xlink:href="#radial-gradient"/><radialGradient id="radial-gradient-10" cx="1077.9" cy="1502.8" r="187" xlink:href="#radial-gradient"/><radialGradient id="radial-gradient-11" cx="1899.73" cy="1515.42" r="187" xlink:href="#radial-gradient"/><radialGradient id="radial-gradient-12" cx="2753.55" cy="1520.63" r="187" xlink:href="#radial-gradient"/></defs><title>Untitled-1</title><circle class="cls-1" cx="207.98" cy="187" r="187"/><path class="cls-2" d="M371.72,302.2a8.64,8.64,0,0,0-5-1.5,9.64,9.64,0,0,0-8.83,4.69Q355,310.09,355,318.73q0,7.95,2.57,12.58a9.43,9.43,0,0,0,9.14,5.13,8.77,8.77,0,0,0,4.76-1.38q4.13-2.57,5.45-9.39a36.19,36.19,0,0,0,.63-6.95,39.23,39.23,0,0,0-.56-6.82Q375.85,305.08,371.72,302.2Zm-5,23.16-7-6.63,7-7.32,6.95,7.32Z" transform="translate(-158.06 -100.56)"/><path class="cls-2" d="M491.64,248.93c-0.24-5.29-.63-10.7-2.73-15.56a27,27,0,0,0-2.09-7,41.2,41.2,0,0,0-3.55-6.86c-7.05-15.26-19.5-27.8-35.56-33.78A53.55,53.55,0,0,0,385,204.57c-12.82,17.84-16.13,41.46-19,63.08-2.49-19.22-5.76-38.77-14.78-55.79-11.74-22.14-35-32.66-59.4-27.75-19.43,3.91-34.79,18.26-43,35.84a39.92,39.92,0,0,0-3.63,7,27.36,27.36,0,0,0-2.07,6.91c-2.15,4.86-2.49,10.37-2.75,15.66a80.13,80.13,0,0,0,1.72,19.5c0.83,4.12,1.28,8.14,3.2,11.46,0.33,0.93.68,1.85,1.06,2.77,8.17,19.71,31.16,39.44,53.74,30.76,20.38-7.84,28.84-32.91,25.7-53-2.84-18.15-21.7-45.23-42.16-29.64-8.84,6.74-12.44,21.79-5.32,31.06a10.24,10.24,0,0,0,7.67,4.25,8.7,8.7,0,0,0,6.13-1.48,9.13,9.13,0,0,0,3.45-7c0-2.24-.72-5.54-2.85-6.65a0.14,0.14,0,0,0-.21.13,0.22,0.22,0,0,0-.2.19c-0.09.55-.18,1.12-0.29,1.69-1,2.11-2.8,4.31-5,2.13a4.54,4.54,0,0,1-1.12-2c0-.77,0-1.54,0-2.19a14.22,14.22,0,0,1,3.43-9.08c6.46-7,13.61.8,16.62,6.83a28.92,28.92,0,0,1,2.32,20.35c-0.1.24-.2,0.49-0.31,0.73-2.3,4.74-6.9,8.2-11.8,10.11-9.85,1.86-20.23,0-25.14-10-3-6.05-4-12.53-4.19-19.22-0.09-3.3.71-7.22,0.87-11,4.11-14.9,13.8-28.19,29.26-31.81,6.62-1.55,14.4-1.06,20.36,2.26,7,3.89,11.51,10.74,14.55,18.09,8.19,19.76,9.59,42.45,12.43,63.44,0.07,0.5.14,1,.21,1.5a15.69,15.69,0,0,0-11,3.93c-3.71,3.16-7.06,9.12-8.14,15.06a9.64,9.64,0,0,0-4.51,0c-5.92,1.46-9.47,7.08-11.09,12.57a18.84,18.84,0,0,0,2.53,16.39,10.85,10.85,0,0,0-1.07.87c-4.74,4.44-5.61,11.81-4,17.78a25.07,25.07,0,0,0,7,11.66A22.5,22.5,0,0,0,330,389.11a23.19,23.19,0,0,0,20.23-3.69,21.45,21.45,0,0,0,19.29,7.26,19.34,19.34,0,0,0,4.41-1.17,11.54,11.54,0,0,0,6.75-4.4,19.49,19.49,0,0,0,2.1-2.43c9,7.56,23.08,8.37,32.8.4,7.7-6.31,16.13-27,6.55-35.1a23.61,23.61,0,0,0,3.85-14.31c-0.46-7.38-4.57-13.59-11.71-15.91a14.44,14.44,0,0,0-3.83-.68c0.69-8-4-15.86-9.28-21.63-3.39-3.74-8.8-6-13.43-5.09,2.56-19.47,4.46-39.27,10.39-58,2.41-7.6,5.82-15.13,11.67-20.62s12.67-7,20.24-6.6c15.53,0.74,27.9,13.24,33.08,28.16,0.5,1.43.94,2.87,1.34,4.33,0.16,3.75,1,7.69.87,11-0.19,6.72-1.25,13.12-4.19,19.22-4.84,10-15.33,11.83-25.21,9.95-4.87-1.89-9.47-5.4-11.73-10.09-0.12-.25-0.21-0.5-0.32-0.75a29,29,0,0,1,1.79-19.13c2.58-5.81,9.3-14.93,16.33-9,2.75,2.34,4.14,6.49,4.25,10,0,0.58,0,1.31,0,2A4.76,4.76,0,0,1,445,255.1c-2.22,2.2-4,0-5-2.13-0.11-.57-0.2-1.14-0.29-1.69a0.22,0.22,0,0,0-.2-0.19,0.14,0.14,0,0,0-.21-0.13c-2.13,1.11-2.86,4.4-2.85,6.65a9.12,9.12,0,0,0,3.45,7,8.82,8.82,0,0,0,8.23,1,7.88,7.88,0,0,0,3.24-1.38c8-5.91,7.14-19.4,2.64-27.09-5.35-9.16-17-13.33-26.74-8.85-9.38,4.32-15.75,14.28-19,23.75-6.76,19.7-1.18,44.19,15.82,57,20.16,15.18,46,.53,57.52-18.31a58.74,58.74,0,0,0,5.24-11c1.8-3.28,2.26-7.19,3.07-11.22A81.2,81.2,0,0,0,491.64,248.93Zm-198.71,4.18,0.13,0.38a0.27,0.27,0,0,0-.13.25h0C292.91,253.51,292.92,253.31,292.93,253.11ZM389.56,315a28.36,28.36,0,0,0,3.76,3.32,23.64,23.64,0,0,0-3.82,3.38,19.11,19.11,0,0,1-5.88,11.39,22.33,22.33,0,0,1-7.42,4.48,27,27,0,0,1-9.48,1.6,30.68,30.68,0,0,1-9.58-1.38q-8.76-2.88-12.52-10.39a45.73,45.73,0,0,1-1.69-5.38,28.63,28.63,0,0,0-3.76-3.32q0.5-.12,3.76-3.32a17.1,17.1,0,0,1,1.69-5,20.17,20.17,0,0,1,12.46-10.89,30.37,30.37,0,0,1,9.64-1.44,28.12,28.12,0,0,1,8.7,1.38,22.85,22.85,0,0,1,9.33,5.88A17.75,17.75,0,0,1,389.56,315Zm49.61-61.78a0.27,0.27,0,0,0-.14-0.25l0.13-.38c0,0.21,0,.41,0,0.62h0Zm7.66,8a1.79,1.79,0,0,0,.05.29l-0.15.05-0.26,0C446.59,261.49,446.71,261.36,446.83,261.23Z" transform="translate(-158.06 -100.56)"/><circle class="cls-3" cx="1061.36" cy="209.89" r="187"/><path class="cls-4" d="M1218.66,394.14l0.19,0.14s0-.09,0-0.14h-0.18Z" transform="translate(-158.06 -100.56)"/><path class="cls-4" d="M1214,393.94a40.91,40.91,0,0,1-7.27,0c0.08,4.67,2.55,10.92,8.12,8.42,3.42-1.54,4.29-4.79,4-8.09l-0.19-.14A42.26,42.26,0,0,1,1214,393.94Z" transform="translate(-158.06 -100.56)"/><path class="cls-2" d="M1226,302.45a10.44,10.44,0,0,0-6.22-1.94q-7.38,0-10.93,5.88t-3.54,16.56q0,9.81,3.21,15.54a11.43,11.43,0,0,0,11.27,6.51,10.75,10.75,0,0,0,5.93-1.75q5.15-3.21,6.8-11.75a49.79,49.79,0,0,0,.68-8.55,58.4,58.4,0,0,0-.58-8.45Q1231.18,306,1226,302.45Zm-6.22,28.75-8.74-8.26,8.74-9.13,8.64,9.13Z" transform="translate(-158.06 -100.56)"/><path class="cls-2" d="M1327.52,240.27c3.76-11.82,6.88-26,1.83-38.08a0.86,0.86,0,0,0-1.54-.2c-4.82,10.14-9,20.45-17.39,28.32-7.93,7.41-16.92,12.89-27,17.81-0.22.11-2.33,1.08-2.89,1.36-1.83.76-3.75,1.48-5.49,2.42l-0.4.22-0.44.16c-1.54.57-3.08,1.1-4.63,1.65a134.14,134.14,0,0,1-21.44,5.93l-0.39.05a66,66,0,0,0-56.44-.8q-2.58-.56-5.13-1.23c-3.27-.87-6.48-1.91-9.67-3-1.67-.58-3.34-1.18-5-1.79-1.1-.4-4.58-2-1.62-0.62-2-.95-4.1-1.82-6.15-2.72,0,0-2.47-1.17-3-1.42-3-1.46-5.82-3.13-8.67-4.82a115.15,115.15,0,0,1-14.61-9.89c-10.52-8.43-15.48-19.59-21.1-31.42a0.86,0.86,0,0,0-1.54.2c-4.22,10.08-2.94,23.48.19,33.65,3.69,12,9.23,23.17,17.52,32.8a78.45,78.45,0,0,0,21.81,17.49c-4,.83-7.91,2-12,2.74-5.48,1-13.16,2.85-15.92,8.23a2,2,0,0,0,2.17,2.82c4.34-.73,7.54-2.82,11.17.9,3.25,3.32,5.35,6.5,10.17,7.7a18.32,18.32,0,0,0,3.31.5v0.07c-4.22,8.88-2.52,19.37-.76,28.73,3.5,18.64,12.62,36.42,24.3,51.2q2,2.57,4.29,5c3.29,15.14,8.57,29.83,25.45,33.87-0.26,3.81.29,7.59,2.62,10.81a11.5,11.5,0,0,0,11.12,4.9c7.64-1.34,10.56-8.27,10.12-15.07,0.79-.12,1.58-0.24,2.35-0.41,17.42-3.71,22.8-18.76,26.13-34.06a111.58,111.58,0,0,0,6.85-10,134.13,134.13,0,0,0,12.17-24,120.51,120.51,0,0,0,6.9-26.72,59.64,59.64,0,0,0,1-12,29.47,29.47,0,0,0-.9-5c-0.09-2.17-.3-4.3-0.59-6.41,0.37-.07.75-0.14,1.12-0.24,4.42-1.18,6.75-4.09,9.72-7.22,3.82-4,6.78-2.19,11.63-1.38a2,2,0,0,0,2.17-2.82c-2.77-5.4-10.42-7.26-15.92-8.23-2.63-.46-5.17-1.11-7.7-1.74a85.37,85.37,0,0,0,19.37-12.87A79.27,79.27,0,0,0,1327.52,240.27Zm-106.9,197.46c-5.8,2.61-8.37-3.91-8.46-8.77a42.63,42.63,0,0,0,7.57,0,44,44,0,0,0,4.85.21h0.19s0,0.09,0,.14C1225.09,432.74,1224.18,436.13,1220.62,437.73Zm27.56-111.19a23.64,23.64,0,0,1-7.38,14.18,27.71,27.71,0,0,1-9.18,5.59,33.34,33.34,0,0,1-11.8,2,36.8,36.8,0,0,1-11.85-1.75q-10.88-3.59-15.54-12.92a42.89,42.89,0,0,1-2.14-6.7,40.37,40.37,0,0,0-4.66-4.08q0.68-.19,4.66-4.18a25.23,25.23,0,0,1,2.14-6.22q4.56-9.71,15.44-13.4a36.45,36.45,0,0,1,11.95-1.85A33.86,33.86,0,0,1,1230.6,299a27.79,27.79,0,0,1,11.56,7.28,21.42,21.42,0,0,1,6,12,34.62,34.62,0,0,0,4.66,4.18Q1252.16,322.66,1248.18,326.54Z" transform="translate(-158.06 -100.56)"/><circle class="cls-5" cx="1895.48" cy="202.87" r="187"/><path class="cls-2" d="M1999.3,229.74a0.05,0.05,0,0,0,0-.1,0.05,0.05,0,0,0,0,.1h0Z" transform="translate(-158.06 -100.56)"/><path class="cls-2" d="M2003.21,210.17a4.24,4.24,0,0,0-2.48-.88,4.82,4.82,0,0,0-4.51,2.19,15.94,15.94,0,0,0-.64,12.89,5.08,5.08,0,0,0,1.65,2,5.16,5.16,0,0,0,2.8.79,4.37,4.37,0,0,0,2.42-.61q2.13-1.21,2.94-4.62a19.9,19.9,0,0,0,.41-3.42,23.29,23.29,0,0,0-.1-3.4A7,7,0,0,0,2003.21,210.17Zm-3,11.46-3.41-3.45,3.68-3.53,3.35,3.8Z" transform="translate(-158.06 -100.56)"/><path class="cls-2" d="M2055.06,315.81c-1.67-7.72-5.17-14.12-8.92-20.41-4.29-7.21-7.88-14.72-13.5-20.49a82.87,82.87,0,0,0-18.07-14.53c-2.12-1.22-4.27-2.52-6.45-3.7a49.56,49.56,0,0,0-.13-9.17,18.75,18.75,0,0,0,3.15-1.95c6.74-5.14,11.28-15.65,10.58-25.72a36.31,36.31,0,0,0-1-6.44,16,16,0,0,0-.68-5c-1.87-6.12-4.65-11-9.41-13.72a19.82,19.82,0,0,0-14.87-2.51c-8.31,1.81-15.08,10.84-17.2,21.07-2.3,11.1.83,22.81,7.9,29.79a23.73,23.73,0,0,0,3.4,2.78,47.78,47.78,0,0,1,.49,8.08,9.36,9.36,0,0,0-1.89,1.81c-2.85,1.42-5.64,3.14-8.4,4.7A82.42,82.42,0,0,0,1962,274.91c-5.6,5.75-9.28,13.23-13.5,20.49-3.7,6.37-7.24,12.65-8.92,20.41a0.81,0.81,0,0,0,.86,1.1c5.86-2,10.88-6.29,15.92-10.45,4.51-3.72,9.57-6.51,14.37-9.74-1.11,8.75-2.29,17.64-2.78,26.47a36.52,36.52,0,0,0,.81,10.15c-1.77,7-3.48,14-4.88,21.1a139.73,139.73,0,0,0-2.4,28.94c0,7.44-2.46,17.41.14,24.41a2,2,0,0,0,1.81,1.33,1.63,1.63,0,0,0,1.35-.57c8.56-14.06,17.55-27.74,23.14-44.25,1.6-4.73,3.08-9.54,4.51-14.38,1.31,0,2.6-.14,3.87-0.24l2.93-.22c2,6.81,4.09,13.58,6.4,20.24,3.42,9.88,8.47,17.14,13.31,25.83,1.92,3.45,5.56,14.45,9.44,15l0.38,0.06a2,2,0,0,0,1.81-1.33c2.47-6.65.27-16,.19-23-0.13-10.58-.38-19.91-2.44-30.31-1.52-7.67-3.41-15.25-5.32-22.79a54.28,54.28,0,0,0,1-13.91,149.77,149.77,0,0,0-2.82-24.42c5.31,3.93,11.09,6.94,16.32,11,5.46,4.21,10.43,9,16.69,11.14A0.81,0.81,0,0,0,2055.06,315.81Zm-50.27-87.93a13.58,13.58,0,0,1-4.8.62,15,15,0,0,1-4.77-.89,10.25,10.25,0,0,1-6.08-5.43,17.08,17.08,0,0,1-.76-2.73,16.33,16.33,0,0,0-1.82-1.71,10.78,10.78,0,0,0,2-1.61,10.58,10.58,0,0,1,7.42-7.61,14.85,14.85,0,0,1,4.86-.55,13.79,13.79,0,0,1,4.33.87,11.25,11.25,0,0,1,4.56,3.11,8.59,8.59,0,0,1,2.25,4.93,14,14,0,0,0,1.82,1.75,10.9,10.9,0,0,0-2,1.57,9.49,9.49,0,0,1-3.21,5.58A11.24,11.24,0,0,1,2004.78,227.88Z" transform="translate(-158.06 -100.56)"/><path class="cls-2" d="M2106.44,215.12a23.29,23.29,0,0,0-.1,3.4,19.9,19.9,0,0,0,.41,3.42q0.8,3.41,2.94,4.62a4.37,4.37,0,0,0,2.42.61,5.16,5.16,0,0,0,2.8-.79,5.08,5.08,0,0,0,1.65-2,15.94,15.94,0,0,0-.64-12.89,4.82,4.82,0,0,0-4.51-2.19,4.24,4.24,0,0,0-2.48.88A7,7,0,0,0,2106.44,215.12Zm1.82,3.33,3.35-3.8,3.68,3.53-3.41,3.45Z" transform="translate(-158.06 -100.56)"/><path class="cls-2" d="M2057.93,316.91c6.26-2.19,11.23-6.93,16.69-11.14,5.23-4,11-7,16.32-11a149.77,149.77,0,0,0-2.82,24.42,54.28,54.28,0,0,0,1,13.91c-1.91,7.54-3.8,15.12-5.32,22.79-2.06,10.41-2.31,19.73-2.44,30.31-0.09,7-2.29,16.39.19,23a2,2,0,0,0,1.81,1.33l0.38-.06c3.88-.57,7.52-11.57,9.44-15,4.84-8.69,9.89-16,13.31-25.83,2.31-6.66,4.39-13.43,6.4-20.24l2.93,0.22c1.27,0.1,2.57.19,3.87,0.24,1.43,4.84,2.91,9.65,4.51,14.38,5.59,16.51,14.58,30.19,23.14,44.25a1.63,1.63,0,0,0,1.35.57,2,2,0,0,0,1.81-1.33c2.6-7,.11-17,0.14-24.41a139.73,139.73,0,0,0-2.4-28.94c-1.4-7.09-3.12-14.11-4.88-21.1a36.52,36.52,0,0,0,.81-10.15c-0.49-8.83-1.67-17.72-2.78-26.47,4.8,3.23,9.86,6,14.37,9.74,5,4.17,10.06,8.41,15.92,10.45a0.81,0.81,0,0,0,.86-1.1c-1.68-7.76-5.22-14-8.92-20.41-4.22-7.26-7.9-14.74-13.5-20.49a82.42,82.42,0,0,0-18.07-14.53c-2.76-1.57-5.56-3.28-8.4-4.7a9.36,9.36,0,0,0-1.89-1.81,47.78,47.78,0,0,1,.49-8.08,23.73,23.73,0,0,0,3.4-2.78c7.07-7,10.2-18.68,7.9-29.79-2.12-10.23-8.89-19.26-17.2-21.07a19.82,19.82,0,0,0-14.87,2.51c-4.76,2.75-7.54,7.6-9.41,13.72a16,16,0,0,0-.68,5,36.31,36.31,0,0,0-1,6.44c-0.7,10.07,3.84,20.59,10.58,25.72a18.75,18.75,0,0,0,3.15,1.95,49.56,49.56,0,0,0-.13,9.17c-2.18,1.18-4.33,2.48-6.45,3.7a82.87,82.87,0,0,0-18.07,14.53c-5.61,5.77-9.21,13.28-13.5,20.49-3.74,6.29-7.25,12.69-8.92,20.41A0.81,0.81,0,0,0,2057.93,316.91Zm45.61-91.13a9.49,9.49,0,0,1-3.21-5.58,10.9,10.9,0,0,0-2-1.57,14,14,0,0,0,1.82-1.75,8.59,8.59,0,0,1,2.25-4.93,11.25,11.25,0,0,1,4.56-3.11,13.79,13.79,0,0,1,4.33-.87,14.85,14.85,0,0,1,4.86.55,10.58,10.58,0,0,1,7.42,7.61,10.78,10.78,0,0,0,2,1.61,16.33,16.33,0,0,0-1.82,1.71,17.08,17.08,0,0,1-.76,2.73,10.25,10.25,0,0,1-6.08,5.43,15,15,0,0,1-4.77.89,13.58,13.58,0,0,1-4.8-.62A11.24,11.24,0,0,1,2103.55,225.78Z" transform="translate(-158.06 -100.56)"/><circle class="cls-6" cx="2762.84" cy="193.83" r="187"/><path class="cls-2" d="M2989.49,247.06a8.07,8.07,0,0,0-4.81-1.5,9.18,9.18,0,0,0-8.45,4.54q-2.74,4.55-2.74,12.81,0,7.59,2.48,12a8.84,8.84,0,0,0,8.71,5,8.31,8.31,0,0,0,4.58-1.35q4-2.48,5.26-9.09a38.56,38.56,0,0,0,.53-6.61,45.15,45.15,0,0,0-.45-6.53Q2993.47,249.84,2989.49,247.06Zm-4.81,22.23-6.76-6.38,6.76-7.06,6.69,7.06Z" transform="translate(-158.06 -100.56)"/><path class="cls-2" d="M3027.61,260.76c-4.2-28-35.94-43.08-60.76-48.33-29.91-6.33-61.27-1.88-89.2,10-12.81,5.47-25.47,12.45-35.69,22-9.28,8.69-18.07,20.62-18.53,33.72a2,2,0,0,0,3.41,1.41c5.49-5,10.28-10.67,16-15.36a145.77,145.77,0,0,1,18.43-12.81c13.48-7.91,28.29-12.56,43.45-16a138.93,138.93,0,0,1,41.66-3.29c-15.73,22.14-5.53,55.89,19.5,67C2993.56,311.37,3032.77,295.2,3027.61,260.76Zm-21,4.93a18.27,18.27,0,0,1-5.71,11,21.42,21.42,0,0,1-7.1,4.32,25.78,25.78,0,0,1-9.13,1.54,28.46,28.46,0,0,1-9.16-1.35,19.63,19.63,0,0,1-12-10,33.24,33.24,0,0,1-1.65-5.18,31.19,31.19,0,0,0-3.61-3.15,20.69,20.69,0,0,0,3.61-3.23,20.33,20.33,0,0,1,13.6-15.17,28.18,28.18,0,0,1,9.24-1.43,26.19,26.19,0,0,1,8.34,1.35A21.5,21.5,0,0,1,3002,250a16.57,16.57,0,0,1,4.66,9.31,26.8,26.8,0,0,0,3.61,3.23A20.85,20.85,0,0,0,3006.61,265.69Z" transform="translate(-158.06 -100.56)"/><path class="cls-2" d="M3026.1,313.41c-5.49,5-10.28,10.67-16,15.36a145.77,145.77,0,0,1-18.43,12.81c-13.48,7.91-28.29,12.56-43.45,16a138.93,138.93,0,0,1-41.66,3.29c15.73-22.14,5.53-55.89-19.5-67-27.67-12.25-66.88,3.92-61.72,38.36,4.2,28,35.94,43.08,60.76,48.33,29.91,6.33,61.27,1.88,89.2-10,12.81-5.47,25.47-12.45,35.69-22,9.28-8.69,18.07-20.62,18.53-33.72A2,2,0,0,0,3026.1,313.41ZM2891.41,333.5a18.27,18.27,0,0,1-5.71,11,21.42,21.42,0,0,1-7.1,4.32,25.78,25.78,0,0,1-9.13,1.54,28.46,28.46,0,0,1-9.16-1.35,19.63,19.63,0,0,1-12-10,33.24,33.24,0,0,1-1.65-5.18,31.19,31.19,0,0,0-3.61-3.15,20.69,20.69,0,0,0,3.61-3.23,20.33,20.33,0,0,1,13.6-15.17,28.18,28.18,0,0,1,9.24-1.43,26.19,26.19,0,0,1,8.34,1.35,21.5,21.5,0,0,1,8.94,5.63,16.57,16.57,0,0,1,4.66,9.31,26.8,26.8,0,0,0,3.61,3.23A20.85,20.85,0,0,0,2891.41,333.5Z" transform="translate(-158.06 -100.56)"/><path class="cls-2" d="M2874.29,314.87a8.07,8.07,0,0,0-4.81-1.5,9.18,9.18,0,0,0-8.45,4.54q-2.74,4.55-2.74,12.81,0,7.59,2.48,12a8.84,8.84,0,0,0,8.71,5,8.31,8.31,0,0,0,4.58-1.35q4-2.48,5.26-9.09a38.56,38.56,0,0,0,.53-6.61,45.15,45.15,0,0,0-.45-6.53Q2878.27,317.65,2874.29,314.87Zm-4.81,22.23-6.76-6.38,6.76-7.06,6.69,7.06Z" transform="translate(-158.06 -100.56)"/><circle class="cls-7" cx="216.21" cy="852.6" r="187"/><path class="cls-2" d="M442.77,992.36a84.68,84.68,0,0,0-4.91,14.71l3.37,0.46a26.67,26.67,0,0,1,4.32-11.65l-4.16-1.75c-1.43,3.8-2.78,7.62-4.1,11.46l5,1.37a77.79,77.79,0,0,1,4.49-11.11c1.5-3,3.08-5.39,3.48-8.76a1.72,1.72,0,0,0-2.58-1.48c-5.94,3.85-8.44,13.53-10.36,20-0.95,3.19,4,4.52,5,1.37,1.22-3.86,2.41-7.73,3.52-11.62,0.7-2.45-2.92-4-4.16-1.75a31.22,31.22,0,0,0-3.82,13.95c-0.07,1.9,3,2.38,3.37.46A85.09,85.09,0,0,0,443,992.44a0.15,0.15,0,0,0-.27-0.07h0Z" transform="translate(-158.06 -100.56)"/><path class="cls-2" d="M336.55,948.23a12.28,12.28,0,0,0-7.31-2.29q-8.68,0-12.85,6.91t-4.17,19.48q0,11.54,3.77,18.28a13.44,13.44,0,0,0,13.25,7.66,12.64,12.64,0,0,0,7-2.06q6.06-3.77,8-13.83a58.58,58.58,0,0,0,.8-10.06,68.7,68.7,0,0,0-.69-9.94Q342.6,952.46,336.55,948.23Zm-7.31,33.82L319,972.34l10.28-10.74,10.17,10.74Z" transform="translate(-158.06 -100.56)"/><path class="cls-2" d="M474.55,1004.66c-0.06.24-.13,0.47-0.2,0.71-1.66,1.4-2,5.2-2.8,6.9a33.55,33.55,0,0,1-8.76,11.09,35.72,35.72,0,0,1-5.54,4,2.32,2.32,0,0,0-1.27,0c-7.13,2.06-12.23-1.35-14.63-6.84-0.13-.8-0.23-1.6-0.28-2.43-0.35-5.36.89-10.69,1.28-16,2.81-4.64,5.3-9.5,7.91-14.11A248,248,0,0,0,463.53,962c6.83-16.19,11.49-33.85,6.53-51.29a65.61,65.61,0,0,0-26.12-35.81q-2.5-1.71-5.15-3.16c-10.5-7.57-22.24-12.07-34.52-12.51-8.23-1-17.4.64-24.52,2.35a99.73,99.73,0,0,0-29.29,12.12,76.78,76.78,0,0,0-20.63,18.59c-2.12,2.76-4.87,6-7.11,9.45l-0.57.1c-1.91,0-3.8.27-5.28,0.43-6.25.7-12.85,1.7-18.52,4.57-11.06,5.59-20.13,16.67-25.7,27.53-11.88,23.15-9.83,51.33,4.15,73.19,14.32,22.39,41.53,38.26,68.54,31.48,24-6,37.07-29.08,42.14-52A78.88,78.88,0,0,0,391,970.63a65.12,65.12,0,0,0-7.48-37.93c0.27-.6.55-1.19,0.85-1.78a80.05,80.05,0,0,1,16.3-21.72,31.19,31.19,0,0,1,4.35-2.37c5-2.22,10.17-2.41,15.58-2.47a51.83,51.83,0,0,1,7.56.47c6.88,4.79,12.32,10.92,13.74,19.49,1.72,10.36-.9,21.65-4.21,31.43-3.88,11.45-11.19,20.68-17.22,31-7,11.91-9.75,24.88-5.1,38.17,3.46,9.88,9,24.87,21.31,25.66,10.91,0.7,21.68-7.8,28.09-15.89a49.36,49.36,0,0,0,10.83-29.89A0.54,0.54,0,0,0,474.55,1004.66ZM362.6,976.57a27.81,27.81,0,0,1-8.68,16.68,32.6,32.6,0,0,1-10.8,6.57,39.22,39.22,0,0,1-13.88,2.34,43.29,43.29,0,0,1-13.94-2.06q-12.8-4.23-18.28-15.2A50.47,50.47,0,0,1,294.5,977a47.51,47.51,0,0,0-5.48-4.8q0.8-.23,5.48-4.91A29.69,29.69,0,0,1,297,960q5.37-11.42,18.17-15.77a42.89,42.89,0,0,1,14.05-2.17,39.84,39.84,0,0,1,12.68,2.06,32.69,32.69,0,0,1,13.6,8.57,25.2,25.2,0,0,1,7.09,14.17,40.72,40.72,0,0,0,5.48,4.91Q367.29,972,362.6,976.57Z" transform="translate(-158.06 -100.56)"/><circle class="cls-8" cx="1055.56" cy="848.98" r="187"/><path class="cls-2" d="M1293.45,953.06a6.72,6.72,0,0,0-4-1.25,7.65,7.65,0,0,0-7,3.79q-2.29,3.79-2.28,10.67,0,6.32,2.07,10a7.36,7.36,0,0,0,7.26,4.19,6.92,6.92,0,0,0,3.82-1.13q3.32-2.06,4.38-7.57a32.05,32.05,0,0,0,.44-5.51,37.61,37.61,0,0,0-.38-5.45Q1296.76,955.37,1293.45,953.06Zm-4,18.53-5.63-5.32,5.63-5.88,5.57,5.88Z" transform="translate(-158.06 -100.56)"/><path class="cls-2" d="M1307.86,999.63c12.14-14.68,20.69-32.93,18-52.36-2.38-17.52-16.84-33.06-35.56-31.29a28.15,28.15,0,0,0-4.42.79,112.47,112.47,0,0,0-.42-13.46c-1.73-18.37-9.23-38.12-27.84-45.18-8.62-3.27-18.56-2.26-25.66,3.85a25,25,0,0,0-4.72,5.34c-9.28-10.09-23.26-16.12-36.73-10.08a36.42,36.42,0,0,0-13.92,11.24,24.81,24.81,0,0,0-5.21-7.9c-13.27-13.36-37.93-8.59-51.62,1.48a49.86,49.86,0,0,0-16.12,19.44c-2.75,6.17-6.15,15.68-4.46,22.47a0.69,0.69,0,0,0,1.14.3c2-2.56,3.11-5.75,4.74-8.58a48.07,48.07,0,0,1,6.15-8.35c4.62-5.15,9.62-9.67,16-12.61,8.38-3.89,27.61-7.68,30.57,4.58,1.65,6.81,1.34,14.37,1.55,21.33q0.38,12.67-.06,25.35c-0.3,8.8-1,17.57-1.91,26.32-0.42,4-.81,8.07-1.27,12.1-0.63,5.47-.05,9.13,1,14.49,1.54,7.69,13.14,8.9,16.71,2.18,1.4-2.62,3.09-4.64,3.9-7.62a65.94,65.94,0,0,0,1.28-9.05c0.66-5.37,1.19-10.74,1.52-16.15,0.62-10.11.92-20.26,0.9-30.39,0-10.81-.38-21.65-1.3-32.43q-0.09-1.09-.2-2.19c0.81-.87,1.64-1.72,2.47-2.54a24.54,24.54,0,0,1,15.86-7.44c10.54-.67,17.35,9.73,19.46,18.77,3.21,13.76-.37,28.83-1.41,42.67l-1.66,22.11c-0.64,8.53-2.54,17.33,1.09,25.33,3.42,7.52,14.07,5.93,17.9,0,3.16-4.89,3-10.66,3.38-16.29l1-14.07c0.68-9.71,1.49-19.42,1.87-29.14,0.59-15.17,1.31-31.87-5.84-45.71,7.89-5.14,17.64-5,24.34,3.84,4.39,5.82,5.28,13.63,5.32,20.69a160.94,160.94,0,0,1-1.88,25.42c-2.9,18.69-9.43,36.56-11.47,55.43a82.8,82.8,0,0,0,2.42,30.8q-8.69,5-17.79,9.3c-3.52,1.65-7,3.27-10.66,4.65-3.07,1.17-6.39,2.09-8.79,4.43a1.09,1.09,0,0,0,.22,1.69c5.57,4.2,16.34,3.46,23,3a88.76,88.76,0,0,0,22.05-4.16c8.06,13.86,20.2,26.75,36.67,29.18,4,0.59,8.94-3.55,6-7.76-7.31-10.33-15.87-20-21.48-31.35A105.83,105.83,0,0,0,1307.86,999.63Zm-18.42-17a23.73,23.73,0,0,1-7.64-1.13,16.37,16.37,0,0,1-10-8.33,27.64,27.64,0,0,1-1.38-4.32,26.07,26.07,0,0,0-3-2.63,17.24,17.24,0,0,0,3-2.69,16.94,16.94,0,0,1,11.33-12.64,23.47,23.47,0,0,1,7.7-1.19,21.81,21.81,0,0,1,6.95,1.13,17.91,17.91,0,0,1,7.45,4.69,13.81,13.81,0,0,1,3.88,7.76,22.37,22.37,0,0,0,3,2.69,17.42,17.42,0,0,0-3,2.63,15.23,15.23,0,0,1-4.76,9.14,17.85,17.85,0,0,1-5.92,3.6A21.48,21.48,0,0,1,1289.44,982.6Z" transform="translate(-158.06 -100.56)"/><circle class="cls-9" cx="1899.28" cy="851.39" r="187"/><path class="cls-2" d="M1970.17,886.63c-9.2,5.76-5.49,20.9,5.29,22.05,7.69,0.82,15.83.32,23.59,0.61,8.59,0.31,17.18.52,25.78,0.69,33.72,0.67,67.41,1.32,101.14.93q6.42-.07,12.85-0.18c3.33,0,7.43.55,10.58-.71,7-2.8,4.46-13.83,3.41-19.42-1-5.31-8.8-3-8,2.21a43.18,43.18,0,0,1,.49,7q0,1.36-.1,2.72,2.15-1.43-.93-0.86c-3.37-.7-7.43-0.15-10.86-0.22-8.42-.17-16.84-0.36-25.26-0.43-17.52-.14-35-0.06-52.55-0.16-17.18-.09-34.38.11-51.56,0.2-8.29,0-17.69,1.27-25.84-.32-4.19-.82-4.62-2.91-4.75-6.71a15.71,15.71,0,0,0-1.7-7,1.13,1.13,0,0,0-1.54-.4h0Z" transform="translate(-158.06 -100.56)"/><path class="cls-2" d="M2056.74,890.65a3.83,3.83,0,0,1,1.09-1.65l-2.65-1.54c-1.66,4.14-1.89,9.34-2,13.75-0.12,7.51,10.92,7.29,11.52,0a100,100,0,0,0,.07-15.82c-0.28-3.74-3.16-6.68-7.09-6.15s-5.72,4.09-5.2,7.81a90.13,90.13,0,0,1,.7,14.15h11.52c-0.25-5.38-2.3-11.75-7.24-14.69a1.59,1.59,0,0,0-1.92,2.49,3.76,3.76,0,0,1,1.05,1.65,0.05,0.05,0,0,0,.1,0h0Z" transform="translate(-158.06 -100.56)"/><path class="cls-2" d="M2057.62,897.25c-0.34,11.19-.42,22.37-0.52,33.56a0.64,0.64,0,0,0,1.27,0,288.61,288.61,0,0,0,2.37-38.54,1,1,0,0,0-2,0q-0.12,21.82,1,43.6c0.1,1.95,3.14,2,3,0-0.75-16-1.09-32-.83-48,0-2.81-4.06-2.71-4.3,0a305.6,305.6,0,0,0-.42,48.66h5.3a345.35,345.35,0,0,1-1.31-53.89h-7c0,18.81.15,37.61,0.31,56.42H2062c-0.88-19.69-1.93-39.38-2.54-59.08-0.15-5-7.87-5-7.75,0,0.76,31.63,1.12,63.29,1.31,94.93q0.07,11.87.05,23.74c0,7.32,1.16,16-.47,23.16-1.48,6.48-9.16,10.18-14.15,13.78-6.44,4.64-12.64,9.6-19,14.37-3.89,2.93-2.81,9.23,2.56,9.44,23.58,0.91,53.06,11.68,74.37-3.47,8.07-5.73.72-19-7.89-13.51-17.42,11.12-38.28,10.88-56.3,1.41a7.94,7.94,0,0,0-9.27,1.2c-1.62,1.43-3.25,2.86-4.85,4.31-3.57,3.24-2.38,9.17,1.48,11.52,18.68,11.34,41.91,12.09,61.59,2.86,8.68-4.07,24.06-15,12.69-25-4.45-3.91-11.26-6.05-16.54-8.66-6.33-3.12-12.65-6.26-19-9.34s-14.74,3.51-10.43,10.43c5.21,8.36,10.47,16.69,15.55,25.13l8.37-10.89-28.75-9.9-2,14.91q14.92-.44,29.84-0.9l-2.06-15.22a116.66,116.66,0,0,1-27.08,7.72c-8.75,1.39-6.68,15.84,2.09,15.43,11.48-.54,23-0.73,34.46-1,11.07-.3,10.92-17.92,0-17.12-11.48.85-23,1.82-34.46,2.45l2.09,15.43a124.53,124.53,0,0,0,28.88-8.7c7.2-3.09,3.37-14.73-3.91-14.44q-14.92.58-29.84,1.22c-8.63.36-10.2,12.2-2,14.91l28.85,9.56c6.15,2,11.68-5.53,8.37-10.89-5.17-8.38-10.14-16.88-15.18-25.34l-10.43,10.43c6,3.05,12,6.05,18,9.06l8.6,4.3c1.43,0.72,2.87,1.42,4.3,2.15s3.37,2.88,1.52.24l-1.06-3.92-0.07.72,2-3.43c-5.84,7.53-18.26,11.09-27.36,11.76a50.28,50.28,0,0,1-29.62-6.57v12.67c1.76-1.26,3.49-2.54,5.23-3.82h-7.72c21.26,13.71,50.94,12.25,71.92-1.11l-7.89-13.51c-8.9,6.31-18.91,6.71-29.46,6.77-12.32.06-24.75,0.92-37,.08l2.56,9.44c6.69-4.8,13.5-9.42,20.08-14.36,5.44-4.09,12.11-8,15.66-14,3.8-6.43,2.71-14.66,2.68-21.79,0-8.57-.07-17.15-0.15-25.72-0.35-34.33-1.54-68.56-3.39-102.84h-7.75c1.19,19.68,2,39.39,2.87,59.08,0.22,4.74,7.47,4.8,7.42,0-0.2-18.81-.41-37.61-0.77-56.42-0.09-4.47-6.91-4.48-7,0a432,432,0,0,0,3,53.89c0.38,3.31,5.57,3.44,5.3,0a381,381,0,0,1-.57-48.66h-4.3c0.43,16,1.05,32,2.09,48h3q-1.49-21.77-2-43.6h-2a262.66,262.66,0,0,1-1.69,38.54h1.27c-0.08-11.19-.14-22.37-0.46-33.56a0.15,0.15,0,0,0-.29,0h0Z" transform="translate(-158.06 -100.56)"/><path class="cls-2" d="M2063.21,875.85c-1,5.83-2.21,11.34-2.31,17.36-0.11,6.65-.48,13.31-0.35,20q0.4,20.95.66,41.89c0.18,14.08,0,28.08-.57,42.15-0.26,6.49-.62,13-0.79,19.45-0.15,5.84-2,14.26,1.21,19.39,2,3.22,6.19,2.94,8.28,0,3.36-4.73,1.9-13,1.92-18.57,0-6.77-.25-13.51-0.5-20.28-0.53-14.06-1-28.09-1.27-42.15s-0.7-27.93-1.16-41.89c-0.21-6.4-.92-12.76-1.38-19.15s-2-12-3.36-18.17a0.2,0.2,0,0,0-.38,0h0Z" transform="translate(-158.06 -100.56)"/><path class="cls-2" d="M2043.88,1037.35c6.62,3,7.74-21.06,8.19-24.57,1.87-14.6,2.44-29.33,2.94-44s1-29.27,1.26-43.91q0.19-11.11.23-22.23c0-7.45,1-15.67-.58-23-1-4.76-8.92-4.95-9.81,0-1.11,6.19-.23,12.79-0.06,19.07q0.28,9.7.52,19.4c0.33,13.07.56,26.14,0.59,39.21,0,12.75-.54,25.47-0.88,38.21-0.17,6.44-.32,12.89-0.34,19.33,0,2.79,1.43,22.29-2,22.39a0.05,0.05,0,0,0,0,.1h0Z" transform="translate(-158.06 -100.56)"/><path class="cls-2" d="M2056.36,1016.55c0.5-4.14.59-8.29,1-12.43,0.22-2-2.61-2-3.23-.44-2.8,7.1-3.83,14.88-4.29,22.46-0.21,3.41,5.12,4.09,5.93.8,2.54-10.29,3.22-21.23,3.83-31.79,0.24-4.08-6.32-5-7.18-1-1.72,8.14-1.54,16.6-3.59,24.67s-7.1,12.89-14.08,17.11c-8.57,5.19-28.23,17.58-11.14,25.37,14.47,6.6,30,9.58,45.75,6.8a69.38,69.38,0,0,0,22.41-8.07c5.6-3.25,10.58-11.81,2.71-15.83-3.13-1.59-7.73,1.09-6.39,4.92,1,2.81-12.88,6.89-15.2,7.54a80.19,80.19,0,0,1-17.74,2.76,72.71,72.71,0,0,1-19.71-1.45,47.39,47.39,0,0,1-8.78-2.76c-1.7-.73-2.73-0.56-2.3-2.1,0.31-1.12,2-2.37,2.88-3.13,7.88-7.18,18.76-9.9,24.79-19.27,6.57-10.21,5.3-23.15,7.44-34.6l-7.18-1c-0.36,10.39-1.8,20.63-2.46,31h6c-0.48-7.37.37-14.31,1.43-21.58h-3.18c0.8,4,1.25,8,2.09,12,0,0.06.09,0,.1,0h0Z" transform="translate(-158.06 -100.56)"/><path class="cls-2" d="M2016.42,987.89c-3.3,4.59-7.29,10.24-13.51,10.64-7.45.48-12.28-6.81-16-12.11-1.06-1.51-3.84-.66-3.18,1.34,2.24,6.69,5.91,15.48,14.19,15.89s15.51-7.12,19-13.73a2,2,0,0,0-3.48-2c-7.85,12.87-25,11-31.52-2l-4.27,2.49c5.63,7.67,9.57,15.38,20.39,15.33,10.3,0,18-7.38,23.85-15,1.64-2.14-2.09-5-3.76-2.9-4.79,6.12-10.73,12.56-18.89,13.5-10,1.15-12.78-6.34-17.33-13.38-1.76-2.72-5.55-.37-4.27,2.49,7.39,16.52,30.34,16.53,39.26,1.49l-3.48-2c-2.53,4.92-6.87,10.07-12.37,11.74-8.65,2.62-12-6.15-14-12.79l-3.18,1.34c4.28,6.58,10.22,14.21,19,13.72,7.45-.41,11.32-7.73,13.93-13.76a0.24,0.24,0,0,0-.42-0.25h0Z" transform="translate(-158.06 -100.56)"/><path class="cls-2" d="M2019.7,985.12c-6.08-.89-12.85,1-19,1.13s-14.5.61-19.2-4c-1.48-1.47-3.43.09-3.19,1.86,0.9,6.63,12.06,6.47,16.86,6.65,7.62,0.28,18.64,0,24.58-5.51a0.05,0.05,0,0,0,0-.09h0Z" transform="translate(-158.06 -100.56)"/><path class="cls-2" d="M1979.84,985.61a1.71,1.71,0,0,0,2-2,2.06,2.06,0,0,0-1.23-1.83,2,2,0,0,0-2.19.41,2,2,0,0,0,1.42,3.42h0Z" transform="translate(-158.06 -100.56)"/><path class="cls-2" d="M1979.53,984.94c11.77-8,28.7-7.39,39.4,2.19,1.36,1.21,3.37-.78,2-2-11.81-10.58-29.74-11.2-41.76-.65a0.29,0.29,0,0,0,.36.46h0Z" transform="translate(-158.06 -100.56)"/><path class="cls-2" d="M2018.72,985.74c-5,3.16-10,3.42-15.68,3.12s-11.43-.2-17.14-0.25c-2.3,0-3,3.76-.56,4.13a102.88,102.88,0,0,0,22.91,1l-1.11-4.1c-4.54,3-8.42,5.72-13.92,6.75l2.22,5.26c4.08-2.34,8.12-4.73,12.18-7.1,3.2-1.87.39-6.2-2.82-4.83a21.85,21.85,0,0,1-10.6,1.59v5.42l2.86,0.19-1.18-4.48-1.44-.51c-2.22-2.6-5.88,1.14-3.73,3.73,2.47,3,6.1,2.78,9,.57,1.61-1.24.63-4.07-1.18-4.48a12.31,12.31,0,0,0-4.29-.43c-3.53.13-3.43,5.1,0,5.42a26.23,26.23,0,0,0,12.76-1.9l-2.15-5.11c-4.09,2.31-8.19,4.61-12.26,7-2.94,1.69-.89,5.87,2.22,5.26,6-1.17,12-4,15.4-9.29a2.21,2.21,0,0,0-1.9-3.31,113.6,113.6,0,0,1-22.36-.69v4.21c9.34-.21,26.82,2.27,32.89-7a0.05,0.05,0,0,0-.07-0.07h0Z" transform="translate(-158.06 -100.56)"/><path class="cls-2" d="M1975.68,983.43c-2.47,9,8.89,17.1,16.3,18.93a25.9,25.9,0,0,0,15.25-1c4-1.49,9.93-4.48,10.68-9.05a2,2,0,0,0-2.47-2.47c-3.45,1.09-5.66,4.29-9,5.83a20.44,20.44,0,0,1-13,1.44,21.75,21.75,0,0,1-10.32-5.75c-2.53-2.51-4.38-5.73-7.1-8a0.2,0.2,0,0,0-.33.09h0Z" transform="translate(-158.06 -100.56)"/><path class="cls-2" d="M1976.12,982.85q-0.46,1.09-1,2.15a1.18,1.18,0,1,0,2.17.91c2-6.64,3-13.52,5-20.17s4.26-13.24,6.88-19.66a175.87,175.87,0,0,1,9.58-19.82c3.37-6,8-11.54,11-17.67,0.9-1.84-1.35-3.8-2.92-2.25-4.9,4.84-8.39,11.82-11.72,17.79a182.44,182.44,0,0,0-9.27,19.24c-5.37,13-10.5,28-10.87,42.23l2.21-.6q-0.52-1.07-1-2.15a0.05,0.05,0,0,0-.09,0h0Z" transform="translate(-158.06 -100.56)"/><path class="cls-2" d="M2005.52,909.32c4,12.43,8.49,24.5,11.77,37.16a108.85,108.85,0,0,1,3.32,19.71c0.42,6.08,1.42,14.1-3.61,18.56-2.46,2.18,1.14,5.73,3.6,3.6,9.53-8.3,5.33-26.44,2.89-37-3.38-14.68-9.94-29.17-17.26-42.3a0.39,0.39,0,0,0-.72.3h0Z" transform="translate(-158.06 -100.56)"/><path class="cls-2" d="M1998.87,989.58c1.86-12.06,3.51-24.08,4.88-36.2,0.69-6.17,1.13-12.38,1.65-18.57,0.54-6.46,1.54-13.07,1.45-19.54,0-1.76-2.81-2.27-3.17-.43-2.28,11.84-2.69,24.56-3.56,36.58-0.91,12.7-1.35,25.38-1.63,38.11,0,0.21.35,0.27,0.38,0.05h0Z" transform="translate(-158.06 -100.56)"/><path class="cls-2" d="M1976.36,985.13a13.72,13.72,0,0,0,.48-1.63,3.31,3.31,0,0,1,1.27-1.65l-1.17-.67a10,10,0,0,1-.49,2.14,3.24,3.24,0,0,0-.29,1.93,0.74,0.74,0,0,0,1.08.44c1.35-.85,1.31-3.09,1.26-4.51a0.79,0.79,0,0,0-1.32-.55c-1,1-2.28,3.3-1,4.53a0.15,0.15,0,0,0,.23,0h0Z" transform="translate(-158.06 -100.56)"/><path class="cls-2" d="M1977.53,985.59l0.46-.45a1.16,1.16,0,0,0,.3-1.15l-0.23-.59a1.22,1.22,0,0,0-1.47-.83l-0.61.18a1.26,1.26,0,0,0-.88,1.16l-0.07.64h2.43c-0.09-4.75,16.78-6.7,20.23-6.62,7,0.17,12.57,3,17.34,8a1.18,1.18,0,0,0,1.84-1.42c-8.05-15.55-29.29-9.05-41.35-3.4a1.22,1.22,0,0,0-.62,1.08l0.12,2.38a1.22,1.22,0,0,0,2.43,0l-1.58-.61a1.17,1.17,0,0,0,1.66,1.66h0Z" transform="translate(-158.06 -100.56)"/><path class="cls-2" d="M1982.63,981.07c-0.53.22-1.08,0.4-1.6,0.66a20.35,20.35,0,0,1-2,1.11,0.81,0.81,0,1,0,.62,1.48,45.79,45.79,0,0,0,5.64-3.57c1-.63.37-2.41-0.83-2-2,.74-4,1.42-6,2.31a1.18,1.18,0,0,0,.9,2.15c2-.7,3.95-1.64,5.9-2.5l-1.08-1.85a46.92,46.92,0,0,0-5.54,4.16l1.15,1.15c0.89-1,2.06-1.8,3-2.8,0.12-.13,0-0.41-0.19-0.33h0Z" transform="translate(-158.06 -100.56)"/><path class="cls-2" d="M2105.25,989.77c2.6,6,6.48,13.35,13.93,13.76,8.78,0.49,14.72-7.14,19-13.72l-3.18-1.34c-1.9,6.45-5.36,15.75-14,12.79-5.53-1.89-9.77-6.69-12.37-11.74l-3.48,2c8.92,15,31.88,15,39.26-1.49,1.28-2.86-2.51-5.22-4.27-2.49-4.56,7.07-7.2,14.55-17.33,13.38-8.16-.94-14.09-7.37-18.89-13.5-1.66-2.12-5.42.74-3.76,2.9,5.9,7.7,13.53,14.93,23.85,15,10.8,0.11,14.79-7.71,20.39-15.33l-4.27-2.49c-6.55,12.93-23.66,14.82-31.52,2a2,2,0,0,0-3.48,2c3.51,6.61,10.87,14.14,19,13.73s11.95-9.2,14.19-15.89c0.66-2-2.11-2.86-3.18-1.34-3.72,5.3-8.56,12.59-16,12.11-6.2-.4-10.22-6.06-13.51-10.64a0.24,0.24,0,0,0-.42.25h0Z" transform="translate(-158.06 -100.56)"/><path class="cls-2" d="M2102.37,986.85c5.94,5.47,17,5.79,24.58,5.51,4.83-.18,16,0,16.86-6.65,0.24-1.76-1.7-3.33-3.19-1.86-4.69,4.64-13,4.22-19.2,4s-12.94-2-19-1.13a0.05,0.05,0,0,0,0,.09h0Z" transform="translate(-158.06 -100.56)"/><path class="cls-2" d="M2140.25,985.24a1.71,1.71,0,0,0,2,2,2.06,2.06,0,0,0,1.83-1.23,2,2,0,0,0-.41-2.19,2,2,0,0,0-3.42,1.42h0Z" transform="translate(-158.06 -100.56)"/><path class="cls-2" d="M2142.92,986.11c-12-10.55-30-9.93-41.76.65-1.36,1.22.65,3.22,2,2,10.7-9.58,27.64-10.21,39.4-2.19a0.29,0.29,0,0,0,.36-0.46h0Z" transform="translate(-158.06 -100.56)"/><path class="cls-2" d="M2103.3,987.45c6.05,9.26,23.57,6.79,32.89,7v-4.21a113.6,113.6,0,0,1-22.36.69,2.21,2.21,0,0,0-1.9,3.31c3.38,5.24,9.45,8.12,15.4,9.29,3.08,0.6,5.19-3.55,2.22-5.26-4.07-2.35-8.17-4.64-12.26-7l-2.15,5.11a26.23,26.23,0,0,0,12.76,1.9c3.43-.32,3.54-5.28,0-5.42a12.31,12.31,0,0,0-4.29.43c-1.81.41-2.79,3.24-1.18,4.48,2.86,2.21,6.49,2.41,9-.57,2.15-2.59-1.52-6.34-3.73-3.73l-1.44.51-1.18,4.48,2.86-.19v-5.42a21.73,21.73,0,0,1-10.6-1.59c-3.21-1.37-6,3-2.82,4.83,4.06,2.37,8.1,4.76,12.18,7.1l2.22-5.26c-5.5-1-9.38-3.72-13.92-6.75l-1.11,4.1a102.9,102.9,0,0,0,22.91-1c2.38-.37,1.76-4.15-0.56-4.13-5.71.05-11.44,0-17.14,0.25s-10.69.05-15.68-3.12a0.05,0.05,0,0,0-.07.07h0Z" transform="translate(-158.06 -100.56)"/><path class="cls-2" d="M2146.09,985c-2.72,2.3-4.57,5.52-7.1,8a21.75,21.75,0,0,1-10.32,5.75,20.44,20.44,0,0,1-13-1.44c-3.35-1.54-5.55-4.74-9-5.83a2,2,0,0,0-2.47,2.47c0.75,4.59,6.72,7.56,10.68,9.05a25.89,25.89,0,0,0,15.25,1c7.43-1.83,18.78-9.95,16.3-18.93a0.2,0.2,0,0,0-.33-0.09h0Z" transform="translate(-158.06 -100.56)"/><path class="cls-2" d="M2145.89,984.48q-0.48,1.09-1,2.15l2.21,0.6c-0.37-14.19-5.5-29.24-10.87-42.23a184.12,184.12,0,0,0-9.27-19.24c-3.32-6-6.84-13-11.72-17.79a1.87,1.87,0,0,0-2.92,2.25c3,6.14,7.62,11.68,11,17.67a176.32,176.32,0,0,1,9.58,19.82c2.62,6.42,4.9,13,6.88,19.66s3.06,13.53,5,20.17a1.18,1.18,0,1,0,2.17-.91q-0.5-1.07-1-2.15a0.05,0.05,0,0,0-.09,0h0Z" transform="translate(-158.06 -100.56)"/><path class="cls-2" d="M2115.86,910.65c-7.31,13.12-13.89,27.62-17.26,42.3-2.43,10.59-6.64,28.73,2.89,37,2.45,2.14,6.05-1.41,3.6-3.6-5-4.48-4-12.48-3.61-18.56a108.14,108.14,0,0,1,3.32-19.71c3.27-12.66,7.81-24.73,11.77-37.16a0.39,0.39,0,0,0-.72-0.3h0Z" transform="translate(-158.06 -100.56)"/><path class="cls-2" d="M2123.61,991.17c-0.28-12.73-.71-25.4-1.63-38.11-0.87-12-1.28-24.75-3.56-36.58-0.35-1.83-3.14-1.34-3.17.43-0.09,6.48.9,13.08,1.45,19.54,0.52,6.19,1,12.39,1.65,18.57,1.36,12.13,3,24.15,4.88,36.2,0,0.22.39,0.16,0.38-.05h0Z" transform="translate(-158.06 -100.56)"/><path class="cls-2" d="M2146,986.8c1.25-1.23,0-3.57-1-4.53a0.79,0.79,0,0,0-1.32.55c-0.05,1.42-.09,3.67,1.26,4.51a0.74,0.74,0,0,0,1.08-.44,3.24,3.24,0,0,0-.29-1.93,10,10,0,0,1-.49-2.14l-1.17.67a3.3,3.3,0,0,1,1.27,1.65,13.72,13.72,0,0,0,.48,1.63,0.15,0.15,0,0,0,.23,0h0Z" transform="translate(-158.06 -100.56)"/><path class="cls-2" d="M2146.22,985.57l-1.58.61a1.22,1.22,0,0,0,2.43,0l0.12-2.38a1.22,1.22,0,0,0-.62-1.08c-12.07-5.65-33.3-12.15-41.35,3.4a1.18,1.18,0,0,0,1.84,1.42c4.78-5,10.32-7.82,17.34-8,3.6-.09,20.32,1.88,20.23,6.62h2.43l-0.07-.64a1.26,1.26,0,0,0-.88-1.16l-0.61-.18a1.23,1.23,0,0,0-1.47.83l-0.23.59a1.16,1.16,0,0,0,.3,1.15l0.46,0.45a1.17,1.17,0,0,0,1.66-1.66h0Z" transform="translate(-158.06 -100.56)"/><path class="cls-2" d="M2139.27,983c0.93,1,2.1,1.78,3,2.8l1.15-1.15a46.92,46.92,0,0,0-5.54-4.16l-1.08,1.85c2,0.86,3.89,1.79,5.9,2.5,1.24,0.43,2.12-1.59.9-2.15-1.94-.89-4-1.57-6-2.31-1.19-.44-1.8,1.33-0.83,2a45.79,45.79,0,0,0,5.64,3.57,0.81,0.81,0,1,0,.62-1.48,20.48,20.48,0,0,1-2-1.11c-0.51-.26-1.06-0.44-1.6-0.66-0.19-.08-0.31.2-0.19,0.33h0Z" transform="translate(-158.06 -100.56)"/><path class="cls-2" d="M2058.14,851.37a5.38,5.38,0,0,0-3.21-1,6.12,6.12,0,0,0-5.63,3q-1.83,3-1.83,8.54a16.46,16.46,0,0,0,1.65,8,5.89,5.89,0,0,0,5.81,3.36,5.54,5.54,0,0,0,3.05-.9q2.65-1.65,3.51-6.06a25.67,25.67,0,0,0,.35-4.41,30.06,30.06,0,0,0-.3-4.36Q2060.79,853.22,2058.14,851.37Zm-3.21,14.82-4.51-4.26,4.51-4.71,4.46,4.71Z" transform="translate(-158.06 -100.56)"/><path class="cls-2" d="M2079.32,859.59c0.19-7.36-4.17-16.11-9-19.78a14.46,14.46,0,0,0-3.4-1.9c-4-2.17-4-2.17-9-2.53-2-.17-8.07.85-9.93,1a2.17,2.17,0,0,0-1.44.64c-0.32.08-.64,0.15-1,0.24-5.48,1.59-9.85,5.94-12.39,10.93a32.56,32.56,0,0,0-3,9.18,23,23,0,0,0-.31,8.36,25.15,25.15,0,0,0,6.23,14.41c7.43,8.24,20.43,10.35,30.17,5.08A25.81,25.81,0,0,0,2079.32,859.59Zm-9.77,4.19a12.18,12.18,0,0,1-3.81,7.31A14.29,14.29,0,0,1,2061,874a17.19,17.19,0,0,1-6.08,1,19,19,0,0,1-6.11-.9,13.09,13.09,0,0,1-8-6.66,22,22,0,0,1-1.1-3.46,20.85,20.85,0,0,0-2.4-2.1,13.73,13.73,0,0,0,2.4-2.15,13.55,13.55,0,0,1,9.06-10.11,18.79,18.79,0,0,1,6.16-1,17.46,17.46,0,0,1,5.56.9,14.33,14.33,0,0,1,6,3.76,11,11,0,0,1,3.1,6.21,17.83,17.83,0,0,0,2.4,2.15A13.88,13.88,0,0,0,2069.55,863.78Z" transform="translate(-158.06 -100.56)"/><circle class="cls-10" cx="2726.44" cy="835.91" r="187"/><path class="cls-2" d="M2907.37,905.92a1.6,1.6,0,0,1,.5.35A0.33,0.33,0,0,0,2907.37,905.92Z" transform="translate(-158.06 -100.56)"/><path class="cls-2" d="M2905.64,906a2.13,2.13,0,0,0,.53.47A1.9,1.9,0,0,1,2906,906a1.31,1.31,0,0,1,0-.4A1.38,1.38,0,0,1,2905.64,906Z" transform="translate(-158.06 -100.56)"/><path class="cls-2" d="M2997.81,928.93a18.47,18.47,0,0,0-18.92-11.69c-5.83-3.28-13.83-3.54-19.89-2.49-5.22.91-10.82,4.25-12.38,8.68a26.59,26.59,0,0,0-16,5.35q-1.42.93-2.72,2c-4.9-11.12-14.59-19.49-28.61-20.18a32.82,32.82,0,0,0-4.61-1.27,3.18,3.18,0,0,0,.52-0.6,26.91,26.91,0,0,1-4.27,0,0.44,0.44,0,0,1-.12-0.86c2.35-.81,4.79-1.3,7.19-1.93-0.37-.05-0.73-0.1-1.09-0.12a65.12,65.12,0,0,0-9,.33,0.2,0.2,0,0,1-.14-0.33,18.41,18.41,0,0,1,4.59-2.56,19.91,19.91,0,0,1,7.8-1.55,14.3,14.3,0,0,1-1.1-1.24l0,0c-2.19-.71-4.07-1.55-6.07-2.09a4.2,4.2,0,0,1-5.69-.66,1.77,1.77,0,0,1-1.41-.11,19.49,19.49,0,0,1-4.89.35h-1.34a15.93,15.93,0,0,1-5.5-.86,0.35,0.35,0,0,1,0-.66,21.12,21.12,0,0,1,4-.88l-2.47-.48a1.61,1.61,0,0,1-1.32-1.38,1.91,1.91,0,0,1,1.82-2.34,26.85,26.85,0,0,1,7.48,1.36c0.78,0.13,1.57.26,2.36,0.37,0.57,0.08,1.15.13,1.73,0.17,1.92,0.15,3.79.3,5.1,1.86l0,0a1.34,1.34,0,0,0-.37-0.89l-0.77-.83c-0.67-1-1.63-1.91-2.25-2.79a46.1,46.1,0,0,1-3-4.84,0.91,0.91,0,0,0-1.28-.4,1.45,1.45,0,0,0-.24-0.1l-1.31-.32a6.67,6.67,0,0,0-1-.57,1,1,0,0,0-1,.09l-2.7-.67c-1.62-.4-3-0.94-4.65-0.66a0.71,0.71,0,0,0-.5,1,2.94,2.94,0,0,0-1.86-1.39l-5.51-1.54-1-.27c-0.62-.38-1.23-0.78-1.82-1.22a2.73,2.73,0,0,0-1-.49,10.56,10.56,0,0,0-4-3.09,14.27,14.27,0,0,0-1.66-.6,32.84,32.84,0,0,0,.85-5.79,33.5,33.5,0,0,0,.51-10.74,20.64,20.64,0,0,0,5.4-3.36,18.23,18.23,0,0,0,19.62.9,14.18,14.18,0,0,0,4.29,3.42c4.56,2.33,8.25,1.36,10.78-1.2a12.32,12.32,0,0,0,1.33-.59A9.75,9.75,0,0,0,2904,863a6.86,6.86,0,0,0,4.89.92V864a12,12,0,0,0,2.6,6.32l0.84,6.92c0.29,2.44.33,5.05,1.12,7.39-0.06,1.35-.11,2.71-0.18,4.06a0.84,0.84,0,0,0,1.42.59l0-.05a0.86,0.86,0,0,0,1.31-.59,3.53,3.53,0,0,0,.37-1.52c3.5-4.95,5.78-12.21,4.28-18.17a11,11,0,0,0,.59-11.39,7.21,7.21,0,0,0-3.09-2.93,9,9,0,0,0,0-3.79,9.19,9.19,0,0,0-6.17-6.58,6.89,6.89,0,0,0-2.28-.58,3.85,3.85,0,0,0-3.44-1.27,14,14,0,0,0-2.08-4.25c-2.52-6.65-9.76-9.45-16.37-6.89l-0.25.11c-3.13-5.68-9.2-9.48-17-7.6a16.37,16.37,0,0,0-4.12,1.62c-6.74-4.47-17.55-.21-22.85,4.75a19,19,0,0,0-5.36,8.76,16.54,16.54,0,0,0-1.84,7.63,12.51,12.51,0,0,0-4.88,3.64,20,20,0,0,0-6.77,8.35c-1.44,3.81-.9,7.95.47,11.86l-0.07.09c-5.19-.65-7.18,7.7-6.76,11.47a16.08,16.08,0,0,0,1.71,5.1,19.45,19.45,0,0,0-.93,2.29c-3.28,1.71-4.46,5.94-4.3,9.42s2,7.11,4.19,10.17h0a40.16,40.16,0,0,0-6.33,8c-3.87,6.86-3.93,14.95-1.87,22.41a1.06,1.06,0,0,0,2-.05,25.72,25.72,0,0,0,4.28-8.53,1.44,1.44,0,0,0,.49-1.08c0-.16,0-0.33,0-0.49,0.31-1,.62-1.92.94-2.85,0.66-1.93,1.3-3.84,1.86-5.77a2.3,2.3,0,0,0,1.55-1.35c0.47-1,.94-2,1.39-3.06a2.15,2.15,0,0,0,.35.14,2.51,2.51,0,0,0,2.9.13c0.11-.08.2-0.17,0.3-0.26a2.41,2.41,0,0,0,.92-0.65c0.11-.13.2-0.26,0.3-0.39l0.33-.34a3.19,3.19,0,0,0,1.55-.93c-0.07.33-.15,0.67-0.2,1s-0.25.4-.37,0.6c-3.41,1.91-5.68,6-7.43,9.31-2.57,4.88-4.1,9.8-3.1,15.28a35.9,35.9,0,0,0,1.52,6.15c0.42,1.63.83,3.27,1.26,4.89a10.41,10.41,0,0,0,1.68,5.61c0.06,0.16.1,0.32,0.16,0.48a1.72,1.72,0,0,0,2.21,1.06c0.16,0.37.32,0.74,0.49,1.1a0.34,0.34,0,0,0,.64-0.17c0-.57-0.1-1.15-0.15-1.74a1.53,1.53,0,0,0,.05-1.14c-0.09-.3-0.18-0.61-0.26-0.91a89.09,89.09,0,0,0-1.64-9.66q0-1.35,0-2.69a0.58,0.58,0,0,0-.83-0.56c-0.1-.36-0.21-0.7-0.32-1.06a2.51,2.51,0,0,0,2.47-1,19.81,19.81,0,0,0,5-12.42c0.28,0.33.58,0.64,0.88,0.94,0,0.24-.05.48-0.07,0.72a25.44,25.44,0,0,0-1.17,4,22.62,22.62,0,0,0,0,9.41,16.54,16.54,0,0,0-1.73,5.81,22.33,22.33,0,0,0,1.17,10.9,3.33,3.33,0,0,0,1.21,1.56l0,0c0.19,0.89.41,1.78,0.64,2.66a1.43,1.43,0,0,0-.32.75,10.75,10.75,0,0,0,3.11,8.69c0.08,0.14.15,0.29,0.24,0.43a1.49,1.49,0,0,0,1.1.72,11.82,11.82,0,0,0,2.69,1.5c1.25,0.49,2.17-1.65.92-2.19a9.47,9.47,0,0,1-1.84-1.07,1.54,1.54,0,0,0,0-.18c-0.56-2.63-1.08-5.23-1.52-7.86-0.06-1.3-.15-2.59-0.33-3.88a13.76,13.76,0,0,0,2.63-5.37c0.13-.31.24-0.62,0.35-0.93a26.57,26.57,0,0,0,5.67,2.76,42,42,0,0,0,1,4.23c0.05,0.3.09,0.6,0.15,0.9a33.88,33.88,0,0,0,1.64,5.46,40,40,0,0,0,4.3,8.44,42.66,42.66,0,0,0,4.63,5.75,29.39,29.39,0,0,0,1,4.12l-0.41-.27a0.16,0.16,0,0,0-.19.25l0.84,0.76q0.28,0.82.6,1.62c-0.7,6,1.12,12,5.8,15.91a20.35,20.35,0,0,0-.86,3.28,18.38,18.38,0,0,0-.13,5.73,15.9,15.9,0,0,0,.29,1.75l0.09,0.38a16.89,16.89,0,0,0,.6,1.9c0,0.13.07,0.26,0.12,0.38h0c0.06,0.16.11,0.32,0.18,0.48a1.6,1.6,0,0,0,.39.54l0,0a24,24,0,0,0-1,12c0,1.21.14,2.41,0.3,3.61-0.24,8.52,3.34,17.9,10,23.47a21.84,21.84,0,0,0,2.17,1.6c3.39,2.88,7.93,4.84,12,3.71,0.43,0.27.86,0.53,1.27,0.76a0.56,0.56,0,0,0,.68-0.88l-0.48-.45c0.19-.09.39-0.2,0.58-0.32a11.32,11.32,0,0,0,3.26-1.54,0.08,0.08,0,0,0-.06-0.15,23.85,23.85,0,0,1-3.4.34,23.59,23.59,0,0,1-2.42-.26l-1.46-1.34a1.09,1.09,0,0,0-.34-0.34l-0.14-.09a53.79,53.79,0,0,1-4.78-4.89,13.42,13.42,0,0,0,8.21-5,38.18,38.18,0,0,1,4.7,5.7c0.36,1.71.72,3.44,1.16,5.19a1,1,0,0,0,2,0c0.09-.34.12-0.68,0.19-1a0.45,0.45,0,0,0,.19-0.24c3.13-9.85-.2-23.72-8.16-31.59-2.1-5.27-5.58-11.11-11.08-11.86L2877,1011a0.36,0.36,0,0,0-.62-0.15,6.11,6.11,0,0,0-2.16-7.64c2.19-3,2-6.7.44-9.89A43,43,0,0,0,2883,995l1.09,0.29a42.45,42.45,0,0,0,24.32,4.49,24.08,24.08,0,0,0,8.48.25c3.29-.62,4.63-3.34,6-5.9a23.84,23.84,0,0,0,4.6-4.69l0.26-.09a0.15,0.15,0,0,0,0-.28l0.1-.13a0.64,0.64,0,0,0-1-.77l-0.21.21a0.84,0.84,0,0,0-.79,0l0,0a19.52,19.52,0,0,1-16.5,3.62,40.46,40.46,0,0,0,17.25-17.3,43.27,43.27,0,0,0,2.84-7.09c0.11,0.21.23,0.41,0.33,0.63,2.21,4.77,2.36,10.14,1.78,15.3l-0.33.36a2,2,0,0,0-.52,2.1l-0.12.18a0.89,0.89,0,0,0,1.2,1.2c2.32-1.29,3.8-3.93,4.61-6.73,3.3-9,1-20.29-5-27.95,0-.16,0-0.33,0-0.49a35.55,35.55,0,0,0,.09-8.13,7.4,7.4,0,0,0,2.83-.58,12.18,12.18,0,0,0,5.06-4.64,25.2,25.2,0,0,0,10-6.18,18.33,18.33,0,0,0,5.81,3.87A26.37,26.37,0,0,0,2971.9,941c4.74,4.14,11.15,6.66,17.1,4.63a1.29,1.29,0,0,0,.82-1c1.3-.18,2.59-0.4,3.84-0.65a1.47,1.47,0,0,0,1.14-1.47,7.28,7.28,0,0,0,3.17-1.89,1.45,1.45,0,0,0-.63-2.4c-3-1-6.33.31-9.51,0.23l-0.44,0a2.62,2.62,0,0,0-1.26-.55,35.86,35.86,0,0,1-4.1-.9,11.41,11.41,0,0,0,4.2-8.25,26.9,26.9,0,0,1,6.16,2.85c-0.06,0-.09.09,0,0.13,0.65,0.35,1.28.74,1.92,1.13l1,0.69a0.43,0.43,0,0,0,.33.08l2.48,1.59a0.33,0.33,0,0,0,.49-0.28,24.42,24.42,0,0,0-.79-4.15A2.26,2.26,0,0,0,2997.81,928.93Zm-89.8,25.2a17.85,17.85,0,0,1-2.2,6.57,21.48,21.48,0,0,1-5,5.89,23.71,23.71,0,0,1-6.56,4.06,16.36,16.36,0,0,1-13,.1,27.68,27.68,0,0,1-3.84-2.41,26,26,0,0,0-4-.07,17.27,17.27,0,0,0,.56-4,16.94,16.94,0,0,1,.5-17,23.47,23.47,0,0,1,5.12-5.87,21.82,21.82,0,0,1,6-3.62,17.91,17.91,0,0,1,8.72-1.22,13.8,13.8,0,0,1,8,3.43,22.31,22.31,0,0,0,4,.12,17.43,17.43,0,0,0-.6,3.95A15.24,15.24,0,0,1,2908,954.13Z" transform="translate(-158.06 -100.56)"/><path class="cls-2" d="M2896.9,948.52a37.59,37.59,0,0,0-3.8-3.92q-4.23-3.56-8.26-3.19A6.73,6.73,0,0,0,2881,943a7.65,7.65,0,0,0-2.94,7.44q0.7,4.37,5.14,9.63,4.08,4.83,8,6.32a7.36,7.36,0,0,0,8.25-1.48,6.92,6.92,0,0,0,2.19-3.32q1.2-3.72-1.54-8.61A32.1,32.1,0,0,0,2896.9,948.52Zm-3.17,9.64-7.74-.43,0.51-8.13,8.05,0.9Z" transform="translate(-158.06 -100.56)"/><path class="cls-2" d="M2897.57,895a25.35,25.35,0,0,0-9.95-9.84,1.58,1.58,0,0,0-1.59,2.72,48.44,48.44,0,0,1,10.45,9.62l2.05-2.66c-2.32-1.65-4.68-3.24-7-4.84-2.13-1.45-4.24-3-6.78-3.68a0.79,0.79,0,0,0-.88,1.15c1.44,2.14,3.56,3.55,5.62,5,2.45,1.77,4.88,3.54,7.37,5.26,1.68,1.16,3.21-1.28,2.05-2.66a51.36,51.36,0,0,0-11.25-9.95l-1.59,2.72a54.7,54.7,0,0,1,10.69,7.77,0.54,0.54,0,0,0,.84-0.65h0Z" transform="translate(-158.06 -100.56)"/><path class="cls-2" d="M2877.75,900.34c5.57-.51,11.26-1.38,16.86-1.4,3.36,0,5.7.59,8.12,2.77a5.56,5.56,0,0,0,3.33,1.81c0.7,0.1,1.28-.86.53-1.25-4.07-2.15-5.07-5.61-10.11-5.05-6.26.69-12.53,2-18.77,2.83a0.15,0.15,0,0,0,0,.29h0Z" transform="translate(-158.06 -100.56)"/><path class="cls-2" d="M2897.64,899c2,1.73,4.08,3.38,6.24,4.93,2,1.41,4.43,3.68,6.86,4a0.4,0.4,0,0,0,.38-0.65c-1.49-1.8-4.33-2.78-6.32-4-2.34-1.47-4.6-3.05-6.8-4.73a0.29,0.29,0,0,0-.36.46h0Z" transform="translate(-158.06 -100.56)"/><path class="cls-2" d="M2910.63,906a107.18,107.18,0,0,0-17.38-6.77c-1.08-.31-1.88,1.4-0.79,1.88a107.7,107.7,0,0,0,17.79,5.79c0.52,0.12.9-.64,0.38-0.89h0Z" transform="translate(-158.06 -100.56)"/><path class="cls-2" d="M2907.13,904.08a12.39,12.39,0,0,0-7.1-4.21,0.29,0.29,0,0,0-.16.57,16.62,16.62,0,0,1,6.85,4.06,0.29,0.29,0,0,0,.41-0.41h0Z" transform="translate(-158.06 -100.56)"/><path class="cls-2" d="M2891.61,908.06c4.39,0.28,8.83.42,13.21,0.92,3.72,0.43,7.64,1.9,11.33,1.05a0.5,0.5,0,0,0,.12-0.89c-3.11-2.3-7.69-2.17-11.44-2.35a53.37,53.37,0,0,0-13.26.89c-0.23,0-.16.37,0.05,0.38h0Z" transform="translate(-158.06 -100.56)"/><path class="cls-2" d="M2916.54,910.68l3.84,4.18c0.44,0.48,1.06-.13.83-0.64a17,17,0,0,0-2.24-3.71c-0.69-.88-1.68-2.35-2.83-2.55a0.49,0.49,0,0,0-.6.6c0.4,1.05,1.64,1.77,2.38,2.62a18.09,18.09,0,0,1,2.38,3.58l0.83-.64-4.45-3.56a0.1,0.1,0,0,0-.14.14h0Z" transform="translate(-158.06 -100.56)"/><path class="cls-2" d="M2919.48,913.72c-0.14.21,0,.37,0.27,0.43A0.22,0.22,0,0,0,2920,914c0.62-1.48-1.4-3.56-2.26-4.54s-3.09-3.35-4.63-2.61a0.57,0.57,0,0,0-.29.51,1.71,1.71,0,0,0,1.05,1.43c0.74,0.56,1.46,1.18,2.16,1.78,0.36,0.31,3.23,3.58,3.52,3.21a0.05,0.05,0,1,0-.08-0.06h0Z" transform="translate(-158.06 -100.56)"/><path class="cls-2" d="M2916.73,912c-7.14-6.09-18.68.5-26.09-5.7l-0.8,1.92c4.56,0,9.12-.08,13.68,0,4,0.06,8.11.7,12-.29a0.94,0.94,0,0,0,0-1.79c-3.85-1-8-.3-12-0.22-4.56.09-9.12,0.05-13.68,0.06a1.14,1.14,0,0,0-.8,1.92c3.18,2.66,6.75,3.51,10.85,3.66,5.68,0.21,10.85.17,16.5,1,0.3,0,.62-0.32.33-0.57h0Z" transform="translate(-158.06 -100.56)"/><path class="cls-2" d="M2900,909.21l-7.76-1.4-0.22,1.62c3.93,0.13,7.85-.11,11.77-0.19,3.39-.07,7.07.44,10.3-0.67a0.74,0.74,0,0,0,0-1.41c-3.48-1.12-7.52-.39-11.14-0.22a108.19,108.19,0,0,0-11.15.88c-0.93.14-.69,1.62,0.22,1.62l8,0c0.11,0,.14-0.17,0-0.19h0Z" transform="translate(-158.06 -100.56)"/><path class="cls-2" d="M2916.12,911c1.87,1.33,3.59,2.89,5.35,4.36a0.91,0.91,0,1,0,1.11-1.44c-3.35-2.49-6.89-5.72-10.79-7.21-0.65-.25-1,0.63-0.62,1.06a23.81,23.81,0,0,0,4.87,3.87c1.87,1.29,3.72,2.6,5.61,3.86l0.92-1.58c-2.14-1-4.34-1.87-6.4-3a0.05,0.05,0,0,0-.05.09h0Z" transform="translate(-158.06 -100.56)"/><path class="cls-2" d="M2885,903c0.65-2.76,3.9-7,6.88-3.92,1.44,1.47.1,4.17-2,3.49-1.72-.56-1.2-2.48-0.64-3.66a0.64,0.64,0,0,0-.87-0.87c-2.2,1-1.63,4.49.16,5.66a3.6,3.6,0,0,0,5.3-2.53c0.32-2.42-2.19-4.09-4.38-3.94-2.88.19-4.42,3.15-4.83,5.67,0,0.24.32,0.35,0.38,0.1h0Z" transform="translate(-158.06 -100.56)"/><path class="cls-2" d="M2872.09,894.69a2.29,2.29,0,0,1,1.88,1.8,0.23,0.23,0,0,0,.43,0l0.74-2.55a0.29,0.29,0,0,0-.57-0.16l-0.61,2.59h0.43a2.66,2.66,0,0,0-2.28-2,0.15,0.15,0,0,0,0,.29h0Z" transform="translate(-158.06 -100.56)"/><path class="cls-2" d="M2858.58,859.45a14.8,14.8,0,0,1-1.44,21.3l0.8,0.8c6.18-7,11.29-19.19.64-25a1.14,1.14,0,0,0-1.54,1.54,14.78,14.78,0,0,1-3.19,19.82l1.48,1.92a16.7,16.7,0,0,0,5.45-17.55,1.3,1.3,0,0,0-2.5.69,23.27,23.27,0,0,1-.43,12.89l2.26-.6a7.47,7.47,0,0,1-1.17-8.41l-2.56-.33a13.59,13.59,0,0,1,.41,9.21h2.75a15.25,15.25,0,0,1,2-13.28l-2.66-.35c1.36,6.23,0,12.27-1.54,18.34a1.49,1.49,0,0,0,2.87.79,53.92,53.92,0,0,0,1.92-22c-0.21-1.7-2.74-1.82-2.74,0q0,0.95,0,1.89a0.89,0.89,0,0,0,1.64.44q0.46-.81.89-1.65l-2.55-.69a60.62,60.62,0,0,1-2.05,21.19l2.87,0.79c1.65-6.63,3-13.12,1.47-19.9A1.47,1.47,0,0,0,2859,861a18,18,0,0,0-2.25,15.51,1.44,1.44,0,0,0,2.75,0,15.76,15.76,0,0,0-.47-10.71c-0.39-1-2-1.55-2.56-.33a10.38,10.38,0,0,0,1.67,11.74,1.37,1.37,0,0,0,2.26-.6,26.21,26.21,0,0,0,.32-14.3l-2.5.69a14.25,14.25,0,0,1-4.67,15.13c-1.22,1,.52,2.68,1.73,1.73A17.13,17.13,0,0,0,2859,857l-1.54,1.54c9.08,4.82,4.78,16.16-.3,22.2a0.57,0.57,0,0,0,.8.8,15.62,15.62,0,0,0,1-22.45,0.24,0.24,0,0,0-.35.35h0Z" transform="translate(-158.06 -100.56)"/><path class="cls-2" d="M2859.07,877l-0.81-1.85-0.87.49c5.87,0.91,10.81,4,13.18,9.55l2.35-1.81a39,39,0,0,0-12.5-7.66c-1.81-.7-3,2.25-1.32,3.13l12.62,6.45a1.81,1.81,0,0,0,1.82-3.12c-2.24-1.64-4.45-3.34-6.75-4.9-1.49-1-3-2.38-4.81-1.74a1.52,1.52,0,0,0-1.07,1.4,1.71,1.71,0,0,0,.65,1.59,1.3,1.3,0,0,0,1.52.2l0.25-.12c1.14-.55.46-2.1-0.59-2.19l-0.29,0,1.21,0.92,0,0.37-1.64.67c1.51,0.3,3.48,2.51,4.75,3.41l5,3.54,1.82-3.12-12.71-6.29L2859.5,879a39.66,39.66,0,0,1,11.3,6.47,1.5,1.5,0,0,0,2.35-1.81c-2.85-5.8-9-10.06-15.57-9.43a0.71,0.71,0,0,0-.61,1.06,6.9,6.9,0,0,0,1.86,2,0.2,0.2,0,0,0,.24-0.31h0Z" transform="translate(-158.06 -100.56)"/><circle class="cls-11" cx="187" cy="1509.07" r="187"/><path class="cls-2" d="M302.35,1476.63c7.8,3,16.31,5.21,22.73,10.83,6,5.29,12.18,11.2,17.66,17.08,12.4,13.32,18.85,30.93,22.69,48.44,4.17,19,2.57,40.58,14,57.1,5.84,8.42,12.77,16.15,19.26,24.07,6.2,7.56,13.16,14.71,18.12,23.18,5.44,9.3,7.76,19.47,7.79,30.18,0,5.22.3,10.44-.28,15.63a97.45,97.45,0,0,0-.82,17.17c0.15,2.34,3.4,3.57,4.66,1.26,4.75-8.7,7.33-19.17,9.13-28.87a84.92,84.92,0,0,0-.24-31.94c-2.15-10.34-8-19.4-14.26-27.74-6.88-9.23-14.28-18.07-21.5-27a80,80,0,0,1-7.82-10.83c-2.64-4.7-3.58-10.2-4.34-15.48-1.53-10.65-2.83-21.28-5.28-31.78-4.65-19.89-12.78-39.37-26.62-54.66-7.21-8-15.45-14-26-16.41-9.42-2.17-19.39-4.91-28.92-1.46a0.66,0.66,0,0,0,0,1.27h0Z" transform="translate(-158.06 -100.56)"/><path class="cls-2" d="M315.94,1481.93c-13.39,20-17.82,43.49-26.57,65.52-9.36,23.58-21.89,45.59-26.5,70.83-2,10.72-2.1,20.32,5,29.2,6.58,8.23,15.75,14.63,24.72,20a323.88,323.88,0,0,0,31.64,16.13c10.16,4.65,20.23,9.66,30.89,13.1,6.82,2.2,13.87,3.47,20.73,5.52,5.79,1.73,11.5,3.68,17.26,5.51,11,3.53,22,5.89,33.58,4,2.12-.34,1.65-4.07-0.51-3.79-20.42,2.63-40-8.37-59.58-12.47-11.33-2.38-21.86-6.58-32.42-11.26-10-4.42-20-8.68-29.73-13.66A122.22,122.22,0,0,1,277,1652c-3.9-3.61-7.79-7.61-9.59-12.73-2.19-6.26-.7-13.22.71-19.48a206.54,206.54,0,0,1,11-34.92c4.26-10.11,9.09-20,12.31-30.47,7.45-24.33,13.85-49.13,25-72.12a0.31,0.31,0,0,0-.53-0.31h0Z" transform="translate(-158.06 -100.56)"/><path class="cls-2" d="M435,1559.11q-3.49-.57-8.61,1.48a16.46,16.46,0,0,0-6.82,4.52,5.89,5.89,0,0,0-1,6.64,5.55,5.55,0,0,0,2,2.5q2.52,1.85,6.93,1a25.65,25.65,0,0,0,4.22-1.31,30.11,30.11,0,0,0,3.93-1.9q3.76-2.32,4.5-5.47a5.38,5.38,0,0,0-.26-3.35A6.12,6.12,0,0,0,435,1559.11Zm-4.17,12.54-5.61-2.55,2.27-5.77,6,2.43Z" transform="translate(-158.06 -100.56)"/><path class="cls-2" d="M457.42,1548.23a8.66,8.66,0,0,0-4.52-1.87c-6.53-.7-13.05-1.32-19.59-1.75a77.61,77.61,0,0,0-22.85-1.13c-3.27,0-6.52.64-8.34,3.85a7.26,7.26,0,0,0-.9,4.24,6.67,6.67,0,0,0,.65,4.27c0.79,1.58,1.49,3.19,2.13,4.81l1.09,2.95c-2.35,1-4.62,1.92-6.75,2.74-9.53,3.68-19,7.61-28.34,11.63-18,7.69-35.42,16.52-53.24,24.6-18.31,8.31-36.95,16-55.14,24.53-2.88,1.36-5.71,2.8-8.52,4.28a27.92,27.92,0,0,0-2.52-2.18c-3.56-2.73-7.27-3.87-11.59-2.73a0.34,0.34,0,0,0-.08.62,59.26,59.26,0,0,1,8.63,6.41c0.19,0.18.37,0.38,0.55,0.59l-4.34,2.41a18.58,18.58,0,0,0-4.36-2.12c-3-.93-10.5-2.1-12.21,1.61a0.55,0.55,0,0,0,0,.55c1.17,1.53,3.14,1.66,4.86,2.35a38.49,38.49,0,0,1,4.05,1.91l-1.81,1q-1.54.85-3.08,1.74c-4.78-3.85-13.73-4.3-17.24.47a0.69,0.69,0,0,0,.41,1c2.54,0.75,5.16,1,7.71,1.81a11.23,11.23,0,0,1,2.17,1A72.3,72.3,0,0,0,210.68,1659a0.34,0.34,0,0,0,.24.58,66,66,0,0,0,12.83-1.26l-0.08.12c-2.53,3.59-7.3,6-8.72,10.21a0.34,0.34,0,0,0,.24.42c5,1.13,9.72-4.44,12.5-7.92a41.42,41.42,0,0,0,3.15-4.45c2.93-.77,5.82-1.65,8.64-2.56l0.06,0a12.84,12.84,0,0,1-1.14,2.91c-2.19,4-6.13,6.17-9,9.54a0.69,0.69,0,0,0,.3,1.14c8,2.36,16.77-7.42,17.84-16.13q3.69-1.17,7.36-2.37a19.9,19.9,0,0,1,0,2.1,17.64,17.64,0,0,1-4.81,10.64,0.41,0.41,0,0,0,.29.7c4.74,0.34,7.89-2.89,9.72-7.09a21.7,21.7,0,0,0,1.79-8.73c1.68-.6,3.36-1.21,5-1.86,19.21-7.44,38-16,57-24,17.88-7.51,36.07-14.29,54-21.67,8.82-3.63,17.69-7.15,26.63-10.46l7.11-2.61a75.34,75.34,0,0,0,3.68,9.59,5.74,5.74,0,0,0,.88,1.31c0.54,5,7,9.11,11.22,4.33,0.85-1,1.65-2,2.4-3,6.55-4.37,12.38-10.48,17.29-16.15a114.27,114.27,0,0,0,7.82-10.15,39.29,39.29,0,0,0,10.46-13.19C468.34,1552.34,463.43,1548.77,457.42,1548.23ZM441.49,1575a11,11,0,0,1-4.61,5.19,17.92,17.92,0,0,0-1.1,3,13.91,13.91,0,0,0-2.85-1.45,12.19,12.19,0,0,1-8.2-.81,14.29,14.29,0,0,1-4.43-3.32,17.19,17.19,0,0,1-3.22-5.26,19,19,0,0,1-1.44-6,13.09,13.09,0,0,1,3.2-9.92,22.16,22.16,0,0,1,2.8-2.31,20.75,20.75,0,0,0,1.06-3,13.84,13.84,0,0,0,2.89,1.43,13.55,13.55,0,0,1,12.76,4.65,18.8,18.8,0,0,1,3.18,5.36,17.46,17.46,0,0,1,1.23,5.49A14.34,14.34,0,0,1,441.49,1575Z" transform="translate(-158.06 -100.56)"/><circle class="cls-12" cx="1077.9" cy="1502.8" r="187"/><polygon class="cls-4" points="1153.85 1540.02 1160.43 1546.23 1166.94 1540.02 1160.43 1533.14 1153.85 1540.02"/><path class="cls-4" d="M1125.5,1600.24q0.25,2,.55,4c-0.14-1.42-.24-2.84-0.32-4.26A1.37,1.37,0,0,1,1125.5,1600.24Z" transform="translate(-158.06 -100.56)"/><path class="cls-4" d="M1125.79,1586a0.71,0.71,0,0,1,.23.24c0.08-.81.18-1.61,0.28-2.42Q1126,1584.94,1125.79,1586Z" transform="translate(-158.06 -100.56)"/><path class="cls-4" d="M1339.85,1637.06a16.13,16.13,0,0,0-4.54-9.07,20.93,20.93,0,0,0-8.7-5.49,25.52,25.52,0,0,0-8.12-1.32,27.46,27.46,0,0,0-9,1.39,19.79,19.79,0,0,0-13.24,14.78,20.09,20.09,0,0,1-3.51,3.15,30.34,30.34,0,0,1,3.51,3.07,32.32,32.32,0,0,0,1.61,5,19.12,19.12,0,0,0,11.7,9.73,27.7,27.7,0,0,0,8.92,1.32,25.1,25.1,0,0,0,8.89-1.5,20.86,20.86,0,0,0,6.91-4.21,17.8,17.8,0,0,0,5.56-10.68,20.35,20.35,0,0,1,3.51-3.07A26.05,26.05,0,0,1,1339.85,1637.06Zm-11.78,9.95q-1.24,6.44-5.12,8.85a8.09,8.09,0,0,1-4.46,1.32,8.61,8.61,0,0,1-8.48-4.9q-2.41-4.31-2.41-11.7,0-8,2.67-12.47a8.94,8.94,0,0,1,8.23-4.43,7.85,7.85,0,0,1,4.68,1.46q3.88,2.71,5,9.07a44,44,0,0,1,.44,6.36A37.44,37.44,0,0,1,1328.08,1647Z" transform="translate(-158.06 -100.56)"/><path class="cls-2" d="M1323.18,1625.14a7.85,7.85,0,0,0-4.68-1.46,8.94,8.94,0,0,0-8.23,4.43q-2.67,4.43-2.67,12.47,0,7.39,2.41,11.7a8.61,8.61,0,0,0,8.48,4.9,8.09,8.09,0,0,0,4.46-1.32q3.88-2.41,5.12-8.85a37.44,37.44,0,0,0,.51-6.44,44,44,0,0,0-.44-6.36Q1327.05,1627.84,1323.18,1625.14Zm-4.68,21.65-6.58-6.22,6.58-6.88,6.51,6.88Z" transform="translate(-158.06 -100.56)"/><path class="cls-2" d="M1357.78,1621.44c-9.12-18.48-31.2-32.26-52-24.82a43.35,43.35,0,0,0-15.12,9.64,13.16,13.16,0,0,0-5,5.27c0.07-4.45.45-9.11,1-13.9,1.82-10.92,4.6-21.83,5.57-32.29,1.54-16.58-1.07-35.05-11.32-48.63-11.75-15.56-31.29-20.34-50-19.16-11.15.7-25.93,4.84-33,14a33,33,0,0,0-3.35-2.09c-9.32-5-18.87-5-27.72-1.92-8.79,2.75-17,9-23.4,15.52-5.85,5.2-10.38,12.54-14.28,19.35a8.11,8.11,0,0,1-.75,2.61c-5.06,10.63-7.09,24.15-7.23,35.86-0.1,7.68,1.06,15.28,2.19,22.87,1.28,4.14,2.81,8.22,4.35,12.29a0.24,0.24,0,0,0,.47-0.13l-0.26-1.36c-1.28-18,3.48-36.84,11.43-52.9a97.38,97.38,0,0,1,8.69-14.34c1.54-1.79,3-3.6,4.46-5.49,4.59-4.2,11.16-9.5,17.69-12.13a56.91,56.91,0,0,1,6.3-.12l0.63,0.13c10.91,2.66,10.61,13.05,11.14,22.47-0.35,8.1-2.16,16.09-4.16,24-3.49,13.75-6.77,28.46-6.41,42.9-0.2,2.25-.36,4.49-0.48,6.74a91.6,91.6,0,0,0,2.63,26.61,23.36,23.36,0,0,0,2.63,10.58,21,21,0,0,0,7.48,13.26,3.06,3.06,0,0,0,1.36.63c3.55,2.87,8.11,4.1,13.91,2.57a5.88,5.88,0,0,0,4.24-5.57c0.06-7.75-4.24-14.25-5.66-21.75-1.5-7.89-.47-16.24.95-24.06,4.23-23.41,11.18-46.62,11.29-70.59a81.59,81.59,0,0,0-3-22.89c6.55-6.05,13.32-11.6,22.93-12.56,9.36-.94,17.85,2.76,26,6.9l3.84,5c0.25,0.33.5,0.68,0.75,1,5.95,13.88,3.89,30.57,1.73,45-2.44,16.28-6.26,32.73-2.61,49.15a46.16,46.16,0,0,0,4.64,12.28c0.36,1,.75,2,1.17,3,0,0.23.06,0.46,0.09,0.69a50.2,50.2,0,0,0-4.6,10.66c-3,8.95-4.88,18.09-10.18,26.06-8.85,13.32-23.17,21.2-38.46,24.68-7.46,0-14.71-1.62-22.21-1.69a0.46,0.46,0,0,0-.39.69c4.5,9.35,17.38,12.45,26.82,12.29a57.87,57.87,0,0,0,33.53-11.39,74.86,74.86,0,0,0,22.89-29.15c1-2.2,2.18-4.78,3.32-7.57a39.73,39.73,0,0,0,7.92,6.68c0.34,0.22.7,0.41,1.05,0.61,15.22,11.6,37.68,12.52,53.4,1C1362.34,1664.89,1367.39,1640.92,1357.78,1621.44Zm-232.29-21.19a1.37,1.37,0,0,0,.23-0.26c0.08,1.42.18,2.84,0.32,4.26Q1125.74,1602.25,1125.5,1600.24Zm0.52-14a0.71,0.71,0,0,0-.23-0.24q0.23-1.1.51-2.18C1126.2,1584.66,1126.1,1585.47,1126,1586.28Zm213.83,57a17.8,17.8,0,0,1-5.56,10.68,20.86,20.86,0,0,1-6.91,4.21,25.1,25.1,0,0,1-8.89,1.5,27.7,27.7,0,0,1-8.92-1.32,19.12,19.12,0,0,1-11.7-9.73,32.32,32.32,0,0,1-1.61-5,30.34,30.34,0,0,0-3.51-3.07,20.09,20.09,0,0,0,3.51-3.15,19.79,19.79,0,0,1,13.24-14.78,27.46,27.46,0,0,1,9-1.39,25.52,25.52,0,0,1,8.12,1.32,20.93,20.93,0,0,1,8.7,5.49,16.13,16.13,0,0,1,4.54,9.07,26.05,26.05,0,0,0,3.51,3.15A20.35,20.35,0,0,0,1339.85,1643.28Z" transform="translate(-158.06 -100.56)"/><path class="cls-2" d="M1249.4,1521.78c4.9,3.53,10,5.45,14.18,10.18s5.49,9.93,8.31,15.24c0.77,1.45,2.67.6,2.82-.77,1.26-11.35-13.62-26.87-25.25-25.2-0.28,0-.25.41-0.07,0.54h0Z" transform="translate(-158.06 -100.56)"/><circle class="cls-13" cx="1899.73" cy="1515.42" r="187"/><path class="cls-2" d="M1913.28,1617.12c5.36,6.29,15.05,5.74,21.94,2.29,7.93-4,13.6-11.24,20.56-16.54,7.8-5.94,17.8-9.19,27.49-10.1a193.85,193.85,0,0,1,36.22.52V1583c-9-.66-20.33,5-18.8,15.51,1.4,9.65,11.59,13.77,20.25,11.31,10.31-2.93,16.48-12.74,25.62-17.75a45.93,45.93,0,0,1,32.13-4.35v-7.57c-8.5,1.31-20.37,7.13-16.44,17.86,2.93,8,13.2,9,20.42,7.82,10.33-1.75,19.58-7.07,29.06-11.23,5.25-2.3,10.85-4.35,16.58-5,6.78-.75,13.53.39,20.21,1.48v-8.5c-11.14,3-25.49,13.43-18.43,26.73,6.91,13,23.88,9.69,33.95,3a2.35,2.35,0,0,0-1.8-4.28c-7.15,1.38-18.17,5.93-24.08-.87-7.24-8.33,6.56-14.69,12.71-16.09,4.08-.93,4.33-7.74,0-8.5-9.15-1.6-18.35-2.93-27.57-1.1-7.61,1.51-14.68,5.18-21.55,8.64-7.1,3.58-14.78,7.91-22.85,8.72-2.88.29-8.45,0.13-9.64-3.28-2.06-5.94,7.92-7.37,11.53-7.86,4-.54,3.52-6.71,0-7.57a53.9,53.9,0,0,0-41.14,6.22c-6.52,4-11.47,10.74-18.42,14-3.36,1.57-8.68,2.7-10.92-1.25-2.71-4.76,4.26-6.52,7.83-6,6.46,0.93,9.3-8.91,2.74-9.92-11.13-1.71-21.9-4.22-33.29-3.43-9.66.67-19.66,2.72-28.22,7.42-7.76,4.26-13.41,10.75-19.26,17.21-6.3,7-15.37,15.73-25.55,11.11a1,1,0,0,0-1.26,1.63h0Z" transform="translate(-158.06 -100.56)"/><path class="cls-2" d="M2198.81,1660.34c-10,4.39-18.83-4-25-10.91-6-6.69-11.6-13.48-19.55-18-8.26-4.66-17.85-6.73-27.21-7.62-11.71-1.11-22.78,1.35-34.25,3-5.68.81-4.39,10.87,1.37,10.11,3.06-.41,10.91-0.13,9.63,4.79s-7.61,4.07-11,2.52c-6.94-3.13-11.77-9.91-18.1-14.07a53.84,53.84,0,0,0-41.72-7.07c-3.57.83-3.91,7,0,7.57,3.55,0.53,13.86,2.21,11.32,8.17-1.41,3.31-7,3.32-9.86,2.95-8-1-15.5-5.33-22.53-9-6.82-3.54-13.87-7.29-21.46-8.88-9.2-1.93-18.42-.68-27.58.81-4.38.71-4,7.53,0,8.5,6.09,1.46,19.88,8,12.45,16.25-6,6.69-16.93,2-24.09.55a2.35,2.35,0,0,0-1.8,4.28c10,6.8,27,10.31,34-2.67,7.17-13.26-7.08-23.81-18.19-26.92v8.5c6.31-1,12.71-2,19.11-1.37,5.84,0.54,11.58,2.63,16.9,5,9.7,4.32,19.08,10,29.65,11.88,7.11,1.29,17,.41,20.3-7.19,4.67-10.78-7.57-17-16.11-18.47v7.57a45.94,45.94,0,0,1,31.4,4.38c9.4,5.1,15.58,15.31,26.09,18.41,8.44,2.49,18.36-1.27,20.24-10.55,2.17-10.73-9.43-16.84-18.6-16.26v10.29a196.86,196.86,0,0,1,35.43-.18c10,1,20.25,4.32,28.19,10.57,6.69,5.27,12.18,12.25,19.74,16.39,6.91,3.79,16.92,4.68,22.52-1.74a1,1,0,0,0-1.26-1.63h0Z" transform="translate(-158.06 -100.56)"/><circle class="cls-14" cx="2753.55" cy="1520.63" r="187"/><path class="cls-2" d="M2861.31,1529.22c-2.26,6.41.24,13.85,0.67,20.64,0.43,7,.1,14-0.1,20.94-0.44,15.16-1.79,30.32-3.15,45.42-2.66,29.61-11.54,58.58-15,88.25-0.56,4.85,6.61,7.54,9.68,4,22.11-25.42,30-60.42,33.65-93.17a177,177,0,0,0-1.92-49.42,101,101,0,0,0-6.65-21.71,62.14,62.14,0,0,0-5.77-11c-2.24-3.34-3.79-4.77-7.58-6.14-1.67-.6-3.32.69-3.85,2.19h0Z" transform="translate(-158.06 -100.56)"/><path class="cls-2" d="M2961.47,1529.46c-6.53,1-9.66,11.51-12.12,16.69a107.47,107.47,0,0,0-7.89,23.49,276.3,276.3,0,0,0-5.64,49.5,281,281,0,0,0,3.16,49.61c2.3,15.62,4.82,32.6,13.93,45.89,3.86,5.64,11.46,3.12,12.21-3.31,1.84-15.75-1.85-31.86-2.8-47.61a480.12,480.12,0,0,1-.54-48.3c0.66-16.09,2.87-32,4.33-48,0.72-7.89,1.19-15.68,1.45-23.6,0.14-4.29,1.38-15.51-6.09-14.34h0Z" transform="translate(-158.06 -100.56)"/><path class="cls-2" d="M2807.82,1644.59c7.11-2.89,13.78-6.76,20.89-9.68a112.36,112.36,0,0,1,23.09-6.53c15.79-2.8,32.38-2.56,48.35-1.82,33.77,1.56,66.41,11.53,98.52,21.31,5,1.52,8.65-5.07,5-8.66-27.24-27.08-67.51-33-104.43-31.57a175.23,175.23,0,0,0-52.21,9.68c-14.42,5.15-31.85,12.62-39.86,26.48a0.54,0.54,0,0,0,.61.79h0Z" transform="translate(-158.06 -100.56)"/></svg>